<?xml version="1.0" encoding="UTF-8" standalone="no"?>
<!DOCTYPE svg PUBLIC "-//W3C//DTD SVG 1.1//EN" "http://www.w3.org/Graphics/SVG/1.1/DTD/svg11.dtd">
<svg width="100%" height="100%" viewBox="0 0 261 252" version="1.1" xmlns="http://www.w3.org/2000/svg" xmlns:xlink="http://www.w3.org/1999/xlink" xml:space="preserve" xmlns:serif="http://www.serif.com/" style="fill-rule:evenodd;clip-rule:evenodd;stroke-linejoin:round;stroke-miterlimit:2;">
    <g transform="matrix(1,0,0,1,-1509.44,-2863.26)">
        <g id="_1" serif:id="1">
            <path d="M1604.91,2964.59C1598.2,2944.17 1520.96,2940.24 1518.51,2978.1C1516.26,3012.86 1565.04,3004.5 1569.76,3008.74C1572.7,3011.38 1535.73,3089.79 1570.67,3103.55C1609.8,3118.96 1632.42,3044.11 1646.38,3037.83C1647.47,3037.34 1725.94,3101.12 1752.09,3072.97C1787.45,3034.89 1709.8,2978.98 1696.98,2992.45C1696.98,2992.45 1734.39,2968.39 1742.49,2957.45C1755.64,2939.69 1750.74,2900.29 1730.88,2889.25C1684.85,2863.65 1643.32,2963.05 1653.9,2961.8C1653.9,2961.8 1641.43,2874.14 1601.7,2872.27C1573.4,2870.95 1594.84,2949.82 1604.91,2964.59Z" style="fill:white;"/>
            <path d="M1593.45,2949.59C1583.58,2945.76 1569.97,2944.01 1556.89,2945.22C1535.13,2947.22 1515.33,2957.57 1514.02,2977.81C1513.11,2991.86 1519.33,2999.93 1528.01,3004.73C1538.24,3010.39 1552.45,3011.04 1561.52,3011.71C1562.6,3011.79 1563.77,3011.93 1564.77,3012.07C1564.59,3012.8 1564.36,3013.61 1564.13,3014.4C1560.09,3027.75 1549.73,3057.02 1551.2,3079.01C1552.09,3092.33 1557.22,3103.09 1569.02,3107.73C1582.14,3112.9 1593.68,3109.38 1603.78,3101.39C1617.1,3090.86 1627.83,3072.11 1636.4,3057.91C1640.32,3051.39 1643.48,3045.82 1646.39,3043.19C1647.48,3043.96 1648.89,3044.98 1650.6,3046.19C1663.63,3055.47 1692.61,3075.46 1717.47,3082.24C1732.79,3086.42 1746.62,3085.46 1755.39,3076.03C1773.04,3057.03 1765.96,3033.96 1750.81,3015.77C1739.56,3002.25 1723.96,2991.61 1712.24,2987.66C1717.1,2984.32 1722.74,2980.33 1728.05,2976.32C1735.91,2970.37 1743.01,2964.31 1746.11,2960.13C1753.25,2950.47 1755.74,2935.01 1753.55,2920.38C1751.3,2905.39 1744.13,2891.47 1733.07,2885.32C1715.05,2875.3 1697.56,2881.99 1683.07,2895.43C1670.18,2907.4 1659.79,2924.72 1653.71,2938.57C1650.53,2925.94 1645.56,2910.1 1638.31,2896.77C1629.6,2880.74 1617.48,2868.51 1601.91,2867.78C1589.29,2867.19 1583.25,2878.63 1583.12,2895.52C1583,2912.15 1588.07,2933.96 1593.45,2949.59ZM1648.16,2955.03C1645.91,2943.22 1640.48,2919.6 1630.4,2901.07C1623.33,2888.06 1614.12,2877.36 1601.49,2876.77C1597.49,2876.58 1595.21,2879.11 1593.88,2882.9C1591.88,2888.56 1591.76,2896.59 1592.6,2905.36C1594.47,2924.84 1601.33,2947.89 1606.6,2958.48C1607.78,2959.97 1608.65,2961.55 1609.19,2963.19C1609.89,2965.32 1608.91,2967.64 1606.9,2968.63C1604.89,2969.62 1602.46,2968.98 1601.2,2967.13C1600.51,2966.12 1599.77,2964.82 1599,2963.28C1597.33,2961.44 1594.72,2959.92 1591.63,2958.58C1582.81,2954.74 1570,2953.05 1557.72,2954.18C1540.61,2955.75 1524.03,2962.49 1523,2978.39C1522.38,2987.98 1526.44,2993.58 1532.37,2996.86C1541.45,3001.88 1554.13,3002.14 1562.18,3002.73C1567.59,3003.14 1571.43,3004.19 1572.77,3005.4C1573.52,3006.07 1574.46,3007.32 1574.43,3009.48C1574.42,3010.76 1573.83,3013.4 1572.74,3017C1568.9,3029.7 1558.78,3057.49 1560.18,3078.4C1560.82,3087.95 1563.86,3096.03 1572.32,3099.36C1582.11,3103.22 1590.66,3100.29 1598.2,3094.33C1612.9,3082.7 1624.01,3060.3 1632.74,3046.71C1637.07,3039.96 1641.15,3035.25 1644.53,3033.72C1644.88,3033.57 1646.88,3032.73 1649.43,3034.36C1650.36,3034.96 1652.23,3036.3 1654.85,3038.18C1665.12,3045.5 1687.49,3061.28 1709.1,3069.91C1724.81,3076.18 1740.08,3079.29 1748.79,3069.91C1760.12,3057.7 1757.95,3043.41 1750.46,3030.75C1740.78,3014.39 1722.37,3000.52 1709.33,2996.17C1706.74,2995.31 1704.4,2994.82 1702.45,2994.91C1702.02,2994.93 1701.61,2994.96 1701.25,2995.04L1699.42,2996.24C1697.5,2997.47 1694.97,2997.08 1693.52,2995.32C1692.06,2993.56 1692.15,2991 1693.72,2989.35C1694.57,2988.46 1695.62,2987.72 1696.84,2987.17C1701.55,2984.08 1712.69,2976.65 1722.62,2969.14C1729.65,2963.82 1736.1,2958.51 1738.87,2954.77C1744.8,2946.76 1746.47,2933.86 1744.65,2921.72C1742.84,2909.64 1737.6,2898.13 1728.7,2893.18C1714.4,2885.23 1700.69,2891.36 1689.2,2902.03C1674.68,2915.5 1663.58,2936.31 1658.94,2949.73C1658.27,2951.66 1657.76,2953.8 1657.41,2955.57C1658.06,2959.09 1658.35,2961.17 1658.35,2961.17C1658.52,2962.37 1658.2,2963.59 1657.46,2964.55C1656.72,2965.51 1655.62,2966.13 1654.42,2966.27C1651.89,2966.57 1650.03,2965.59 1648.78,2963.49C1647.93,2962.06 1647.42,2959.11 1648.16,2955.03Z"/>
            <path d="M1645.58,3004.22C1645.24,3004.63 1643.35,3006.85 1642.76,3007.43C1641.07,3009.11 1636.75,3012.92 1632.49,3014.9C1630.45,3015.85 1628.45,3016.72 1627.1,3015.5C1625.87,3014.39 1623.97,3014.49 1622.86,3015.72C1621.75,3016.95 1621.85,3018.85 1623.08,3019.96C1625.54,3022.17 1628.9,3022.48 1632.53,3021.33C1638.21,3019.52 1644.68,3013.97 1646.98,3011.7C1647.81,3010.87 1649.67,3009.14 1650.65,3007.49C1651.57,3005.98 1651.81,3004.43 1651.47,3003.18C1651.02,3001.59 1649.37,3000.65 1647.77,3001.09C1646.36,3001.48 1645.47,3002.82 1645.58,3004.22Z"/>
            <path d="M1638.94,2985.42C1637.73,2987.75 1639.08,2988.57 1640.71,2988.69C1641.03,2988.83 1641.38,2988.91 1641.72,2988.93C1642.78,2989.08 1643.88,2988.66 1644.56,2987.74C1645.06,2987.07 1645.2,2986.64 1645.26,2986.47C1645.65,2985.21 1645.22,2984.4 1644.93,2983.94C1644.46,2983.2 1642.9,2981.71 1640.77,2982.99C1640.33,2983.26 1639.5,2984.12 1639.4,2984.27C1639.16,2984.63 1639.01,2985.02 1638.94,2985.42ZM1640.94,2988.7C1640.74,2988.61 1640.55,2988.5 1640.36,2988.37C1639.03,2987.38 1638.75,2985.5 1639.74,2984.17C1639.4,2984.63 1639.13,2985.05 1638.94,2985.42C1638.75,2986.56 1639.21,2987.75 1640.23,2988.43C1640.38,2988.53 1640.55,2988.62 1640.71,2988.69L1640.86,2988.7L1640.94,2988.7Z"/>
            <path d="M1617.65,2993.33C1616.79,2993.82 1615.65,2994.56 1615.37,2995.13C1614.64,2996.61 1615.25,2998.41 1616.73,2999.15C1617.89,2999.72 1619.25,2999.47 1620.13,2998.62C1620.55,2998.46 1621.49,2998.08 1621.77,2997.89C1622.36,2997.48 1622.71,2996.99 1622.92,2996.54C1623.4,2995.48 1623.6,2994.16 1622.11,2992.82C1620.88,2991.71 1618.98,2991.81 1617.87,2993.04C1617.79,2993.13 1617.72,2993.23 1617.65,2993.33ZM1617.25,2995.97C1617.36,2996.4 1617.61,2996.85 1618.09,2997.28C1617.69,2996.91 1617.4,2996.46 1617.25,2995.97Z"/>
        </g>
    </g>
</svg>
