<?xml version="1.0" encoding="UTF-8" standalone="no"?>
<!DOCTYPE svg PUBLIC "-//W3C//DTD SVG 1.1//EN" "http://www.w3.org/Graphics/SVG/1.1/DTD/svg11.dtd">
<svg width="100%" height="100%" viewBox="0 0 372 369" version="1.1" xmlns="http://www.w3.org/2000/svg" xmlns:xlink="http://www.w3.org/1999/xlink" xml:space="preserve" xmlns:serif="http://www.serif.com/" style="fill-rule:evenodd;clip-rule:evenodd;stroke-linejoin:round;stroke-miterlimit:2;">
    <g transform="matrix(1,0,0,1,-1285.96,-3123.41)">
        <g id="_2" serif:id="2">
            <path d="M1434.19,3223.32C1438.43,3206.38 1436.95,3181.51 1431.85,3163.14C1421.51,3125.91 1378.35,3122.03 1356.55,3154.13C1345.62,3170.21 1352.33,3226.22 1347.45,3230.6C1346.83,3231.15 1302.87,3208.59 1295.32,3253.9C1290.15,3284.92 1342.88,3307.57 1342.88,3307.57C1342.88,3307.57 1287.64,3395.53 1320.47,3417.68C1349.84,3437.51 1412.88,3360.01 1412.88,3360.01C1412.88,3360.01 1456.87,3490.55 1490.09,3482.93C1560.92,3466.66 1491.63,3338.75 1489.83,3342.27C1488.59,3344.67 1600.21,3400.67 1642.03,3355.67C1676.41,3318.67 1553.68,3283.26 1530.23,3288.56C1519.88,3290.89 1681.97,3198.29 1623.43,3156.14C1570.18,3117.79 1476.32,3190.04 1434.19,3223.32Z" style="fill:white;"/>
            <path d="M1344.39,3224.77C1337.38,3222.36 1324.07,3218.79 1312.47,3222.84C1302.83,3226.21 1293.99,3234.53 1290.88,3253.16C1288.93,3264.88 1294.04,3275.64 1302.04,3284.65C1312.78,3296.74 1328.68,3305.61 1336.47,3309.51C1329.41,3321.55 1310.14,3356.39 1306.26,3384.3C1304.05,3400.25 1306.95,3413.99 1317.95,3421.41C1327.96,3428.17 1341.46,3425.74 1355.39,3418C1377.53,3405.7 1401.08,3380.44 1411.23,3368.88C1417.46,3386.15 1434.06,3429.76 1452.62,3458.61C1459.84,3469.83 1467.44,3478.85 1474.79,3483.61C1480.33,3487.2 1485.85,3488.52 1491.1,3487.31C1519.12,3480.88 1527.55,3458.77 1526.28,3432.98C1524.91,3405.1 1511.91,3372.91 1502.71,3354.61C1520.54,3362.81 1551.53,3374.36 1581.2,3377.04C1606.12,3379.29 1630.05,3375.17 1645.33,3358.74C1659.66,3343.31 1651.94,3327.77 1633.22,3314.88C1609.3,3298.4 1567.18,3286.39 1543.26,3284.04C1564.38,3269.35 1610.03,3237.54 1630.2,3207.34C1643.89,3186.84 1646.26,3167.03 1626.06,3152.48C1602.56,3135.56 1571.55,3138.62 1540.18,3151.02C1503.26,3165.62 1465.81,3192.98 1440.55,3212.61L1440.55,3212.61C1441.19,3206.38 1441.32,3199.66 1440.99,3192.89C1440.45,3182.13 1438.77,3171.23 1436.18,3161.94C1430.35,3140.91 1414.97,3129.59 1398.2,3128.08C1382.15,3126.64 1364.61,3134.25 1352.83,3151.6C1349.29,3156.81 1347.24,3165.8 1346.25,3176.08C1344.81,3190.97 1345.34,3208.69 1344.86,3219.83C1344.79,3221.51 1344.59,3223.31 1344.39,3224.77ZM1494.25,3340.08C1495.52,3340.85 1497.79,3342.18 1500.07,3343.34C1515.24,3351.04 1549.44,3365.14 1582.01,3368.07C1603.98,3370.06 1625.27,3367.1 1638.73,3352.61C1645.52,3345.31 1644.34,3338.09 1638.67,3331.44C1633.55,3325.43 1625.26,3319.87 1615.54,3314.88C1586.21,3299.84 1543.85,3290.1 1531.22,3292.95C1526.68,3293.97 1525.49,3290.53 1525.3,3289.14C1525.2,3288.46 1525.11,3286.51 1527.16,3284.62C1528.4,3283.46 1531.93,3280.95 1537.04,3277.4C1557.06,3263.47 1602.78,3232.19 1622.71,3202.34C1633.31,3186.47 1636.44,3171.05 1620.8,3159.79C1599.65,3144.55 1571.73,3148.23 1543.49,3159.39C1502.64,3175.55 1461.2,3207.72 1436.98,3226.85C1435.47,3228.04 1433.37,3228.14 1431.75,3227.1C1430.13,3226.05 1429.36,3224.09 1429.83,3222.22C1431.89,3213.96 1432.51,3203.72 1432,3193.34C1431.5,3183.26 1429.93,3173.05 1427.51,3164.35C1422.85,3147.55 1410.79,3138.25 1397.39,3137.05C1384.21,3135.86 1369.95,3142.41 1360.27,3156.66C1357.35,3160.96 1356.02,3168.47 1355.21,3176.94C1353.51,3194.53 1354.58,3216.08 1353.43,3225.97C1352.94,3230.21 1351.62,3232.9 1350.46,3233.95C1350.07,3234.29 1348.5,3235.67 1345.8,3234.84C1345.27,3234.68 1344.19,3234.26 1342.68,3233.71C1337.33,3231.77 1325.59,3227.79 1315.44,3231.34C1308.17,3233.88 1302.1,3240.58 1299.76,3254.64C1298.26,3263.64 1302.62,3271.75 1308.77,3278.67C1322.26,3293.86 1344.65,3303.44 1344.65,3303.44C1345.86,3303.96 1346.78,3304.98 1347.17,3306.23C1347.57,3307.49 1347.39,3308.85 1346.69,3309.97C1346.69,3309.97 1325.49,3343.68 1317.48,3374.27C1313.14,3390.86 1312.07,3406.59 1322.98,3413.95C1327.06,3416.7 1331.97,3416.94 1337.26,3415.74C1344.58,3414.09 1352.52,3409.73 1360.38,3404.22C1385.44,3386.64 1409.38,3357.18 1409.38,3357.18C1410.42,3355.9 1412.06,3355.3 1413.68,3355.59C1415.29,3355.88 1416.62,3357.02 1417.14,3358.58C1417.14,3358.58 1437.09,3417.84 1460.19,3453.74C1465.54,3462.05 1471.02,3469.09 1476.49,3473.68C1480.84,3477.32 1485,3479.48 1489.09,3478.54C1512.12,3473.25 1518.34,3454.62 1517.29,3433.43C1515.81,3403.19 1499.87,3367.68 1491.34,3352.31C1490.11,3350.09 1488.71,3347.93 1487.9,3346.71L1487.67,3346.54C1484.46,3344.05 1485.4,3341.04 1485.82,3340.21C1486.45,3338.99 1487.38,3338.31 1488.45,3337.94C1489.3,3337.66 1491.71,3337.2 1493.95,3339.72L1494.25,3340.08Z"/>
            <path d="M1387.09,3308.48C1387.39,3309.49 1388.57,3313.43 1388.73,3313.94C1389.59,3316.65 1391.2,3319.31 1393.3,3321.45C1395.48,3323.67 1398.2,3325.32 1401.14,3325.98C1406.57,3327.2 1415.18,3323.6 1420.76,3318.12C1425.08,3313.88 1427.42,3308.63 1426.15,3304.06C1425.71,3302.47 1424.06,3301.53 1422.46,3301.97C1420.87,3302.42 1419.93,3304.07 1420.37,3305.67C1421.33,3309.12 1418.15,3312.8 1414.45,3315.68C1410.58,3318.69 1405.77,3320.87 1402.45,3320.13C1400.61,3319.71 1398.94,3318.63 1397.58,3317.24C1396.14,3315.78 1395.04,3313.97 1394.45,3312.12C1394.21,3311.37 1393.07,3306.48 1391.98,3304.87C1391.05,3303.51 1389.84,3303.11 1388.92,3303.11C1387.26,3303.11 1385.92,3304.46 1385.92,3306.11C1385.92,3307.08 1386.38,3307.94 1387.09,3308.48Z"/>
            <path d="M1402.56,3267.11C1402.63,3266.02 1402.21,3265.23 1401.65,3264.65C1400.95,3263.92 1399.52,3263.3 1397.85,3263.82C1395.48,3264.55 1393.29,3267.4 1395.15,3270.26C1396.42,3272.23 1399.29,3272.58 1400.9,3271.71C1401.87,3271.19 1402.49,3270.37 1402.74,3269.4C1402.9,3268.76 1402.94,3267.97 1402.56,3267.11Z"/>
            <path d="M1430.39,3274.18C1430.63,3273.74 1430.77,3273.24 1430.77,3272.71C1430.77,3271.64 1430.34,3270.89 1429.76,3270.36C1429.19,3269.83 1428.34,3269.42 1427.22,3269.51C1426.41,3269.58 1425.13,3270.13 1424.36,3270.88C1423.66,3271.56 1423.31,3272.37 1423.21,3273.05C1422.66,3277.06 1427.23,3277.55 1429.19,3275.99C1429.89,3275.44 1430.25,3274.8 1430.39,3274.18ZM1425.82,3276.03C1426.14,3276.21 1426.55,3276.32 1427.09,3276.32C1426.64,3276.32 1426.2,3276.22 1425.82,3276.03ZM1425.13,3274.13C1424.9,3273.7 1424.77,3273.22 1424.77,3272.71C1424.77,3273.28 1424.91,3273.75 1425.13,3274.13Z"/>
        </g>
    </g>
</svg>
