<?xml version="1.0" encoding="UTF-8" standalone="no"?>
<!DOCTYPE svg PUBLIC "-//W3C//DTD SVG 1.1//EN" "http://www.w3.org/Graphics/SVG/1.1/DTD/svg11.dtd">
<svg width="100%" height="100%" viewBox="0 0 292 319" version="1.1" xmlns="http://www.w3.org/2000/svg" xmlns:xlink="http://www.w3.org/1999/xlink" xml:space="preserve" xmlns:serif="http://www.serif.com/" style="fill-rule:evenodd;clip-rule:evenodd;stroke-linejoin:round;stroke-miterlimit:2;">
    <g transform="matrix(1,0,0,1,-942.038,-3152.17)">
        <g id="_3" serif:id="3">
            <path d="M1037.91,3289.51C1014.74,3282.56 939.714,3288.66 952.492,3330.06C962.673,3363.05 1054.46,3352.64 1054.46,3352.64C1054.46,3352.64 1032.44,3391.18 1030.33,3410.27C1027.45,3436.18 1039.02,3466.49 1067.26,3461.04C1103.75,3454.01 1125.24,3368.05 1125.49,3367.91C1131.17,3364.65 1183.51,3462.26 1217.24,3390.35C1249.52,3321.51 1166.47,3313.03 1164.98,3308.41C1163.69,3304.37 1192.85,3288.38 1204.1,3257.31C1215.99,3224.49 1209.01,3176.42 1168.23,3168.72C1115.34,3158.74 1114.87,3250.35 1114.71,3249.95C1109.07,3236.1 1084.89,3160.88 1055.79,3161.17C983.013,3161.9 1020.69,3277.62 1037.91,3289.51Z" style="fill:white;"/>
            <path d="M1127.93,3375.69C1137.92,3387.28 1158.26,3414.73 1179.09,3420.26C1193.51,3424.09 1208.81,3418.9 1221.31,3392.26C1231.1,3371.39 1230.79,3355.62 1225.67,3343.67C1217.11,3323.7 1194.36,3314.1 1179.34,3309.08L1171.87,3306.56C1172.16,3306.27 1172.45,3305.99 1172.74,3305.73C1178.09,3300.79 1186.99,3293.21 1195.02,3282.73C1200.2,3275.97 1205,3268.03 1208.33,3258.84C1215.87,3238.03 1216.12,3211.41 1205.88,3191.69C1198.83,3178.09 1186.9,3167.66 1169.06,3164.3C1148.99,3160.51 1135.61,3169.67 1126.74,3183.55C1117.96,3197.29 1113.84,3215.92 1111.92,3229.94C1105.8,3214.16 1096.6,3192.53 1085.57,3177.17C1076.66,3164.78 1066.31,3156.56 1055.74,3156.67C1025.26,3156.97 1012.28,3175.5 1009.03,3199.16C1005.52,3224.73 1013.96,3256.61 1023.15,3275.85C1024.42,3278.5 1025.71,3280.92 1027,3283.07L1027,3283.07C1010.72,3281.59 987.353,3283.49 970.3,3290.98C953.021,3298.57 942.08,3311.58 948.192,3331.39C951.55,3342.26 962.398,3349.42 976.573,3353.48C999.634,3360.08 1031.47,3358.91 1046.49,3357.85C1042.99,3364.41 1037.85,3374.49 1033.58,3384.61C1029.72,3393.76 1026.61,3402.95 1025.85,3409.77C1024.03,3426.2 1027.77,3444.22 1037.16,3455.18C1044.29,3463.49 1054.53,3468.08 1068.12,3465.46C1082.09,3462.77 1094.35,3449.71 1103.96,3433.52C1116.17,3412.96 1124.4,3387.61 1127.91,3375.76L1127.93,3375.69ZM1036.62,3293.82C1038.74,3294.46 1041.01,3293.46 1041.96,3291.46C1042.92,3289.46 1042.29,3287.07 1040.46,3285.81C1037.7,3283.9 1034.54,3278.81 1031.27,3271.97C1022.69,3254 1014.67,3224.26 1017.95,3200.39C1020.59,3181.13 1031.03,3165.92 1055.83,3165.67C1060.32,3165.62 1064.58,3167.96 1068.71,3171.56C1074.23,3176.38 1079.37,3183.46 1084.08,3191.4C1097.5,3214 1107.23,3243.51 1110.54,3251.65C1110.65,3251.93 1119,3255.59 1119.24,3249.46C1119.28,3248.48 1119.36,3246.44 1119.55,3243.61C1120.37,3231.72 1123.2,3205.8 1134.32,3188.4C1141.27,3177.52 1151.67,3170.18 1167.39,3173.14C1186.03,3176.66 1196.85,3189.52 1201.69,3205.16C1206.68,3221.28 1205.47,3240.32 1199.87,3255.78C1196.87,3264.05 1192.53,3271.18 1187.88,3277.26C1178.51,3289.49 1167.87,3297.56 1163.62,3302.04C1160.55,3305.26 1160.2,3308.22 1160.7,3309.78C1160.96,3310.59 1161.49,3311.55 1162.59,3312.41C1163.53,3313.13 1165.67,3314.09 1168.76,3315.11C1178.4,3318.29 1199.89,3323.92 1211.98,3338.46C1220.95,3349.24 1224.14,3365.01 1213.16,3388.43C1203.47,3409.1 1192.58,3414.53 1181.4,3411.56C1161.98,3406.4 1143.58,3379.99 1134.45,3369.47C1131.55,3366.14 1129.12,3364.17 1127.74,3363.67C1125.93,3363.02 1124.44,3363.33 1123.26,3364C1123.18,3364.04 1121.67,3364.84 1120.96,3367.33C1120.69,3368.31 1120.12,3370.35 1119.28,3373.2C1115.89,3384.63 1108,3409.1 1096.22,3428.93C1088.07,3442.65 1078.26,3454.34 1066.41,3456.62C1056.59,3458.51 1049.15,3455.33 1044,3449.32C1036.05,3440.04 1033.25,3424.68 1034.8,3410.76C1035.48,3404.62 1038.4,3396.36 1041.88,3388.11C1048.91,3371.44 1058.37,3354.88 1058.37,3354.88C1059.21,3353.41 1059.15,3351.59 1058.22,3350.17C1057.29,3348.75 1055.64,3347.98 1053.96,3348.17C1053.96,3348.17 1018.26,3352.24 989.331,3347.15C973.893,3344.44 960.147,3339.6 956.792,3328.73C952.264,3314.06 961.118,3304.84 973.919,3299.22C994.011,3290.39 1023.73,3289.95 1036.62,3293.82Z"/>
            <path d="M1081.38,3345.35C1087.62,3350.97 1096.98,3350.87 1104.82,3347.12C1112.66,3343.38 1118.74,3336.08 1118.74,3328.16C1118.74,3326.5 1117.39,3325.16 1115.74,3325.16C1114.08,3325.16 1112.74,3326.5 1112.74,3328.16C1112.74,3333.93 1107.95,3338.98 1102.24,3341.71C1096.61,3344.4 1089.87,3344.92 1085.39,3340.89C1084.16,3339.78 1082.26,3339.89 1081.15,3341.12C1080.05,3342.35 1080.15,3344.25 1081.38,3345.35Z"/>
            <path d="M1110.85,3288.9C1110.2,3288.94 1109.56,3289.2 1109.04,3289.66C1101.31,3296.63 1109.16,3295.34 1111.7,3294.8C1112.73,3294.86 1113.75,3294.39 1114.37,3293.48C1115.29,3292.11 1114.93,3290.24 1113.56,3289.32C1113.04,3288.97 1112.43,3288.76 1111.73,3288.76C1111.49,3288.75 1111.16,3288.82 1110.85,3288.9ZM1113.24,3293.95L1113.06,3294.12C1113.12,3294.06 1113.18,3294 1113.24,3293.95Z"/>
            <path d="M1060.5,3304.95C1059.24,3305.97 1059.03,3307.81 1060.02,3309.1C1060.91,3310.25 1062.47,3310.58 1063.72,3309.96C1064.18,3309.89 1065.63,3309.67 1066.06,3309.45C1066.71,3309.12 1067.16,3308.66 1067.46,3308.14C1067.88,3307.41 1068.11,3306.5 1067.68,3305.32C1066.85,3303.09 1065.34,3302.72 1063.96,3302.85C1062.78,3302.95 1061.04,3304.45 1060.59,3304.86L1060.5,3304.95Z"/>
        </g>
    </g>
</svg>
