<?xml version="1.0" encoding="UTF-8" standalone="no"?>
<!DOCTYPE svg PUBLIC "-//W3C//DTD SVG 1.1//EN" "http://www.w3.org/Graphics/SVG/1.1/DTD/svg11.dtd">
<svg width="100%" height="100%" viewBox="0 0 419 330" version="1.1" xmlns="http://www.w3.org/2000/svg" xmlns:xlink="http://www.w3.org/1999/xlink" xml:space="preserve" xmlns:serif="http://www.serif.com/" style="fill-rule:evenodd;clip-rule:evenodd;stroke-linejoin:round;stroke-miterlimit:2;">
    <g transform="matrix(1,0,0,1,-444.009,-3153.05)">
        <g id="_4" serif:id="4">
            <path d="M600.542,3280.16C600.693,3280.43 579.716,3271.91 557.115,3272.47C524.268,3273.28 450.967,3299.57 453.052,3340.59C456.001,3398.58 576.872,3387.51 577.676,3375.79C577.705,3375.37 573.309,3409.36 575.055,3421.93C578.96,3450.06 612.389,3476.97 639.547,3473.65C704.929,3465.66 697.683,3384.43 701.266,3382.11C704.487,3380.03 735.784,3404.52 757.67,3404.81C788.919,3405.23 851.894,3387.12 853.128,3352.5C856.297,3263.57 738.25,3291.1 735.534,3285.84C733.848,3282.57 807.716,3213.65 753.31,3183.79C734.527,3173.48 718.697,3178.92 707.717,3192.37C695.711,3207.09 681.235,3232.44 681.235,3232.44C681.235,3232.44 661.996,3195.55 652.41,3184.05C632.21,3159.82 616.341,3154.28 582.022,3174.11C534.192,3201.74 601.124,3277.54 600.542,3280.16Z" style="fill:white;"/>
            <path d="M589.735,3272.18C581.273,3269.97 569.372,3267.67 557.005,3267.97C537.26,3268.46 503.327,3277.83 478.895,3293.98C460.48,3306.15 447.613,3322.24 448.558,3340.82C449.734,3363.94 467.634,3377.43 490.477,3384.1C519.646,3392.62 556.636,3390.01 572.069,3384.85L572.093,3384.84C570.916,3396.05 569.419,3414.06 570.598,3422.55C572.675,3437.51 582.402,3452.22 595.356,3462.76C608.652,3473.58 625.268,3479.93 640.092,3478.12C661.061,3475.56 675.045,3465.93 684.485,3453.69C700.806,3432.53 703.192,3403.2 704.465,3389.62L704.651,3387.89C705.089,3388.11 705.528,3388.33 705.94,3388.55C712.231,3391.91 721.979,3397.86 732.277,3402.48C740.844,3406.32 749.797,3409.21 757.609,3409.31C776.151,3409.56 805.511,3403.51 827.379,3391.52C844.607,3382.07 857.048,3368.84 857.625,3352.66C858.696,3322.6 846.694,3305.01 829.914,3294.7C803.027,3278.19 762.842,3281.18 744.606,3281.96L743.59,3281.99C752.612,3270.73 771.785,3247.45 776.643,3225.03C780.338,3207.98 776.393,3191.33 755.475,3179.85C745.488,3174.36 736.225,3172.96 727.955,3174.5C718.765,3176.21 710.717,3181.58 704.23,3189.53C700.453,3194.16 696.434,3199.81 692.683,3205.43C688.288,3212.01 684.262,3218.54 681.435,3223.24C678.274,3217.37 673.521,3208.72 668.7,3200.57C664.06,3192.72 659.34,3185.34 655.866,3181.17C643.999,3166.93 633.304,3158.94 620.277,3157.72C609.388,3156.7 596.625,3160.47 579.771,3170.21C560.819,3181.16 557.704,3198.77 561.904,3217.2C566.614,3237.88 580.9,3259.59 589.735,3272.18ZM582.085,3376.73L582.076,3376.82C581.987,3377.5 581.808,3378.93 581.581,3380.89C580.493,3390.27 578.209,3411.93 579.513,3421.32C581.3,3434.19 589.889,3446.71 601.037,3455.78C612.354,3464.99 626.383,3470.72 639.001,3469.18C657.096,3466.97 669.212,3458.76 677.359,3448.19C692.466,3428.61 694.326,3401.35 695.505,3388.78C695.85,3385.1 696.217,3382.47 696.649,3381.24C697.209,3379.64 698.12,3378.79 698.82,3378.34C699.955,3377.6 703.065,3377.13 707.258,3379.12C713.988,3382.32 727.671,3391.27 741.4,3396.54C747.028,3398.7 752.65,3400.24 757.73,3400.31C775.092,3400.55 802.576,3394.85 823.052,3383.63C837.191,3375.88 848.157,3365.62 848.631,3352.34C849.551,3326.52 839.619,3311.22 825.205,3302.37C799.947,3286.86 762.117,3290.22 744.986,3290.95C740.187,3291.15 736.744,3291.07 735.159,3290.65C733.075,3290.09 732.045,3288.89 731.536,3287.9C731.091,3287.04 730.568,3285.39 731.619,3283.2C732.157,3282.08 733.705,3279.94 735.999,3277.07C744.225,3266.77 763.191,3244.61 767.848,3223.12C770.745,3209.75 767.55,3196.74 751.145,3187.74C743.312,3183.44 736.085,3182.14 729.599,3183.35C722.435,3184.68 716.26,3189.02 711.203,3195.22C707.592,3199.64 703.754,3205.06 700.168,3210.43C692.005,3222.65 685.143,3234.68 685.143,3234.68C684.327,3236.1 682.795,3236.97 681.149,3236.94C679.504,3236.91 678.006,3235.98 677.245,3234.53C677.245,3234.53 669.201,3219.1 660.953,3205.15C656.602,3197.79 652.211,3190.84 648.953,3186.93C638.986,3174.97 630.379,3167.7 619.438,3166.68C609.948,3165.79 598.962,3169.52 584.273,3178C569.342,3186.63 567.37,3200.68 570.679,3215.21C575.732,3237.39 592.602,3260.73 600.247,3271.45C602.24,3274.24 603.658,3276.27 604.231,3277.31C604.5,3277.8 604.685,3278.26 604.809,3278.68C605.484,3280.41 604.938,3281.81 604.126,3282.88C603.793,3283.32 602.467,3285.16 599.585,3284.56C599.447,3284.53 599.147,3284.46 598.704,3284.31C598.085,3284.11 596.795,3283.65 594.959,3283.06C588.012,3280.83 573.034,3276.58 557.226,3276.97C538.673,3277.42 506.815,3286.31 483.858,3301.49C468.368,3311.73 456.752,3324.73 457.546,3340.36C458.52,3359.51 474.087,3369.94 493.001,3375.46C516.01,3382.19 544.206,3381.56 561.205,3378.32C566.947,3377.22 572.682,3374.66 573.519,3374.28C574.417,3372.28 576.561,3372.57 578.488,3373.45C580.389,3373.24 582.082,3373.74 582.126,3375.99C582.154,3376.03 582.167,3376.07 582.165,3376.09C582.151,3376.31 582.126,3376.52 582.085,3376.73Z"/>
            <path d="M605.172,3320.74C599.681,3333.09 603.259,3347.61 611.754,3358.25C620.274,3368.93 633.61,3375.56 647.04,3372.54C651.68,3371.5 657.683,3369.8 662.458,3366.85C666.19,3364.53 669.183,3361.46 670.648,3357.51C671.367,3355.57 670.375,3353.41 668.434,3352.69C666.493,3351.97 664.334,3352.96 663.615,3354.9C662.724,3357.31 660.779,3359.07 658.509,3360.47C654.456,3362.98 649.333,3364.34 645.395,3365.22C634.768,3367.61 624.358,3362.02 617.616,3353.58C610.855,3345.11 607.656,3333.62 612.026,3323.78C612.866,3321.89 612.013,3319.67 610.122,3318.83C608.23,3317.99 606.012,3318.85 605.172,3320.74Z"/>
            <path d="M650.558,3283.91C650.768,3284.03 650.993,3284.12 651.231,3284.2C653.203,3284.82 655.313,3283.73 655.94,3281.76C656.641,3279.55 655.944,3277.9 654.603,3276.69C653.314,3275.51 650.67,3274.91 648.706,3275.19C644.987,3275.74 644.016,3278.9 644.61,3280.74C644.85,3281.49 645.534,3282.9 647.925,3283.86C648.801,3284.21 649.733,3284.2 650.558,3283.91ZM648.752,3279.64L648.792,3279.49C648.776,3279.54 648.762,3279.59 648.752,3279.64Z"/>
            <path d="M675.461,3294.24C676.838,3293.68 677.81,3292.34 677.81,3290.76C677.81,3288.37 676.658,3287.4 676.025,3286.95C674.705,3286.03 672.652,3285.72 670.822,3287.46C669.812,3288.43 668.959,3290.51 668.964,3291.56C668.969,3292.76 669.439,3293.65 670.018,3294.28C670.755,3295.08 671.81,3295.71 673.429,3295.5C674.33,3295.38 674.985,3294.88 675.461,3294.24ZM673.665,3294.97C672.72,3295.1 671.726,3294.88 670.903,3294.26C672.04,3295.11 672.994,3295.13 673.665,3294.97ZM676.344,3292.39L676.451,3292C676.428,3292.17 676.385,3292.34 676.312,3292.49L676.344,3292.39ZM672.303,3288.09C669.879,3288.57 669.43,3292.26 669.43,3292.26C669.43,3292.26 670.941,3289.38 672.303,3288.09ZM670.37,3291.42L670.374,3291.43L670.352,3291.29L670.37,3291.42ZM670.329,3291.13L670.31,3290.76C670.31,3290.89 670.316,3291.01 670.329,3291.13Z"/>
        </g>
    </g>
</svg>
