<?xml version="1.0" encoding="UTF-8" standalone="no"?>
<!DOCTYPE svg PUBLIC "-//W3C//DTD SVG 1.1//EN" "http://www.w3.org/Graphics/SVG/1.1/DTD/svg11.dtd">
<svg width="100%" height="100%" viewBox="0 0 242 287" version="1.1" xmlns="http://www.w3.org/2000/svg" xmlns:xlink="http://www.w3.org/1999/xlink" xml:space="preserve" xmlns:serif="http://www.serif.com/" style="fill-rule:evenodd;clip-rule:evenodd;stroke-linejoin:round;stroke-miterlimit:2;">
    <g transform="matrix(1,0,0,1,-362.298,-2868.12)">
        <g id="_5" serif:id="5">
            <path d="M465.462,2994.87C442.024,2977.27 372.282,2987.99 371.314,3020.46C370.258,3055.84 423.66,3041.91 423.736,3041.98C424.197,3042.39 405.238,3134.76 442.709,3145.27C471.372,3153.31 493.418,3052.53 497.134,3042.49C497.98,3040.2 559.241,3127.96 590.715,3087.66C611.153,3061.49 545.288,3008.74 539.616,3007.72C538.566,3007.54 617.912,2953.29 587.314,2919.96C560.841,2891.13 511.572,2967.11 511.572,2967.11C519.788,2960.24 516.375,2856.18 472.794,2880.91C429.376,2905.56 455.987,2978.18 465.462,2994.87Z" style="fill:white;"/>
            <path d="M418.365,3047.63L418.141,3049.11C415.923,3064.19 411.994,3097.51 418.264,3121.32C421.97,3135.39 429.274,3146.17 441.494,3149.6C447.612,3151.32 453.578,3149.49 459.165,3144.73C464.12,3140.5 468.853,3133.79 473.17,3125.67C485.565,3102.36 494.884,3067.05 499.221,3051.31C508.206,3061.84 526.791,3083.43 546.056,3094.86C563.324,3105.1 581.064,3107.33 594.262,3090.43C603.261,3078.91 598.586,3062.68 587.825,3047.27C575.858,3030.12 557,3013.84 547.518,3007.15L547.515,3007.15L547.567,3007.11C557.404,2999.36 578.468,2981.99 590.156,2963.23C600.029,2947.38 603.178,2930.59 590.628,2916.92C581.298,2906.76 569.646,2907.07 557.786,2913.14C543.677,2920.36 529.263,2936.31 519.562,2948.57C519.909,2933.52 517.82,2912.87 511.934,2897.23C507.507,2885.47 500.781,2876.57 491.993,2873.68C485.985,2871.7 478.865,2872.29 470.573,2877C453.166,2886.88 445.936,2903.75 444.476,2922.15C442.675,2944.84 449.817,2969.83 456.085,2985.38L456.085,2985.38C440.24,2980.41 417.878,2981.03 399.639,2987.06C381.165,2993.16 367.279,3004.81 366.816,3020.33C366.395,3034.45 373.279,3041.98 382.535,3045.84C393.97,3050.6 409.653,3049.1 418.365,3047.63ZM508.618,2963.44C508.763,2963.08 508.945,2962.6 509.058,2962.2C509.658,2960.04 510.085,2957.03 510.346,2953.44C511.369,2939.36 509.715,2916.89 503.511,2900.4C500.191,2891.58 495.771,2884.4 489.181,2882.23C485.189,2880.92 480.525,2881.7 475.015,2884.83C460.421,2893.11 454.672,2907.43 453.448,2922.86C451.23,2950.81 463.604,2982.48 469.375,2992.64C470.428,2994.5 470.035,2996.84 468.434,2998.24C466.834,2999.65 464.464,2999.74 462.76,2998.47C452.154,2990.5 431.334,2989.14 412.655,2992.92C393.667,2996.76 376.257,3005.66 375.812,3020.6C375.534,3029.91 379.893,3034.99 385.996,3037.53C396.829,3042.05 412.082,3039.71 418.972,3038.39C420.603,3038.07 421.78,3037.8 422.343,3037.68C425.187,3037.03 426.705,3038.6 426.747,3038.64C426.906,3038.78 428.554,3040.24 428.134,3043.27C427.994,3044.28 427.648,3046.38 427.208,3049.32C425.44,3061.12 422.081,3086.78 424.956,3108.55C426.985,3123.9 431.737,3137.52 443.924,3140.93C447.223,3141.86 450.312,3140.45 453.325,3137.88C457.575,3134.26 461.519,3128.41 465.224,3121.45C480.169,3093.34 490.479,3047.5 492.914,3040.93C493.66,3038.91 495.104,3037.94 497.216,3037.95C497.762,3037.95 499.279,3038.07 500.907,3039.63C501.829,3040.51 503.637,3042.62 506.134,3045.55C516.276,3057.44 538.93,3084.19 560.499,3091.85C570.235,3095.31 579.713,3094.44 587.169,3084.89C594.007,3076.14 588.622,3064.13 580.445,3052.42C569.131,3036.21 551.292,3020.83 542.328,3014.5C540.71,3013.36 538.772,3012.25 538.479,3012.08C536.16,3011.55 535.232,3009.99 535.114,3007.98C535.08,3007.41 535.026,3006.14 536.203,3004.75C536.35,3004.58 536.708,3004.21 537.314,3003.71C538.222,3002.97 540.188,3001.47 542.86,2999.36C554.2,2990.38 578.935,2969.9 587.254,2949.33C590.982,2940.1 591.204,2930.86 583.999,2923.01C575.624,2913.89 564.605,2918.3 554.037,2926.09C536.38,2939.09 520.034,2962.57 516.194,2968.28C515.624,2969.32 515.025,2970.09 514.46,2970.56C512.752,2971.99 510.256,2971.95 508.589,2970.48C506.922,2969 506.585,2966.53 507.796,2964.66C507.796,2964.66 508.08,2964.23 508.618,2963.44Z"/>
            <path d="M463.474,3030.11C464.177,3032.01 465.676,3033.31 467.841,3033.92C470.152,3034.58 473.475,3034.34 476.893,3033.32C481.018,3032.08 485.284,3029.76 487.883,3027.16C489.873,3025.18 490.931,3022.96 490.931,3020.88C490.931,3019.22 489.587,3017.88 487.931,3017.88C486.275,3017.88 484.931,3019.22 484.931,3020.88C484.931,3021.7 484.189,3022.43 483.344,3023.2C481.822,3024.61 479.664,3025.85 477.416,3026.77C475.125,3027.71 472.734,3028.32 470.795,3028.3C470.311,3028.3 469.865,3028.26 469.476,3028.15C469.328,3028.11 469.148,3028.15 469.1,3028.02C468.526,3026.47 466.798,3025.68 465.245,3026.25C463.693,3026.83 462.899,3028.55 463.474,3030.11Z"/>
            <path d="M498.097,2993.97C499.226,2993.54 500.027,2992.45 500.027,2991.17C500.027,2989.52 498.683,2988.17 497.027,2988.17C496.174,2988.17 494.461,2988.89 493.882,2989.49C493.277,2990.11 493.054,2990.79 492.989,2991.33C492.853,2992.47 493.106,2993.75 494.813,2994.52C495.95,2995.03 497.24,2994.78 498.097,2993.97ZM498.92,2990.94C498.778,2990.22 498.332,2989.52 497.276,2989.05C498.106,2989.42 498.683,2990.13 498.92,2990.94Z"/>
            <path d="M440.858,3015.59L440.796,3015.63L440.748,3015.68C440.684,3015.74 440.619,3015.8 440.555,3015.86C439.86,3016.53 438.422,3018.33 438.187,3019.39C437.828,3021.01 438.848,3022.61 440.465,3022.97C441.952,3023.3 443.428,3022.46 443.932,3021.07C444.064,3020.91 444.554,3020.34 444.722,3020.18L444.78,3020.12L444.811,3020.09C444.863,3020.05 444.911,3019.99 444.955,3019.94C446.726,3018.06 445.986,3016.6 444.637,3015.82C443.884,3014.67 442.578,3014.12 440.858,3015.59Z"/>
        </g>
    </g>
</svg>
