<?xml version="1.0" standalone="no"?>
<!DOCTYPE svg PUBLIC "-//W3C//DTD SVG 20010904//EN"
 "http://www.w3.org/TR/2001/REC-SVG-20010904/DTD/svg10.dtd">
<svg version="1.0" xmlns="http://www.w3.org/2000/svg"
 width="700.000000pt" height="700.000000pt" viewBox="0 0 700.000000 700.000000"
 preserveAspectRatio="xMidYMid meet">
<metadata>
Created by potrace 1.11, written by Peter Selinger 2001-2013
</metadata>
<g transform="translate(0.000000,700.000000) scale(0.100000,-0.100000)"
fill="#000000" stroke="none">
<path d="M4709 6889 c-87 -11 -207 -55 -304 -110 -102 -57 -216 -168 -249
-240 -78 -170 -135 -527 -191 -1204 -54 -658 -75 -1045 -78 -1405 -2 -257 -3
-278 -23 -315 -32 -62 -74 -85 -153 -85 -78 0 -117 20 -155 77 -36 55 -65 170
-77 308 -40 455 -217 1409 -345 1860 -63 219 -193 452 -337 602 -141 147 -258
205 -412 207 -86 1 -95 -1 -168 -37 -255 -126 -483 -568 -578 -1122 -49 -284
-36 -582 56 -1310 103 -818 121 -1094 135 -2085 7 -462 13 -662 24 -736 39
-267 109 -457 233 -632 61 -86 222 -243 306 -299 188 -125 506 -209 924 -244
184 -15 691 -6 862 15 383 49 655 138 785 257 199 182 347 621 435 1291 45
338 71 724 71 1048 0 102 7 374 15 605 20 579 19 1038 -5 1555 -22 466 -33
595 -80 872 -88 521 -187 857 -292 991 -84 106 -234 157 -399 136z m224 -172
c25 -15 58 -42 71 -60 81 -106 182 -467 255 -907 48 -289 59 -410 82 -899 27
-583 22 -1101 -21 -2391 -31 -918 -196 -1685 -416 -1929 -61 -68 -126 -107
-253 -151 -226 -80 -503 -119 -892 -127 -425 -9 -728 22 -1007 103 -182 53
-293 117 -422 246 -223 222 -320 463 -349 868 -6 80 -13 397 -15 705 -8 831
-33 1212 -131 1955 -64 487 -79 657 -79 905 -1 175 4 257 17 343 66 411 222
786 401 966 79 79 125 101 211 100 96 0 178 -38 274 -129 166 -157 280 -360
355 -630 103 -373 291 -1375 316 -1680 23 -282 54 -406 126 -501 113 -148 365
-162 484 -27 22 25 49 70 61 102 21 53 23 78 30 436 8 428 39 935 95 1545 35
392 83 698 134 862 24 78 81 148 172 210 125 84 234 119 363 115 78 -2 98 -7
138 -30z"/>
<path d="M4603 5904 c-74 -37 -117 -135 -139 -319 -35 -292 -36 -324 -25 -590
29 -675 56 -880 129 -996 42 -66 92 -94 167 -93 102 0 172 50 220 157 61 132
77 352 66 907 -8 405 -9 417 -35 514 -31 114 -76 228 -109 273 -68 93 -109
144 -126 153 -29 15 -112 12 -148 -6z"/>
<path d="M2380 5839 c-53 -10 -84 -31 -127 -88 -53 -69 -68 -135 -68 -296 0
-116 6 -168 33 -305 17 -91 48 -271 67 -400 43 -279 64 -378 116 -556 50 -170
87 -252 141 -310 52 -57 107 -83 171 -84 136 0 208 100 242 340 20 144 19 290
-5 466 -11 82 -24 226 -30 319 -18 303 -33 404 -82 555 -55 169 -91 225 -183
283 -22 13 -53 39 -69 56 -27 28 -34 30 -95 29 -36 -1 -86 -5 -111 -9z"/>
<path d="M2860 3074 c-210 -25 -344 -62 -427 -120 -208 -143 -216 -335 -18
-412 57 -22 169 -33 344 -33 310 -1 525 43 665 136 111 73 145 152 105 244
-35 83 -110 137 -231 167 -62 15 -360 27 -438 18z m460 -137 c30 -11 70 -35
88 -53 43 -43 42 -77 -3 -120 -35 -33 -161 -101 -170 -92 -3 3 2 21 10 41 31
74 13 172 -43 230 l-27 28 45 -7 c25 -4 70 -16 100 -27z m-636 -34 c-42 -83
-27 -181 40 -260 l28 -33 -44 0 c-105 1 -230 19 -274 41 -55 26 -67 51 -47 99
31 77 136 151 263 184 30 8 56 15 56 15 1 1 -9 -20 -22 -46z"/>
<path d="M4415 3073 c-81 -10 -198 -38 -294 -70 -177 -58 -257 -106 -291 -173
-70 -137 45 -265 295 -331 377 -98 896 77 895 303 0 48 -41 128 -87 169 -90
81 -324 127 -518 102z m362 -135 c81 -27 133 -79 133 -135 0 -29 -8 -43 -40
-74 -32 -31 -152 -99 -173 -99 -3 0 1 16 9 35 34 81 13 152 -83 284 l-18 24
54 -7 c30 -4 83 -16 118 -28z m-572 -35 c-51 -117 -55 -194 -16 -272 26 -51
21 -52 -87 -15 -178 59 -234 138 -144 203 33 23 214 97 246 100 4 1 5 -7 1
-16z"/>
<path d="M3625 2411 c-27 -13 -51 -36 -75 -72 -19 -30 -51 -76 -72 -104 -42
-58 -85 -150 -133 -285 -18 -52 -41 -113 -50 -135 -23 -53 -24 -169 -2 -211
40 -77 134 -121 233 -107 l46 6 -7 -43 c-22 -129 -82 -238 -189 -345 -177
-176 -324 -193 -416 -48 -35 55 -96 232 -84 242 5 4 35 18 67 31 82 32 121 72
142 145 47 161 -33 318 -208 407 -88 44 -154 48 -260 14 -238 -74 -386 -286
-295 -422 40 -60 108 -122 163 -149 54 -27 168 -55 225 -55 l35 0 25 -83 c38
-128 82 -208 150 -270 74 -69 136 -92 224 -84 173 16 409 220 496 430 l23 56
24 -71 c51 -151 111 -231 210 -280 63 -31 75 -33 168 -33 95 0 104 2 179 38
134 64 238 187 352 419 37 75 38 76 83 83 168 25 329 169 356 317 14 76 -37
229 -99 296 -75 82 -157 100 -277 62 -90 -29 -116 -45 -218 -133 -97 -84 -141
-151 -141 -217 0 -91 59 -205 137 -265 24 -19 49 -35 55 -37 13 -5 -66 -166
-120 -245 -87 -128 -174 -184 -297 -191 -70 -3 -86 -1 -125 20 -97 52 -148
169 -194 445 l-5 32 45 -16 c107 -36 233 7 282 97 21 40 23 54 19 130 -3 67
-12 105 -41 180 -20 52 -48 124 -61 160 -14 38 -53 103 -92 155 -58 76 -78 95
-131 122 -73 38 -92 40 -147 14z"/>
</g>
</svg>
