<?xml version="1.0" encoding="UTF-8" standalone="no"?>
<!DOCTYPE svg PUBLIC "-//W3C//DTD SVG 1.1//EN" "http://www.w3.org/Graphics/SVG/1.1/DTD/svg11.dtd">
<svg width="100%" height="100%" viewBox="0 0 927 1066" version="1.1" xmlns="http://www.w3.org/2000/svg" xmlns:xlink="http://www.w3.org/1999/xlink" xml:space="preserve" xmlns:serif="http://www.serif.com/" style="fill-rule:evenodd;clip-rule:evenodd;stroke-linejoin:round;stroke-miterlimit:2;">
    <g transform="matrix(1,0,0,1,-709.258,-839.701)">
        <g id="Bongles-House" serif:id="Bongles House">
            <g id="Bongles-House1" serif:id="Bongles House">
                <g id="House">
                    <g id="Facade">
                        <path d="M743.57,1380.44C743.205,1381.49 742.276,1423.33 742.643,1440.34C743.577,1483.61 746.06,1576.52 745.03,1604.51C743.031,1658.84 746.16,1711.21 745.535,1765.61C745.389,1778.3 753.381,1886.49 756.017,1894.87C756.627,1896.81 849.211,1892.84 902.814,1893.24C927.723,1893.43 1130.82,1880.85 1143.7,1880.4C1179.89,1879.15 1268.71,1879.28 1326.62,1876.6C1397.94,1873.29 1437.5,1873.31 1508.85,1870.86C1530.12,1870.13 1619.17,1868.73 1619.01,1867.16C1617.22,1850.23 1621.04,1808.73 1619.04,1797.16C1617.31,1787.2 1618.88,1734.18 1619.1,1728.62C1619.38,1721.33 1613.68,1630.95 1613.63,1610.62C1613.58,1585 1615.22,1526.98 1614.69,1515.59C1613.88,1498.16 1612.07,1425.93 1610.44,1381.59C1610.14,1373.5 1616.64,1320.31 1607.01,1317.69C1589.49,1312.93 741.625,1338.86 741.302,1342.64C741.084,1345.19 744.411,1378.03 743.57,1380.44Z" style="fill:white;"/>
                        <path d="M734.2,1379.08C734.1,1379.7 734.009,1380.48 733.959,1381.41C733.54,1389.2 732.811,1425.05 733.146,1440.55C734.076,1483.67 736.563,1576.26 735.537,1604.16C733.534,1658.58 736.662,1711.02 736.036,1765.5C735.886,1778.48 744.258,1889.15 746.954,1897.72C747.45,1899.3 748.392,1901.06 750.37,1902.54C751.023,1903.02 753.624,1904.55 758.367,1904.78C774.336,1905.55 854.369,1902.38 902.742,1902.74C927.693,1902.93 1131.13,1890.35 1144.03,1889.9C1180.24,1888.64 1269.12,1888.77 1327.07,1886.09C1398.34,1882.78 1437.87,1882.81 1509.18,1880.35C1528.42,1879.69 1602.86,1878.47 1617.43,1877.08C1622.54,1876.6 1625.11,1874.51 1625.62,1874.01C1628.21,1871.49 1628.72,1868.69 1628.46,1866.16C1626.65,1849.08 1630.42,1807.21 1628.4,1795.54C1626.72,1785.87 1628.38,1734.39 1628.59,1728.99C1628.88,1721.68 1623.18,1630.99 1623.13,1610.6C1623.08,1584.86 1624.71,1526.59 1624.18,1515.15C1623.37,1497.74 1621.56,1425.56 1619.93,1381.25C1619.69,1374.59 1623.69,1338.22 1620.32,1322.56C1618.5,1314.1 1613.79,1309.69 1609.5,1308.52C1606.24,1307.64 1575.19,1307.44 1526.46,1308.3C1337.69,1311.59 874.914,1325.87 764.671,1331.4C749.841,1332.15 740.948,1332.89 739.29,1333.3C732.57,1334.95 731.963,1340.34 731.836,1341.83C731.636,1344.17 734.283,1371.52 734.206,1378.76C734.204,1378.89 734.197,1379.09 734.197,1379.09C734.197,1379.09 734.465,1377.73 734.59,1377.35L734.2,1379.08ZM1601.62,1326.58C1601.94,1328.09 1602.33,1330.19 1602.47,1331.9C1603.87,1348.8 1600.74,1376.33 1600.95,1381.94C1602.58,1426.31 1604.39,1498.59 1605.2,1516.03C1605.73,1527.37 1604.08,1585.13 1604.13,1610.64C1604.18,1630.9 1609.89,1720.99 1609.61,1728.25C1609.38,1733.98 1607.9,1788.53 1609.67,1798.79C1611.35,1808.44 1608.87,1839.13 1609.1,1858.6C1586.06,1859.78 1525.52,1860.78 1508.53,1861.36C1437.13,1863.82 1397.54,1863.8 1326.18,1867.11C1268.31,1869.79 1179.54,1869.65 1143.37,1870.91C1130.51,1871.36 927.753,1883.93 902.885,1883.74C858.478,1883.41 787.244,1886.1 764.052,1885.91C760.903,1861.42 754.908,1776.73 755.034,1765.72C755.659,1711.4 752.528,1659.11 754.524,1604.86C755.557,1576.77 753.078,1483.55 752.141,1440.14C751.815,1425.01 752.523,1390.03 752.932,1382.42C752.95,1382.09 752.979,1381.68 752.979,1381.68C752.979,1381.68 752.871,1382.18 752.76,1382.68C753.018,1381.3 753.27,1378.76 753.128,1375.42C752.87,1369.37 751.891,1358.62 751.276,1351.24C755.178,1350.97 760.233,1350.65 765.623,1350.38C875.777,1344.85 1338.17,1330.59 1526.79,1327.29C1565.85,1326.61 1592.77,1326.17 1601.62,1326.58ZM752.75,1382.72C752.67,1383.08 752.588,1383.42 752.548,1383.55L752.75,1382.72Z"/>
                    </g>
                    <g id="window">
                        <path d="M782.678,1418.36C785.762,1429.44 783.86,1444.33 784.82,1456.43C788.547,1503.41 784.792,1549.05 787.869,1596.14C790.501,1636.43 789.314,1678.34 792.757,1718.69C794.814,1742.81 792.381,1803.71 796.209,1808.45C799.505,1812.53 874.849,1805.89 908.234,1804.89C944.444,1803.8 981.107,1804.28 1017.11,1801.03C1045.02,1798.52 1071.82,1790.31 1099.65,1788.22C1125.32,1786.3 1151.36,1788.66 1177.06,1785.77C1195.73,1783.67 1275.64,1784.06 1279.06,1777.47C1283.64,1768.64 1281.97,1737.31 1282.74,1727.67C1287.07,1673.02 1285.84,1613.99 1285.51,1557.41C1285.43,1544.46 1286.63,1403.07 1286.21,1402.69C1286.04,1402.53 1177.86,1407.99 1163.38,1407.99C1105.22,1407.99 1047.22,1408.07 989.292,1411.33C947.763,1413.66 905.923,1414.68 864.568,1416.02C831.554,1417.09 811.527,1417.2 782.678,1418.36Z" style="fill:white;"/>
                        <path d="M782.297,1408.86C779.397,1408.98 776.709,1410.42 775,1412.76C773.291,1415.11 772.748,1418.11 773.526,1420.9C776.463,1431.46 774.435,1445.66 775.35,1457.18C779.073,1504.12 775.315,1549.71 778.389,1596.77C781.025,1637.12 779.843,1679.08 783.291,1719.5C784.935,1738.77 783.703,1781.55 785.104,1800.32C785.411,1804.43 785.89,1807.62 786.436,1809.57C787.08,1811.87 788.029,1813.44 788.82,1814.42C789.734,1815.55 791.22,1816.91 793.68,1817.81C795.597,1818.51 799.816,1819.14 805.767,1819.24C827.905,1819.6 881.696,1815.19 908.519,1814.38C944.918,1813.29 981.772,1813.76 1017.96,1810.5C1045.83,1807.99 1072.57,1799.78 1100.37,1797.69C1126.14,1795.76 1152.31,1798.12 1178.12,1795.21C1193.11,1793.53 1247.42,1793.42 1270.31,1790.06C1275.56,1789.29 1279.51,1788.22 1281.74,1787.16C1284.9,1785.64 1286.6,1783.57 1287.49,1781.85C1289.25,1778.45 1290.57,1772.53 1291.19,1765.48C1292.32,1752.6 1291.67,1735.19 1292.2,1728.42C1296.56,1673.51 1295.34,1614.21 1295.01,1557.36C1294.94,1545.7 1295.9,1430.01 1295.79,1406.71C1295.78,1403.74 1295.7,1401.95 1295.65,1401.59C1295.18,1397.7 1293.08,1396.09 1292.57,1395.62C1292.26,1395.35 1290.47,1393.27 1286.36,1393.18C1286.11,1393.18 1284.84,1393.21 1282.71,1393.31C1264.99,1394.07 1176.37,1398.49 1163.38,1398.49C1105.04,1398.49 1046.86,1398.58 988.759,1401.84C947.304,1404.17 905.54,1405.18 864.259,1406.53C831.217,1407.6 811.171,1407.7 782.297,1408.86ZM1276.8,1412.6C1276.78,1444.97 1275.94,1546.58 1276.01,1557.47C1276.34,1613.78 1277.58,1672.53 1273.27,1726.92C1272.8,1732.76 1273.21,1746.48 1272.62,1758.44C1272.39,1763.14 1272.19,1767.54 1271.48,1770.6C1253.64,1774.82 1191.98,1774.53 1176,1776.33C1150.42,1779.21 1124.49,1776.83 1098.94,1778.75C1071.06,1780.84 1044.22,1789.05 1016.26,1791.57C980.443,1794.8 943.97,1794.31 907.949,1795.39C880.345,1796.22 823.667,1801.07 804.132,1800.22C802.452,1783.02 803.921,1737.79 802.223,1717.89C798.785,1677.59 799.977,1635.75 797.349,1595.53C794.269,1548.38 798.021,1502.71 794.29,1455.68C793.594,1446.9 794.231,1436.74 793.617,1427.46L793.617,1427.46C817.152,1426.65 836.064,1426.45 864.877,1425.52C906.306,1424.17 948.221,1423.15 989.826,1420.81C1047.57,1417.57 1105.4,1417.49 1163.38,1417.49C1175.24,1417.49 1249.72,1413.85 1276.8,1412.6Z"/>
                    </g>
                    <g id="Roof">
                        <path d="M841.508,977.893C831.118,984.13 803.496,1051.21 799.581,1064.52C778.956,1134.64 760.666,1185.71 741.124,1259C733.819,1286.39 717.208,1371.12 718.875,1369.62C721.088,1367.63 801.23,1368.8 827.65,1368.26C872.894,1367.32 1024.31,1358.4 1072.42,1358.59C1123.95,1358.81 1219.31,1355.39 1302.31,1354.04C1365.88,1353 1436.49,1351.19 1498.41,1349.66C1533.15,1348.81 1620.26,1349.61 1626.41,1344.06C1627.65,1342.95 1596.49,1221.53 1587.79,1177.13C1577.11,1122.69 1571.34,1069.3 1561.23,1014.74C1559.99,1008.07 1559.68,962.44 1554.88,958.118C1553.77,957.12 1477.44,960.318 1454.5,960.318C1421.19,960.318 1363.27,959.281 1329.82,962.019C1270.69,966.859 1245.57,974.899 1185.95,974.899C1109.41,974.899 1033.23,980.659 956.708,980.659C932.349,980.659 911.085,979.317 883.562,979.48C875.036,979.531 837.527,977.893 841.508,977.893Z" style="fill:white;"/>
                        <path d="M842.92,968.5C847.665,968.717 876.606,970.021 883.505,969.98C911.05,969.817 932.33,971.159 956.708,971.159C1033.23,971.159 1109.41,965.399 1185.95,965.399C1245.25,965.399 1270.23,957.365 1329.05,952.55C1362.7,949.795 1420.98,950.818 1454.5,950.818C1475.18,950.818 1539.17,948.228 1552.57,948.438C1558.03,948.524 1560.83,950.693 1561.24,951.059C1563,952.642 1565.43,956.859 1566.61,963.319C1569.19,977.419 1569.58,1007.67 1570.57,1013.01C1580.67,1067.54 1586.44,1120.9 1597.11,1175.31C1604.94,1215.25 1630.96,1317.56 1635.18,1338.43C1636,1342.46 1635.91,1344.97 1635.81,1345.58C1635.31,1348.55 1633.82,1350.17 1632.78,1351.12C1631.72,1352.07 1629.95,1353.23 1627.3,1354.06C1624.75,1354.86 1620.52,1355.59 1615.02,1356.14C1588.29,1358.82 1526.61,1358.47 1498.65,1359.16C1436.7,1360.68 1366.06,1362.5 1302.46,1363.54C1219.39,1364.89 1123.96,1368.31 1072.38,1368.09C1024.31,1367.9 873.047,1376.82 827.846,1377.76C804.206,1378.24 737.301,1377.32 722.552,1378.58L722.085,1378.63C720.348,1379.27 718.699,1379.24 717.305,1379.01C714.918,1378.63 712.342,1377.47 710.543,1374.31C710.228,1373.76 708.913,1371.09 709.463,1366.5C711.023,1353.46 725.291,1281.5 731.945,1256.55C751.51,1183.18 769.817,1132.04 790.467,1061.84C793.277,1052.28 807.965,1015.7 820.201,992.419C824.945,983.393 829.759,976.315 833.469,972.434C834.832,970.345 837.248,968.393 841.508,968.393C841.986,968.393 842.458,968.429 842.92,968.5ZM717.769,1360.16C714.746,1360.88 713.044,1362.09 712.527,1362.55C714.32,1360.94 716.126,1360.31 717.769,1360.16ZM1548.13,967.441C1550.7,980.982 1550.91,1011.2 1551.89,1016.47C1562,1071.07 1567.78,1124.49 1578.47,1178.96C1585.77,1216.18 1608.84,1307.54 1615.39,1336.79C1611.64,1337.26 1606.7,1337.81 1602.07,1338.07C1572.25,1339.79 1522.42,1339.57 1498.18,1340.16C1436.28,1341.69 1365.7,1343.51 1302.15,1344.54C1219.22,1345.89 1123.95,1349.31 1072.46,1349.09C1024.3,1348.9 872.741,1357.82 827.453,1358.76C806.827,1359.19 753.643,1358.59 729.837,1359.24C733.95,1335.6 744.803,1282.07 750.303,1261.45C769.822,1188.25 788.094,1137.24 808.694,1067.2C811.366,1058.12 825.391,1023.38 837.019,1001.26C839.751,996.061 843.485,990.473 845.428,987.663C855.384,988.146 877.301,989.018 883.618,988.98C911.121,988.816 932.368,990.159 956.708,990.159C1033.23,990.159 1109.41,984.399 1185.95,984.399C1245.89,984.399 1271.14,976.354 1330.6,971.487C1363.84,968.766 1421.39,969.818 1454.5,969.818C1473.46,969.818 1528.96,967.626 1548.13,967.441ZM848.377,984.454C847.881,984.975 847.32,985.444 846.7,985.848L846.542,986.071C847.276,985.608 847.881,985.053 848.377,984.454Z"/>
                    </g>
                    <g id="Chimney">
                        <path d="M1361.13,874.621C1359.79,873.416 1360.87,891.134 1360.87,894.94C1360.87,906.517 1360.18,917.108 1358.99,928.956C1357.99,938.869 1357.64,1030.31 1360.29,1036.66C1363.77,1045.04 1479.01,1031.07 1483.07,1025.65C1486.54,1021.03 1486.03,975.857 1485.34,964.207C1483.32,930.17 1488.05,854.062 1484.75,850.254C1480.38,845.229 1428.03,859.745 1421.79,861.14C1398.75,866.292 1377.37,868.714 1361.13,874.621Z" style="fill:white;"/>
                        <path d="M1359.15,865.243L1358.92,865.292C1356.76,865.773 1353.64,867.07 1351.96,871.297C1351.6,872.208 1351.11,874.217 1351,876.975C1350.81,881.985 1351.37,892.143 1351.37,894.94C1351.37,906.193 1350.7,916.486 1349.54,928.001C1348.72,936.047 1348.3,997.034 1349.55,1024.41C1349.94,1032.88 1350.85,1038.72 1351.52,1040.31C1352.33,1042.26 1353.84,1044.34 1356.65,1045.88C1359.26,1047.32 1365.35,1048.61 1373.84,1048.75C1399.52,1049.19 1453.32,1042.88 1475.51,1038.07C1481.11,1036.85 1485.07,1035.53 1486.87,1034.55C1488.79,1033.51 1489.96,1032.3 1490.67,1031.35C1491.84,1029.79 1493.46,1025.69 1494.14,1019.68C1495.82,1004.94 1495.39,973.244 1494.82,963.644C1493.21,936.502 1495.92,882.52 1495.38,860.07C1495.24,854.4 1494.78,850.337 1494.24,848.442C1493.63,846.293 1492.67,844.895 1491.92,844.025C1490.69,842.609 1488.83,841.208 1486.07,840.42C1483.98,839.822 1480.64,839.532 1476.41,839.85C1460.19,841.066 1424.83,850.725 1419.72,851.869C1396.82,856.99 1375.54,859.54 1359.15,865.243ZM1476.37,859.126C1477.16,880.048 1474.19,936.736 1475.86,964.77C1476.41,974.118 1476.98,1006.07 1475.15,1018.65C1460.57,1022.61 1416.2,1028.21 1387.15,1029.51C1380.37,1029.81 1373.11,1029.5 1368.9,1029.25C1368.76,1027.54 1368.62,1025.54 1368.53,1023.54C1367.31,996.955 1367.65,937.725 1368.44,929.91C1369.67,917.73 1370.37,906.842 1370.37,894.94C1370.37,893.112 1370.24,886.372 1370.14,881.661C1385.2,877.186 1403.91,874.874 1423.87,870.41C1427.76,869.539 1449.81,863.492 1466.68,860.391C1469.81,859.814 1473.51,859.396 1476.37,859.126ZM1360.48,884.096C1358.66,884.042 1356.7,883.418 1354.78,881.683C1356.38,883.128 1358.4,883.956 1360.48,884.096Z"/>
                        <path d="M1409.12,961.146C1409.54,960.958 1405.41,980.867 1405.16,982.065C1404.4,985.739 1402.12,1005.81 1405.55,1009.05C1407.95,1011.32 1452.05,1004.73 1467.03,1002.66C1476.36,1001.36 1482.34,1002.19 1483.02,999.13C1483.96,994.908 1485.95,955.585 1485.09,954.808C1481.95,951.98 1459.16,954.983 1455.54,955.681C1434.06,959.823 1413.66,958.066 1409.12,961.146Z"/>
                        <path d="M1399.62,960.829C1399.17,963.183 1396.06,979.169 1395.86,980.127C1395.26,983.019 1393.81,994.946 1394.33,1003.09C1394.73,1009.36 1396.95,1014 1399.03,1015.96C1399.94,1016.82 1401.34,1017.83 1403.47,1018.43C1404.87,1018.82 1407.81,1019.13 1411.86,1018.95C1425.06,1018.34 1456.16,1013.75 1468.34,1012.07C1475.71,1011.04 1481.21,1010.98 1484.12,1009.98C1488.98,1008.31 1491.4,1005.23 1492.29,1001.19C1493.19,997.173 1495.07,963.094 1494.75,955.718C1494.54,950.683 1492.01,948.257 1491.45,947.751C1489.89,946.35 1486.66,944.688 1481.98,944.281C1473.65,943.558 1456.93,945.738 1453.74,946.352C1439.08,949.181 1424.93,949.147 1416.24,949.928C1410.21,950.47 1405.94,951.822 1403.79,953.281C1401.19,955.043 1399.72,957.885 1399.62,960.829ZM1475.52,963.649C1475.22,971.851 1474.69,985.116 1474.21,992.314C1471.78,992.532 1468.55,992.856 1465.73,993.246C1455.41,994.677 1425.42,998.058 1413.26,999.416C1413.23,998.706 1413.22,998 1413.24,997.367C1413.38,991.767 1414.1,985.763 1414.46,984.004C1414.62,983.25 1416.24,975.37 1417.4,969.306C1425.06,968.927 1442.89,967.795 1457.34,965.009C1459.18,964.655 1469.06,964.027 1475.52,963.649ZM1412.59,969.99C1410.57,970.784 1408.41,970.839 1406.44,970.26C1408.33,970.835 1410.38,970.873 1412.59,969.99ZM1400.84,965.802C1402,967.954 1403.63,969.094 1405.12,969.762C1403.37,968.952 1401.85,967.601 1400.84,965.802Z"/>
                        <path d="M1365.48,902.197C1364.25,902.197 1362.01,949.847 1362.6,950.113C1365.99,951.636 1397.58,943.474 1401.72,942.074C1406.79,940.363 1435.21,935.868 1435.25,935.747C1437.01,929.396 1434.19,915.466 1432.32,909.306C1431.39,906.237 1427.62,893.386 1425.47,891.448C1424.77,890.819 1372.6,902.197 1365.48,902.197Z"/>
                        <path d="M1365.48,892.697C1364.28,892.697 1357.06,893.687 1355.7,902.008C1354.53,909.212 1352.91,942.357 1353.01,949.095C1353.11,956.102 1358.19,958.544 1358.71,958.777C1360.09,959.4 1363.77,960.102 1368.86,959.409C1379.32,957.985 1401.27,952.252 1404.76,951.075C1409.13,949.601 1431.62,946.057 1436.1,945.261C1442.92,944.048 1444.36,938.447 1444.4,938.289C1446.51,930.678 1443.65,913.933 1441.41,906.55C1440.61,903.88 1437.77,894.417 1435.49,889.652C1434.26,887.075 1432.84,885.301 1431.83,884.388C1431.42,884.022 1428.22,881.308 1422.37,882.206C1413.57,883.557 1371.74,892.697 1365.48,892.697ZM1419.73,901.961C1421.07,905.725 1422.8,910.646 1423.23,912.061C1424.3,915.591 1426.03,922.269 1426.41,927.653C1417.28,929.226 1402.3,931.854 1398.68,933.073C1396.38,933.85 1381.84,937.015 1372.37,939.04C1372.83,930.092 1373.63,917.671 1374.09,910.588C1386.61,908.523 1408.44,904.07 1419.73,901.961ZM1366.23,911.667C1365.98,911.688 1365.73,911.697 1365.48,911.697C1365.69,911.697 1365.94,911.687 1366.23,911.667Z"/>
                    </g>
                    <g id="Door">
                        <path d="M1336.35,1824.03C1333.17,1789.52 1330.99,1734.55 1333.73,1699.96C1335.85,1673.17 1340.02,1600.05 1351.12,1576.76C1364.95,1547.7 1375.27,1522.51 1401.01,1501.92C1434.77,1474.91 1486.56,1475.78 1504.19,1519.25C1522.03,1563.24 1517.4,1668.6 1518.83,1731.05C1519.71,1769.88 1523.82,1810.38 1518.47,1817.32C1515.86,1820.71 1466.36,1820.02 1439.51,1822.03C1424.6,1823.15 1381.92,1826.05 1366.76,1826.05C1360.81,1826.05 1336.41,1823.96 1336.35,1824.03Z" style="fill:white;"/>
                        <path d="M1336.01,1833.52L1336.01,1833.52C1336.01,1833.52 1336.22,1833.53 1336.39,1833.55C1340.53,1833.84 1361.28,1835.55 1366.76,1835.55C1382.06,1835.55 1425.16,1832.64 1440.22,1831.51C1461.79,1829.89 1497.93,1830 1512.87,1828.36C1517.41,1827.87 1520.6,1826.98 1522.13,1826.23C1524.01,1825.31 1525.21,1824.14 1526,1823.12C1528.23,1820.22 1530.23,1813.29 1530.57,1803.29C1531.14,1786.43 1528.95,1758.22 1528.32,1730.84C1526.88,1667.38 1531.12,1560.37 1512.99,1515.68C1492.8,1465.9 1433.74,1463.57 1395.07,1494.51C1368.12,1516.07 1357.03,1542.25 1342.54,1572.67C1331.14,1596.6 1326.44,1671.68 1324.26,1699.21C1321.48,1734.26 1323.67,1789.94 1326.89,1824.9C1327.24,1828.73 1329.86,1831.96 1333.53,1833.1C1334.35,1833.36 1335.18,1833.5 1336.01,1833.52ZM1510.98,1809.09C1499.34,1809.51 1458.95,1811.05 1438.8,1812.56C1424.04,1813.67 1381.77,1816.55 1366.76,1816.55C1363.15,1816.55 1352.62,1815.75 1345.12,1815.16C1342.37,1781.06 1340.7,1732.29 1343.2,1700.71C1345.26,1674.66 1348.91,1603.49 1359.69,1580.84C1372.88,1553.15 1382.41,1528.96 1406.94,1509.34C1435.81,1486.24 1480.31,1485.65 1495.38,1522.82C1512.94,1566.11 1507.93,1669.81 1509.33,1731.27C1509.94,1758.25 1512.14,1786.04 1511.58,1802.64C1511.51,1804.81 1511.23,1807.22 1510.98,1809.09Z"/>
                        <path d="M1315.18,1825.66C1315.65,1825.66 1315.68,1831.84 1315.64,1832.38C1314.99,1841.67 1317.59,1875.24 1321.99,1883.17C1326.69,1891.66 1352.48,1888.28 1361.04,1888.7C1389.96,1890.15 1419.55,1887.62 1448.53,1887.62C1466.17,1887.62 1484.53,1885.08 1502.1,1883.22C1512.7,1882.09 1543.55,1883.56 1551.88,1879.82C1554.1,1878.82 1552.94,1867.69 1552.94,1865.66C1552.94,1851.24 1552.89,1836.53 1552.89,1822.4C1552.89,1822.04 1552.75,1820.81 1552.44,1820.67C1539.91,1815.03 1518.76,1820.31 1505.17,1819.49C1474.78,1817.67 1443.4,1823.59 1413.05,1825.3C1399.51,1826.06 1385.23,1824.37 1371.78,1826.39C1365.36,1827.35 1323.44,1824.26 1320.78,1829.65" style="fill:white;"/>
                        <path d="M1321.82,1818.67C1319.62,1816.52 1316.87,1816.16 1315.18,1816.16C1309.94,1816.16 1305.68,1820.42 1305.68,1825.66C1305.68,1826.55 1305.81,1827.4 1306.04,1828.22L1306.15,1831.97C1306.15,1831.97 1306.16,1831.76 1306.16,1831.72C1305.68,1838.61 1306.83,1858.1 1309.19,1872.05C1310.38,1879.06 1312.04,1884.82 1313.68,1887.78C1316.2,1892.32 1321.58,1895.86 1329.02,1897.34C1339.2,1899.38 1354.3,1897.88 1360.57,1898.19C1389.64,1899.65 1419.39,1897.12 1448.53,1897.12C1466.5,1897.12 1485.21,1894.56 1503.1,1892.66C1510.46,1891.88 1527.66,1892.38 1540.15,1891.46C1546.96,1890.96 1552.62,1889.9 1555.78,1888.48C1558.14,1887.42 1560.95,1884.98 1562.07,1880.41C1563.06,1876.37 1562.44,1867.58 1562.44,1865.66C1562.44,1851.24 1562.39,1836.53 1562.39,1822.4C1562.39,1821.32 1561.86,1818.18 1561.13,1816.68C1559.87,1814.11 1557.94,1812.73 1556.34,1812.01C1550.18,1809.24 1542.37,1808.37 1534.09,1808.56C1524.26,1808.77 1513.68,1810.49 1505.74,1810.01C1474.99,1808.16 1443.23,1814.09 1412.52,1815.82C1398.69,1816.59 1384.11,1814.93 1370.37,1816.99C1365.22,1817.77 1337.29,1815.95 1324.96,1817.96C1323.84,1818.14 1322.79,1818.38 1321.82,1818.67ZM1543.4,1827.89C1539.27,1827.25 1534.54,1827.47 1529.77,1827.76C1520.81,1828.29 1511.72,1829.4 1504.6,1828.98C1474.57,1827.17 1443.57,1833.1 1413.58,1834.79C1400.33,1835.53 1386.35,1833.81 1373.19,1835.78C1369.57,1836.33 1355.14,1835.74 1342.19,1835.88C1336.4,1835.94 1328.87,1836.8 1326.73,1837.06C1326.21,1837.48 1325.64,1837.84 1325.05,1838.14C1325.2,1846.12 1326.26,1859.04 1327.92,1868.87C1328.56,1872.63 1329.14,1875.86 1329.94,1877.82C1330.93,1878.11 1334.05,1878.99 1336.22,1879.21C1345.32,1880.09 1356.47,1878.96 1361.52,1879.22C1390.28,1880.66 1419.71,1878.12 1448.53,1878.12C1465.84,1878.12 1483.86,1875.6 1501.1,1873.77C1507.58,1873.08 1521.49,1873.32 1533.41,1872.82C1537.19,1872.66 1540.74,1872.52 1543.55,1872.17C1543.5,1869.56 1543.44,1866.41 1543.44,1865.66C1543.44,1853.1 1543.4,1840.32 1543.4,1827.89Z"/>
                        <path d="M1480.43,1676.49C1483.71,1676.49 1473.88,1676.99 1470.6,1676.99C1463.02,1676.99 1457.04,1679.89 1453.26,1686.7C1445.55,1700.58 1449.13,1727.21 1466.62,1727.79C1505.44,1729.06 1490.39,1684.29 1480.43,1676.49Z"/>
                        <path d="M1478.51,1667.19C1479.13,1667.06 1479.77,1666.99 1480.43,1666.99C1485.49,1666.99 1488.04,1669.52 1489.31,1672.02C1493.74,1677.29 1498.48,1686.55 1500.38,1696.5C1502.65,1708.39 1500.8,1720.76 1492.73,1728.68C1487.36,1733.94 1479.04,1737.7 1466.31,1737.28C1455.4,1736.92 1447.69,1730.43 1443.46,1720.94C1438.26,1709.27 1439.04,1692.74 1444.96,1682.08C1450.57,1671.98 1459.34,1667.49 1470.6,1667.49C1472.3,1667.49 1476.45,1667.29 1478.51,1667.19ZM1476.61,1686.3C1478.76,1689.49 1480.7,1694.73 1481.72,1700.07C1482.76,1705.54 1483.14,1711.47 1479.42,1715.11C1476.93,1717.56 1472.84,1718.49 1466.93,1718.29C1462.62,1718.15 1460.75,1714.1 1459.7,1709.93C1458.16,1703.76 1458.76,1696.37 1461.57,1691.31C1463.52,1687.81 1466.69,1686.49 1470.6,1686.49C1471.97,1686.49 1474.35,1686.41 1476.61,1686.3Z"/>
                    </g>
                </g>
                <g id="Bongles">
                    <g id="Bongles_outline">
                        <path d="M761.797,1723.04C740.742,1697.96 735.183,1686.86 743.281,1636.76C753.36,1574.39 797.406,1526.05 807.5,1463.59C824.233,1360.06 805.934,1278.1 794.258,1174.13C791.984,1153.88 786.854,1092.77 786.953,1073.3C787.376,990.615 818.267,902.023 849.297,899.542C881.544,896.963 903.981,950.849 911.367,974.556C922.097,1008.99 940.803,1142.64 944.668,1178.35C947.441,1203.98 943.45,1266.33 979.297,1259.61C1003.77,1255.02 996.665,1211.18 996.953,1194.39C997.728,1149.24 1001.47,1083.28 1004.14,1042.87C1006.6,1005.72 1010.19,940.559 1019.88,904.222C1027.57,875.396 1085.98,838.379 1103.2,887.347C1114.5,919.486 1121.14,967.437 1125.86,1005.69C1130.68,1044.76 1130.17,1075.81 1132.11,1121.77C1135.59,1204.36 1129.77,1288.82 1129.77,1371.31C1129.77,1392.52 1134.09,1535.39 1156.48,1535.18C1174.13,1535.01 1173.99,1506.41 1176.91,1481.41C1183.89,1421.9 1180.12,1301.09 1180.12,1301.09C1180.12,1301.09 1171.45,1132.74 1200.55,1110.92C1213.35,1101.32 1218.19,1126.79 1218.67,1131.57C1220.49,1149.63 1225.04,1166.44 1225.04,1166.44C1225.04,1166.44 1226.81,1151.75 1228.83,1138.36C1231.22,1122.55 1232.71,1107.55 1243.2,1108.35C1258.22,1109.49 1252.46,1131.11 1258.36,1158.8C1258.47,1159.34 1266.63,1135.26 1270.16,1127.35C1272.65,1121.76 1276.78,1105.26 1290.98,1109.12C1303.7,1112.58 1302.01,1148.39 1299.92,1218.8C1297.3,1307.28 1295.92,1398.68 1287.54,1488.24C1284.34,1522.41 1282.62,1587.91 1282.62,1587.91C1282.62,1587.91 1280.98,1657.11 1281.48,1687.71C1281.97,1717.28 1283.32,1776.41 1283.32,1776.41C1283.32,1776.41 1279.88,1776.5 1274.36,1776.71C1253.29,1777.51 1201.88,1780.19 1195.43,1787.45C1185.84,1798.23 1202.68,1830.81 1182.11,1833.7C1166.49,1835.89 1161.01,1833.35 1154.38,1821.22C1151.13,1815.29 1152.24,1792.45 1145.59,1795.03C1145.34,1795.12 1145.47,1794 1145.59,1794.24C1150.77,1804.44 1149.77,1841.42 1134.65,1842.49C1122.14,1843.37 1115.64,1834.05 1110.27,1822.23C1105.47,1811.66 1105.93,1796.52 1103.32,1797.33C1096.52,1799.47 1113.83,1858.62 1081.29,1847.91C1063.92,1842.2 1061.04,1782.46 1005.31,1765.74C940.522,1746.3 942.851,1754.01 872.344,1747.37C818.274,1742.28 789.83,1742.83 761.797,1723.04Z" style="fill:white;"/>
                        <path d="M1109.71,1839.98C1115.98,1847.99 1124.08,1852.75 1135.32,1851.96C1143.17,1851.41 1149.55,1846.12 1153.37,1837.31C1153.49,1837.03 1153.61,1836.75 1153.72,1836.47C1155.96,1838.68 1158.34,1840.3 1160.95,1841.49C1166.38,1843.94 1173.23,1844.54 1183.43,1843.11C1189.33,1842.28 1193.41,1839.87 1196.35,1836.69C1200.19,1832.53 1202.09,1826.62 1202.41,1819.72C1202.68,1813.98 1201.87,1807.38 1201.71,1801.39C1201.66,1799.59 1201.67,1797.87 1201.87,1796.28C1201.96,1795.55 1201.98,1794.85 1202.21,1794.28C1203.64,1793.81 1208.77,1792.19 1213.01,1791.43C1231.28,1788.17 1260.28,1786.75 1274.72,1786.2C1280.16,1785.99 1283.54,1785.91 1283.54,1785.91C1288.79,1785.79 1292.94,1781.44 1292.82,1776.2C1292.82,1776.2 1291.47,1717.11 1290.98,1687.56C1290.49,1657.32 1292.09,1589.25 1292.11,1588.15C1292.14,1587.13 1293.85,1522.81 1297,1489.13C1305.4,1399.36 1306.79,1307.76 1309.42,1219.09C1310.91,1168.58 1312,1135.44 1308.17,1118.89C1305.49,1107.29 1299.86,1101.69 1293.47,1099.95C1281.51,1096.7 1273.72,1101.83 1268.46,1109.15C1266.11,1112.42 1264.43,1116.26 1263.15,1119.41C1262.99,1118.37 1262.8,1117.38 1262.58,1116.45C1261.14,1110.36 1258.55,1105.91 1254.87,1102.98C1252.05,1100.74 1248.53,1099.23 1243.93,1098.88C1235.56,1098.24 1229.75,1102.12 1225.86,1109.65C1225.13,1111.07 1224.49,1112.67 1223.92,1114.43C1222.83,1111.73 1221.52,1109.14 1219.97,1107.03C1217.08,1103.1 1213.41,1100.56 1209.39,1099.65C1205.23,1098.72 1200.3,1099.23 1194.85,1103.32C1190.25,1106.77 1186.06,1112.79 1182.79,1121.07C1178.83,1131.09 1175.91,1144.84 1173.88,1160.39C1166.51,1216.93 1170.46,1298.28 1170.62,1301.48C1170.74,1305.12 1174.29,1422.18 1167.48,1480.31C1166.06,1492.4 1165.45,1505.37 1162.99,1515.33C1162.24,1518.39 1161.35,1521.1 1160.04,1523.23C1159.46,1524.16 1158.79,1524.94 1157.89,1525.35C1157.37,1524.58 1156.64,1523.45 1156.18,1522.47C1153.83,1517.47 1151.88,1510.36 1150.14,1501.96C1141.32,1459.32 1139.27,1385.94 1139.27,1371.31C1139.27,1288.69 1145.09,1204.1 1141.6,1121.37C1139.65,1075.11 1140.14,1043.86 1135.29,1004.53C1130.49,965.626 1123.66,916.879 1112.16,884.195C1106.67,868.578 1097.53,860.144 1087.3,856.361C1077.23,852.638 1065.72,853.502 1054.59,857.732C1034.01,865.557 1015.17,885.032 1010.7,901.774C1000.89,938.591 997.151,1004.61 994.661,1042.24C991.98,1082.77 988.232,1148.94 987.455,1194.23C987.289,1203.89 989.847,1222.9 986.712,1237.51C985.403,1243.61 983.43,1249.17 977.546,1250.27C968.605,1251.95 964.205,1245.94 961.354,1238.06C954.738,1219.77 955.718,1192.16 954.113,1177.33C950.214,1141.3 931.263,1006.48 920.437,971.73C915.751,956.69 905.243,930.209 890.295,911.981C878.718,897.864 864.386,888.805 848.54,890.072C836.999,890.995 824.63,900.503 814.135,917.562C793.73,950.73 777.759,1013.46 777.453,1073.25C777.353,1092.93 782.518,1154.72 784.817,1175.19C796.389,1278.24 814.706,1359.46 798.122,1462.08C793.227,1492.36 779.975,1519.18 766.85,1546.04C752.909,1574.56 739.094,1603.12 733.903,1635.24C729.562,1662.1 729.158,1678.51 732.385,1691.56C735.722,1705.06 742.846,1715.24 754.52,1729.15C755.046,1729.78 755.651,1730.33 756.32,1730.81C785.553,1751.43 815.069,1751.52 871.453,1756.83C940.977,1763.37 938.696,1755.67 1002.58,1774.84C1038.36,1785.57 1049.8,1816.19 1059.26,1835.06C1062.32,1841.17 1065.25,1846.29 1068.34,1849.88C1071.4,1853.44 1074.75,1855.76 1078.32,1856.94C1088.93,1860.43 1096.2,1858.42 1101.27,1854.45C1105.3,1851.31 1108.07,1846.16 1109.71,1839.98ZM1205.22,1119.44C1203.35,1121.36 1201.9,1124.39 1200.46,1128.05C1196.96,1136.91 1194.52,1149.1 1192.72,1162.85C1185.38,1219.13 1189.61,1300.6 1189.61,1300.6C1189.61,1300.67 1189.61,1300.73 1189.61,1300.8C1189.61,1300.8 1193.38,1422.54 1186.35,1482.52C1184.5,1498.34 1183.61,1515.49 1179.34,1526.75C1175.06,1538.02 1167.76,1544.57 1156.58,1544.68C1152.36,1544.72 1148.19,1543.05 1144.51,1539.1C1141.48,1535.86 1138.54,1530.47 1136.11,1523.3C1123.28,1485.39 1120.27,1388.62 1120.27,1371.31C1120.27,1288.95 1126.09,1204.63 1122.62,1122.17C1120.69,1076.51 1121.22,1045.67 1116.43,1006.85C1111.79,969.247 1105.35,922.093 1094.24,890.498C1091.12,881.628 1086.52,876.33 1080.71,874.182C1074.74,871.974 1067.94,872.984 1061.35,875.491C1046.49,881.14 1032.29,894.585 1029.06,906.67C1019.5,942.527 1016.05,1006.84 1013.62,1043.5C1010.96,1083.78 1007.22,1149.54 1006.45,1194.56C1006.27,1205.04 1008.69,1225.65 1005.29,1241.5C1002.24,1255.72 994.762,1266.37 981.048,1268.94C972.844,1270.48 966.124,1269.29 960.565,1266.38C952.812,1262.34 947.136,1254.61 943.487,1244.52C936.383,1224.88 936.946,1195.3 935.223,1179.38C931.393,1143.98 912.932,1011.51 902.297,977.382C898.12,963.974 888.929,940.278 875.603,924.029C868.327,915.156 860.013,908.215 850.054,909.011C845.879,909.345 842.021,912.491 838.017,916.964C832.588,923.027 827.453,931.602 822.699,941.934C807.515,974.933 796.7,1025.18 796.453,1073.35C796.354,1092.6 801.45,1153.05 803.699,1173.07C815.478,1277.97 833.76,1360.65 816.878,1465.11C811.679,1497.28 797.861,1525.86 783.92,1554.38C770.795,1581.24 757.547,1608.03 752.66,1638.27C748.903,1661.52 748.037,1675.71 750.829,1687C753.433,1697.54 759.336,1705.3 768.265,1715.97L768.268,1715.97C794.788,1734.19 822.116,1733.1 873.234,1737.91C944.724,1744.64 942.349,1736.93 1008.04,1756.64C1044.63,1767.61 1060.74,1795.18 1071.61,1817.12C1074.78,1823.52 1077.45,1829.35 1080.18,1833.84C1081.61,1836.18 1082.52,1838.32 1084.26,1838.89C1086.46,1839.61 1088.11,1840.08 1089.41,1839.58C1090.76,1839.06 1090.89,1837.39 1091.33,1835.77C1092.04,1833.14 1092.33,1830.14 1092.47,1827.03C1092.97,1815.41 1091.5,1802.7 1092.65,1797.5C1093.91,1791.84 1097.34,1789.25 1100.48,1788.27C1103.05,1787.46 1105.43,1787.69 1107.66,1788.69C1109.56,1789.55 1112.09,1791.4 1113.52,1795.36C1114.85,1799.04 1115.2,1810.1 1118.92,1818.3C1120.7,1822.22 1122.57,1825.84 1124.91,1828.69C1127.18,1831.45 1129.96,1833.29 1133.98,1833.01C1134.62,1832.97 1134.68,1832.12 1135.05,1831.5C1136.04,1829.86 1136.75,1827.82 1137.32,1825.61C1139.46,1817.31 1139.61,1806.62 1137.95,1800.77C1137.28,1799.89 1136.58,1798.66 1136.21,1797.06C1135.89,1795.67 1135.94,1793.3 1136.29,1791.95C1138.02,1785.22 1144.22,1784.52 1146.5,1784.75C1147.67,1784.87 1149.19,1785.14 1150.68,1786.08L1150.88,1786.15C1152.97,1786.99 1154.97,1788.47 1156.58,1790.83C1158.43,1793.53 1159.91,1798.59 1160.77,1804.27C1161.21,1807.21 1161.56,1810.36 1162,1813.11C1162.24,1814.59 1162.3,1815.9 1162.71,1816.66C1164.76,1820.4 1166.22,1823.02 1168.79,1824.17C1171.67,1825.48 1175.36,1825.05 1180.79,1824.29C1182.75,1824.01 1183.06,1822.42 1183.27,1820.76C1183.54,1818.66 1183.5,1816.34 1183.4,1813.96C1183.11,1807.61 1182.37,1800.88 1182.88,1795.27C1183.39,1789.53 1185.17,1784.68 1188.33,1781.13C1189.58,1779.72 1191.51,1778.23 1194.21,1776.98C1197.66,1775.38 1203.07,1773.9 1209.67,1772.73C1228.55,1769.36 1258.43,1767.81 1273.61,1767.23C1273.21,1749.34 1272.35,1710.19 1271.99,1687.87C1271.48,1657.15 1273.12,1587.69 1273.12,1587.69C1273.12,1587.68 1273.12,1587.67 1273.12,1587.66C1273.12,1587.66 1274.86,1521.75 1278.08,1487.36C1286.44,1397.99 1287.81,1306.8 1290.43,1218.52C1291.66,1176.92 1292.81,1147.59 1290.79,1130.04C1290.33,1126.1 1289.74,1122.87 1288.86,1120.34C1288.6,1119.58 1288.1,1118.62 1287.84,1118.15C1285.14,1117.79 1283.85,1120.09 1282.79,1122C1280.88,1125.45 1279.76,1129.15 1278.83,1131.22C1275.7,1138.26 1268.86,1158.26 1267.44,1161.8C1264.45,1169.24 1257.16,1168.24 1256.65,1168.15C1253.91,1167.65 1250.22,1166.16 1249.07,1160.78C1246.06,1146.63 1245.98,1134.05 1244.78,1124.85C1244.51,1122.79 1244.2,1120.95 1243.69,1119.39C1243.52,1118.85 1243.4,1118.32 1243.05,1118.03C1242.55,1119.09 1241.56,1121.32 1241.11,1123.09C1239.87,1127.92 1239.13,1133.79 1238.22,1139.78C1236.22,1153.04 1234.47,1167.58 1234.47,1167.58C1233.93,1172.09 1230.26,1175.59 1225.73,1175.92C1221.19,1176.25 1217.06,1173.32 1215.87,1168.93C1215.87,1168.93 1211.11,1151.37 1209.22,1132.52C1209.06,1130.97 1208.32,1126.75 1206.85,1122.74C1206.49,1121.74 1205.8,1120.45 1205.22,1119.44Z"/>
                    </g>
                    <path d="M868.708,1617.55C869.14,1619.59 870.447,1625.67 870.74,1626.6C872.784,1633.04 880.422,1643.06 885.459,1647.59C898.07,1658.94 915.029,1660.53 930.508,1665.17C945.554,1669.68 962.224,1667.93 977.647,1669.47C1008.33,1672.54 1053.79,1678.78 1092.88,1691.9C1117.68,1700.23 1139.94,1711.19 1153.4,1726.33C1166.8,1741.41 1171.69,1759.16 1179.41,1776.53C1180.59,1779.2 1182.31,1782.89 1183.07,1786.57C1183.23,1787.32 1183.34,1788.07 1183.36,1788.8C1183.37,1789.15 1183.3,1789.73 1183.27,1789.91C1179.79,1793.72 1179.98,1799.63 1183.73,1803.2C1187.53,1806.81 1193.55,1806.67 1197.16,1802.87C1201.34,1798.48 1202.85,1792.66 1202.23,1786.33C1201.63,1780.14 1198.8,1773.38 1196.77,1768.82C1188.27,1749.66 1182.38,1730.34 1167.6,1713.71C1152.26,1696.44 1127.2,1683.38 1098.93,1673.89C1058.42,1660.29 1011.33,1653.74 979.536,1650.57C965.292,1649.14 949.864,1651.14 935.967,1646.97C928.853,1644.84 921.348,1643.54 914.171,1641.47C908.4,1639.81 902.829,1637.66 898.168,1633.47C895.136,1630.74 890.258,1624.98 888.914,1621.04C888.777,1620.32 887.909,1615.81 887.287,1613.32C886.629,1610.68 885.704,1608.59 885.061,1607.61C882.548,1603.76 879.152,1603.03 876.771,1603.03C871.528,1603.03 867.271,1607.29 867.271,1612.53C867.271,1614.37 867.797,1616.1 868.708,1617.55ZM876.14,1622.01L876.216,1622.01L875.979,1622L876.14,1622.01ZM875.502,1621.95L875.674,1621.97L875.377,1621.93L875.502,1621.95ZM874.86,1621.84L875.121,1621.89L874.858,1621.84L874.667,1621.8L874.86,1621.84ZM874.214,1621.68L874.305,1621.71L874.129,1621.66L874.214,1621.68Z"/>
                    <path d="M964.691,1399.44C961.448,1403.09 959.978,1407.7 957.749,1411.96C956.006,1415.29 953.613,1418.31 952.004,1421.73C949.64,1426.76 948.088,1431.96 946.297,1437.2C945.134,1440.6 944.262,1444.03 943.223,1447.46C942.194,1450.86 941.565,1454.24 940.716,1457.67C940.201,1459.76 938.927,1461.57 938.398,1463.66C935.77,1474.07 934.071,1488.57 947.028,1491.49C948.792,1491.88 951.208,1491.64 953,1491.5C960.038,1490.92 962.08,1482.42 968.622,1481.35C973.151,1480.61 976.424,1483.83 980.351,1485.31C986.837,1487.74 992.673,1486.55 997.019,1480.96C1001.65,1475.01 1000.45,1465.34 999.022,1458.47C997.977,1453.45 996.192,1448.98 994.827,1444.07C992.702,1436.42 990.846,1427.97 987.507,1420.76C985.877,1417.24 983.322,1414.21 981.699,1410.71C979.43,1405.81 973.832,1399.26 968.13,1398.41C966.591,1398.18 966.057,1399.44 964.691,1399.44Z"/>
                    <path d="M962.848,1390.12C960.83,1390.52 958.979,1391.57 957.591,1393.13C953.824,1397.37 951.919,1402.61 949.331,1407.56C947.526,1411.01 945.073,1414.15 943.407,1417.69C940.893,1423.04 939.212,1428.56 937.308,1434.12C936.109,1437.63 935.202,1441.17 934.132,1444.7C933.054,1448.26 932.381,1451.8 931.493,1455.4C930.982,1457.47 929.712,1459.26 929.188,1461.33C927.571,1467.73 926.428,1475.41 927.493,1481.92C928.972,1490.94 933.89,1498.27 944.942,1500.75C947.552,1501.34 951.124,1501.18 953.775,1500.97C959.001,1500.54 962.911,1498.09 966.297,1494.78C967.185,1493.91 968.033,1492.98 968.897,1492.09C969.23,1491.74 969.805,1491.23 970.168,1490.91C970.736,1491.17 971.795,1491.68 972.414,1492.01C973.911,1492.83 975.43,1493.61 977.016,1494.2C987.74,1498.22 997.332,1496.03 1004.52,1486.8C1010.78,1478.75 1010.26,1465.82 1008.32,1456.53C1007.23,1451.31 1005.4,1446.64 1003.98,1441.53C1001.72,1433.4 999.677,1424.43 996.128,1416.77C994.498,1413.25 991.943,1410.22 990.32,1406.72C986.938,1399.41 978.038,1390.29 969.54,1389.01C967.242,1388.67 964.508,1389.49 962.848,1390.12ZM969.285,1409.56L969.541,1409.82C971.073,1411.32 972.353,1413.13 973.078,1414.7C974.701,1418.21 977.256,1421.23 978.886,1424.75C982.014,1431.51 983.683,1439.45 985.673,1446.61C986.982,1451.32 988.72,1455.6 989.722,1460.41C990.304,1463.2 990.88,1466.56 990.798,1469.82C990.75,1471.75 990.631,1473.7 989.52,1475.13C988.013,1477.07 985.935,1477.25 983.686,1476.41C981.385,1475.55 979.32,1474.06 977.075,1473.17C973.991,1471.94 970.735,1471.38 967.088,1471.97C963.266,1472.6 960.149,1474.36 957.405,1476.78C956.213,1477.84 955.098,1479.03 953.976,1480.21C953.51,1480.7 953.045,1481.19 952.547,1481.63C952.4,1481.76 952.126,1481.96 951.998,1482.06C951.093,1482.15 949.962,1482.41 949.114,1482.22C946.413,1481.61 946.13,1479.17 946.065,1476.85C945.964,1473.23 946.759,1469.35 947.609,1465.99C948.142,1463.88 949.42,1462.06 949.939,1459.95C950.748,1456.68 951.334,1453.45 952.315,1450.21C953.321,1446.89 954.159,1443.57 955.286,1440.27C956.963,1435.37 958.387,1430.48 960.602,1425.77C962.154,1422.47 964.486,1419.58 966.168,1416.36C967.327,1414.14 968.165,1411.77 969.285,1409.56Z"/>
                    <path d="M878.92,1525.64C878.96,1526.29 879.021,1526.93 879.099,1527.26C879.522,1529.06 880.033,1530.84 880.507,1532.62C881.857,1537.71 882.984,1542.87 884.578,1547.88C886.932,1555.29 891.511,1564.7 898.035,1570.76C903.48,1575.81 910.173,1578.74 917.95,1577.93C926.915,1577.01 935.319,1571.27 941.64,1565.44C955.335,1552.82 964.573,1536.02 968.968,1518.02C972.103,1505.17 970.484,1504.98 974.225,1492.14C975.537,1487.64 972.947,1482.91 968.443,1481.6C963.939,1480.29 959.217,1482.88 957.904,1487.38C954.057,1500.58 955.676,1500.77 952.452,1513.99C948.847,1528.76 941.352,1542.59 930.116,1552.95C926.319,1556.45 921.59,1560.47 916.205,1561.02C912.655,1561.39 910.008,1559.05 907.787,1556.36C904.431,1552.3 902.135,1547 900.779,1542.74C899.268,1537.98 898.218,1533.09 896.938,1528.27C896.506,1526.64 896.035,1525.02 895.65,1523.38C895.714,1523.65 895.811,1524.46 895.811,1524.46C895.811,1524.46 894.658,1518.52 894.01,1517.65C892.41,1515.51 890.345,1514.49 888.077,1514.23C886.361,1514.04 883.868,1514.08 881.235,1516.45C878.595,1518.83 877.791,1522.49 878.92,1525.64ZM885.763,1531.19C887.692,1531.62 890.051,1531.39 892.607,1529.09C890.673,1530.83 888.156,1531.52 885.763,1531.19Z"/>
                    <path d="M960.292,1496C960.323,1496.75 960.373,1497.5 960.463,1498.25C961.26,1504.84 962.199,1511.41 963.398,1517.94C965.102,1527.22 968.312,1540.33 974.525,1550.12C979.58,1558.09 986.551,1563.95 995.653,1565.64C1010.85,1568.47 1022.75,1562.42 1032,1552.46C1039.95,1543.91 1045.81,1532.3 1050.12,1522.26C1052.38,1516.98 1054.2,1511.53 1056.3,1506.19C1056.89,1504.7 1057.63,1503.27 1058.2,1501.77C1058.59,1500.73 1059.67,1496.77 1059.71,1494.73C1059.78,1491.81 1058.67,1489.76 1057.77,1488.61C1055.81,1486.12 1053.19,1484.9 1049.74,1485.36C1045.09,1485.99 1041.83,1490.28 1042.45,1494.92L1042.48,1495.09C1042.41,1495.38 1042.34,1495.65 1042.3,1495.74C1041.76,1497.17 1041.05,1498.53 1040.49,1499.96C1038.45,1505.14 1036.7,1510.43 1034.5,1515.55C1030.9,1523.94 1026.18,1533.75 1019.55,1540.89C1014.21,1546.63 1007.52,1550.56 998.762,1548.93C992.959,1547.85 989.468,1542.75 986.763,1537.2C983.184,1529.84 981.288,1521.24 980.118,1514.87C978.982,1508.69 978.095,1502.45 977.34,1496.21C977.019,1493.55 977.215,1490.85 976.908,1488.19C976.792,1487.18 976.694,1485.48 976.375,1484.46C975.861,1482.83 975.013,1481.59 974.107,1480.67C971.989,1478.55 969.277,1477.4 965.602,1478.33C963.106,1478.95 961.17,1480.38 959.774,1482.51C958.904,1483.83 958.353,1485.84 957.904,1487.38C956.973,1490.58 958.005,1493.88 960.292,1496ZM1045.23,1500.14C1046.86,1501.79 1048.96,1502.5 1051.54,1502.26C1049.16,1502.45 1046.91,1501.63 1045.23,1500.14Z"/>
                    <path d="M882.159,1457.29C881.711,1456.08 877.101,1457.22 876.389,1457.42C870.905,1459.02 865.042,1461.85 860.54,1465.4C853.404,1471.02 845.508,1482.8 846.316,1492.26C846.633,1495.97 848.862,1499.26 850.978,1502.2C856.563,1509.97 862.749,1514.11 872.244,1516.06C881.005,1517.85 888.514,1515.04 896.156,1511.21C899.999,1509.29 903.665,1507.74 905.315,1503.45C909.967,1491.35 907.738,1475.45 898.247,1466.54C894.114,1462.66 887.918,1456.75 882.159,1457.29Z"/>
                    <path d="M884.628,1447.85C884.278,1447.73 883.913,1447.63 883.532,1447.55C880.774,1446.93 874.83,1447.98 873.733,1448.3C867.13,1450.23 860.084,1453.66 854.662,1457.93C845.414,1465.21 835.803,1480.81 836.851,1493.07C837.313,1498.48 840.178,1503.45 843.264,1507.75C850.373,1517.63 858.257,1522.89 870.34,1525.36C881.326,1527.61 890.823,1524.5 900.405,1519.71C906.435,1516.7 911.593,1513.59 914.181,1506.86C920.146,1491.35 916.918,1471.04 904.75,1459.62C901.8,1456.85 897.909,1453.28 893.834,1450.95C890.836,1449.23 887.709,1448.15 884.628,1447.85ZM879.601,1466.44C880.695,1466.75 881.857,1466.86 883.039,1466.75C883.917,1466.67 884.621,1467.54 885.469,1468.11C887.829,1469.72 889.993,1471.82 891.744,1473.47C898.56,1479.87 899.789,1491.35 896.448,1500.04C896.183,1500.73 895.483,1500.87 894.909,1501.19C893.953,1501.72 892.935,1502.2 891.906,1502.72C886.203,1505.57 880.687,1508.09 874.148,1506.75C867.242,1505.34 862.754,1502.31 858.691,1496.65C857.542,1495.06 855.954,1493.46 855.782,1491.45C855.588,1489.18 856.417,1486.73 857.53,1484.35C859.666,1479.76 863.132,1475.45 866.418,1472.86C870,1470.04 874.681,1467.82 879.044,1466.55L879.601,1466.44Z"/>
                    <path d="M1067.22,1427.53C1065.17,1427.22 1062.83,1428.24 1060.94,1428.85C1054.31,1431.01 1049.26,1434.95 1044.89,1440.32C1040.05,1446.26 1031.77,1453.06 1031.4,1461.46C1030.83,1474.25 1038.49,1491.5 1052.93,1493.2C1060.66,1494.11 1067.51,1490.36 1073.09,1485.34C1082.76,1476.64 1088.1,1466.68 1085.61,1453.24C1083.71,1442.97 1079.19,1427.06 1067.22,1427.53Z"/>
                    <path d="M1067.42,1418.02C1064.28,1417.88 1060.8,1418.91 1058.01,1419.82C1049.57,1422.56 1043.09,1427.49 1037.53,1434.31C1034.46,1438.08 1030.13,1442.2 1027.04,1446.79C1024.08,1451.17 1022.13,1455.95 1021.91,1461.04C1021.48,1470.8 1024.84,1482.58 1031.54,1490.93C1036.62,1497.24 1043.48,1501.65 1051.82,1502.63C1062.34,1503.87 1071.85,1499.23 1079.44,1492.4C1091.71,1481.36 1098.11,1468.58 1094.95,1451.51C1093.58,1444.1 1090.84,1434.33 1085.94,1427.75C1081.42,1421.68 1075.31,1417.89 1067.42,1418.02ZM1066.6,1437C1066.93,1437.03 1067.26,1437.03 1067.59,1437.02C1069.8,1436.93 1070.81,1439.01 1071.87,1440.94C1074.25,1445.25 1075.48,1450.71 1076.27,1454.97C1078.09,1464.8 1073.8,1471.92 1066.73,1478.28C1063.17,1481.49 1058.98,1484.34 1054.04,1483.76C1049.83,1483.27 1046.83,1480.2 1044.7,1476.63C1042.01,1472.12 1040.68,1466.59 1040.89,1461.88C1040.99,1459.61 1042.49,1457.7 1043.96,1455.8C1046.64,1452.37 1049.88,1449.24 1052.26,1446.32C1055.44,1442.41 1059.05,1439.45 1063.88,1437.89L1066.6,1437Z"/>
                    <path d="M858.329,996.595C858.329,996.461 856.654,996.343 856.414,996.3C852.328,995.565 846.38,996.325 843.714,999.724C837.092,1008.17 836.138,1018.98 835.727,1029.32C834.964,1048.53 839.949,1069.48 842.303,1088.55C846.06,1118.98 848.325,1150.02 855.859,1179.85C858.675,1190.99 864.03,1222.52 880.074,1220.71C893.63,1219.19 894.135,1187.68 895.368,1177.13C897.977,1154.82 892.74,1131.28 891.614,1108.96C890.395,1084.83 890.644,1057.45 884.13,1033.99C880.511,1020.95 879.295,1010.12 867.148,1002.83C863.276,1000.51 862.168,991.845 858.329,996.595Z"/>
                    <path d="M855.859,986.673C848.995,986.164 840.417,988.535 836.239,993.862C828.359,1003.91 826.723,1016.64 826.235,1028.94C825.452,1048.65 830.46,1070.15 832.875,1089.71C836.68,1120.53 839.018,1151.97 846.649,1182.18C848.825,1190.79 852.783,1210.29 860.794,1220.61C866.095,1227.44 872.931,1231.08 881.136,1230.15C888.306,1229.35 894.047,1224.53 897.732,1216.64C903.015,1205.31 903.868,1186.23 904.804,1178.23C907.473,1155.4 902.254,1131.31 901.102,1108.48C899.85,1083.68 899.978,1055.56 893.284,1031.45C889.023,1016.1 886.649,1003.81 872.728,995.118C872.359,994.52 871.289,992.796 870.749,991.971C869.247,989.675 867.493,988.053 865.862,987.133C863.53,985.818 861.065,985.391 858.44,985.877C857.653,986.023 856.782,986.26 855.859,986.673ZM856.031,1005.81C856.506,1005.93 856.986,1006.01 857.465,1006.05C858.934,1007.97 860.762,1010.08 862.259,1010.98C867.307,1014.01 869.519,1018 871.11,1022.6C872.582,1026.85 873.586,1031.52 874.977,1036.53C881.31,1059.34 880.941,1085.97 882.126,1109.44C883.226,1131.24 888.481,1154.23 885.932,1176.03C885.233,1182 884.89,1195.13 881.875,1204.97C881.284,1206.9 880.603,1208.67 879.705,1210.12C879.458,1210.51 878.97,1211.06 878.77,1211.28C878.019,1211.26 877.45,1210.74 876.889,1210.19C875.7,1209.04 874.705,1207.5 873.786,1205.8C868.896,1196.76 866.635,1183.72 865.07,1177.52C857.632,1148.08 855.44,1117.42 851.732,1087.39C849.438,1068.81 844.476,1048.41 845.22,1029.69C845.546,1021.49 845.813,1012.77 850.884,1005.99C851.453,1005.88 853.688,1005.46 854.731,1005.65C854.856,1005.67 855.557,1005.76 856.031,1005.81Z"/>
                    <path d="M908.949,1312.61C892.516,1312.61 867.729,1315.28 854.096,1325.25C848.366,1329.44 842.537,1335.82 839.018,1342.7C835.308,1349.95 834.203,1357.73 836.996,1364.55C838.889,1369.18 842.571,1373.54 848.977,1376.9C856.906,1381.06 869.062,1380.96 877.887,1381.63C895.812,1382.97 926.653,1378.95 941.335,1368.38C944.854,1365.84 948.619,1362.62 951.462,1359.34C963.405,1345.51 956.597,1327.87 942.435,1319.37C933.406,1313.95 918.721,1312.61 908.949,1312.61ZM908.949,1326.61C916.589,1326.61 928.17,1327.13 935.23,1331.37C942.017,1335.44 946.593,1343.56 940.868,1350.18C938.71,1352.68 935.826,1355.09 933.155,1357.01C920.638,1366.03 894.215,1368.81 878.934,1367.67C871.806,1367.13 861.889,1367.86 855.485,1364.5C852.643,1363.01 850.791,1361.3 849.951,1359.25C848.642,1356.05 849.743,1352.48 851.481,1349.08C854.013,1344.13 858.238,1339.57 862.359,1336.55C873.897,1328.12 895.041,1326.61 908.949,1326.61Z"/>
                    <path d="M899.374,1326.82C869.914,1326.82 875.882,1370.48 904.388,1368.34C923.766,1366.89 929.311,1339.61 913.107,1329.4C908.35,1326.41 904.784,1326.53 899.374,1326.82Z"/>
                    <path d="M899.12,1317.32C856.6,1317.57 863.763,1380.91 905.099,1377.82C919.381,1376.75 928.749,1366.36 931.377,1354.16C933.954,1342.2 929.879,1328.74 918.17,1321.37C911.529,1317.18 906.607,1316.93 899.108,1317.32L899.12,1317.32ZM899.374,1336.32C899.542,1336.32 899.709,1336.32 899.876,1336.31C903.068,1336.14 905.236,1335.67 908.043,1337.44C912.539,1340.28 913.793,1345.56 912.804,1350.16C911.866,1354.51 908.774,1358.49 903.678,1358.87C888.032,1360.04 883.205,1336.32 899.374,1336.32Z"/>
                    <path d="M1046.61,1312.54C1030.14,1312.59 1012.92,1318.5 998.316,1325.8C992.081,1328.91 983.281,1334.3 980.084,1340.88C973.812,1353.78 978.398,1364.43 988.1,1372.34C1000.1,1382.12 1020.89,1387.01 1032.46,1386.14C1053.58,1384.55 1079.57,1377.17 1090.74,1357.07C1093.43,1352.23 1093.89,1346.02 1092.38,1339.88C1090.31,1331.44 1084.5,1323.36 1077.9,1319.9C1069.03,1315.24 1056.49,1312.04 1046.61,1312.54ZM1046.8,1326.54C1046.93,1326.54 1047.06,1326.54 1047.19,1326.53C1054.81,1326.1 1064.52,1328.68 1071.39,1332.29C1074.29,1333.82 1076.64,1337.23 1078.04,1340.86C1079.29,1344.1 1079.96,1347.65 1078.5,1350.27C1069.59,1366.3 1048.26,1370.91 1031.41,1372.18C1022.43,1372.85 1006.26,1369.08 996.945,1361.49C992.432,1357.81 989.757,1353 992.675,1347C993.503,1345.3 995.235,1343.93 997.031,1342.66C999.536,1340.89 1002.32,1339.45 1004.58,1338.32C1017.36,1331.93 1032.39,1326.54 1046.8,1326.54Z"/>
                    <path d="M1039.37,1328.43C1017.63,1322.84 1008.58,1370.48 1033.45,1371.72C1037.79,1371.94 1042.28,1371.34 1046.35,1369.77C1060.88,1364.16 1058.61,1346.88 1051.26,1336.96C1046.57,1330.62 1047.45,1322.44 1039.37,1328.43Z"/>
                    <path d="M1037.36,1318.53C1023.16,1317.61 1012.1,1330.51 1009.56,1345.97C1006.75,1363.01 1014.34,1380.28 1032.97,1381.21C1038.63,1381.49 1044.47,1380.68 1049.77,1378.63C1070.89,1370.49 1069.58,1345.72 1058.89,1331.3C1056.67,1328.3 1055.82,1324.83 1054.52,1322.84C1052.52,1319.81 1049.98,1318.03 1047.07,1317.25C1044.74,1316.63 1041.52,1316.45 1037.36,1318.53ZM1040.78,1337.82C1041.62,1339.47 1042.63,1341.26 1043.63,1342.61C1045.62,1345.3 1047.07,1348.77 1047.45,1352.22C1047.84,1355.73 1046.92,1359.37 1042.93,1360.91C1040.09,1362 1036.95,1362.38 1033.92,1362.23C1031.04,1362.09 1029.44,1360.2 1028.7,1357.87C1027.85,1355.2 1027.81,1352.08 1028.31,1349.06C1028.92,1345.31 1030.35,1341.64 1032.66,1339.21C1033.8,1338.01 1035.24,1337.18 1037,1337.63C1038.25,1337.95 1039.53,1338.01 1040.78,1337.82Z"/>
                    <path d="M1060.94,987.751C1055.39,985.257 1051.99,991.85 1050.38,996.209C1045.82,1008.53 1046.63,1021.34 1045.04,1034.24C1042.18,1057.42 1044.02,1079.91 1044.74,1103.09C1045.43,1125.59 1046.2,1148.37 1048.46,1170.76C1049.36,1179.62 1051.28,1209.93 1065.88,1208.29C1081.59,1206.52 1082.76,1179.47 1083.87,1168.49C1086.29,1144.46 1084.9,1119.88 1084.9,1095.76C1084.9,1075.39 1086.19,1052.48 1081.75,1032.49C1079.22,1021.11 1076.45,1006.02 1068.85,996.89C1067.01,994.689 1064.07,984.227 1060.94,987.751Z"/>
                    <path d="M1059.59,977.659C1055.8,977.326 1052.46,978.608 1049.53,980.842C1045.86,983.639 1042.99,988.798 1041.47,992.911C1036.65,1005.93 1037.29,1019.45 1035.61,1033.08C1032.69,1056.75 1034.51,1079.71 1035.24,1103.38C1035.94,1126.11 1036.73,1149.1 1039.01,1171.71C1039.72,1178.74 1041.44,1197.57 1047.82,1207.65C1052.33,1214.8 1058.74,1218.65 1066.94,1217.73C1076.72,1216.63 1083.47,1209.9 1087.45,1200.32C1091.66,1190.2 1092.59,1176.67 1093.32,1169.44C1095.78,1145.1 1094.4,1120.2 1094.4,1095.76C1094.4,1074.72 1095.61,1051.07 1091.02,1030.43C1088.24,1017.89 1084.75,1001.47 1076.49,991.236C1076.18,990.569 1074.22,986.348 1072.95,984.304C1070.96,981.113 1068.4,979.13 1066.24,978.288C1064.1,977.451 1061.85,977.086 1059.59,977.659ZM1059.37,999.32C1060.22,1000.91 1061.08,1002.4 1061.55,1002.97C1068.26,1011.02 1070.24,1024.51 1072.47,1034.55C1076.77,1053.88 1075.4,1076.05 1075.4,1095.76C1075.4,1119.57 1076.81,1143.83 1074.41,1167.53C1073.9,1172.63 1073.44,1181.47 1071.21,1189.23C1070.51,1191.67 1069.65,1194 1068.43,1195.94C1067.56,1197.33 1066.57,1198.58 1064.96,1198.82C1064.76,1198.62 1064.35,1198.2 1064.13,1197.89C1063.5,1196.98 1062.96,1195.89 1062.49,1194.73C1059.06,1186.4 1058.4,1174.6 1057.92,1169.8C1055.67,1147.63 1054.92,1125.08 1054.23,1102.79C1053.53,1080.1 1051.66,1058.1 1054.47,1035.4C1055.97,1023.24 1054.99,1011.13 1059.29,999.508L1059.37,999.32ZM1067.65,994.465L1067.6,994.521L1067.62,994.499L1067.65,994.465Z"/>
                </g>
            </g>
        </g>
    </g>
</svg>
