<?xml version="1.0" encoding="UTF-8" standalone="no"?>
<!DOCTYPE svg PUBLIC "-//W3C//DTD SVG 1.1//EN" "http://www.w3.org/Graphics/SVG/1.1/DTD/svg11.dtd">
<svg width="100%" height="100%" viewBox="0 0 922 1064" version="1.1" xmlns="http://www.w3.org/2000/svg" xmlns:xlink="http://www.w3.org/1999/xlink" xml:space="preserve" xmlns:serif="http://www.serif.com/" style="fill-rule:evenodd;clip-rule:evenodd;stroke-linejoin:round;stroke-miterlimit:2;">
    <g transform="matrix(1,0,0,1,-711.758,-840.201)">
        <g id="Bongles-House" serif:id="Bongles House">
            <g id="Bongles-House1" serif:id="Bongles House">
                <g id="House">
                    <g id="Facade">
                        <path d="M743.57,1380.44C743.205,1381.49 742.276,1423.33 742.643,1440.34C743.577,1483.61 746.06,1576.52 745.03,1604.51C743.031,1658.84 746.16,1711.21 745.535,1765.61C745.389,1778.3 753.381,1886.49 756.017,1894.87C756.627,1896.81 849.211,1892.84 902.814,1893.24C927.723,1893.43 1130.82,1880.85 1143.7,1880.4C1179.89,1879.15 1268.71,1879.28 1326.62,1876.6C1397.94,1873.29 1437.5,1873.31 1508.85,1870.86C1530.12,1870.13 1619.17,1868.73 1619.01,1867.16C1617.22,1850.23 1621.04,1808.73 1619.04,1797.16C1617.31,1787.2 1618.88,1734.18 1619.1,1728.62C1619.38,1721.33 1613.68,1630.95 1613.63,1610.62C1613.58,1585 1615.22,1526.98 1614.69,1515.59C1613.88,1498.16 1612.07,1425.93 1610.44,1381.59C1610.14,1373.5 1616.64,1320.31 1607.01,1317.69C1589.49,1312.93 741.625,1338.86 741.302,1342.64C741.084,1345.19 744.411,1378.03 743.57,1380.44Z" style="fill:white;"/>
                        <path d="M739.556,1379.05C739.363,1379.6 738.828,1390.9 738.583,1404.32C738.35,1417.1 738.21,1431.88 738.394,1440.43C738.996,1468.33 740.242,1516.86 740.775,1555.31C741.068,1576.4 741.147,1594.45 740.783,1604.35C740.183,1620.66 740.043,1636.8 740.125,1652.86C740.317,1690.35 741.723,1727.45 741.285,1765.56C741.203,1772.76 743.715,1810.56 746.406,1843.62C748.508,1869.46 750.794,1892.43 751.963,1896.15C752.139,1896.71 753.347,1899.09 757.034,1899.43C759.287,1899.63 764.062,1899.69 770.674,1899.64C798.991,1899.4 862.112,1897.18 902.782,1897.49C911.247,1897.55 940.217,1896.15 975.336,1894.25C1043.65,1890.55 1135.33,1884.95 1143.84,1884.65C1169.75,1883.75 1222.65,1883.57 1271.85,1882.55C1291.39,1882.14 1310.35,1881.61 1326.82,1880.84C1347.1,1879.9 1364.81,1879.23 1381.41,1878.69C1423.18,1877.35 1457.95,1876.86 1509,1875.11C1525.65,1874.53 1583.84,1873.55 1608.28,1872.4C1613.25,1872.16 1616.88,1871.91 1618.59,1871.67C1622.91,1871.04 1623.3,1867.35 1623.24,1866.72C1621.92,1854.26 1623.69,1828.39 1623.87,1811.19C1623.93,1804.83 1623.77,1799.58 1623.22,1796.44C1622.67,1793.28 1622.51,1785.64 1622.49,1776.61C1622.45,1757.55 1623.2,1732.51 1623.35,1728.79C1623.57,1723.17 1620.26,1668.42 1618.68,1634.04C1618.21,1623.75 1617.89,1615.3 1617.88,1610.61C1617.84,1592.23 1618.68,1557.18 1618.96,1534.65C1619.07,1525.67 1619.09,1518.65 1618.94,1515.39L1614.69,1381.44C1614.47,1375.53 1617.82,1345.73 1615.99,1328.82C1615.52,1324.5 1614.69,1320.93 1613.52,1318.53C1612.15,1315.73 1610.22,1314.16 1608.12,1313.59C1597.01,1310.57 1252.24,1319.7 1000.76,1327.9C896.735,1331.29 808.699,1334.49 766.978,1336.55C755.339,1337.12 747.274,1337.61 743.431,1337.98C741.909,1338.13 740.909,1338.3 740.448,1338.42C737.445,1339.21 737.128,1341.56 737.067,1342.28C737.067,1342.28 739.556,1379.05 739.556,1379.05ZM1605.52,1321.71C1605.75,1322.18 1606.49,1323.75 1606.79,1325.07C1607.8,1329.41 1608.09,1335.63 1608.06,1342.34C1607.99,1358.43 1606.03,1377.2 1606.19,1381.75L1610.44,1515.78C1610.59,1518.96 1610.57,1525.79 1610.46,1534.54C1610.18,1557.11 1609.34,1592.22 1609.38,1610.63C1609.39,1615.39 1609.71,1623.97 1610.19,1634.43C1611.76,1668.55 1615.07,1722.88 1614.85,1728.46C1614.71,1732.2 1613.95,1757.43 1613.99,1776.63C1614.01,1786.31 1614.26,1794.5 1614.85,1797.89C1615.34,1800.71 1615.43,1805.41 1615.37,1811.1C1615.21,1826.9 1613.77,1849.88 1614.48,1863.53C1612.76,1863.66 1610.53,1863.78 1607.88,1863.91C1583.47,1865.06 1525.34,1866.04 1508.71,1866.61C1457.67,1868.37 1422.9,1868.85 1381.14,1870.2C1364.5,1870.74 1346.75,1871.41 1326.43,1872.35C1310.03,1873.11 1291.14,1873.64 1271.67,1874.05C1222.43,1875.07 1169.48,1875.26 1143.55,1876.16C1135.03,1876.45 1043.26,1882.06 974.876,1885.76C940.01,1887.65 911.25,1889.05 902.846,1888.99C862.134,1888.68 798.948,1890.9 770.602,1891.14C765.773,1891.18 761.99,1891.17 759.554,1891.07C758.377,1883.8 756.623,1864.38 754.878,1842.93C752.214,1810.2 749.703,1772.79 749.785,1765.66C750.223,1727.5 748.817,1690.35 748.625,1652.82C748.543,1636.87 748.682,1620.85 749.277,1604.66C749.645,1594.68 749.57,1576.47 749.275,1555.19C748.741,1516.72 747.495,1468.16 746.892,1440.25C746.765,1434.38 746.795,1425.52 746.901,1416.43C747.095,1399.88 747.354,1382.5 747.584,1381.84C747.864,1381.03 748.012,1377.46 747.725,1372.63C747.25,1364.61 746.102,1352.3 745.684,1346.33C746.537,1346.25 747.496,1346.17 748.459,1346.11C758.842,1345.38 780.59,1344.36 810.626,1343.14C944.501,1337.74 1242.71,1328.51 1433.92,1324C1529.56,1321.74 1598.23,1320.52 1605.52,1321.71Z"/>
                    </g>
                    <g id="window">
                        <path d="M782.678,1418.36C785.762,1429.44 783.86,1444.33 784.82,1456.43C788.547,1503.41 784.792,1549.05 787.869,1596.14C790.501,1636.43 789.314,1678.34 792.757,1718.69C794.814,1742.81 792.381,1803.71 796.209,1808.45C799.505,1812.53 874.849,1805.89 908.234,1804.89C944.444,1803.8 981.107,1804.28 1017.11,1801.03C1045.02,1798.52 1071.82,1790.31 1099.65,1788.22C1125.32,1786.3 1151.36,1788.66 1177.06,1785.77C1195.73,1783.67 1275.64,1784.06 1279.06,1777.47C1283.64,1768.64 1281.97,1737.31 1282.74,1727.67C1287.07,1673.02 1285.84,1613.99 1285.51,1557.41C1285.43,1544.46 1286.63,1403.07 1286.21,1402.69C1286.04,1402.53 1177.86,1407.99 1163.38,1407.99C1105.22,1407.99 1047.22,1408.07 989.292,1411.33C947.763,1413.66 905.923,1414.68 864.568,1416.02C831.554,1417.09 811.527,1417.2 782.678,1418.36Z" style="fill:white;"/>
                        <path d="M782.508,1414.11C781.21,1414.16 780.008,1414.8 779.243,1415.85C778.479,1416.9 778.236,1418.25 778.584,1419.5C779.472,1422.69 779.895,1426.23 780.106,1429.92C780.61,1438.76 779.922,1448.42 780.583,1456.77C781.319,1466.05 781.761,1475.27 782.021,1484.47C783.076,1521.81 781.16,1558.64 783.628,1596.42C785.466,1624.56 785.437,1653.48 786.43,1682.1C786.86,1694.5 787.481,1706.85 788.522,1719.05C789.939,1735.66 789.211,1769.75 789.888,1790.81C790.092,1797.19 790.434,1802.41 790.974,1805.72C791.427,1808.49 792.235,1810.29 792.904,1811.12C793.511,1811.87 794.962,1812.95 797.537,1813.41C801.14,1814.05 808.763,1814.14 818.61,1813.84C844.327,1813.05 885.868,1809.81 908.362,1809.14C930.068,1808.49 951.936,1808.4 973.728,1807.73C988.375,1807.28 1002.99,1806.57 1017.49,1805.27C1039.9,1803.25 1061.59,1797.58 1083.67,1794.32C1089.08,1793.52 1094.5,1792.87 1099.97,1792.46C1117.87,1791.12 1135.95,1791.88 1153.97,1791.46C1161.84,1791.28 1169.7,1790.88 1177.53,1790C1190.62,1788.52 1233.82,1788.28 1259.61,1785.99C1268.82,1785.17 1275.94,1784 1279.16,1782.57C1281.17,1781.67 1282.29,1780.46 1282.83,1779.43C1284.53,1776.15 1285.6,1770.11 1286.12,1763.08C1287.03,1750.48 1286.46,1734.43 1286.97,1728.01C1288.73,1705.8 1289.58,1682.87 1289.94,1659.68C1290.47,1625.67 1289.95,1591.1 1289.76,1557.39C1289.7,1547.07 1290.45,1455.28 1290.54,1418.17C1290.56,1411.46 1290.55,1406.53 1290.52,1404.17C1290.48,1401.06 1289.13,1399.6 1289.06,1399.53C1289.02,1399.49 1287.63,1398.36 1284.82,1398.47C1282.95,1398.55 1279.04,1398.72 1273.73,1398.97C1244.99,1400.32 1174.83,1403.74 1163.38,1403.74C1128.47,1403.74 1093.62,1403.77 1058.81,1404.5C1035.54,1404.98 1012.29,1405.78 989.054,1407.08C972.489,1408.02 955.874,1408.74 939.261,1409.35C914.257,1410.28 889.256,1410.97 864.43,1411.77L782.508,1414.11ZM1282.04,1407.1C1282.06,1409.75 1282.05,1413.52 1282.04,1418.15C1281.95,1455.28 1281.2,1547.12 1281.26,1557.44C1281.45,1591.09 1281.97,1625.6 1281.44,1659.55C1281.09,1682.56 1280.25,1705.3 1278.5,1727.34C1277.99,1733.77 1278.56,1749.84 1277.64,1762.46C1277.27,1767.58 1276.74,1772.08 1275.61,1774.8C1275,1775.02 1273.71,1775.46 1272.59,1775.7C1267.32,1776.85 1258.7,1777.65 1248.71,1778.28C1222.87,1779.89 1188.11,1780.25 1176.58,1781.55C1169,1782.4 1161.39,1782.79 1153.77,1782.96C1135.61,1783.38 1117.38,1782.63 1099.34,1783.98C1093.66,1784.41 1088.03,1785.08 1082.43,1785.91C1060.51,1789.15 1038.97,1794.8 1016.73,1796.8C1002.39,1798.09 987.946,1798.79 973.469,1799.23C951.678,1799.9 929.811,1799.99 908.107,1800.64C888.64,1801.22 854.92,1803.72 829.509,1804.9C818.391,1805.41 808.89,1805.68 802.953,1805.4C801.69,1805.34 800.385,1805.19 799.506,1805.07C799.451,1804.83 799.4,1804.58 799.363,1804.35C798.862,1801.29 798.573,1796.44 798.383,1790.54C797.702,1769.35 798.417,1735.04 796.992,1718.33C795.962,1706.27 795.35,1694.07 794.925,1681.81C793.929,1653.09 793.953,1624.09 792.11,1595.87C789.649,1558.2 791.57,1521.46 790.517,1484.23C790.254,1474.89 789.804,1465.52 789.057,1456.1C788.4,1447.81 789.093,1438.22 788.592,1429.44C788.456,1427.04 788.232,1424.7 787.884,1422.46L787.884,1422.46L864.706,1420.27C889.545,1419.46 914.559,1418.77 939.576,1417.85C956.243,1417.23 972.912,1416.5 989.531,1415.57C1012.67,1414.27 1035.82,1413.48 1058.99,1412.99C1093.74,1412.27 1128.53,1412.24 1163.38,1412.24C1174.87,1412.24 1245.28,1408.81 1274.13,1407.46C1277.33,1407.31 1280.01,1407.19 1282.04,1407.1Z"/>
                    </g>
                    <g id="Roof">
                        <path d="M841.508,977.893C831.118,984.13 803.496,1051.21 799.581,1064.52C778.956,1134.64 760.666,1185.71 741.124,1259C733.819,1286.39 717.208,1371.12 718.875,1369.62C721.088,1367.63 801.23,1368.8 827.65,1368.26C872.894,1367.32 1024.31,1358.4 1072.42,1358.59C1123.95,1358.81 1219.31,1355.39 1302.31,1354.04C1365.88,1353 1436.49,1351.19 1498.41,1349.66C1533.15,1348.81 1620.26,1349.61 1626.41,1344.06C1627.65,1342.95 1596.49,1221.53 1587.79,1177.13C1577.11,1122.69 1571.34,1069.3 1561.23,1014.74C1559.99,1008.07 1559.68,962.44 1554.88,958.118C1553.77,957.12 1477.44,960.318 1454.5,960.318C1421.19,960.318 1363.27,959.281 1329.82,962.019C1270.69,966.859 1245.57,974.899 1185.95,974.899C1109.41,974.899 1033.23,980.659 956.708,980.659C932.349,980.659 911.085,979.317 883.562,979.48C875.036,979.531 837.527,977.893 841.508,977.893Z" style="fill:white;"/>
                        <path d="M842.268,974.479C842.93,974.52 844.091,974.589 845.349,974.651C854.556,975.107 877.173,976.018 883.541,975.98C891.313,975.934 898.587,976.007 905.573,976.137C923.334,976.466 939.222,977.159 956.708,977.159C1017.91,977.159 1078.88,973.472 1140,971.999C1155.31,971.63 1170.62,971.399 1185.95,971.399C1202.47,971.399 1216.33,970.778 1229,969.777C1261.95,967.174 1286.9,962.02 1329.54,958.53C1343.26,957.407 1361.07,956.914 1379.63,956.726C1406.42,956.455 1434.77,956.818 1454.5,956.818C1472.45,956.818 1523.12,954.857 1544.8,954.486C1549.25,954.41 1552.52,954.403 1554.08,954.487C1556.01,954.591 1557,955.319 1557.22,955.518C1558.79,956.926 1560.45,961.815 1561.36,968.579C1563.38,983.684 1563.77,1009.25 1564.67,1014.11C1572.77,1057.83 1578.09,1100.81 1585.38,1144.17C1587.18,1154.9 1589.11,1165.66 1591.22,1176.46C1597.97,1210.84 1618.19,1291.47 1626.37,1326.51C1628.08,1333.83 1629.26,1339.19 1629.71,1341.77C1630.23,1344.81 1628.99,1346.45 1628.76,1346.66C1627.83,1347.5 1625.63,1348.48 1622.24,1349.12C1617.63,1349.99 1610.29,1350.65 1601.33,1351.13C1571.25,1352.77 1522.44,1352.57 1498.5,1353.16C1461.28,1354.08 1420.92,1355.1 1380.83,1355.99C1354.22,1356.59 1327.73,1357.13 1302.37,1357.54C1240.12,1358.55 1170.92,1360.73 1118.47,1361.66C1100.96,1361.97 1085.31,1362.15 1072.41,1362.09C1061.01,1362.05 1043.8,1362.52 1023.58,1363.27C958.464,1365.68 862.227,1371.04 827.722,1371.76C827.722,1371.76 721.214,1372.22 721.214,1372.22C719.877,1373.42 718.568,1373.29 717.568,1372.9C716.873,1372.63 716.011,1372.11 715.526,1370.85C715.41,1370.55 715.188,1369.68 715.308,1368.28C715.454,1366.57 716.008,1362.93 716.874,1357.93C720.98,1334.21 732.115,1279.2 737.742,1258.1C743.363,1237.02 748.881,1217.77 754.381,1199.38C768.008,1153.81 781.522,1113.51 796.223,1063.53C798.782,1054.83 811.36,1023.37 822.765,1000.57C828.563,988.982 834.293,979.653 838.245,976.024C838.548,975.487 839.268,974.571 840.906,974.415C840.997,974.406 841.196,974.393 841.508,974.393C841.768,974.393 842.023,974.421 842.268,974.479ZM718.077,1366.18C717.268,1366.46 716.772,1366.8 716.536,1367.01C717.059,1366.55 717.58,1366.29 718.077,1366.18ZM1552.73,961.444C1552.95,962.048 1553.23,962.875 1553.41,963.626C1554.08,966.546 1554.61,970.566 1555.05,975.076C1556.55,990.369 1556.99,1011.04 1557.79,1015.38C1565.88,1059.07 1571.19,1102 1578.48,1145.33C1580.29,1156.13 1582.22,1166.95 1584.35,1177.81C1591.11,1212.25 1611.36,1293 1619.55,1328.1C1621.03,1334.43 1622.11,1339.25 1622.64,1342.01C1621.65,1342.23 1620.25,1342.39 1618.55,1342.63C1611.72,1343.62 1600.85,1344.26 1588.19,1344.7C1558.49,1345.73 1519.07,1345.65 1498.33,1346.16C1461.11,1347.08 1420.76,1348.1 1380.68,1349C1354.08,1349.59 1327.61,1350.13 1302.25,1350.54C1240,1351.55 1170.8,1353.73 1118.35,1354.66C1100.89,1354.97 1085.3,1355.15 1072.44,1355.09C1060.97,1355.05 1043.66,1355.52 1023.32,1356.27C958.242,1358.69 862.062,1364.05 827.577,1364.76C806.798,1365.19 752.795,1364.56 729.585,1365.23C726.858,1365.31 724.536,1365.41 722.717,1365.54C722.974,1363.83 723.332,1361.66 723.771,1359.12C727.852,1335.55 738.913,1280.87 744.506,1259.9C750.108,1238.89 755.607,1219.71 761.087,1201.38C774.717,1155.81 788.234,1115.5 802.938,1065.51C805.14,1058.02 814.921,1033.38 824.839,1012.34C831.613,997.965 838.166,985.17 842.47,981.508L845.003,981.642C854.303,982.103 877.15,983.018 883.583,982.98C891.294,982.934 898.512,983.007 905.444,983.136C923.249,983.466 939.178,984.159 956.708,984.159C972.035,984.159 987.348,983.929 1002.65,983.56C1063.76,982.086 1124.74,978.399 1185.95,978.399C1202.68,978.399 1216.72,977.769 1229.55,976.756C1262.51,974.152 1287.46,968.998 1330.11,965.507C1343.69,964.395 1361.33,963.912 1379.7,963.726C1406.47,963.455 1434.79,963.818 1454.5,963.818C1472.48,963.818 1523.22,961.856 1544.91,961.485C1548.36,961.426 1551.05,961.405 1552.73,961.444ZM843.601,980.696C843.509,980.767 843.411,980.833 843.309,980.894C843.188,980.966 843.065,981.048 842.941,981.138C843.208,981.024 843.427,980.875 843.601,980.696Z"/>
                    </g>
                    <g id="Chimney">
                        <path d="M1361.13,874.621C1359.79,873.416 1360.87,891.134 1360.87,894.94C1360.87,906.517 1360.18,917.108 1358.99,928.956C1357.99,938.869 1357.64,1030.31 1360.29,1036.66C1363.77,1045.04 1479.01,1031.07 1483.07,1025.65C1486.54,1021.03 1486.03,975.857 1485.34,964.207C1483.32,930.17 1488.05,854.062 1484.75,850.254C1480.38,845.229 1428.03,859.745 1421.79,861.14C1398.75,866.292 1377.37,868.714 1361.13,874.621Z" style="fill:white;"/>
                        <path d="M1360.75,869.979C1360.02,870.046 1359.33,870.313 1358.67,870.695C1358.04,871.066 1356.3,872.736 1356.06,876.037C1355.73,880.533 1356.37,891.951 1356.37,894.94C1356.37,900.683 1356.19,906.18 1355.88,911.712C1355.56,917.184 1355.1,922.691 1354.51,928.503C1353.87,934.886 1353.47,974.836 1353.98,1004.49C1354.28,1021.95 1355.13,1035.98 1356.13,1038.39C1356.77,1039.91 1358.68,1041.86 1362.5,1042.73C1368.48,1044.09 1381.7,1044.01 1397.38,1042.95C1424.83,1041.11 1460.06,1036.48 1475.89,1032.86C1482.14,1031.43 1485.87,1029.42 1486.67,1028.35C1488.15,1026.38 1489.55,1018.05 1489.98,1007.59C1490.64,992.023 1490.27,971.323 1489.83,963.941C1488.25,937.243 1490.83,884.618 1490.41,861.45C1490.31,856.082 1490.01,852.157 1489.54,850.241C1489.19,848.773 1488.6,847.834 1488.14,847.304C1487.24,846.262 1485.57,845.231 1483,844.879C1480.44,844.528 1476.38,844.743 1471.49,845.42C1454.22,847.812 1425.35,855.731 1420.81,856.748C1405.51,860.17 1390.94,862.387 1378.12,865.221C1371.89,866.599 1366.07,868.123 1360.75,869.979ZM1480.94,853.749C1481.09,855.135 1481.29,857.312 1481.36,859.387C1481.87,876.168 1480.31,912.811 1480.32,941.396C1480.32,950.075 1480.46,958.022 1480.85,964.474C1481.22,970.773 1481.54,986.972 1481.19,1001.12C1481,1008.76 1480.63,1015.78 1479.95,1020.25C1479.83,1021.03 1479.63,1021.91 1479.48,1022.5C1478.71,1022.78 1477.43,1023.21 1476.19,1023.53C1465.98,1026.15 1443.72,1029.46 1421.43,1031.81C1402.71,1033.78 1383.97,1035.09 1372.32,1034.71C1369.02,1034.6 1365.61,1034.04 1364.15,1033.77C1363.28,1028.79 1363.02,1012.12 1362.84,993.587C1362.57,966.234 1362.9,934.955 1363.47,929.408C1364.07,923.461 1364.54,917.828 1364.86,912.231C1365.19,906.527 1365.37,900.861 1365.37,894.94C1365.37,892.32 1364.83,882.992 1364.98,878.05C1369.63,876.493 1374.69,875.197 1380.06,874.009C1392.89,871.174 1407.46,868.955 1422.77,865.531C1426.28,864.747 1444.39,859.805 1460.32,856.538C1468.07,854.948 1475.28,853.738 1479.85,853.702C1480.2,853.699 1480.59,853.719 1480.94,853.749ZM1358.36,878.169C1359.3,878.898 1360.47,879.222 1361.63,879.091C1360.6,879.297 1359.5,879.094 1358.36,878.169Z"/>
                        <path d="M1409.12,961.146C1409.54,960.958 1405.41,980.867 1405.16,982.065C1404.4,985.739 1402.12,1005.81 1405.55,1009.05C1407.95,1011.32 1452.05,1004.73 1467.03,1002.66C1476.36,1001.36 1482.34,1002.19 1483.02,999.13C1483.96,994.908 1485.95,955.585 1485.09,954.808C1481.95,951.98 1459.16,954.983 1455.54,955.681C1434.06,959.823 1413.66,958.066 1409.12,961.146Z"/>
                        <path d="M1406.88,961.355C1406.84,961.629 1406.76,962.264 1406.65,962.865C1405.79,967.956 1403.16,980.659 1402.96,981.606C1402.44,984.094 1401.24,993.898 1401.5,1001.25C1401.65,1005.73 1402.59,1009.35 1404.01,1010.69C1404.38,1011.04 1405.17,1011.48 1406.44,1011.64C1408.47,1011.9 1412.68,1011.72 1418.06,1011.23C1432.9,1009.88 1457.02,1006.32 1467.34,1004.88C1473.59,1004.02 1478.37,1004.06 1481.11,1003.32C1483.53,1002.67 1484.81,1001.43 1485.22,999.618C1485.89,996.606 1487.11,975.94 1487.45,963.732C1487.56,959.934 1487.58,956.942 1487.48,955.521C1487.38,954.062 1486.79,953.314 1486.59,953.136C1486.05,952.648 1485.18,952.196 1483.99,951.907C1482.2,951.47 1479.44,951.318 1476.28,951.381C1468.24,951.542 1457.52,953.008 1455.12,953.471C1437.93,956.786 1421.43,956.31 1413.23,957.577C1410.77,957.957 1408.95,958.543 1407.86,959.283C1407.16,959.757 1406.8,960.561 1406.88,961.355ZM1482.99,956.225C1483.02,956.945 1483.05,958.105 1483.04,959.208C1482.95,969.631 1481.57,995.296 1480.82,998.642C1480.8,998.771 1480.62,998.742 1480.48,998.801C1479.97,999.01 1479.31,999.138 1478.54,999.25C1475.76,999.651 1471.73,999.734 1466.72,1000.43C1458.98,1001.5 1443.43,1003.78 1429.91,1005.42C1422.06,1006.37 1414.89,1007.1 1410.37,1007.25C1408.97,1007.29 1407.47,1007.18 1406.89,1007.13C1406.69,1006.77 1406.59,1006.23 1406.46,1005.61C1406.06,1003.72 1405.94,1001.17 1405.97,998.453C1406.02,991.973 1406.93,984.588 1407.36,982.524C1407.56,981.569 1410.22,968.755 1411.09,963.619C1411.15,963.239 1411.21,962.896 1411.25,962.596C1411.95,962.358 1412.85,962.19 1413.92,962.024C1422.15,960.752 1438.71,961.218 1455.97,957.89C1458.01,957.497 1466.23,956.364 1473.46,955.988C1476.49,955.831 1479.34,955.802 1481.45,956.035C1482.06,956.102 1482.59,956.136 1482.99,956.225ZM1407.32,962.498C1408.03,963.567 1408.99,963.672 1410.04,963.198C1409.07,963.634 1407.94,963.328 1407.32,962.498Z"/>
                        <path d="M1365.48,902.197C1364.25,902.197 1362.01,949.847 1362.6,950.113C1365.99,951.636 1397.58,943.474 1401.72,942.074C1406.79,940.363 1435.21,935.868 1435.25,935.747C1437.01,929.396 1434.19,915.466 1432.32,909.306C1431.39,906.237 1427.62,893.386 1425.47,891.448C1424.77,890.819 1372.6,902.197 1365.48,902.197Z"/>
                        <path d="M1365.48,899.947C1365.08,899.947 1363.39,900.395 1362.95,902.653C1362.66,904.151 1362.34,907.389 1362.02,911.517C1361.21,922.127 1360.42,938.767 1360.28,946.233C1360.25,948.005 1360.25,949.286 1360.29,949.894C1360.4,951.522 1361.48,952.073 1361.68,952.165C1362.28,952.434 1363.47,952.618 1365.13,952.514C1367.42,952.371 1370.93,951.796 1374.93,950.994C1385.6,948.853 1399.75,945.115 1402.44,944.206C1406.39,942.873 1424.67,939.853 1432.26,938.564C1433.74,938.315 1434.82,938.129 1435.33,938.032C1437.02,937.712 1437.4,936.409 1437.41,936.349C1438.2,933.517 1438.19,929.288 1437.71,924.831C1437.06,918.814 1435.6,912.362 1434.48,908.653C1433.86,906.622 1432.02,900.364 1430.2,895.719C1429.08,892.848 1427.86,890.569 1426.98,889.776C1426.82,889.632 1426.05,889.064 1424.63,889.215C1423.68,889.316 1421.71,889.65 1419.04,890.148C1405.08,892.75 1371.11,899.947 1365.48,899.947ZM1424.47,893.787C1425.14,894.89 1425.87,896.917 1426.67,899.104C1428.2,903.336 1429.64,908.225 1430.17,909.958C1431.24,913.478 1432.62,919.603 1433.24,925.314C1433.58,928.471 1433.71,931.494 1433.36,933.813C1432.85,933.9 1432.23,934.006 1431.51,934.128C1423.74,935.446 1405.04,938.579 1401,939.942C1398.68,940.726 1387.66,943.646 1377.93,945.767C1373.06,946.827 1368.52,947.689 1365.58,947.965C1365.31,947.99 1365.04,948.005 1364.77,948.013C1364.77,947.368 1364.77,946.594 1364.79,945.845C1364.98,936.905 1366,916.374 1366.91,907.117C1367.01,906.114 1367.15,905.079 1367.26,904.325C1371.49,903.888 1380.35,902.288 1389.96,900.43C1402.3,898.042 1415.91,895.256 1422.24,894.139C1423.05,893.997 1423.89,893.871 1424.47,893.787Z"/>
                    </g>
                    <g id="Door">
                        <path d="M1336.35,1824.03C1333.17,1789.52 1330.99,1734.55 1333.73,1699.96C1335.85,1673.17 1340.02,1600.05 1351.12,1576.76C1364.95,1547.7 1375.27,1522.51 1401.01,1501.92C1434.77,1474.91 1486.56,1475.78 1504.19,1519.25C1522.03,1563.24 1517.4,1668.6 1518.83,1731.05C1519.71,1769.88 1523.82,1810.38 1518.47,1817.32C1515.86,1820.71 1466.36,1820.02 1439.51,1822.03C1424.6,1823.15 1381.92,1826.05 1366.76,1826.05C1360.81,1826.05 1336.41,1823.96 1336.35,1824.03Z" style="fill:white;"/>
                        <path d="M1336.47,1827.28L1336.45,1827.29C1336.45,1827.29 1337.85,1827.38 1339.14,1827.49C1345.94,1828.01 1362.06,1829.3 1366.76,1829.3C1373.09,1829.3 1384.18,1828.8 1396.07,1828.13C1412.75,1827.19 1431.01,1825.93 1439.75,1825.28C1460.78,1823.7 1495.68,1823.78 1511.14,1822.26C1515.02,1821.88 1517.82,1821.32 1519.15,1820.73C1520.09,1820.31 1520.68,1819.77 1521.05,1819.3C1523.05,1816.71 1524.23,1809.96 1524.39,1800.42C1524.68,1783.45 1522.66,1756.85 1522.08,1730.98C1521.14,1689.88 1522.81,1630.23 1519,1581.66C1516.99,1555.97 1513.41,1533.34 1507.2,1518.03C1497.77,1494.78 1479.09,1483.06 1458.32,1480.85C1438.33,1478.72 1416.36,1485.48 1398.98,1499.38C1388.49,1507.77 1380.5,1516.9 1373.79,1526.72C1363.75,1541.41 1356.61,1557.67 1348.18,1575.36C1344.4,1583.31 1341.35,1596.89 1338.95,1612.52C1334.25,1643.17 1331.91,1681.78 1330.49,1699.71C1329.11,1717.1 1328.97,1739.62 1329.57,1762.12C1330.17,1784.58 1331.52,1807.02 1333.11,1824.33C1333.24,1825.64 1334.13,1826.74 1335.38,1827.13C1335.74,1827.24 1336.11,1827.29 1336.47,1827.28ZM1516.19,1814.88C1515.68,1815.01 1514.57,1815.28 1513.51,1815.43C1509.37,1816.03 1502.72,1816.41 1494.86,1816.71C1477.64,1817.37 1454.71,1817.63 1439.26,1818.79C1430.55,1819.45 1412.34,1820.71 1395.7,1821.64C1383.96,1822.3 1373.01,1822.8 1366.76,1822.8C1362.14,1822.8 1346.32,1821.52 1339.64,1821L1339.34,1820.98C1337.86,1804.2 1336.63,1783.08 1336.07,1761.95C1335.47,1739.69 1335.61,1717.42 1336.97,1700.22C1338.38,1682.39 1340.7,1643.99 1345.38,1613.5C1347.65,1598.65 1350.45,1585.71 1354.05,1578.15C1362.32,1560.79 1369.3,1544.81 1379.15,1530.39C1385.52,1521.07 1393.1,1512.41 1403.04,1504.46C1419.03,1491.66 1439.23,1485.35 1457.63,1487.31C1476.14,1489.29 1492.77,1499.75 1501.17,1520.47C1507.19,1535.31 1510.57,1557.26 1512.52,1582.17C1516.32,1630.62 1514.64,1690.13 1515.58,1731.13C1516.07,1752.88 1517.58,1775.15 1517.87,1791.76C1518,1798.93 1517.9,1805.03 1517.37,1809.51C1517.08,1811.9 1516.79,1813.76 1516.19,1814.88Z"/>
                        <path d="M1315.18,1825.66C1315.65,1825.66 1315.68,1831.84 1315.64,1832.38C1314.99,1841.67 1317.59,1875.24 1321.99,1883.17C1326.69,1891.66 1352.48,1888.28 1361.04,1888.7C1389.96,1890.15 1419.55,1887.62 1448.53,1887.62C1466.17,1887.62 1484.53,1885.08 1502.1,1883.22C1512.7,1882.09 1543.55,1883.56 1551.88,1879.82C1554.1,1878.82 1552.94,1867.69 1552.94,1865.66C1552.94,1851.24 1552.89,1836.53 1552.89,1822.4C1552.89,1822.04 1552.75,1820.81 1552.44,1820.67C1539.91,1815.03 1518.76,1820.31 1505.17,1819.49C1474.78,1817.67 1443.4,1823.59 1413.05,1825.3C1399.51,1826.06 1385.23,1824.37 1371.78,1826.39C1365.36,1827.35 1323.44,1824.26 1320.78,1829.65" style="fill:white;"/>
                        <path d="M1318.74,1826.99C1318.71,1826.52 1318.67,1826.1 1318.62,1825.77C1318.18,1822.98 1315.85,1822.41 1315.18,1822.41C1313.39,1822.41 1311.93,1823.87 1311.93,1825.66C1311.93,1826.12 1312.03,1826.56 1312.21,1826.96C1312.25,1827.85 1312.42,1831.82 1312.4,1832.15C1312.02,1837.63 1312.72,1851.38 1314.27,1863.58C1315.44,1872.83 1317.18,1881.2 1319.15,1884.75C1321.13,1888.33 1325.95,1890.61 1332.13,1891.54C1341.88,1893.03 1355.17,1891.66 1360.88,1891.95C1369.65,1892.39 1378.48,1892.47 1387.33,1892.36C1407.74,1892.11 1428.28,1890.87 1448.53,1890.87C1455.69,1890.87 1462.98,1890.45 1470.28,1889.84C1481.07,1888.92 1491.9,1887.57 1502.44,1886.45C1509.38,1885.71 1525.03,1886.1 1537.3,1885.39C1544.22,1884.99 1550.14,1884.16 1553.22,1882.78C1554.44,1882.23 1555.82,1880.51 1556.23,1877.73C1556.8,1873.89 1556.19,1867.21 1556.19,1865.66L1556.14,1822.4C1556.14,1821.76 1555.79,1819.84 1555.33,1819.09C1554.88,1818.37 1554.3,1817.95 1553.77,1817.71C1549.45,1815.76 1544.2,1814.96 1538.56,1814.81C1527.41,1814.51 1514.63,1816.81 1505.37,1816.25C1496.08,1815.69 1486.7,1815.85 1477.28,1816.38C1455.77,1817.61 1434.07,1820.86 1412.87,1822.06C1403.44,1822.58 1393.66,1821.92 1384.05,1822.16C1379.75,1822.26 1375.48,1822.55 1371.3,1823.17C1366.68,1823.87 1343.62,1822.43 1330.18,1823.62C1326.21,1823.97 1323,1824.58 1321.07,1825.43C1320.07,1825.87 1319.3,1826.41 1318.74,1826.99ZM1549.64,1823.05C1546.34,1821.87 1542.48,1821.41 1538.39,1821.31C1527.16,1821.01 1514.3,1823.3 1504.98,1822.74C1495.94,1822.19 1486.81,1822.35 1477.65,1822.87C1456.14,1824.1 1434.43,1827.35 1413.23,1828.54C1403.74,1829.08 1393.89,1828.41 1384.21,1828.65C1380.18,1828.75 1376.18,1829.01 1372.26,1829.6C1368.13,1830.22 1349.46,1829.21 1335.76,1829.78C1331.7,1829.95 1328.1,1830.26 1325.55,1830.82C1324.73,1831 1323.73,1831.4 1323.44,1831.52C1322.54,1832.81 1320.8,1833.29 1319.34,1832.57C1319.18,1832.49 1319.03,1832.4 1318.89,1832.29L1318.88,1832.6C1318.52,1837.86 1319.23,1851.05 1320.71,1862.76C1321.76,1870.97 1323.09,1878.45 1324.83,1881.6C1325.44,1882.7 1326.7,1883.37 1328.23,1883.94C1330.63,1884.83 1333.66,1885.29 1336.9,1885.54C1345.86,1886.21 1356.33,1885.22 1361.21,1885.46C1369.84,1885.89 1378.53,1885.97 1387.25,1885.86C1407.68,1885.61 1428.26,1884.37 1448.53,1884.37C1455.51,1884.37 1462.62,1883.96 1469.73,1883.36C1480.48,1882.45 1491.26,1881.1 1501.75,1879.99C1508.76,1879.24 1524.55,1879.62 1536.92,1878.9C1542.21,1878.59 1546.82,1878.14 1549.62,1877.21C1549.64,1875.26 1549.69,1867.04 1549.69,1865.66L1549.64,1823.05Z"/>
                        <path d="M1480.43,1676.49C1483.71,1676.49 1473.88,1676.99 1470.6,1676.99C1463.02,1676.99 1457.04,1679.89 1453.26,1686.7C1445.55,1700.58 1449.13,1727.21 1466.62,1727.79C1505.44,1729.06 1490.39,1684.29 1480.43,1676.49Z"/>
                        <path d="M1479.41,1673.41C1479.73,1673.3 1480.07,1673.24 1480.43,1673.24C1481.91,1673.24 1482.73,1673.78 1483.14,1674.54C1490.15,1680.99 1498.88,1702.68 1493.12,1717C1489.78,1725.29 1481.99,1731.54 1466.51,1731.04C1457.75,1730.75 1451.81,1725.1 1448.69,1717.26C1444.76,1707.35 1445.54,1693.9 1450.42,1685.12C1452.64,1681.13 1455.52,1678.3 1458.94,1676.45C1462.31,1674.62 1466.21,1673.74 1470.6,1673.74C1472.6,1673.74 1477.11,1673.55 1479.41,1673.41ZM1479.39,1679.92C1485.08,1685.64 1491.73,1703.03 1487.09,1714.58C1484.57,1720.82 1478.39,1724.92 1466.73,1724.54C1459.19,1724.29 1455.04,1717.94 1453.43,1710.54C1451.8,1703.06 1452.74,1694.33 1456.11,1688.28C1457.66,1685.48 1459.64,1683.46 1462.04,1682.16C1464.51,1680.82 1467.39,1680.24 1470.6,1680.24C1472.57,1680.24 1476.86,1680.07 1479.39,1679.92Z"/>
                    </g>
                </g>
                <g id="Bongles">
                    <g id="Bongles_outline">
                        <path d="M761.797,1723.04C740.742,1697.96 735.183,1686.86 743.281,1636.76C753.36,1574.39 797.406,1526.05 807.5,1463.59C824.233,1360.06 805.934,1278.1 794.258,1174.13C791.984,1153.88 786.854,1092.77 786.953,1073.3C787.376,990.615 818.267,902.023 849.297,899.542C881.544,896.963 903.981,950.849 911.367,974.556C922.097,1008.99 940.803,1142.64 944.668,1178.35C947.441,1203.98 943.45,1266.33 979.297,1259.61C1003.77,1255.02 996.665,1211.18 996.953,1194.39C997.728,1149.24 1001.47,1083.28 1004.14,1042.87C1006.6,1005.72 1010.19,940.559 1019.88,904.222C1027.57,875.396 1085.98,838.379 1103.2,887.347C1114.5,919.486 1121.14,967.437 1125.86,1005.69C1130.68,1044.76 1130.17,1075.81 1132.11,1121.77C1135.59,1204.36 1129.77,1288.82 1129.77,1371.31C1129.77,1392.52 1134.09,1535.39 1156.48,1535.18C1174.13,1535.01 1173.99,1506.41 1176.91,1481.41C1183.89,1421.9 1180.12,1301.09 1180.12,1301.09C1180.12,1301.09 1171.45,1132.74 1200.55,1110.92C1213.35,1101.32 1218.19,1126.79 1218.67,1131.57C1220.49,1149.63 1225.04,1166.44 1225.04,1166.44C1225.04,1166.44 1226.81,1151.75 1228.83,1138.36C1231.22,1122.55 1232.71,1107.55 1243.2,1108.35C1258.22,1109.49 1252.46,1131.11 1258.36,1158.8C1258.47,1159.34 1266.63,1135.26 1270.16,1127.35C1272.65,1121.76 1276.78,1105.26 1290.98,1109.12C1303.7,1112.58 1302.01,1148.39 1299.92,1218.8C1297.3,1307.28 1295.92,1398.68 1287.54,1488.24C1284.34,1522.41 1282.62,1587.91 1282.62,1587.91C1282.62,1587.91 1280.98,1657.11 1281.48,1687.71C1281.97,1717.28 1283.32,1776.41 1283.32,1776.41C1283.32,1776.41 1203.57,1778.29 1195.43,1787.45C1185.84,1798.23 1202.68,1830.81 1182.11,1833.7C1166.49,1835.89 1161.01,1833.35 1154.38,1821.22C1151.13,1815.29 1152.24,1792.45 1145.59,1795.03C1145.34,1795.12 1145.47,1794 1145.59,1794.24C1150.77,1804.44 1149.77,1841.42 1134.65,1842.49C1122.14,1843.37 1115.64,1834.05 1110.27,1822.23C1105.47,1811.66 1105.93,1796.52 1103.32,1797.33C1096.52,1799.47 1113.83,1858.62 1081.29,1847.91C1063.92,1842.2 1061.04,1782.46 1005.31,1765.74C940.522,1746.3 942.851,1754.01 872.344,1747.37C818.274,1742.28 789.83,1742.83 761.797,1723.04Z" style="fill:white;"/>
                        <path d="M1109.52,1839.05C1111.59,1841.82 1113.87,1844.2 1116.39,1846.1C1121.51,1849.94 1127.62,1852.06 1135.28,1851.53C1143.33,1850.97 1149.85,1845.15 1153.54,1835.76C1156.19,1838.5 1159.03,1840.37 1162.25,1841.64C1167.42,1843.67 1173.95,1844.08 1183.38,1842.76C1191.14,1841.67 1195.77,1837.95 1198.64,1833C1202.34,1826.64 1202.31,1816.83 1201.63,1807.14C1201.41,1803.89 1201.17,1800.68 1201.33,1797.77C1201.41,1796.31 1201.33,1794.92 1201.89,1793.91C1202.73,1793.59 1205.3,1792.62 1207.31,1792.13C1213.44,1790.63 1221.85,1789.47 1230.79,1788.54C1255.19,1785.99 1283.53,1785.25 1283.53,1785.25C1288.41,1785.14 1292.27,1781.09 1292.16,1776.21L1290.09,1687.57C1289.89,1677.33 1289.92,1662.74 1290.05,1647.89C1290.3,1618.5 1290.92,1588.11 1290.92,1588.11C1290.92,1588.13 1291.63,1558.33 1293.02,1528.48C1293.68,1514.23 1294.5,1499.98 1295.48,1488.99C1298.7,1453.15 1300.8,1417.04 1302.31,1380.93C1304.58,1326.59 1305.51,1272.27 1306.88,1219.01C1308.01,1175.93 1308.98,1145.66 1306.76,1127.7C1304.85,1112.24 1299.41,1104.59 1292.7,1102.79C1285.09,1100.75 1279.44,1102.71 1275.12,1106.29C1269.09,1111.3 1266.12,1120.54 1264.27,1124.73C1263.43,1126.62 1262.33,1129.43 1261.15,1132.62C1260.36,1123.79 1259.77,1116.58 1257.57,1111.83C1254.94,1106.15 1250.77,1102.72 1243.67,1102.2C1236.94,1101.71 1232.28,1104.84 1229.09,1110.75C1226.75,1115.09 1225.36,1121.46 1224.19,1128.55C1223.06,1122.48 1219.54,1109.88 1213.4,1105.35C1209.04,1102.14 1203.6,1101.2 1196.98,1106.16C1192.62,1109.43 1188.76,1115.33 1185.7,1123.37C1181.72,1133.89 1178.87,1148.35 1176.92,1164.59C1170.15,1220.85 1173.9,1298.78 1174.02,1301.34C1174.08,1303.19 1175.64,1356.54 1174.6,1409.24C1174.08,1435.35 1172.93,1461.29 1170.63,1480.67C1169.14,1493.18 1168.49,1506.61 1165.85,1516.76C1164.16,1523.22 1162.23,1528.51 1156.74,1528.75C1156.54,1528.58 1156.07,1528.15 1155.8,1527.82C1154.88,1526.69 1154.04,1525.17 1153.22,1523.37C1148.38,1512.7 1145,1493.48 1142.5,1472.26C1137.65,1431.26 1136.42,1382.92 1136.44,1371.31C1136.55,1313.63 1139.52,1254.99 1140.16,1196.7C1140.44,1171.52 1140.3,1146.41 1139.3,1121.47C1138.24,1094.65 1137.99,1072.91 1137.03,1051.69C1136.33,1036.34 1135.27,1021.27 1133.27,1004.78C1130.56,982.353 1127.19,956.622 1122.62,932.643C1119.29,915.132 1115.3,898.546 1110.5,884.783C1102.23,861.127 1085.86,854.108 1068.78,855.931C1044.22,858.552 1017.56,882.173 1012.18,902.168C1008.1,917.323 1005.01,937.389 1002.68,958.42C999.355,988.356 997.522,1020.27 996.062,1042.34C994.452,1066.76 992.456,1100.51 990.958,1133.38C989.972,1155.02 989.201,1176.28 988.897,1194.25C988.737,1203.73 991.129,1222.1 988.367,1236.66C986.994,1243.9 984.678,1250.42 977.816,1251.71C966.837,1253.77 961.972,1245.63 958.928,1235.39C953.468,1217.02 954.151,1191.57 952.621,1177.49C950.359,1156.68 943.059,1102.69 935.223,1054.33C929.513,1019.1 923.484,986.826 918.921,972.203C914.384,957.64 904.351,932.238 890.08,914.239C878.685,899.867 864.481,890.368 848.664,891.621C840.448,892.272 831.957,897.231 824.101,906.348C814.499,917.49 805.414,935.2 798.011,956.809C786.673,989.902 779.105,1032.29 778.864,1073.26C778.816,1081.55 779.686,1097.28 780.894,1114.27C782.549,1137.56 784.827,1163.23 786.145,1175.05C793.109,1237.49 802.493,1291.98 805.173,1347.99C806.921,1384.52 805.794,1421.71 799.205,1462.25C791.161,1511.75 761.384,1552.2 744.772,1598.07C740.422,1610.09 736.928,1622.45 734.825,1635.39C730.156,1664.11 730.021,1680.86 734.062,1694.34C737.642,1706.29 744.491,1715.85 755.173,1728.6C755.652,1729.17 756.202,1729.68 756.811,1730.11C770.968,1740.11 785.203,1745.36 802.341,1748.63C820.619,1752.12 842.394,1753.3 871.524,1756.07C915.094,1760.22 930.708,1758.81 951.732,1761.81C964.3,1763.61 978.833,1767.04 1002.76,1774.24C1018.02,1778.83 1028.82,1787.05 1036.93,1796.37C1050.87,1812.39 1057.33,1831.51 1064.03,1842.81C1068.35,1850.09 1073.22,1854.7 1078.49,1856.44C1086.12,1858.96 1091.98,1858.49 1096.43,1856.67C1100.87,1854.86 1104.24,1851.61 1106.61,1847.2C1107.88,1844.85 1108.83,1842.08 1109.52,1839.05ZM1149.23,1785.88C1151.3,1786.38 1153.15,1787.56 1154.83,1789.3C1156.93,1791.47 1158.89,1795.87 1159.9,1801.39C1160.55,1804.94 1161,1809.08 1161.55,1812.67C1161.82,1814.41 1161.9,1815.97 1162.38,1816.84C1164.56,1820.82 1166.11,1823.52 1168.92,1824.62C1171.83,1825.76 1175.52,1825.39 1180.84,1824.64C1182.8,1824.36 1183.3,1822.91 1183.55,1821.28C1183.81,1819.59 1183.86,1817.74 1183.82,1815.81C1183.66,1806.81 1182.3,1796.68 1184.3,1789.62C1185.2,1786.44 1186.64,1783.68 1188.65,1781.42C1189.92,1780.01 1191.89,1778.5 1194.69,1777.25C1198.27,1775.65 1203.87,1774.19 1210.66,1773.04C1229.85,1769.78 1259.64,1768.37 1274.33,1767.85L1272.88,1687.85C1272.74,1677.49 1272.86,1662.72 1273.07,1647.69C1273.5,1618.21 1274.31,1587.72 1274.31,1587.72C1274.31,1587.71 1274.31,1587.7 1274.31,1587.69C1274.31,1587.69 1275.18,1557.7 1276.78,1527.67C1277.56,1513.18 1278.51,1498.68 1279.6,1487.5C1283.06,1451.94 1285.41,1416.09 1287.18,1380.24C1289.86,1326 1291.18,1271.77 1292.96,1218.6C1294.1,1184.19 1295.13,1158.11 1294.37,1140.06C1293.97,1130.53 1293.15,1123.43 1291.37,1118.74C1290.75,1117.11 1290.4,1115.76 1289.25,1115.45C1285.94,1114.53 1283.68,1115.77 1282.08,1117.68C1278.78,1121.63 1277.26,1127.28 1276.05,1129.98C1273.36,1135.94 1267.96,1151.29 1265.54,1157.86C1264.98,1159.39 1264.56,1160.5 1264.34,1161.01C1260.71,1169.41 1252.5,1161.67 1252.17,1160.12C1248.82,1144.14 1249.32,1130.2 1247.49,1121.01C1246.79,1117.47 1246.07,1114.76 1242.73,1114.49C1240.38,1114.31 1239.69,1116.55 1238.79,1119.06C1236.87,1124.39 1235.98,1131.74 1234.82,1139.27L1230.98,1167.16C1230.64,1170 1228.33,1172.2 1225.47,1172.41C1222.62,1172.62 1220.01,1170.77 1219.26,1168.01C1219.26,1168.01 1217.28,1160.56 1215.38,1150.2C1214.39,1144.77 1213.41,1138.55 1212.77,1132.16C1212.56,1130.04 1211.37,1123.19 1208.74,1118.15C1207.93,1116.6 1207.37,1114.9 1206,1114.71C1205.41,1114.63 1204.86,1115.11 1204.11,1115.67C1201.15,1117.89 1198.9,1122.12 1196.83,1127.59C1193.13,1137.38 1190.57,1150.88 1188.77,1166C1182.07,1222.36 1186.21,1300.78 1186.21,1300.78C1186.21,1300.82 1186.21,1300.86 1186.21,1300.9C1186.21,1300.9 1187.97,1355.52 1187.05,1409.47C1186.59,1436.03 1185.48,1462.42 1183.2,1482.15C1181.35,1498.18 1180.54,1515.62 1176.02,1526.69C1172.22,1535.99 1166.04,1541.49 1156.55,1541.6C1152.78,1541.64 1149.06,1539.91 1145.82,1535.93C1141.67,1530.85 1137.96,1520.87 1135.09,1507.96C1125.5,1464.74 1123.12,1386.62 1123.1,1371.31C1122.98,1313.59 1125.71,1254.9 1126.11,1196.57C1126.28,1171.64 1126.01,1146.77 1124.91,1122.08C1123.72,1095.3 1123.38,1073.58 1122.32,1052.39C1121.57,1037.41 1120.47,1022.7 1118.45,1006.61C1115.67,984.508 1112.25,959.151 1107.64,935.528C1104.39,918.837 1100.55,903.022 1095.91,889.911C1090.73,875.287 1081.05,870.318 1070.48,871.493C1051.93,873.553 1031.58,891.151 1027.59,906.276C1023.75,920.805 1020.96,940.044 1018.77,960.188C1015.54,989.882 1013.67,1021.52 1012.22,1043.4C1010.6,1067.74 1008.6,1101.37 1007.09,1134.12C1006.1,1155.6 1005.32,1176.69 1005.01,1194.53C1004.8,1206.5 1007.83,1231.55 1001.97,1247.93C998.324,1258.14 991.657,1265.47 980.778,1267.51C964.498,1270.56 954.209,1263.24 947.718,1250.62C937.841,1231.4 938.624,1196.92 936.715,1179.21C934.486,1158.54 927.276,1104.91 919.532,1056.86C914.005,1022.57 908.243,991.145 903.814,976.91C899.682,963.652 890.685,940.455 877.68,924.079C869.862,914.234 860.771,906.587 849.93,907.462C845.171,907.846 840.716,911.447 836.172,916.735C827.607,926.705 819.744,942.664 813.156,961.986C802.364,993.638 795.213,1034.17 795.042,1073.34C795.007,1081.38 795.894,1096.64 797.089,1113.11C798.761,1136.14 801.049,1161.53 802.371,1173.22C809.474,1236.04 818.963,1290.84 821.753,1347.19C823.616,1384.82 822.511,1423.14 815.795,1464.93C813.716,1477.87 810.246,1490.23 805.926,1502.24C789.394,1548.2 759.683,1588.68 751.738,1638.12C748.573,1657.82 747.513,1671.13 748.925,1681.68C750.761,1695.39 757.105,1703.98 767.682,1716.6L767.684,1716.61C779.444,1724.69 791.357,1728.9 805.579,1731.59C823.434,1734.97 844.71,1736.02 873.163,1738.66C917.193,1742.77 932.963,1741.35 954.211,1744.34C967.419,1746.2 982.708,1749.71 1007.86,1757.23C1026.84,1762.9 1040.29,1773.08 1050.38,1784.64C1063.03,1799.13 1070.18,1815.87 1076.4,1828.07C1077.96,1831.11 1079.44,1833.83 1080.98,1836.05C1082.04,1837.58 1082.82,1838.97 1084.09,1839.39C1086.61,1840.22 1088.42,1840.75 1089.76,1839.98C1091.33,1839.08 1091.62,1836.97 1092.09,1834.77C1094.59,1823.27 1091.93,1806.8 1092.77,1799.73C1093.58,1792.86 1097.48,1789.72 1100.62,1788.73C1104.59,1787.48 1111,1788.13 1113.46,1796.75C1114.62,1800.81 1115.06,1810.91 1118.51,1818.49C1120.59,1823.08 1122.78,1827.28 1125.71,1830.26C1127.85,1832.42 1130.49,1833.7 1134.01,1833.44C1134.32,1833.42 1134.44,1833.08 1134.65,1832.83C1135.24,1832.12 1135.73,1831.25 1136.17,1830.28C1137.52,1827.33 1138.34,1823.65 1138.83,1819.84C1139.73,1812.76 1139.58,1805.14 1138.29,1800.55C1137.77,1799.88 1137.29,1799.07 1136.93,1798.09C1136.43,1796.71 1136.24,1793.77 1136.65,1792.12C1137.61,1788.31 1140.33,1786.61 1141.58,1786.01C1144.07,1784.8 1146.61,1784.74 1149.17,1785.85L1149.23,1785.88Z"/>
                    </g>
                    <path d="M874.426,1614.78C874.674,1615.92 876.357,1623.63 876.697,1624.71C877.453,1627.09 879.058,1630.01 881.037,1632.88C883.732,1636.8 887.105,1640.66 889.64,1642.94C894.586,1647.39 900.236,1650.24 906.223,1652.33C914.65,1655.26 923.759,1656.62 932.304,1659.18C936.869,1660.55 941.583,1661.34 946.369,1661.8C956.96,1662.82 967.911,1662.22 978.268,1663.25C1008.65,1666.29 1053.34,1672.42 1092.31,1685.13C1119.29,1693.92 1143.53,1705.82 1158.07,1722.18C1163.43,1728.21 1167.48,1734.64 1170.9,1741.3C1176.34,1751.86 1180.23,1762.98 1185.12,1774C1186.67,1777.48 1188.98,1782.55 1189.51,1787.29C1189.8,1789.85 1189.61,1792.31 1187.93,1794.08C1186.69,1795.38 1186.74,1797.43 1188.04,1798.67C1189.34,1799.91 1191.4,1799.86 1192.64,1798.56C1195.64,1795.41 1196.48,1791.13 1195.97,1786.57C1195.37,1781.16 1192.83,1775.33 1191.06,1771.36C1186.12,1760.23 1182.17,1749 1176.68,1738.32C1173.01,1731.19 1168.66,1724.32 1162.93,1717.86C1147.73,1700.76 1122.51,1688.14 1094.33,1678.95C1054.89,1666.09 1009.66,1659.86 978.915,1656.78C968.55,1655.75 957.591,1656.35 946.992,1655.33C942.631,1654.91 938.332,1654.21 934.171,1652.96C925.715,1650.42 916.698,1649.09 908.359,1646.19C903.179,1644.39 898.267,1641.96 893.988,1638.11C892.092,1636.4 889.679,1633.69 887.537,1630.8C885.471,1628.02 883.634,1625.08 882.893,1622.74C882.511,1621.54 881.431,1614.78 880.45,1612.27C879.508,1609.86 877.64,1609.28 876.771,1609.28C874.977,1609.28 873.521,1610.74 873.521,1612.53C873.521,1613.4 873.865,1614.19 874.426,1614.78ZM876.474,1615.77C876.573,1615.78 876.673,1615.78 876.771,1615.78L876.474,1615.77ZM876.187,1615.73C876.265,1615.74 876.343,1615.75 876.42,1615.76L876.187,1615.73Z"/>
                    <path d="M964.691,1399.44C961.448,1403.09 959.978,1407.7 957.749,1411.96C956.006,1415.29 953.613,1418.31 952.004,1421.73C949.64,1426.76 948.088,1431.96 946.297,1437.2C945.134,1440.6 944.262,1444.03 943.223,1447.46C942.194,1450.86 941.565,1454.24 940.716,1457.67C940.201,1459.76 938.927,1461.57 938.398,1463.66C935.77,1474.07 934.071,1488.57 947.028,1491.49C948.792,1491.88 951.208,1491.64 953,1491.5C960.038,1490.92 962.08,1482.42 968.622,1481.35C973.151,1480.61 976.424,1483.83 980.351,1485.31C986.837,1487.74 992.673,1486.55 997.019,1480.96C1001.65,1475.01 1000.45,1465.34 999.022,1458.47C997.977,1453.45 996.192,1448.98 994.827,1444.07C992.702,1436.42 990.846,1427.97 987.507,1420.76C985.877,1417.24 983.322,1414.21 981.699,1410.71C979.43,1405.81 973.832,1399.26 968.13,1398.41C966.591,1398.18 966.057,1399.44 964.691,1399.44Z"/>
                    <path d="M964.691,1398.44C964.405,1398.44 964.133,1398.56 963.944,1398.78C962.593,1400.3 961.534,1401.97 960.605,1403.73C959.266,1406.25 958.201,1408.93 956.863,1411.49C955.652,1413.81 954.123,1415.97 952.768,1418.23C952.166,1419.23 951.597,1420.25 951.099,1421.31C950.143,1423.34 949.316,1425.4 948.554,1427.49C947.421,1430.58 946.429,1433.72 945.351,1436.87C944.999,1437.9 944.673,1438.93 944.362,1439.97C943.64,1442.36 942.994,1444.77 942.266,1447.17C941.954,1448.2 941.677,1449.23 941.421,1450.26C940.828,1452.64 940.34,1455.03 939.745,1457.43C939.343,1459.07 938.457,1460.52 937.858,1462.08C937.691,1462.52 937.544,1462.96 937.429,1463.42C935.827,1469.76 934.607,1477.58 936.612,1483.53C938.057,1487.81 941.116,1491.18 946.809,1492.46C947.59,1492.64 948.488,1492.7 949.41,1492.7C950.677,1492.7 951.992,1492.58 953.081,1492.49C954.607,1492.37 955.921,1491.91 957.103,1491.24C959.367,1489.97 961.122,1487.88 962.971,1485.99C964.625,1484.29 966.353,1482.73 968.783,1482.34C970.395,1482.07 971.828,1482.38 973.192,1482.92C975.502,1483.83 977.633,1485.36 980,1486.24C983.452,1487.54 986.733,1487.85 989.727,1487.11C992.742,1486.37 995.48,1484.57 997.808,1481.58C999.798,1479.02 1000.79,1475.82 1001.15,1472.43C1001.65,1467.63 1000.87,1462.44 1000,1458.26C999.684,1456.74 999.301,1455.27 998.882,1453.83C997.912,1450.48 996.747,1447.25 995.79,1443.8C994.517,1439.22 993.339,1434.35 991.882,1429.62C990.893,1426.41 989.774,1423.27 988.414,1420.34C988.076,1419.61 987.7,1418.9 987.301,1418.2C985.775,1415.54 983.893,1413.07 982.606,1410.29C981.207,1407.27 978.59,1403.64 975.455,1401.01C973.239,1399.15 970.763,1397.79 968.279,1397.42C967.669,1397.33 967.169,1397.4 966.723,1397.55C966.327,1397.69 965.979,1397.89 965.629,1398.1C965.35,1398.26 965.076,1398.44 964.691,1398.44ZM965.179,1400.4C965.377,1400.37 965.562,1400.32 965.739,1400.26C966.173,1400.11 966.548,1399.87 966.939,1399.65C967.23,1399.49 967.535,1399.33 967.982,1399.4C970.647,1399.8 973.271,1401.56 975.51,1403.76C977.811,1406.03 979.702,1408.78 980.792,1411.13C981.129,1411.86 981.506,1412.57 981.906,1413.27C983.428,1415.92 985.309,1418.39 986.599,1421.18C987.922,1424.03 989.008,1427.09 989.971,1430.21C991.422,1434.92 992.595,1439.77 993.863,1444.34C994.822,1447.79 995.989,1451.02 996.961,1454.38C997.366,1455.78 997.737,1457.2 998.043,1458.67C998.876,1462.67 999.638,1467.63 999.157,1472.22C998.842,1475.23 997.995,1478.08 996.229,1480.35C994.213,1482.94 991.86,1484.53 989.25,1485.17C986.617,1485.82 983.737,1485.51 980.702,1484.37C977.912,1483.32 975.444,1481.41 972.635,1480.62C971.33,1480.26 969.956,1480.12 968.46,1480.36C965.589,1480.83 963.494,1482.58 961.539,1484.59C959.822,1486.35 958.221,1488.32 956.12,1489.5C955.179,1490.03 954.133,1490.4 952.918,1490.5C951.877,1490.59 950.621,1490.7 949.411,1490.7C948.644,1490.7 947.897,1490.66 947.248,1490.51C942.378,1489.41 939.744,1486.56 938.507,1482.89C936.614,1477.27 937.855,1469.89 939.368,1463.91C939.781,1462.27 940.669,1460.82 941.262,1459.25C941.429,1458.82 941.574,1458.37 941.687,1457.91C942.282,1455.51 942.769,1453.12 943.361,1450.74C943.61,1449.75 943.878,1448.75 944.18,1447.75C944.908,1445.35 945.554,1442.94 946.277,1440.55C946.581,1439.54 946.9,1438.53 947.244,1437.52C948.317,1434.38 949.304,1431.26 950.432,1428.17C951.174,1426.15 951.978,1424.14 952.909,1422.16C953.378,1421.16 953.915,1420.2 954.483,1419.26C955.858,1416.97 957.406,1414.77 958.636,1412.42C959.972,1409.87 961.035,1407.18 962.372,1404.66C963.167,1403.16 964.059,1401.72 965.179,1400.4L965.179,1400.4Z"/>
                    <path d="M884.818,1524.12C884.827,1524.72 884.857,1525.53 884.941,1525.89L886.306,1531.09L890.296,1546.07C892.359,1552.56 896.268,1560.84 901.952,1566.2C906.153,1570.17 911.297,1572.59 917.334,1571.97C920.512,1571.64 923.588,1570.59 926.487,1569.1C930.614,1566.99 934.383,1563.98 937.573,1561.03C943.996,1555.11 949.365,1548.2 953.642,1540.67C957.906,1533.15 961.084,1525.01 963.139,1516.59C965.53,1506.79 965.222,1504.23 966.515,1498.06C966.936,1496.05 967.534,1493.65 968.464,1490.46C968.851,1489.14 968.089,1487.75 966.764,1487.36C965.439,1486.98 964.05,1487.74 963.664,1489.06C962.689,1492.41 962.064,1494.93 961.622,1497.04C960.34,1503.15 960.652,1505.69 958.281,1515.41C956.336,1523.38 953.33,1531.09 949.293,1538.2C945.271,1545.29 940.225,1551.79 934.183,1557.36C931.308,1560.01 927.925,1562.75 924.205,1564.65C921.863,1565.86 919.388,1566.73 916.821,1566.99C912.314,1567.46 908.521,1565.53 905.385,1562.57C900.313,1557.78 896.902,1550.35 895.061,1544.55L891.139,1529.8L889.808,1524.75C889.681,1524.21 889.83,1523.03 889.733,1522.5C889.592,1521.73 889.233,1521.23 888.927,1520.92C888.111,1520.13 886.869,1519.45 885.249,1520.91C884.326,1521.74 884.166,1523.11 884.818,1524.12ZM887.796,1525.11C888.052,1525.02 888.32,1524.87 888.593,1524.63C888.353,1524.84 888.082,1525 887.796,1525.11Z"/>
                    <path d="M966.133,1492.26L966.42,1497.53C966.81,1500.76 967.235,1503.99 967.71,1507.2C968.185,1510.43 968.71,1513.65 969.299,1516.86C970.869,1525.4 973.721,1537.47 979.373,1546.56C983.526,1553.24 989.179,1558.33 996.75,1559.74C1007.21,1561.69 1015.79,1558.58 1022.86,1552.84C1032.83,1544.75 1039.73,1531.24 1044.61,1519.89L1050.72,1503.99L1052.59,1499.64C1052.93,1498.74 1053.88,1495 1053.65,1493.7C1053.31,1491.72 1052.01,1491.11 1050.54,1491.31C1049.17,1491.5 1048.21,1492.75 1048.4,1494.12C1048.44,1494.4 1048.52,1494.65 1048.63,1494.89C1048.46,1495.67 1048.06,1497.48 1047.91,1497.87L1046.07,1502.16L1040.01,1517.92C1035.43,1528.58 1029.08,1541.36 1019.71,1548.96C1013.74,1553.81 1006.5,1556.47 997.665,1554.83C991.492,1553.68 987.005,1549.37 983.619,1543.92C978.303,1535.37 975.693,1524 974.217,1515.96C973.638,1512.81 973.123,1509.64 972.656,1506.48C972.188,1503.3 971.769,1500.12 971.384,1496.93L970.947,1488.87C970.84,1487.94 970.759,1486.28 970.343,1485.55C969.642,1484.33 968.591,1483.76 967.063,1484.15C966.012,1484.41 965.224,1485.05 964.67,1485.99C964.165,1486.85 963.941,1488.11 963.664,1489.06C963.278,1490.39 964.04,1491.78 965.365,1492.16C965.621,1492.24 965.88,1492.27 966.133,1492.26ZM1050.49,1496.26L1050.7,1496.28L1050.96,1496.29C1050.8,1496.29 1050.64,1496.28 1050.49,1496.26ZM1050.96,1496.29C1051.04,1496.28 1051.12,1496.28 1051.21,1496.27L1050.96,1496.29Z"/>
                    <path d="M882.159,1457.29C881.711,1456.08 877.101,1457.22 876.389,1457.42C870.905,1459.02 865.042,1461.85 860.54,1465.4C853.404,1471.02 845.508,1482.8 846.316,1492.26C846.633,1495.97 848.862,1499.26 850.978,1502.2C856.563,1509.97 862.749,1514.11 872.244,1516.06C881.005,1517.85 888.514,1515.04 896.156,1511.21C899.999,1509.29 903.665,1507.74 905.315,1503.45C909.967,1491.35 907.738,1475.45 898.247,1466.54C894.114,1462.66 887.918,1456.75 882.159,1457.29Z"/>
                    <path d="M883.008,1454.76C882.568,1454.52 882.036,1454.35 881.411,1454.28C879.576,1454.08 876.328,1454.84 875.69,1455.02C872.811,1455.86 869.831,1457.02 866.981,1458.44C864.112,1459.87 861.374,1461.56 858.993,1463.43C854.502,1466.97 849.72,1472.8 846.757,1479.06C844.639,1483.53 843.462,1488.22 843.825,1492.47C843.977,1494.24 844.483,1495.94 845.211,1497.55C846.193,1499.73 847.586,1501.77 848.948,1503.66C851.947,1507.83 855.12,1511.02 858.808,1513.43C862.48,1515.83 866.668,1517.47 871.743,1518.51C875.527,1519.28 879.097,1519.27 882.546,1518.71C887.616,1517.89 892.424,1515.88 897.274,1513.45C899.795,1512.19 902.225,1511.04 904.167,1509.33C905.627,1508.05 906.834,1506.46 907.648,1504.35C910.117,1497.93 910.78,1490.5 909.569,1483.49C908.327,1476.31 905.12,1469.57 899.958,1464.72C897.424,1462.34 894.137,1459.25 890.647,1457.19C888.156,1455.72 885.551,1454.79 883.008,1454.76ZM880.651,1459.28C881.136,1459.65 881.752,1459.84 882.391,1459.78C884.292,1459.6 886.229,1460.39 888.109,1461.5C891.276,1463.37 894.235,1466.2 896.536,1468.36C900.921,1472.48 903.587,1478.24 904.642,1484.34C905.699,1490.46 905.137,1496.95 902.981,1502.55C902.486,1503.84 901.749,1504.8 900.861,1505.58C899.231,1507.02 897.154,1507.92 895.037,1508.98C891.38,1510.81 887.759,1512.41 883.998,1513.32C880.427,1514.19 876.728,1514.42 872.745,1513.61C868.354,1512.71 864.721,1511.32 861.544,1509.24C858.343,1507.15 855.611,1504.36 853.008,1500.74C851.836,1499.11 850.615,1497.37 849.77,1495.5C849.274,1494.4 848.91,1493.25 848.807,1492.04C848.441,1487.76 850.13,1482.96 852.642,1478.59C855.236,1474.07 858.746,1469.99 862.087,1467.36C864.208,1465.69 866.651,1464.19 869.208,1462.92C871.787,1461.64 874.482,1460.58 877.088,1459.83C877.445,1459.72 879.906,1459.38 880.651,1459.28Z"/>
                    <path d="M1067.22,1427.53C1065.17,1427.22 1062.83,1428.24 1060.94,1428.85C1054.31,1431.01 1049.26,1434.95 1044.89,1440.32C1040.05,1446.26 1031.77,1453.06 1031.4,1461.46C1030.83,1474.25 1038.49,1491.5 1052.93,1493.2C1060.66,1494.11 1067.51,1490.36 1073.09,1485.34C1082.76,1476.64 1088.1,1466.68 1085.61,1453.24C1083.71,1442.97 1079.19,1427.06 1067.22,1427.53Z"/>
                    <path d="M1067.34,1425.02C1066.29,1424.9 1065.2,1425 1064.1,1425.25C1062.73,1425.55 1061.36,1426.09 1060.17,1426.47C1056.59,1427.64 1053.44,1429.28 1050.59,1431.36C1047.79,1433.41 1045.28,1435.88 1042.95,1438.74C1040.03,1442.33 1035.87,1446.24 1032.9,1450.61C1030.65,1453.92 1029.07,1457.5 1028.9,1461.35C1028.54,1469.54 1031.33,1479.44 1036.94,1486.47C1040.87,1491.39 1046.15,1494.92 1052.64,1495.68C1056.96,1496.19 1061.04,1495.41 1064.82,1493.78C1068.43,1492.23 1071.77,1489.89 1074.76,1487.2C1079.9,1482.57 1083.87,1477.59 1086.24,1471.99C1088.63,1466.32 1089.41,1460.02 1088.07,1452.79C1086.91,1446.51 1084.76,1438.25 1080.74,1432.51C1077.53,1427.91 1073.16,1424.87 1067.34,1425.02ZM1066.85,1430C1067,1430.02 1067.16,1430.03 1067.32,1430.02C1071.42,1429.86 1074.39,1432.16 1076.65,1435.37C1080.27,1440.55 1082.11,1448.04 1083.15,1453.7C1084.29,1459.86 1083.66,1465.22 1081.63,1470.04C1079.53,1475 1075.97,1479.38 1071.42,1483.48C1068.84,1485.81 1065.96,1487.84 1062.84,1489.19C1059.86,1490.47 1056.64,1491.12 1053.22,1490.71C1046.78,1489.96 1041.92,1485.65 1038.67,1480.19C1035.28,1474.49 1033.63,1467.52 1033.9,1461.57C1034.03,1458.64 1035.33,1455.94 1037.04,1453.42C1039.93,1449.17 1043.99,1445.39 1046.83,1441.89C1048.88,1439.38 1051.08,1437.2 1053.54,1435.4C1055.97,1433.63 1058.66,1432.22 1061.72,1431.23C1062.77,1430.89 1063.98,1430.4 1065.19,1430.13C1065.75,1430 1066.31,1429.92 1066.85,1430Z"/>
                    <path d="M858.329,996.595C858.329,996.461 856.654,996.343 856.414,996.3C852.328,995.565 846.38,996.325 843.714,999.724C837.092,1008.17 836.138,1018.98 835.727,1029.32C834.964,1048.53 839.949,1069.48 842.303,1088.55C846.06,1118.98 848.325,1150.02 855.859,1179.85C858.675,1190.99 864.03,1222.52 880.074,1220.71C893.63,1219.19 894.135,1187.68 895.368,1177.13C897.977,1154.82 892.74,1131.28 891.614,1108.96C890.395,1084.83 890.644,1057.45 884.13,1033.99C880.511,1020.95 879.295,1010.12 867.148,1002.83C863.276,1000.51 862.168,991.845 858.329,996.595Z"/>
                    <path d="M857.298,993.391C857.13,993.372 857.001,993.358 856.945,993.348C854.098,992.835 850.482,992.945 847.354,993.946C844.927,994.723 842.796,996.034 841.354,997.873C838.464,1001.56 836.552,1005.65 835.283,1009.97C833.469,1016.13 832.986,1022.75 832.729,1029.2C832.492,1035.17 832.794,1041.3 833.402,1047.49C834.765,1061.4 837.683,1075.61 839.326,1088.92C841.582,1107.19 843.301,1125.68 845.944,1144.01C847.719,1156.32 849.911,1168.55 852.951,1180.58C854.894,1188.28 858.109,1205.37 864.93,1215.26C868.876,1220.98 874.004,1224.41 880.409,1223.69C886.014,1223.06 890.084,1218.53 892.686,1211.91C896.941,1201.1 897.514,1184.61 898.348,1177.48C899.154,1170.58 899.233,1163.56 898.911,1156.5C898.185,1140.56 895.396,1124.39 894.61,1108.81C893.879,1094.34 893.672,1078.7 892.229,1063.44C891.245,1053.02 889.686,1042.78 887.021,1033.19C884.773,1025.09 883.372,1017.84 879.925,1011.69C877.476,1007.32 874.049,1003.47 868.691,1000.26C867.643,999.63 866.981,998.278 866.282,997.11C865.371,995.588 864.47,994.206 863.551,993.418C862.346,992.384 861.031,992.008 859.623,992.268C858.932,992.396 858.138,992.713 857.298,993.391ZM860.258,998.89C860.679,999.523 861.231,1000.36 861.626,1001C862.72,1002.78 864.027,1004.46 865.604,1005.4C869.931,1008 872.714,1011.09 874.691,1014.62C877.92,1020.38 879.134,1027.21 881.24,1034.79C883.813,1044.06 885.305,1053.95 886.256,1064C887.69,1079.18 887.891,1094.72 888.618,1109.11C889.403,1124.68 892.191,1140.85 892.917,1156.77C893.224,1163.51 893.158,1170.2 892.388,1176.78C891.696,1182.7 891.262,1195.34 888.521,1205.38C886.796,1211.7 884.527,1217.19 879.738,1217.73C874.141,1218.36 870.445,1213.65 867.497,1207.8C862.732,1198.32 860.356,1185.4 858.768,1179.11C855.779,1167.28 853.628,1155.25 851.882,1143.15C849.246,1124.87 847.532,1106.41 845.281,1088.18C843.644,1074.93 840.732,1060.76 839.373,1046.9C838.793,1040.99 838.498,1035.14 838.725,1029.44C838.961,1023.48 839.363,1017.36 841.039,1011.66C842.096,1008.07 843.668,1004.64 846.075,1001.58C847.016,1000.38 848.592,999.741 850.239,999.378C852.153,998.956 854.207,998.951 855.882,999.253C856.023,999.278 856.961,999.383 857.33,999.424C858.345,999.782 859.457,999.566 860.258,998.89Z"/>
                    <path d="M908.949,1316.61C899.767,1316.61 887.79,1317.37 876.877,1319.93C869.109,1321.76 861.88,1324.52 856.457,1328.48C848.403,1334.37 840.249,1344.95 839.477,1354.76C838.922,1361.8 841.797,1368.61 850.837,1373.36C854.044,1375.04 857.949,1376 862.054,1376.54C867.546,1377.27 873.409,1377.28 878.186,1377.64C888.203,1378.39 902.495,1377.5 915.397,1374.58C924.621,1372.49 933.132,1369.35 938.998,1365.13C940.62,1363.96 942.303,1362.64 943.908,1361.23C945.544,1359.79 947.099,1358.27 948.435,1356.72C953.652,1350.68 954.526,1343.85 952.572,1337.61C950.722,1331.7 946.234,1326.31 940.377,1322.8C936.882,1320.7 932.509,1319.25 927.905,1318.31C921.353,1316.96 914.332,1316.61 908.949,1316.61ZM908.949,1322.61C913.988,1322.61 920.563,1322.92 926.697,1324.18C930.6,1324.99 934.325,1326.16 937.288,1327.94C941.844,1330.68 945.407,1334.81 946.847,1339.4C948.217,1343.78 947.554,1348.56 943.895,1352.8C942.731,1354.14 941.374,1355.47 939.949,1356.72C938.492,1358 936.965,1359.2 935.492,1360.26C930.178,1364.09 922.43,1366.84 914.074,1368.73C901.786,1371.5 888.175,1372.37 878.635,1371.65C873.96,1371.3 868.221,1371.31 862.846,1370.6C859.478,1370.15 856.257,1369.42 853.625,1368.04C847.323,1364.74 845.072,1360.14 845.458,1355.23C846.107,1346.99 853.23,1338.27 859.998,1333.32C864.837,1329.79 871.319,1327.4 878.25,1325.77C888.695,1323.32 900.16,1322.61 908.949,1322.61Z"/>
                    <path d="M899.374,1326.82C869.914,1326.82 875.882,1370.48 904.388,1368.34C923.766,1366.89 929.311,1339.61 913.107,1329.4C908.35,1326.41 904.784,1326.53 899.374,1326.82Z"/>
                    <path d="M899.294,1323.82C881.93,1323.86 875.266,1337.06 877.292,1349.62C879.187,1361.36 888.866,1372.51 904.613,1371.33C915.813,1370.49 923.052,1362.21 925.056,1352.63C927.023,1343.23 923.896,1332.66 914.706,1326.87C912.524,1325.49 910.551,1324.69 908.583,1324.23C905.729,1323.55 902.878,1323.63 899.288,1323.82L899.294,1323.82ZM899.374,1329.82C899.427,1329.82 899.48,1329.82 899.533,1329.82C902.02,1329.68 904.083,1329.57 906.071,1329.85C907.848,1330.11 909.553,1330.71 911.507,1331.94C918.432,1336.31 920.665,1344.32 919.183,1351.4C917.701,1358.49 912.449,1364.73 904.164,1365.35C892.08,1366.26 884.67,1357.67 883.215,1348.66C881.732,1339.47 886.639,1329.82 899.374,1329.82Z"/>
                    <path d="M1046.72,1316.54C1038.72,1316.55 1030.54,1318.01 1022.59,1320.36C1014.74,1322.68 1007.11,1325.87 1000.11,1329.38C996.944,1330.95 992.915,1333.1 989.584,1335.75C987.046,1337.77 984.916,1340.09 983.681,1342.63C978.15,1354.01 982.751,1363.29 991.666,1370.06C1003.01,1378.67 1021.66,1382.94 1032.16,1382.15C1043.89,1381.27 1057.35,1378.66 1068.5,1372.75C1076.26,1368.63 1082.92,1362.91 1087.24,1355.13C1090.03,1350.12 1089.74,1343.31 1087.32,1337.12C1085,1331.2 1080.78,1325.93 1076.04,1323.44C1071.91,1321.27 1066.93,1319.42 1061.83,1318.18C1056.65,1316.92 1051.36,1316.29 1046.71,1316.54L1046.72,1316.54ZM1046.8,1322.54C1046.86,1322.54 1046.91,1322.54 1046.97,1322.54C1051.1,1322.3 1055.81,1322.89 1060.41,1324.01C1065.02,1325.13 1069.52,1326.79 1073.25,1328.75C1076.87,1330.65 1079.96,1334.78 1081.73,1339.31C1083.46,1343.74 1083.99,1348.62 1082,1352.21C1078.25,1358.96 1072.42,1363.87 1065.68,1367.45C1055.26,1372.98 1042.67,1375.34 1031.71,1376.17C1022.27,1376.88 1005.5,1373.03 995.294,1365.28C988.751,1360.31 985.017,1353.6 989.077,1345.25C989.95,1343.46 991.524,1341.87 993.318,1340.45C996.312,1338.07 999.948,1336.16 1002.79,1334.74C1009.49,1331.39 1016.78,1328.33 1024.29,1326.11C1031.71,1323.92 1039.34,1322.54 1046.8,1322.54Z"/>
                    <path d="M1039.37,1328.43C1017.63,1322.84 1008.58,1370.48 1033.45,1371.72C1037.79,1371.94 1042.28,1371.34 1046.35,1369.77C1060.88,1364.16 1058.61,1346.88 1051.26,1336.96C1046.57,1330.62 1047.45,1322.44 1039.37,1328.43Z"/>
                    <path d="M1038.72,1325.22C1026.74,1323.14 1017.88,1334.61 1015.91,1347.4C1013.9,1360.45 1019.04,1374.01 1033.3,1374.72C1035.66,1374.84 1038.07,1374.73 1040.43,1374.38C1042.83,1374.03 1045.19,1373.43 1047.43,1372.57C1054.22,1369.95 1057.88,1365.15 1059.33,1359.61C1061.42,1351.61 1058.64,1341.87 1053.67,1335.17C1050.89,1331.42 1049.94,1327.09 1048.12,1325.19C1046.19,1323.18 1043.47,1322.13 1038.72,1325.22ZM1043.8,1329.37C1043.9,1329.49 1044.07,1329.69 1044.16,1329.85C1044.43,1330.29 1044.68,1330.8 1044.94,1331.36C1045.94,1333.54 1047.01,1336.26 1048.85,1338.74C1052.14,1343.18 1054.33,1349.27 1054.01,1354.87C1053.73,1360 1051.22,1364.68 1045.27,1366.97C1043.44,1367.68 1041.52,1368.16 1039.57,1368.45C1037.59,1368.74 1035.58,1368.82 1033.6,1368.72C1023.23,1368.21 1020.38,1357.81 1021.84,1348.31C1023.34,1338.59 1029.34,1328.95 1038.62,1331.34C1039.5,1331.56 1040.43,1331.38 1041.15,1330.84C1042.27,1330.01 1043.48,1329.5 1043.8,1329.37Z"/>
                    <path d="M1060.94,987.751C1055.39,985.257 1051.99,991.85 1050.38,996.209C1045.82,1008.53 1046.63,1021.34 1045.04,1034.24C1042.18,1057.42 1044.02,1079.91 1044.74,1103.09C1045.43,1125.59 1046.2,1148.37 1048.46,1170.76C1049.36,1179.62 1051.28,1209.93 1065.88,1208.29C1081.59,1206.52 1082.76,1179.47 1083.87,1168.49C1086.29,1144.46 1084.9,1119.88 1084.9,1095.76C1084.9,1075.39 1086.19,1052.48 1081.75,1032.49C1079.22,1021.11 1076.45,1006.02 1068.85,996.89C1067.01,994.689 1064.07,984.227 1060.94,987.751Z"/>
                    <path d="M1060.46,984.418C1057.71,983.733 1055.34,984.53 1053.32,986.127C1050.64,988.247 1048.69,992.135 1047.57,995.168C1046.13,999.039 1045.2,1002.96 1044.56,1006.91C1043.12,1015.76 1043.18,1024.8 1042.06,1033.87C1040.9,1043.25 1040.5,1052.51 1040.49,1061.75C1040.47,1075.51 1041.31,1089.22 1041.74,1103.18C1042.15,1116.7 1042.6,1130.32 1043.38,1143.9C1043.9,1152.98 1044.57,1162.05 1045.48,1171.06C1046.1,1177.24 1047.31,1193.43 1052.55,1202.9C1055.67,1208.54 1060.16,1211.95 1066.21,1211.27C1072.15,1210.6 1076.44,1207.02 1079.45,1201.87C1085.12,1192.2 1086.06,1176.6 1086.85,1168.79C1087.83,1159.08 1088.19,1149.28 1088.28,1139.45C1088.4,1124.87 1087.9,1110.23 1087.9,1095.76C1087.9,1083.54 1088.36,1070.41 1087.78,1057.54C1087.38,1048.73 1086.5,1040.05 1084.68,1031.84C1083.15,1024.97 1081.53,1016.76 1078.85,1009.29C1076.92,1003.92 1074.45,998.927 1071.15,994.969C1070.42,994.093 1069.56,991.728 1068.51,989.675C1067.5,987.696 1066.32,985.962 1065.18,985.085C1064.04,984.213 1062.84,983.91 1061.67,984.073C1061.28,984.127 1060.87,984.235 1060.46,984.418ZM1061.99,990.558C1062.47,991.289 1063.2,992.442 1063.63,993.33C1064.72,995.597 1065.75,997.863 1066.54,998.81C1069.42,1002.26 1071.52,1006.64 1073.2,1011.32C1075.79,1018.55 1077.34,1026.49 1078.82,1033.14C1080.57,1041.02 1081.4,1049.36 1081.79,1057.81C1082.36,1070.59 1081.9,1083.63 1081.9,1095.76C1081.9,1110.22 1082.4,1124.83 1082.28,1139.4C1082.2,1149.04 1081.84,1158.66 1080.88,1168.19C1080.25,1174.45 1079.65,1186.13 1076.11,1195.02C1074,1200.33 1070.9,1204.7 1065.54,1205.31C1060.72,1205.85 1058.09,1201.49 1056.11,1196.28C1052.75,1187.4 1051.95,1175.44 1051.45,1170.45C1050.55,1161.53 1049.88,1152.55 1049.37,1143.55C1048.59,1130.03 1048.15,1116.46 1047.73,1103C1047.31,1089.1 1046.47,1075.45 1046.49,1061.76C1046.5,1052.76 1046.89,1043.74 1048.02,1034.61C1048.97,1026.87 1049.06,1019.15 1049.96,1011.56C1050.54,1006.73 1051.45,1001.95 1053.19,997.251C1053.87,995.433 1054.87,993.138 1056.3,991.539C1057.19,990.555 1058.28,989.847 1059.71,990.487C1060.45,990.82 1061.27,990.831 1061.99,990.558Z"/>
                </g>
            </g>
        </g>
    </g>
</svg>
