<?xml version="1.0" encoding="UTF-8" standalone="no"?>
<!DOCTYPE svg PUBLIC "-//W3C//DTD SVG 1.1//EN" "http://www.w3.org/Graphics/SVG/1.1/DTD/svg11.dtd">
<svg width="100%" height="100%" viewBox="0 0 855 1466" version="1.1" xmlns="http://www.w3.org/2000/svg" xmlns:xlink="http://www.w3.org/1999/xlink" xml:space="preserve" xmlns:serif="http://www.serif.com/" style="fill-rule:evenodd;clip-rule:evenodd;stroke-linejoin:round;stroke-miterlimit:2;">
    <g transform="matrix(1,0,0,1,-1856.25,-570.142)">
        <g id="Dog-House" serif:id="Dog House">
            <g id="Facade">
                <path d="M2018.36,1096.06C2018.36,1115.97 2018.24,1199.97 2019.22,1217.65C2020.52,1241.01 2021.46,1332.9 2023.05,1358.7C2026.93,1421.68 2018.75,1497.66 2022.64,1560.66C2024.94,1597.82 2024.96,1739.02 2024.96,1766.71C2024.96,1822.84 2024.71,1972.79 2030.1,1980.06C2030.21,1980.2 2030.4,1980.3 2030.56,1980.37C2032.27,1981.14 2151.87,1985.58 2224.47,1981.74C2249.47,1980.41 2443.99,1977.85 2466.16,1976.43C2505.11,1973.93 2645.35,1972.58 2644.81,1970.49C2641.34,1957.1 2637.97,1840.21 2635.28,1810.66C2629.7,1749.29 2628.44,1703.58 2625.56,1651.74C2624.68,1636.02 2615.95,1515.98 2612.81,1465.38C2610.33,1425.45 2608.99,1296.5 2603.43,1256.52C2601.19,1240.37 2601.17,1164.8 2599.45,1139.96C2598.75,1129.8 2600.16,1066.71 2595.27,1062.31C2595.25,1062.3 2595.24,1062.27 2595.22,1062.27C2583.14,1058.65 2486.12,1076.1 2457.85,1076.1C2410.77,1076.1 2352.82,1085.81 2305.66,1088.16C2293.22,1088.79 2200.03,1091.36 2187.58,1091.43C2105.83,1091.89 2094.93,1092.64 2018.36,1096.06Z" style="fill:white;"/>
                <path d="M2599.05,1059.04C2598.87,1058.89 2597.52,1057.74 2596.65,1057.48C2592.96,1056.37 2581.84,1056.84 2567.13,1058.45C2532.97,1062.2 2477.95,1071.1 2457.85,1071.1C2443.28,1071.1 2427.68,1072.02 2411.68,1073.36C2375.88,1076.37 2338.06,1081.54 2305.41,1083.17L2187.56,1086.43C2147.78,1086.65 2124.76,1086.94 2102.8,1087.58C2079.57,1088.25 2057.54,1089.31 2018.14,1091.06C2015.47,1091.18 2013.36,1093.38 2013.36,1096.06C2013.36,1109.13 2013.31,1149.79 2013.55,1181.22C2013.67,1197.79 2013.89,1211.81 2014.23,1217.93C2015.21,1235.65 2015.99,1292.86 2017,1330.63C2017.32,1342.68 2017.67,1352.77 2018.06,1359.01C2021.14,1408.91 2016.61,1466.99 2016.57,1520.27C2016.55,1534.24 2016.85,1547.89 2017.65,1560.97C2018.4,1573.01 2018.9,1596.02 2019.24,1622.53C2019.95,1677.71 2019.96,1748.04 2019.96,1766.71C2019.96,1805.07 2019.85,1887.2 2021.49,1937.77C2022.08,1955.87 2022.91,1969.98 2024.03,1976.78C2024.57,1980.09 2025.44,1982.17 2026.09,1983.04L2028.51,1984.93C2028.84,1985.08 2032.95,1985.67 2040,1985.99C2056.04,1986.73 2090.01,1987.8 2127.45,1988.16C2160.49,1988.48 2196.23,1988.24 2224.74,1986.73C2243.03,1985.76 2352.12,1984.13 2417.93,1982.77C2442.14,1982.27 2460.52,1981.8 2466.48,1981.42C2496.77,1979.47 2588.36,1978.23 2627.23,1976.79C2635.17,1976.49 2640.96,1976.18 2643.69,1975.86C2645.27,1975.68 2646.28,1975.37 2646.71,1975.18C2650.22,1973.63 2650.05,1970.81 2649.65,1969.23C2648.69,1965.56 2647.81,1953.86 2646.89,1938.31C2644.47,1897.62 2642.19,1831.43 2640.26,1810.21C2638.18,1787.27 2636.7,1766.54 2635.51,1746.85C2633.52,1713.89 2632.35,1683.88 2630.55,1651.46L2617.8,1465.07C2616.14,1438.39 2614.99,1371.93 2612.76,1318.88C2611.64,1292.37 2610.24,1269.18 2608.39,1255.83C2607.8,1251.65 2607.39,1243.4 2607.04,1233.07C2606.06,1203.68 2605.71,1157.91 2604.44,1139.61C2603.93,1132.32 2604.52,1097.72 2603.08,1077.17C2602.68,1071.49 2602.11,1066.82 2601.37,1063.9C2600.77,1061.57 2599.87,1059.98 2599.05,1059.04ZM2591.72,1066.73C2591.89,1067.41 2592.07,1068.24 2592.19,1068.97C2593.07,1074.58 2593.53,1083.55 2593.8,1093.25C2594.33,1112.53 2594.07,1134.63 2594.46,1140.3C2595.73,1158.53 2596.07,1204.13 2597.05,1233.4C2597.41,1244.2 2597.87,1252.84 2598.48,1257.21C2600.31,1270.35 2601.66,1293.19 2602.76,1319.3C2605.01,1372.42 2606.16,1438.97 2607.82,1465.68L2620.56,1652.01C2622.37,1684.45 2623.54,1714.48 2625.53,1747.45C2626.72,1767.23 2628.21,1788.07 2630.3,1811.11C2632.23,1832.28 2634.5,1898.32 2636.91,1938.91C2637.6,1950.57 2638.34,1960.2 2639.07,1966.22C2636.1,1966.42 2631.94,1966.61 2626.86,1966.79C2587.92,1968.24 2496.18,1969.49 2465.84,1971.44C2459.93,1971.82 2441.71,1972.28 2417.73,1972.77C2351.8,1974.14 2242.53,1975.77 2224.21,1976.74C2201.39,1977.95 2173.9,1978.34 2146.91,1978.28C2103.83,1978.18 2062.01,1976.95 2042.39,1976.09C2038.8,1975.93 2035.97,1975.79 2034.02,1975.67C2033.87,1974.92 2033.72,1974.05 2033.61,1973.21C2032.3,1963.05 2031.47,1941.77 2030.93,1916.15C2029.88,1866.23 2029.96,1799.98 2029.96,1766.71C2029.96,1748.02 2029.95,1677.63 2029.24,1622.4C2028.9,1595.68 2028.39,1572.49 2027.64,1560.36C2024.55,1510.44 2029.07,1452.36 2029.12,1399.09C2029.14,1385.12 2028.85,1371.48 2028.04,1358.39C2027.66,1352.23 2027.32,1342.27 2027,1330.37C2025.98,1292.49 2025.2,1235.14 2024.21,1217.37C2023.88,1211.33 2023.67,1197.5 2023.55,1181.14C2023.33,1152.93 2023.35,1117.26 2023.36,1100.84C2059.73,1099.21 2080.86,1098.22 2103.09,1097.58C2124.98,1096.94 2147.95,1096.65 2187.61,1096.43L2305.91,1093.16C2338.66,1091.52 2376.61,1086.35 2412.52,1083.33C2428.23,1082.01 2443.54,1081.1 2457.85,1081.1C2478.14,1081.1 2533.72,1072.18 2568.22,1068.39C2578.88,1067.22 2587.36,1066.4 2591.72,1066.73ZM2599.01,1059L2599.05,1059.04L2599.07,1059.06L2599.01,1059C2598.88,1058.85 2598.74,1058.71 2598.61,1058.6C2598.73,1058.7 2598.92,1058.9 2599.01,1059Z"/>
            </g>
            <g id="Door">
                <path d="M2104.79,1978.06C2104.79,1972.65 2096.81,1916.62 2095.72,1900.87C2088.66,1799.43 2082.94,1742.64 2116.78,1642.94C2132.55,1596.49 2145.45,1571.76 2158.26,1556.4C2197.7,1509.06 2297.31,1498.19 2323.14,1564.07C2346.54,1623.74 2352.42,1710.73 2356,1775.24C2357.69,1805.7 2359.24,1835.15 2360.53,1865.94C2362.59,1915.1 2369.53,1936.72 2359.68,1972.21C2359.66,1972.28 2359.63,1972.3 2359.58,1972.35C2353.1,1978.18 2106.63,1974.76 2104.79,1978.06Z" style="fill:white;"/>
                <path d="M2106.73,1982.67L2107.3,1982.59C2110.27,1982.27 2116.54,1982.04 2125.21,1981.87C2164.64,1981.07 2252.57,1981.46 2308.87,1980.41C2330.29,1980.01 2347.19,1979.39 2355.23,1978.43C2359.63,1977.91 2362.18,1976.73 2362.92,1976.06C2362.92,1976.06 2364.5,1973.55 2364.5,1973.55C2367.81,1961.61 2369.29,1951.19 2369.7,1940.82C2370.54,1919.87 2366.93,1899.11 2365.53,1865.74L2360.99,1774.96C2358.86,1736.55 2355.91,1690.21 2348.97,1646.35C2344.16,1616 2337.44,1586.83 2327.8,1562.24C2313.92,1526.84 2280.15,1512.03 2244.57,1512.8C2210.42,1513.54 2174.77,1528.78 2154.41,1553.2C2147.63,1561.34 2140.8,1572.02 2133.57,1586.99C2126.87,1600.87 2119.8,1618.5 2112.05,1641.33C2098.82,1680.3 2091.59,1712.78 2088.09,1743.89C2082.57,1792.98 2086.38,1838.65 2090.73,1901.22L2099.79,1978.06C2099.79,1980.34 2101.33,1982.33 2103.53,1982.9C2104.62,1983.18 2105.74,1983.08 2106.73,1982.67ZM2355.55,1968.29C2355.21,1968.35 2354.85,1968.4 2354.51,1968.44C2350.68,1968.93 2344.52,1969.32 2336.62,1969.64C2289.06,1971.59 2179.8,1970.97 2130.12,1971.78C2120.81,1971.93 2113.55,1972.14 2109.13,1972.42L2100.7,1900.52C2096.4,1838.68 2092.57,1793.54 2098.02,1745.01C2101.45,1714.53 2108.56,1682.72 2121.52,1644.55C2129.1,1622.2 2136.01,1604.93 2142.57,1591.34C2149.36,1577.29 2155.73,1567.24 2162.1,1559.6C2180.74,1537.22 2213.5,1523.48 2244.79,1522.8C2276.16,1522.12 2306.25,1534.67 2318.49,1565.89C2327.89,1589.87 2334.41,1618.32 2339.09,1647.91C2345.98,1691.42 2348.89,1737.41 2351.01,1775.51L2355.54,1866.15C2356.69,1893.66 2359.38,1912.53 2359.78,1930.05C2360.07,1942.56 2359.16,1954.36 2355.55,1968.29Z"/>
                <path d="M2091.23,1958.11C2092.18,1958.11 2096.35,2023.23 2096.98,2023.51C2106.77,2027.9 2213.35,2024.76 2225.83,2024.1C2245.77,2023.04 2358.88,2022.69 2380.09,2022.69C2380.91,2022.69 2381.12,1956.86 2377.52,1954.7C2365.9,1947.74 2307.24,1954.75 2269.42,1954.75C2246.53,1954.75 2182.85,1955.7 2160.07,1957.56C2152.51,1958.18 2088.91,1957.48 2091.23,1958.11Z" style="fill:white;"/>
                <path d="M2086.55,1959.99C2086.66,1960.83 2086.93,1963.01 2087.13,1965.07C2088.34,1977.79 2090.29,2005.86 2091.34,2018.07C2091.57,2020.76 2091.76,2022.72 2091.9,2023.65C2092.37,2026.94 2094.63,2027.93 2094.93,2028.07C2098.59,2029.71 2115.11,2030.67 2135.5,2030.78C2170.73,2030.98 2218.02,2029.52 2226.1,2029.09C2232.94,2028.73 2250.81,2028.45 2272.15,2028.24C2312.88,2027.84 2366.2,2027.69 2380.09,2027.69C2380.92,2027.69 2384.27,2027.47 2385.07,2023.48C2385.15,2023.08 2385.25,2022.21 2385.32,2020.93C2385.49,2017.6 2385.61,2010.55 2385.59,2002.21C2385.55,1986.91 2385.07,1967.32 2383.8,1958.51C2383.1,1953.65 2381.07,1951 2380.09,1950.41C2376.18,1948.08 2367.6,1946.8 2356.27,1946.64C2332.64,1946.32 2295.92,1949.75 2269.42,1949.75C2256.02,1949.75 2228.65,1950.07 2203.66,1950.72C2185.82,1951.17 2169.19,1951.8 2159.66,1952.58C2153.8,1953.06 2114.06,1952.72 2097.94,1952.86C2094.79,1952.88 2092.5,1952.93 2091.45,1953C2090.67,1953.05 2090.16,1953.15 2089.93,1953.21C2085.14,1954.49 2085.94,1958.51 2086.55,1959.99ZM2373.59,1958.35C2373.75,1959.12 2373.95,1960.22 2374.06,1961.18C2375.57,1973.62 2375.76,2002.62 2375.48,2015.78L2375.43,2017.7C2356.7,2017.72 2309.16,2017.88 2272.05,2018.24C2250.51,2018.45 2232.47,2018.74 2225.57,2019.1C2217.55,2019.53 2170.56,2020.98 2135.56,2020.79C2120.2,2020.7 2107.26,2020.5 2101.52,2019.57C2101.45,2018.83 2101.37,2018.01 2101.3,2017.21C2100.25,2004.98 2098.3,1976.86 2097.08,1964.12L2096.96,1962.87L2098.02,1962.86C2114.33,1962.72 2154.55,1963.03 2160.48,1962.54C2169.88,1961.77 2186.3,1961.16 2203.92,1960.71C2228.81,1960.07 2256.07,1959.75 2269.42,1959.75C2292.15,1959.75 2322.39,1957.23 2345.45,1956.71C2358.21,1956.43 2368.6,1956.44 2373.59,1958.35Z"/>
                <g id="Door-Knob" serif:id="Door Knob">
                    <path d="M2293.26,1747.21C2253.73,1747.21 2267.09,1805.28 2300.42,1801C2333.04,1796.81 2322.83,1745.42 2301.37,1750.25"/>
                    <path d="M2298.19,1746.4C2297.81,1744.02 2295.74,1742.21 2293.26,1742.21C2269.2,1742.21 2261.37,1760.02 2264.68,1777.02C2267.84,1793.26 2281.69,1808.44 2301.05,1805.96C2319.04,1803.65 2326.36,1789.53 2326.32,1775.35C2326.28,1758.12 2314.64,1742.14 2300.28,1745.37C2299.48,1745.55 2298.77,1745.91 2298.19,1746.4ZM2296.45,1751.06C2295.58,1751.78 2294.47,1752.21 2293.26,1752.21C2277.45,1752.21 2272.32,1763.93 2274.49,1775.11C2276.73,1786.58 2286.1,1797.8 2299.78,1796.04C2311.77,1794.5 2316.35,1784.83 2316.32,1775.37C2316.3,1768.89 2314.26,1762.39 2310.66,1758.33C2308.5,1755.88 2305.72,1754.39 2302.47,1755.12C2299.78,1755.73 2297.1,1754.04 2296.49,1751.34L2296.45,1751.06Z"/>
                </g>
            </g>
            <g id="Arms">
                <g id="Arm-R">
                    <path d="M2325.55,1120.42C2325.55,1118.11 2323.26,1204.98 2324.16,1218.69C2326.37,1252.55 2326.34,1322.07 2328.8,1325.4C2329.02,1325.69 2413.38,1316.87 2442.27,1314.27C2470.98,1311.69 2552.91,1318.54 2553.16,1317.88C2557.2,1306.96 2554.63,1274.45 2554.1,1261.72C2552.57,1224.43 2552.06,1186.55 2552.06,1149.43C2552.06,1137.36 2553.33,1100.88 2550.89,1098.68C2550.22,1098.08 2511.82,1101.48 2498.77,1102.46C2470.21,1104.6 2440.89,1106.77 2412.6,1111.54C2401,1113.5 2332.07,1116.23 2325.55,1120.42Z" style="fill:white;"/>
                    <path d="M2324.48,1117.78L2323.53,1117.26C2325.5,1115.99 2332.66,1114.58 2342.33,1113.54C2365.31,1111.06 2403.61,1109.26 2411.97,1107.84C2423.37,1105.92 2434.94,1104.42 2446.55,1103.17C2463.88,1101.3 2481.32,1100.01 2498.49,1098.72C2508.69,1097.95 2534.37,1095.71 2545.45,1095.05C2547.87,1094.91 2549.64,1094.84 2550.49,1094.87C2552.26,1094.92 2553.16,1095.68 2553.4,1095.89C2553.9,1096.34 2554.53,1097.17 2554.93,1098.52C2555.45,1100.25 2555.81,1103.89 2555.98,1108.56C2556.42,1120.88 2555.81,1141.04 2555.81,1149.43C2555.81,1167.99 2555.94,1186.75 2556.26,1205.52C2556.58,1224.24 2557.09,1242.98 2557.85,1261.57C2558.2,1270.08 2559.46,1287.39 2559.07,1301.27C2558.86,1308.73 2558.13,1315.26 2556.67,1319.18C2556.6,1319.39 2555.37,1321.75 2551.96,1321.66C2550.26,1321.62 2546.71,1321.42 2541.85,1321.12C2518.57,1319.68 2464.71,1316.02 2442.6,1318.01C2420.22,1320.02 2364.56,1325.77 2340.52,1328.12C2335.58,1328.6 2331.97,1328.94 2330.24,1329.08C2327.24,1329.31 2325.85,1327.71 2325.79,1327.63C2325.49,1327.22 2325.07,1326.44 2324.79,1325.23C2324.4,1323.49 2324.04,1319.92 2323.76,1315.05C2322.5,1293.66 2322.14,1245.4 2320.41,1218.93C2319.71,1208.21 2320.95,1152.86 2321.53,1130.07C2321.64,1125.79 2321.73,1122.67 2321.77,1121.19C2321.78,1120.99 2321.79,1120.8 2321.81,1120.62L2321.8,1120.42C2321.81,1120.37 2321.82,1120.32 2321.83,1120.28L2321.89,1120.13C2322.23,1118.44 2323.28,1117.82 2324.48,1117.78ZM2548.05,1102.43L2548.12,1102.99C2548.51,1106.64 2548.63,1112.48 2548.64,1118.88C2548.66,1130.15 2548.31,1143.12 2548.31,1149.43C2548.31,1168.04 2548.44,1186.83 2548.76,1205.65C2549.08,1224.43 2549.59,1243.23 2550.36,1261.87C2550.7,1270.28 2551.95,1287.36 2551.57,1301.06C2551.43,1306.13 2551.1,1310.71 2550.35,1314.09C2549.89,1314.07 2549.41,1314.05 2548.93,1314.02C2541.66,1313.63 2526.29,1312.58 2509.03,1311.63C2484.63,1310.31 2456.49,1309.23 2441.93,1310.54C2419.54,1312.55 2363.84,1318.3 2339.79,1320.65C2336.45,1320.98 2333.72,1321.24 2331.79,1321.41L2331.72,1320.84C2331.33,1317.14 2331.03,1311.25 2330.76,1304.01C2329.86,1279.91 2329.38,1241.16 2327.9,1218.45C2327.2,1207.8 2328.45,1152.88 2329.03,1130.26L2329.23,1122.92C2333.03,1121.86 2341.6,1121.06 2351.79,1120.15C2374.87,1118.08 2405.78,1116.49 2413.22,1115.24C2424.47,1113.34 2435.89,1111.86 2447.35,1110.62C2464.6,1108.77 2481.96,1107.48 2499.05,1106.2C2509.23,1105.43 2534.84,1103.19 2545.9,1102.54C2546.63,1102.49 2547.38,1102.46 2548.05,1102.43Z"/>
                    <path d="M2514.45,1188.04C2512.86,1173.3 2513.79,1143.3 2510.88,1141.44C2503.1,1136.49 2449.49,1140.11 2422.7,1139.82C2416.42,1139.76 2364.24,1138.83 2359.64,1144.36C2354.93,1150.02 2356,1211.3 2357.22,1222.28C2357.8,1227.48 2360.23,1276.49 2361.55,1277.68C2363.11,1279.08 2440.66,1273.26 2448.6,1274.46C2466.26,1277.15 2482.86,1285 2503.51,1301.01C2528.98,1320.76 2542.51,1334.14 2564.59,1357.98C2574.3,1368.46 2579.97,1393.75 2592.37,1400.54C2609.95,1410.18 2611.37,1363.91 2614.68,1363.01C2618.56,1361.96 2636.9,1415.32 2657.06,1396.8C2671.24,1383.78 2654.95,1350.18 2654.95,1350.18C2658.18,1353.44 2697.3,1356.54 2701.91,1338.43C2708.43,1312.85 2658.91,1311.04 2655.6,1316.34C2655.6,1316.34 2682.56,1281.25 2676.46,1268.9C2668.51,1252.8 2652.27,1264.79 2644.31,1273.03C2641.63,1275.8 2631.28,1287.16 2632.72,1285.86C2633.47,1285.19 2600.59,1261.13 2589.68,1250.6C2580.92,1242.16 2524.28,1195.96 2514.45,1188.04Z" style="fill:white;"/>
                    <path d="M2616.15,1371.59L2616.28,1371.81C2621.23,1380.54 2628.97,1394.74 2637.83,1401.02C2644.66,1405.85 2652.11,1406.78 2659.77,1399.75C2665.43,1394.55 2667.23,1386.65 2666.79,1378.37C2666.36,1370.32 2663.86,1361.96 2661.72,1356.12C2668.55,1356.98 2678.53,1356.99 2687.13,1354.77C2696.28,1352.42 2703.73,1347.49 2705.79,1339.42C2708.76,1327.73 2702.51,1319.93 2692.9,1315.28C2684.39,1311.16 2673.15,1309.69 2665.04,1309.96C2669.45,1303.41 2675.14,1294.2 2678.44,1285.87C2681.39,1278.44 2682.23,1271.55 2680.05,1267.13C2675.92,1258.76 2669.92,1256.42 2663.72,1257.03C2655.68,1257.83 2646.8,1264.69 2641.43,1270.25C2639.8,1271.94 2635.35,1276.78 2632.39,1280.08L2631.12,1279.05C2622.14,1271.82 2600.81,1255.78 2592.46,1247.72C2589.4,1244.78 2580.6,1237.29 2569.96,1228.42C2551.09,1212.7 2526.43,1192.59 2518.26,1185.98L2518.26,1185.98C2517.19,1174.01 2517.42,1154.16 2516.21,1145.31C2515.65,1141.16 2514.06,1138.73 2513.02,1138.07C2510.41,1136.41 2503.24,1135.28 2493.6,1134.97C2473.46,1134.31 2441.52,1136.02 2422.74,1135.82C2418.1,1135.77 2388.64,1135.27 2371.36,1137.19C2366.68,1137.71 2362.83,1138.43 2360.42,1139.33C2358.54,1140.02 2357.28,1140.94 2356.56,1141.8C2355.74,1142.79 2354.81,1144.91 2354.22,1148.03C2353.38,1152.43 2352.84,1159.37 2352.53,1167.33C2351.72,1187.99 2352.46,1215.65 2353.24,1222.72C2353.71,1226.91 2355.37,1259.46 2356.69,1272.61C2356.96,1275.28 2357.24,1277.22 2357.47,1278.15C2357.84,1279.61 2358.54,1280.36 2358.88,1280.66C2359.21,1280.95 2360.21,1281.69 2362.1,1281.84C2363.5,1281.94 2366.42,1281.91 2370.38,1281.78C2390.96,1281.06 2441.68,1277.46 2447.99,1278.42C2457.33,1279.84 2466.36,1282.78 2475.9,1287.69C2483.8,1291.76 2492.03,1297.17 2501.05,1304.17C2513.71,1313.98 2523.39,1322.2 2532.66,1330.94C2541.89,1339.66 2550.72,1348.89 2561.66,1360.7C2569.11,1368.74 2574.09,1385.65 2581.72,1395.95C2584.31,1399.46 2587.2,1402.27 2590.45,1404.05C2598.33,1408.37 2604.06,1405.17 2608.18,1398.2C2612.34,1391.16 2614.55,1379.44 2616.15,1371.59ZM2507.9,1144.41C2504.34,1143 2495.49,1142.86 2484.61,1142.82C2464.86,1142.74 2438.86,1144 2422.66,1143.82C2419.1,1143.79 2400.69,1143.47 2384.68,1144.22C2376.89,1144.59 2369.67,1145.2 2365.17,1146.26C2364.26,1146.47 2363.22,1146.86 2362.75,1147.04C2362.55,1147.71 2362.07,1149.43 2361.84,1150.93C2360.95,1156.64 2360.49,1165.65 2360.29,1175.4C2359.91,1194.23 2360.52,1215.78 2361.2,1221.84C2361.66,1226.03 2363.33,1258.64 2364.65,1271.81C2364.72,1272.51 2364.81,1273.23 2364.9,1273.88C2365.7,1273.88 2366.63,1273.88 2367.53,1273.86C2378.7,1273.58 2403.08,1272.06 2422.27,1271.1C2435.56,1270.43 2446.44,1270.09 2449.2,1270.51C2459.36,1272.06 2469.18,1275.23 2479.57,1280.58C2487.84,1284.85 2496.49,1290.5 2505.96,1297.85C2518.85,1307.84 2528.71,1316.22 2538.15,1325.12C2547.51,1333.95 2556.45,1343.3 2567.52,1355.26C2574.24,1362.52 2579.17,1376.66 2585.52,1387.23C2588.08,1391.49 2590.83,1395.14 2594.29,1397.04C2597.49,1398.79 2599.62,1396.96 2601.3,1394.13C2606.04,1386.1 2607.76,1371.4 2609.39,1365.1C2610.01,1362.73 2610.84,1361.15 2611.47,1360.48C2612.16,1359.74 2612.92,1359.35 2613.63,1359.15C2614.58,1358.89 2615.67,1358.9 2616.85,1359.48C2617.79,1359.94 2619.34,1361.41 2620.94,1363.97C2625.23,1370.81 2632.95,1387.76 2642.45,1394.49C2646.16,1397.11 2650.2,1397.67 2654.36,1393.86C2658.31,1390.23 2659.11,1384.57 2658.8,1378.79C2658.11,1365.81 2651.35,1351.92 2651.35,1351.92C2650.49,1350.16 2651.04,1348.04 2652.63,1346.91C2654.1,1345.87 2656.07,1345.95 2657.44,1347.06C2657.79,1347.16 2659.8,1347.78 2661.55,1348.04C2667.52,1348.95 2677.03,1349.11 2685.14,1347.03C2691.22,1345.46 2696.67,1342.81 2698.04,1337.44C2699.91,1330.07 2695.48,1325.41 2689.41,1322.48C2681.13,1318.47 2669.85,1317.43 2662.83,1318.11C2661.04,1318.29 2659.02,1318.86 2658.59,1318.99C2657.26,1320.5 2655,1320.79 2653.32,1319.63C2651.57,1318.41 2651.08,1316.04 2652.21,1314.23C2652.27,1314.12 2652.35,1314.02 2652.43,1313.91L2652.43,1313.9C2652.43,1313.9 2662.73,1300.51 2668.97,1287.54C2670.83,1283.68 2672.33,1279.86 2673.01,1276.49C2673.46,1274.21 2673.62,1272.19 2672.88,1270.67C2670.7,1266.26 2667.78,1264.67 2664.51,1265C2658.17,1265.62 2651.42,1271.43 2647.19,1275.81C2645.22,1277.85 2639.04,1284.6 2636.61,1287.38L2636,1288.08C2635.77,1288.45 2635.54,1288.71 2635.4,1288.84C2632.69,1291.28 2630.66,1289.65 2629.56,1287.89L2629.55,1288.2C2629.55,1288.2 2627.81,1286.65 2626.11,1285.28C2616.99,1277.94 2595.38,1261.65 2586.9,1253.48C2583.91,1250.6 2575.27,1243.26 2564.83,1234.57C2544.86,1217.92 2518.37,1196.34 2511.94,1191.15C2511.11,1190.48 2510.58,1189.52 2510.47,1188.46C2509.22,1176.82 2509.54,1155.61 2508.29,1146.39C2508.19,1145.71 2508.03,1144.93 2507.9,1144.41Z"/>
                    <path d="M2474.43,1287.59C2474.86,1288.51 2475.71,1289.22 2476.79,1289.42C2478.55,1289.74 2480.25,1288.58 2480.58,1286.81C2480.73,1285.97 2480.62,1284.94 2479.89,1283.89C2479.12,1282.79 2476.34,1281.1 2475.59,1280.52C2472.55,1278.18 2469.29,1276.63 2466.15,1274.57C2465.02,1273.83 2463.92,1273.02 2462.85,1272.04C2459.78,1269.23 2444.69,1256.31 2431.21,1245.05C2421.34,1236.8 2412.32,1229.44 2409.45,1227.5C2407.96,1226.5 2405.94,1226.89 2404.94,1228.38C2403.93,1229.87 2404.33,1231.89 2405.81,1232.89C2408.61,1234.78 2417.4,1241.98 2427.04,1250.04C2440.42,1261.22 2455.41,1274.04 2458.46,1276.83C2459.79,1278.05 2461.17,1279.08 2462.58,1280C2465.58,1281.97 2468.71,1283.43 2471.62,1285.67C2472.02,1285.98 2473.81,1287.17 2474.43,1287.59Z"/>
                    <path d="M2491.28,1175.13L2495.67,1177.54C2497.58,1178.61 2499.32,1179.99 2500.97,1181.5C2503.65,1183.98 2506.08,1186.8 2508.51,1189.36C2509.13,1190 2511.34,1191.53 2511.98,1191.97C2512.42,1193.23 2513.63,1194.14 2515.04,1194.14C2516.84,1194.14 2518.29,1192.69 2518.29,1190.89C2518.29,1189.85 2517.88,1188.71 2516.93,1187.68C2515.98,1186.65 2513.96,1185.65 2513.22,1184.88C2510.69,1182.22 2508.16,1179.29 2505.37,1176.72C2503.34,1174.85 2501.18,1173.17 2498.82,1171.86C2497.97,1171.39 2493.43,1168.61 2491.44,1168.49C2489.8,1168.39 2488.67,1169.07 2487.96,1170.03C2486.89,1171.47 2487.2,1173.51 2488.64,1174.58C2489.43,1175.16 2490.39,1175.33 2491.28,1175.13Z"/>
                    <path d="M2531.94,1212.65C2529.54,1212.65 2527.26,1215.36 2525.32,1216.49C2512.81,1223.78 2509.61,1242.51 2510.21,1255.98C2510.67,1266.33 2518.66,1274.72 2525.68,1281.46C2529.34,1284.97 2532.55,1289.38 2536.8,1292.24C2549.51,1300.83 2569.06,1305.57 2583.34,1298.08C2586.39,1296.48 2588.15,1292.87 2590.37,1290.37C2600.51,1278.96 2597.15,1260.07 2587.5,1248.77C2581.82,1242.13 2562.85,1226.81 2560.23,1224.45C2555.12,1219.85 2547.98,1216.14 2541.29,1214.64C2539.46,1214.22 2533.26,1211.26 2531.94,1212.65Z"/>
                    <path d="M2530.98,1209.47C2530.03,1209.61 2529.08,1209.96 2528.15,1210.47C2526.55,1211.36 2525.03,1212.9 2523.69,1213.68C2517.99,1217 2513.97,1222.39 2511.31,1228.68C2507.65,1237.34 2506.59,1247.7 2506.96,1256.13C2507.17,1260.82 2508.72,1265.16 2511.05,1269.16C2514.28,1274.7 2519.03,1279.57 2523.43,1283.8C2525.99,1286.26 2528.33,1289.15 2530.96,1291.65C2532.22,1292.86 2533.55,1293.97 2534.98,1294.94C2541.69,1299.47 2550.2,1302.99 2558.92,1304.39C2567.9,1305.84 2577.09,1305.03 2584.85,1300.95C2586.09,1300.3 2587.18,1299.42 2588.16,1298.39C2589.88,1296.6 2591.23,1294.3 2592.8,1292.53C2598.55,1286.06 2600.51,1277.46 2599.56,1268.88C2598.66,1260.78 2595.14,1252.71 2589.97,1246.66C2588.21,1244.61 2585.24,1241.74 2581.85,1238.68C2574.14,1231.74 2564.24,1223.69 2562.4,1222.03C2559.65,1219.56 2556.36,1217.32 2552.86,1215.5C2549.34,1213.68 2545.61,1212.28 2542.01,1211.46C2540.6,1211.15 2536.71,1209.42 2534.22,1209.11C2532.94,1208.94 2531.84,1209.11 2530.98,1209.47ZM2533.31,1215.59C2534.33,1215.92 2539.34,1217.53 2540.58,1217.81C2543.67,1218.5 2546.86,1219.71 2549.86,1221.27C2552.87,1222.83 2555.7,1224.74 2558.05,1226.87C2559.89,1228.52 2569.79,1236.57 2577.49,1243.51C2580.63,1246.34 2583.4,1248.98 2585.03,1250.88C2589.39,1255.98 2592.34,1262.78 2593.1,1269.6C2593.85,1276.34 2592.46,1283.13 2587.94,1288.21C2586.6,1289.72 2585.42,1291.63 2584.03,1293.26C2583.39,1294.03 2582.69,1294.75 2581.83,1295.2C2575.28,1298.63 2567.52,1299.19 2559.95,1297.97C2552.18,1296.72 2544.59,1293.59 2538.61,1289.55C2537.48,1288.79 2536.44,1287.89 2535.44,1286.94C2532.82,1284.45 2530.49,1281.57 2527.93,1279.12C2523.94,1275.28 2519.59,1270.91 2516.66,1265.89C2514.87,1262.8 2513.61,1259.46 2513.45,1255.84C2513.12,1248.28 2514.01,1238.97 2517.3,1231.21C2519.39,1226.25 2522.47,1221.91 2526.96,1219.3C2528.15,1218.61 2529.47,1217.35 2530.86,1216.42C2531.23,1216.18 2531.55,1215.9 2531.94,1215.9C2532.42,1215.9 2532.89,1215.79 2533.31,1215.59Z"/>
                    <path d="M2357.04,1195.4C2357.93,1196.2 2358.78,1199.82 2359.8,1201.11C2363.59,1205.95 2371.4,1212.56 2377.98,1212.88C2393.75,1213.67 2404.87,1204.99 2415.34,1194.62C2422.86,1187.17 2427.64,1182.68 2429.93,1171.71C2431.33,1164.96 2431.22,1154.4 2426.57,1148.82C2419.03,1139.78 2404.66,1142.29 2394.5,1143.12C2384.28,1143.95 2372.94,1142.99 2364.41,1150.02C2360.28,1153.43 2359.78,1159.59 2359.78,1164.55C2359.78,1176.34 2353.89,1180.86 2357.04,1195.4Z"/>
                    <path d="M2354.63,1197.58C2354.77,1197.94 2356.35,1201.98 2357.24,1203.12C2359.69,1206.24 2363.68,1210.04 2368.01,1212.69C2371.23,1214.66 2374.66,1215.97 2377.82,1216.13C2384.59,1216.47 2390.57,1215.2 2396.03,1212.85C2404.08,1209.38 2410.99,1203.5 2417.63,1196.93C2422.48,1192.12 2426.22,1188.45 2428.96,1183.69C2430.76,1180.58 2432.14,1177.01 2433.11,1172.37C2434.02,1168.02 2434.34,1162.21 2433.39,1156.93C2432.7,1153.02 2431.29,1149.41 2429.06,1146.73C2425.5,1142.46 2420.66,1140.32 2415.34,1139.43C2408.37,1138.28 2400.52,1139.36 2394.23,1139.88C2387.95,1140.39 2381.26,1140.27 2375.03,1141.62C2370.48,1142.61 2366.16,1144.36 2362.34,1147.52C2360.21,1149.28 2358.8,1151.59 2357.91,1154.16C2356.77,1157.47 2356.53,1161.25 2356.53,1164.55C2356.53,1173.33 2353.22,1178.05 2352.89,1185.94C2352.77,1188.84 2353.01,1192.12 2353.86,1196.09C2353.99,1196.64 2354.25,1197.16 2354.63,1197.58ZM2360.08,1194.03C2359.21,1189.7 2359.23,1186.36 2359.65,1183.43C2360.56,1177.06 2363.03,1172.36 2363.03,1164.55C2363.03,1162.32 2363.12,1159.83 2363.7,1157.5C2364.17,1155.59 2364.95,1153.79 2366.48,1152.53C2369.47,1150.07 2372.86,1148.75 2376.41,1147.97C2382.37,1146.68 2388.76,1146.85 2394.76,1146.36C2400.58,1145.88 2407.83,1144.78 2414.27,1145.85C2418.05,1146.47 2421.54,1147.87 2424.07,1150.9C2426.03,1153.25 2426.93,1156.68 2427.29,1160.2C2427.68,1164.02 2427.39,1167.96 2426.75,1171.05C2425.72,1175.97 2424.16,1179.45 2422,1182.53C2419.67,1185.85 2416.69,1188.71 2413.05,1192.31C2408.02,1197.29 2402.85,1201.89 2397.02,1205.12C2391.48,1208.19 2385.34,1210 2378.14,1209.64C2375.4,1209.5 2372.44,1207.96 2369.73,1206.04C2366.75,1203.94 2364.09,1201.32 2362.36,1199.11C2361.71,1198.28 2361.22,1196.32 2360.66,1195.1C2360.48,1194.7 2360.28,1194.34 2360.08,1194.03L2360.08,1194.03Z"/>
                </g>
                <g id="Arm-L">
                    <path d="M2054.9,1143.24C2054.9,1147.67 2053.28,1178.93 2052.93,1190.25C2052.24,1212.81 2050.46,1251.32 2050.19,1260.32C2049.79,1273.5 2050.48,1347.06 2052.78,1350.17C2054.3,1352.21 2089.91,1348.12 2100.2,1346.65C2137.88,1341.3 2149.83,1343.84 2187.44,1342.3C2193.93,1342.03 2247.53,1347.29 2248.69,1338.69C2249.62,1331.79 2249.79,1265.89 2249.32,1254.9C2248.93,1245.69 2248.29,1200.86 2248.29,1186.48C2248.29,1178.58 2249.96,1137.36 2248.03,1135.87C2245.07,1133.58 2208.92,1136.3 2204.64,1136.48C2179.37,1137.56 2142.34,1139.37 2117.01,1140.15C2096.24,1140.8 2057.43,1140.39 2054.9,1143.24Z" style="fill:white;"/>
                    <path d="M2051.91,1140.58C2051.26,1141.31 2050.9,1142.26 2050.9,1143.24L2048.94,1190.12L2046.19,1260.2C2045.91,1269.52 2046.17,1308.89 2047.15,1332.46C2047.47,1340.14 2047.89,1346.19 2048.36,1349.09C2048.67,1350.95 2049.23,1352.09 2049.57,1352.55C2050.03,1353.16 2051.02,1354.09 2052.9,1354.45C2054.54,1354.76 2058.01,1354.79 2062.45,1354.55C2074.24,1353.91 2093.6,1351.63 2100.77,1350.61C2115,1348.59 2125.52,1347.7 2135.16,1347.3C2150.93,1346.64 2164.37,1347.24 2187.6,1346.29C2192.3,1346.1 2221.56,1348.77 2237.99,1347.06C2243.19,1346.52 2247.25,1345.43 2249.44,1343.99C2251.43,1342.68 2252.41,1341.01 2252.65,1339.23C2253.07,1336.15 2253.36,1321.57 2253.48,1305.21C2253.64,1284.5 2253.58,1260.93 2253.32,1254.73L2252.29,1186.48C2252.29,1180.11 2253.36,1152.19 2252.79,1140.64C2252.66,1137.95 2252.38,1135.99 2252.08,1135.07C2251.66,1133.79 2250.97,1133.08 2250.48,1132.7C2249.43,1131.89 2245.23,1131 2239.46,1130.96C2227.59,1130.88 2207.6,1132.35 2204.47,1132.48L2116.89,1136.16C2102.88,1136.59 2080.69,1136.55 2066.9,1137.34C2061.22,1137.67 2056.86,1138.19 2054.78,1138.86C2053.31,1139.33 2052.41,1140.02 2051.91,1140.58ZM2244.66,1139.17C2244.71,1139.74 2244.77,1140.4 2244.8,1141.03C2245.37,1152.48 2244.29,1180.16 2244.29,1186.48L2245.32,1255.07C2245.59,1261.22 2245.64,1284.61 2245.48,1305.15C2245.37,1319.94 2245.16,1333.24 2244.8,1337.39C2244.22,1337.64 2242.89,1338.17 2241.71,1338.42C2237.53,1339.31 2231.52,1339.61 2225.03,1339.64C2209.3,1339.72 2190.91,1338.15 2187.27,1338.3C2164.04,1339.25 2150.59,1338.65 2134.83,1339.31C2124.97,1339.72 2114.2,1340.62 2099.64,1342.69C2091.55,1343.84 2067.61,1346.65 2057.43,1346.73C2057,1346.73 2056.54,1346.72 2056.11,1346.69L2056.05,1346.21C2055.38,1340.33 2054.91,1327.9 2054.59,1314.21C2054.08,1292.47 2053.97,1267.57 2054.19,1260.44L2056.93,1190.37L2058.78,1146.16C2059.23,1146.07 2059.72,1145.99 2060.17,1145.93C2064.61,1145.37 2071.71,1145.06 2079.7,1144.85C2092.21,1144.53 2106.87,1144.47 2117.14,1144.15L2204.82,1140.48C2207.23,1140.37 2219.84,1139.46 2230.86,1139.1C2236.21,1138.93 2241.18,1138.88 2244.33,1139.14L2244.66,1139.17Z"/>
                    <path d="M2082.51,1239.65C2082.51,1241.53 2084.18,1228.33 2084.18,1226.63C2084.18,1214.28 2086.98,1190.38 2088.36,1177.99C2088.49,1176.84 2133.45,1171.73 2151.12,1170.82C2166.62,1170.03 2202.69,1164.15 2204.57,1170.05C2208.22,1181.56 2206.98,1251.58 2206.76,1273.32C2206.69,1280.21 2205.67,1299.64 2204.34,1302.51C2200.99,1309.74 2146.5,1304.14 2132.86,1308.22C2116.28,1313.18 2062.31,1358.97 2036.73,1383.96C2028.93,1391.59 2015.56,1400.56 2008.08,1408.64C2000.83,1416.47 2026.38,1435.64 2019.07,1450.45C2013.41,1461.92 1985.57,1442.09 1984.85,1443.38C1984.11,1444.72 2003.13,1518.58 1974.62,1508.96C1948.6,1500.18 1952.09,1455.98 1951.44,1461.97C1950.23,1473.12 1918.58,1518.17 1898.35,1497.28C1886.06,1484.59 1908.83,1453.88 1908.45,1453.54C1906.35,1451.65 1874.19,1469.67 1865.54,1454.11C1858.01,1440.54 1885.61,1416.68 1893.13,1408.77C1900.55,1400.99 1938.38,1366.11 1946.58,1359.4C1957.63,1350.36 1979.27,1334.61 1999.97,1313.85C2018.42,1295.34 2039.68,1278.96 2059.58,1262.32C2063.98,1258.65 2085.23,1239.1 2082.51,1239.65Z" style="fill:white;"/>
                    <path d="M2078.8,1238.16L2078.81,1238.08C2079.26,1235.27 2080.18,1227.85 2080.18,1226.63C2080.18,1221.46 2080.66,1214.3 2081.32,1206.78C2082.26,1196.18 2083.57,1184.86 2084.38,1177.55C2084.45,1176.95 2084.9,1174.72 2087.8,1173.88C2088.79,1173.59 2090.94,1173.18 2093.91,1172.74C2106.95,1170.77 2137.16,1167.53 2150.92,1166.83C2161.63,1166.28 2182.12,1163.33 2194.5,1163.45C2199.02,1163.5 2202.6,1164.03 2204.67,1164.97C2206.76,1165.91 2207.9,1167.33 2208.38,1168.84C2209.76,1173.2 2210.57,1185.67 2210.9,1200.85C2211.45,1226.28 2210.9,1259.55 2210.76,1273.36C2210.71,1277.74 2210.29,1287.08 2209.66,1294.19C2209.22,1299.04 2208.55,1302.95 2207.97,1304.19C2207.33,1305.58 2205.95,1306.98 2203.61,1307.94C2200.95,1309.03 2196.48,1309.74 2190.96,1310.11C2173.28,1311.28 2143.53,1309.2 2134,1312.06C2126.54,1314.29 2111.34,1325.2 2094.62,1338.53C2074.86,1354.29 2053.14,1373.52 2039.53,1386.83C2033.34,1392.87 2023.68,1399.77 2016.18,1406.39C2014.28,1408.07 2012.52,1409.73 2011.02,1411.36C2010.71,1411.68 2010.75,1412.11 2010.8,1412.58C2010.93,1413.6 2011.37,1414.71 2011.93,1415.92C2014.59,1421.65 2019.97,1428.73 2022.62,1435.8C2024.73,1441.41 2025.22,1447.04 2022.65,1452.23C2020.14,1457.32 2014.85,1458.85 2008.35,1457.63C2002.37,1456.5 1995.23,1452.97 1990.04,1450.25C1992.18,1461.73 1995.89,1483.4 1993.68,1497.46C1992.57,1504.54 1989.81,1509.83 1985.55,1512.25C1982.47,1513.99 1978.47,1514.48 1973.34,1512.75C1962.4,1509.06 1955.95,1499.94 1952.31,1490.15C1950.65,1485.7 1949.58,1481.13 1948.89,1476.98C1943.74,1485.23 1936.04,1494.58 1927.57,1500.47C1916.81,1507.95 1905.07,1509.97 1895.48,1500.07C1890.19,1494.61 1889.78,1486.48 1892.03,1478.15C1893.79,1471.63 1897.1,1465 1899.95,1459.96C1893.24,1462.21 1884.35,1464.85 1876.92,1464.45C1870.56,1464.1 1865.17,1461.67 1862.05,1456.05C1858.95,1450.48 1860.13,1443.45 1864.11,1436.27C1870.75,1424.25 1885.07,1411.44 1890.24,1406.02C1893.97,1402.1 1905.33,1391.38 1916.81,1380.79C1928.3,1370.17 1939.91,1359.69 1944.04,1356.31C1951.39,1350.3 1963.42,1341.32 1976.74,1329.88C1983.36,1324.19 1990.3,1317.88 1997.13,1311.02C2004.58,1303.55 2012.49,1296.42 2020.57,1289.48C2032.61,1279.15 2045.06,1269.25 2057.02,1259.26C2060.32,1256.49 2073.32,1244.61 2078.04,1239.42C2078.23,1239.21 2078.44,1238.97 2078.62,1238.75C2078.66,1238.55 2078.73,1238.35 2078.8,1238.16ZM2201,1172.17C2202.12,1176.87 2202.62,1187.86 2202.9,1201.02C2203.45,1226.36 2202.9,1259.52 2202.76,1273.28C2202.72,1276.95 2202.41,1284.24 2201.92,1290.6C2201.6,1294.89 2201.32,1298.73 2200.88,1300.34C2199.96,1300.61 2196.44,1301.6 2193.21,1301.9C2181.1,1303.05 2161.36,1302.23 2147.11,1302.68C2140.5,1302.89 2135,1303.41 2131.71,1304.39C2123.77,1306.77 2107.42,1318.1 2089.64,1332.27C2069.65,1348.2 2047.7,1367.65 2033.93,1381.1C2027.83,1387.07 2018.29,1393.86 2010.88,1400.39C2008.77,1402.26 2006.82,1404.11 2005.15,1405.92C2003.26,1407.96 2002.55,1410.42 2002.83,1413.25C2003.34,1418.39 2008.39,1425.51 2012.46,1432.95C2015.35,1438.23 2017.93,1443.71 2015.48,1448.68C2014.53,1450.6 2012.28,1450.23 2009.83,1449.77C2002.51,1448.38 1993.34,1442.88 1989.1,1440.71C1987.48,1439.88 1986.27,1439.46 1985.69,1439.37C1983.19,1438.99 1981.95,1440.36 1981.35,1441.44C1981.18,1441.75 1980.7,1442.71 1980.88,1444.35C1980.98,1445.22 1981.3,1446.99 1981.76,1449.43C1983.65,1459.51 1988.02,1481.98 1985.78,1496.22C1985.12,1500.41 1984.13,1503.86 1981.61,1505.29C1980.17,1506.1 1978.3,1505.98 1975.9,1505.17C1970.97,1503.51 1967.29,1500.32 1964.53,1496.48C1957.08,1486.11 1955.91,1471.13 1955.64,1464.65C1955.57,1463.05 1955.56,1461.93 1955.54,1461.48C1955.52,1460.92 1955.44,1460.58 1955.4,1460.44C1954.99,1458.82 1953.98,1458.21 1953.5,1457.94C1952.54,1457.39 1951.55,1457.29 1950.55,1457.54C1949.85,1457.71 1948.68,1458.11 1947.92,1459.66C1947.87,1459.78 1947.59,1460.36 1947.46,1461.54C1946.79,1467.75 1935.64,1485.11 1923.01,1493.9C1915.7,1498.98 1907.74,1501.22 1901.22,1494.5C1897.81,1490.97 1898.3,1485.62 1899.75,1480.24C1902.15,1471.35 1907.77,1462.29 1910.38,1458.12C1911.11,1456.96 1911.64,1456.13 1911.86,1455.72C1913.44,1452.84 1911.47,1450.87 1911.13,1450.57C1910.39,1449.9 1908.09,1448.99 1904.66,1449.98C1900.02,1451.31 1890.23,1455.5 1881.37,1456.35C1876.27,1456.84 1871.4,1456.41 1869.04,1452.16C1866.49,1447.57 1869.71,1441.72 1873.86,1435.76C1880.83,1425.76 1891.75,1416.03 1896.03,1411.53C1899.71,1407.67 1910.92,1397.11 1922.23,1386.66C1933.58,1376.19 1945.03,1365.84 1949.11,1362.5C1956.49,1356.47 1968.57,1347.44 1981.95,1335.94C1988.72,1330.13 1995.81,1323.68 2002.8,1316.67C2010.11,1309.34 2017.85,1302.36 2025.78,1295.55C2037.79,1285.25 2050.22,1275.37 2062.15,1265.39C2065.58,1262.53 2079.06,1250.19 2083.96,1244.81C2085.98,1242.58 2086.7,1240.65 2086.74,1240.06C2086.76,1239.76 2086.76,1239.49 2086.73,1239.23C2087.22,1236.05 2088.18,1227.96 2088.18,1226.63C2088.18,1221.64 2088.65,1214.74 2089.29,1207.49C2090.11,1198.2 2091.22,1188.36 2092.03,1181.17C2092.93,1181 2094.03,1180.81 2095.11,1180.64C2107.97,1178.7 2137.76,1175.51 2151.33,1174.82C2159.25,1174.41 2172.52,1172.68 2183.88,1171.87C2189.55,1171.46 2194.71,1171.27 2198.39,1171.65C2199.29,1171.74 2200.4,1172.01 2201,1172.17Z"/>
                    <path d="M2180.03,1267.51C2180.3,1267.02 2178.14,1268.46 2177.91,1268.62C2176.41,1269.66 2175.03,1270.82 2173.58,1271.91C2169.43,1275.02 2165.18,1278.04 2161.08,1281.21C2154.98,1285.91 2148.03,1289.77 2142.51,1295.2C2136.83,1300.78 2132.69,1308.46 2125.55,1312.32" style="fill:white;fill-opacity:0;"/>
                    <path d="M2181.04,1271.37C2182.06,1271.11 2182.97,1270.45 2183.52,1269.46C2185.22,1266.42 2183.35,1264.77 2182.17,1264.03C2181.61,1263.68 2180.31,1263.03 2178.52,1263.68C2177.85,1263.92 2175.89,1265.15 2175.63,1265.33C2175.63,1265.33 2171.18,1268.71 2171.18,1268.71L2158.64,1278.04C2154.38,1281.32 2149.7,1284.2 2145.39,1287.48C2143.4,1289 2141.49,1290.6 2139.71,1292.34C2135.74,1296.24 2132.53,1301.15 2128.53,1305.08C2127.06,1306.52 2125.48,1307.81 2123.65,1308.8C2121.71,1309.85 2120.98,1312.28 2122.03,1314.22C2123.08,1316.16 2125.51,1316.89 2127.45,1315.84C2129.94,1314.49 2132.12,1312.76 2134.13,1310.8C2138.13,1306.87 2141.35,1301.94 2145.31,1298.05C2146.85,1296.54 2148.52,1295.16 2150.24,1293.85C2154.56,1290.55 2159.25,1287.67 2163.52,1284.37L2175.98,1275.11L2180.19,1271.91L2181.04,1271.37ZM2176.03,1267.4C2176.05,1266.77 2176.21,1266.14 2176.53,1265.56C2176.14,1266.26 2176.03,1266.88 2176.03,1267.4Z"/>
                    <path d="M2096.38,1184.15C2074.23,1204.08 2097.43,1244.57 2125.48,1224.74C2128.86,1222.35 2133.51,1219.6 2134.95,1215.44C2141.28,1197.21 2117.81,1178.16 2100.76,1186.69"/>
                    <path d="M2100.06,1182.6C2099.89,1182.2 2099.66,1181.82 2099.35,1181.47C2097.87,1179.83 2095.34,1179.7 2093.7,1181.17C2081.05,1192.56 2081.25,1209.78 2088.66,1221.4C2096.29,1233.35 2111.31,1239.66 2127.79,1228.01C2129.95,1226.47 2132.59,1224.78 2134.71,1222.73C2136.51,1221 2137.95,1219.01 2138.73,1216.75C2142.47,1205.98 2137.61,1194.88 2129.06,1187.86C2120.97,1181.2 2109.72,1178.37 2100.06,1182.6ZM2097.36,1188.8C2089.68,1197.22 2090.24,1208.99 2095.41,1217.09C2100.81,1225.56 2111.5,1229.73 2123.17,1221.47C2125.03,1220.16 2127.33,1218.74 2129.15,1216.98C2130.02,1216.14 2130.79,1215.23 2131.17,1214.13C2133.79,1206.58 2129.97,1198.96 2123.98,1194.04C2117.98,1189.11 2109.62,1186.73 2102.55,1190.27C2100.68,1191.2 2098.44,1190.54 2097.36,1188.8Z"/>
                    <path d="M2102.5,1268.87C2094.87,1267.15 2088.38,1276.65 2084.41,1281.8C2080.94,1286.28 2075.13,1291.76 2073.65,1297.37C2070.67,1308.62 2078.17,1321.85 2089.62,1324.43C2094.19,1325.45 2100.06,1321.35 2103.73,1319.14C2113.96,1313.01 2128.12,1303.45 2124.75,1289.28C2123.24,1282.96 2114.24,1265.86 2105.37,1270.16"/>
                    <path d="M2105.21,1265.93C2104.71,1265.47 2104.09,1265.13 2103.38,1264.97C2100.01,1264.21 2096.78,1264.91 2093.79,1266.57C2088.66,1269.42 2084.24,1275.46 2081.24,1279.35C2078.79,1282.52 2075.21,1286.19 2072.72,1290.05C2071.38,1292.11 2070.34,1294.23 2069.78,1296.35C2068.03,1302.98 2069.3,1310.2 2072.75,1316.14C2076.24,1322.14 2081.92,1326.8 2088.74,1328.33C2090.8,1328.79 2093.05,1328.61 2095.32,1327.93C2099.11,1326.81 2103.03,1324.23 2105.79,1322.57C2112.36,1318.63 2120.37,1313.3 2125.02,1306.45C2128.55,1301.26 2130.28,1295.25 2128.64,1288.35C2127.49,1283.53 2122.43,1273.18 2116.2,1268.45C2112.75,1265.82 2108.97,1264.76 2105.21,1265.93ZM2102.43,1272.87C2102.16,1272.86 2101.89,1272.83 2101.62,1272.77C2099.64,1272.33 2097.85,1273.29 2096.18,1274.55C2092.66,1277.2 2089.74,1281.44 2087.57,1284.24C2085.53,1286.88 2082.68,1289.85 2080.39,1293C2079.11,1294.76 2078,1296.56 2077.51,1298.4C2076.3,1303 2077.27,1308 2079.67,1312.12C2082.05,1316.21 2085.85,1319.48 2090.5,1320.53C2091.64,1320.78 2092.9,1320.37 2094.17,1319.87C2096.94,1318.78 2099.66,1316.92 2101.67,1315.71C2107.34,1312.31 2114.39,1307.86 2118.41,1301.95C2120.7,1298.58 2121.92,1294.69 2120.86,1290.2C2120.2,1287.44 2117.89,1282.37 2114.8,1278.38C2113.49,1276.67 2112.05,1275.15 2110.48,1274.22C2109.4,1273.57 2108.26,1273.2 2107.11,1273.76C2105.49,1274.55 2103.59,1274.14 2102.43,1272.87Z"/>
                    <path d="M1915.81,1398.56C1915.07,1398.56 1917.88,1405.62 1918.26,1406.29C1919.16,1407.91 1921.29,1409.74 1922.87,1410.69C1930.67,1415.37 1941.44,1416.63 1950.43,1415.39C1966.57,1413.15 1988.89,1383.51 1981.73,1367.76C1974.09,1350.96 1962.7,1356.34 1950.56,1366.81C1936.67,1378.79 1928.21,1382.1 1923.02,1400.78"/>
                    <path d="M1919.74,1397.77C1919.37,1395.94 1917.75,1394.56 1915.81,1394.56C1914.46,1394.56 1911,1395.89 1911.82,1400.09C1912.24,1402.24 1914.41,1407.61 1914.76,1408.24C1915.29,1409.18 1916.08,1410.19 1917.02,1411.13C1918.21,1412.33 1919.64,1413.42 1920.81,1414.12C1925.15,1416.73 1930.31,1418.4 1935.64,1419.22C1940.81,1420.02 1946.13,1420.02 1950.98,1419.35C1959.82,1418.12 1970.53,1409.73 1977.92,1399.18C1985.62,1388.2 1989.45,1375.09 1985.37,1366.11C1981.62,1357.85 1976.83,1354.2 1971.85,1353.25C1964.79,1351.9 1956.4,1356.49 1947.95,1363.78C1939.14,1371.38 1932.5,1375.64 1927.41,1382.24C1924.35,1386.22 1921.8,1391.01 1919.74,1397.77ZM1921.93,1404.63C1922.22,1405.03 1922.61,1405.43 1923.03,1405.81C1923.65,1406.39 1924.34,1406.91 1924.93,1407.26C1928.41,1409.35 1932.58,1410.65 1936.86,1411.32C1941.25,1411.99 1945.77,1411.99 1949.89,1411.42C1957.05,1410.43 1965.38,1403.14 1971.37,1394.59C1977.29,1386.15 1981.22,1376.32 1978.09,1369.42C1975.17,1363.01 1971.91,1360.47 1967.82,1361.09C1963.25,1361.79 1958.34,1365.38 1953.17,1369.84C1944.88,1376.99 1938.54,1380.91 1933.75,1387.12C1930.93,1390.78 1928.7,1395.29 1926.87,1401.85C1926.28,1403.98 1924.08,1405.23 1921.95,1404.64L1921.93,1404.63ZM1917.7,1402.08C1917.14,1402.39 1916.5,1402.56 1915.81,1402.56C1916.53,1402.56 1917.15,1402.4 1917.7,1402.08ZM1917.88,1401.98L1917.73,1402.07L1917.8,1402.03L1917.88,1401.98Z"/>
                </g>
            </g>
            <g id="Head">
                <g id="Face-Outline" serif:id="Face Outline">
                    <g id="Face">
                        <path d="M2430.2,1097.47C2422.53,1102.07 2401.84,1097.8 2393.27,1098.35C2376.43,1099.43 2359.45,1104.53 2342.78,1105.36C2292.02,1107.9 2240.7,1102.31 2189.86,1107.4C2175.81,1108.81 2124.67,1115.11 2113.51,1100.05C2108.8,1093.69 2123.29,1013.29 2118.95,1012.97C2075.08,1009.76 2047.97,994.788 2034.03,980.794C1992.31,938.919 2012.65,847.48 2055.04,804.286C2144.63,712.999 2415.71,674.598 2505.11,760.474C2548.46,802.117 2571.25,839.752 2545.02,892.863C2530.79,921.677 2470.17,921.242 2471.43,923.511C2471.51,923.65 2471.76,923.775 2471.89,923.852C2491.95,935.89 2620.27,966.163 2628.96,981.814C2631.34,986.097 2617.06,988.71 2615.36,989.094C2592.23,994.297 2501.66,989.409 2478.12,999.843C2459.13,1008.26 2432.74,1010.99 2430.09,1042.29C2427.89,1068.21 2430.2,1099.06 2430.2,1097.47Z" style="fill:white;"/>
                        <path d="M2114.76,1017.64C2098.13,1016.14 2083.94,1012.97 2071.98,1008.84C2052.73,1002.19 2039.18,993.051 2030.49,984.323C2007.94,961.696 2002.3,925.361 2008.56,889.166C2014.36,855.664 2030.27,822.387 2051.47,800.784C2096.06,755.358 2184.87,722.605 2274.56,711.57C2368.02,700.073 2462.22,712.345 2508.57,756.868C2535.18,782.421 2554.07,806.656 2559.53,833.504C2563.34,852.248 2560.74,872.325 2549.5,895.077C2544.29,905.641 2533.62,912.871 2521.5,917.633C2510.54,921.943 2498.43,924.27 2488.93,925.687C2515.77,935.259 2568.15,949.351 2601.24,961.623C2612.3,965.722 2621.28,969.658 2626.71,973.135C2630.1,975.305 2632.28,977.498 2633.34,979.387C2635.2,982.738 2634.47,985.952 2631.2,988.614C2627.55,991.586 2617.95,993.637 2616.45,993.972C2598.83,997.937 2542.27,996.144 2505.59,999.574C2494.62,1000.6 2485.52,1002.03 2480.15,1004.41C2468.61,1009.53 2454.13,1012.24 2444.49,1021.32C2439.43,1026.08 2435.91,1032.75 2435.07,1042.72C2433.5,1061.16 2434.26,1082.13 2434.8,1091.79C2434.93,1094.08 2435.11,1096.43 2435.12,1096.59C2435.17,1096.88 2435.2,1097.17 2435.2,1097.47C2435.2,1098.03 2435.12,1098.37 2435.1,1098.52C2434.8,1099.98 2434.08,1100.71 2433.71,1101.08C2432.89,1101.9 2432.04,1102.38 2431.17,1102.57C2428.13,1103.88 2424.02,1104.53 2419.43,1104.62C2410.43,1104.79 2399.3,1102.98 2393.59,1103.34C2380.27,1104.2 2366.86,1107.6 2353.59,1109.36C2350.06,1109.82 2346.54,1110.18 2343.03,1110.35C2307.42,1112.13 2271.53,1109.93 2235.73,1110.2C2220.58,1110.31 2205.45,1110.87 2190.36,1112.38C2180.74,1113.34 2154.12,1116.5 2134.17,1113.88C2122.95,1112.41 2113.79,1108.83 2109.49,1103.03C2108.82,1102.12 2108.12,1100.52 2107.81,1098.19C2107.22,1093.61 2107.79,1084.31 2108.9,1073.38C2110.85,1054.19 2114.35,1029.72 2114.74,1018.69C2114.75,1018.35 2114.76,1017.99 2114.76,1017.64ZM2621.86,981.835C2618.96,982.774 2614.93,984.066 2614.26,984.216C2596.84,988.135 2540.92,986.227 2504.66,989.617C2492.32,990.771 2482.14,992.595 2476.1,995.272C2463.59,1000.82 2448.1,1004.2 2437.63,1014.04C2431.03,1020.25 2426.21,1028.86 2425.1,1041.87C2423.49,1060.84 2424.26,1082.41 2424.82,1092.35L2424.93,1094.14C2423.28,1094.48 2421.33,1094.58 2419.24,1094.62C2410.09,1094.79 2398.76,1092.99 2392.95,1093.36C2379.41,1094.23 2365.77,1097.66 2352.28,1099.44C2349.02,1099.87 2345.77,1100.2 2342.53,1100.37C2307.06,1102.14 2271.32,1099.93 2235.65,1100.2C2220.2,1100.31 2204.76,1100.88 2189.36,1102.42C2181.3,1103.23 2160.81,1105.7 2142.96,1104.66C2132.04,1104.02 2122.04,1102.57 2117.83,1097.46C2117.8,1096.76 2117.53,1090.27 2117.93,1084.75C2119.26,1066.19 2123.67,1036.36 2124.59,1021.82C2124.9,1017.03 2124.71,1013.6 2124.24,1012.12C2123.25,1008.96 2121.03,1008.11 2119.32,1007.99C2102.03,1006.72 2087.41,1003.59 2075.24,999.385C2057.79,993.362 2045.45,985.176 2037.57,977.265C2017.14,956.76 2012.74,923.672 2018.41,890.872C2023.86,859.399 2038.69,828.083 2058.61,807.788C2101.97,763.606 2188.54,732.229 2275.78,721.496C2365.9,710.409 2456.95,721.147 2501.64,764.08C2521.96,783.591 2537.72,802.125 2545.64,821.947C2553.91,842.635 2553.36,864.678 2540.54,890.649C2537.41,896.979 2531.63,901.592 2524.88,905.134C2508.44,913.762 2486.3,916.002 2476.28,917.3C2473.12,917.71 2470.92,918.126 2470.01,918.475C2467.79,919.323 2467.02,920.837 2466.71,921.736C2466.22,923.11 2466.27,924.517 2467.06,925.942C2467.06,925.942 2469.31,928.139 2469.31,928.139C2483.98,936.935 2555.99,955.509 2597.77,970.999C2606.35,974.18 2613.61,977.216 2618.71,980.018C2619.9,980.673 2620.97,981.267 2621.86,981.835Z"/>
                    </g>
                    <path d="M2227.9,926.326C2224.44,926.326 2216.67,939.143 2214.52,941.803C2202.44,956.751 2190.45,972.673 2177.21,986.568C2167.87,996.377 2153.69,1004.94 2141.08,1009.67C2129.97,1013.82 2114.48,1012.18 2111.44,1014.92" style="fill-opacity:0;"/>
                    <path d="M2114.43,1018.92C2114.76,1018.84 2116.65,1018.43 2118.04,1018.28C2122.14,1017.85 2127.61,1017.63 2133.05,1016.78C2136.42,1016.26 2139.77,1015.49 2142.83,1014.35C2149.44,1011.88 2156.45,1008.4 2163.04,1004.25C2169.69,1000.07 2175.89,995.202 2180.83,990.016C2186.22,984.362 2191.4,978.379 2196.47,972.26C2203.94,963.236 2211.16,953.916 2218.41,944.946C2220.04,942.919 2228.39,931.983 2228.99,931.203C2231.22,930.707 2232.9,928.71 2232.9,926.326C2232.9,923.567 2230.66,921.326 2227.9,921.326C2226.14,921.326 2223.47,922.434 2220.91,925.035C2217.09,928.933 2212.26,936.638 2210.63,938.661C2203.4,947.6 2196.21,956.889 2188.76,965.882C2183.85,971.822 2178.82,977.632 2173.59,983.12C2169.19,987.742 2163.64,992.06 2157.71,995.791C2151.72,999.563 2145.34,1002.73 2139.33,1004.98C2130.48,1008.29 2118.76,1007.72 2113.18,1008.9C2110.82,1009.41 2109.12,1010.27 2108.09,1011.2C2106.04,1013.05 2105.87,1016.21 2107.72,1018.26C2109.47,1020.2 2112.39,1020.45 2114.43,1018.92Z"/>
                    <path d="M2367.62,1012.01C2373.52,1001.39 2389.33,997.328 2399.98,995.276C2427.66,989.941 2458.05,988.428 2485.92,991.568C2491.67,992.216 2515.29,990.097 2519.11,993.541" style="fill:rgb(152,90,91);fill-opacity:0;"/>
                    <path d="M2516.05,997.494C2518.1,999.084 2521.06,998.844 2522.82,996.889C2524.67,994.839 2524.51,991.675 2522.46,989.827C2520.99,988.501 2517.65,987.278 2513.19,986.853C2504.65,986.042 2490.71,987.076 2486.48,986.6C2472.27,984.999 2457.42,984.583 2442.59,985.252C2427.83,985.917 2413.08,987.658 2399.03,990.366C2392.25,991.673 2383.53,993.787 2376.25,997.653C2370.76,1000.57 2366.09,1004.48 2363.25,1009.59C2361.91,1012 2362.79,1015.04 2365.2,1016.38C2367.61,1017.72 2370.66,1016.85 2372,1014.44C2373.92,1010.98 2377.21,1008.46 2380.94,1006.49C2387.32,1003.1 2394.99,1001.33 2400.92,1000.19C2414.51,997.567 2428.76,995.885 2443.04,995.242C2457.34,994.597 2471.66,994.993 2485.37,996.537C2488.7,996.912 2497.89,996.412 2505.96,996.519C2510.09,996.574 2515.77,997.45 2516.05,997.494Z"/>
                    <path d="M2359.42,891.868C2362.92,891.868 2366.27,895.323 2369.59,896.12C2394.33,902.06 2418.67,908.472 2442.65,916.564C2453.68,920.286 2465.77,921.877 2476.74,925.17C2478.22,925.614 2486.56,929.747 2486.38,929.966" style="fill-opacity:0;"/>
                    <path d="M2483.16,933.787L2483.18,933.807C2485.3,935.573 2488.45,935.287 2490.22,933.167C2490.53,932.799 2492.55,927.597 2487.94,925.012C2485.54,923.665 2479.48,920.771 2478.18,920.381C2470.41,918.05 2462.1,916.556 2453.98,914.582C2450.68,913.78 2447.42,912.896 2444.25,911.826C2432.15,907.744 2419.97,904.086 2407.68,900.7C2395.47,897.334 2383.16,894.237 2370.76,891.258C2368.27,890.661 2365.8,888.418 2363.22,887.535C2361.97,887.106 2360.7,886.868 2359.42,886.868C2356.66,886.868 2354.42,889.109 2354.42,891.868C2354.42,894.628 2356.66,896.868 2359.42,896.868L2368.42,900.982C2380.72,903.934 2392.92,907.004 2405.02,910.34C2417.13,913.676 2429.13,917.279 2441.05,921.301C2444.49,922.463 2448.04,923.428 2451.62,924.299C2459.56,926.23 2467.7,927.678 2475.3,929.959C2476.34,930.269 2481.13,932.659 2483.05,933.733L2483.16,933.787Z"/>
                </g>
                <g id="Spots">
                    <path d="M2326.96,750.771C2317.3,750.771 2325.9,786.486 2343.55,792.576C2368.47,801.178 2394.76,793.212 2399.79,773.868C2411.09,730.383 2332.11,731.362 2326.96,750.771Z"/>
                    <path d="M2323.35,746.527C2321.61,747.343 2320.23,748.812 2319.26,750.905C2317.43,754.835 2317.57,762.533 2320.18,770.682C2323.76,781.89 2331.7,793.776 2341.92,797.303C2356.99,802.505 2372.53,802.049 2384.32,797.111C2394.52,792.836 2402,785.253 2404.63,775.125C2409.72,755.534 2399.49,743.478 2384.32,737.446C2370.47,731.936 2352.26,731.835 2339.51,735.613C2331.72,737.924 2325.97,741.884 2323.35,746.527ZM2328.24,755.603C2329.94,755.154 2331.32,753.82 2331.79,752.054C2332.68,748.716 2337.03,746.779 2342.35,745.2C2353.24,741.974 2368.79,742.032 2380.63,746.738C2391.11,750.906 2398.47,759.075 2394.95,772.61C2392.64,781.486 2384.79,787.265 2374.91,789.707C2366.02,791.905 2355.47,791.402 2345.18,787.85C2340.23,786.14 2336.31,781.419 2333.39,776.169C2329.97,770.021 2327.96,762.998 2327.94,758.028C2327.93,757.231 2328.11,756.213 2328.24,755.603Z"/>
                    <path d="M2022.63,878.398C2019.07,891.202 2016.32,902.392 2016.32,915.985C2016.32,924.964 2018.35,934 2021.8,942.28C2025.88,952.083 2028.38,961.822 2038.65,967.009C2054.86,975.184 2079.2,921.557 2073.31,894.59C2068.18,871.043 2038.38,859.269 2022.63,878.398Z"/>
                    <path d="M2018.77,875.22C2018.33,875.76 2018,876.386 2017.81,877.06C2015.61,885.006 2013.71,892.349 2012.55,899.996C2011.77,905.105 2011.32,910.348 2011.32,915.985C2011.32,920.824 2011.86,925.679 2012.88,930.439C2013.88,935.156 2015.34,939.781 2017.18,944.203C2019.79,950.458 2021.85,956.659 2025.41,961.82C2028.07,965.676 2031.5,969.001 2036.4,971.473C2041.09,973.836 2046.28,973.183 2051.45,969.626C2057.13,965.724 2063.02,957.846 2067.83,948.096C2076.23,931.08 2081.45,908.443 2078.2,893.524C2075.3,880.216 2065.55,870.172 2054.24,865.999C2042.13,861.533 2028.29,863.651 2018.77,875.22ZM2027.15,880.806C2033.64,873.579 2042.77,872.428 2050.78,875.381C2059.11,878.455 2066.29,885.852 2068.43,895.655C2070.83,906.646 2067.66,922.352 2062.28,935.957C2058.23,946.204 2052.92,955.302 2047.42,960.107C2045.11,962.126 2043,963.599 2040.91,962.545C2037.66,960.908 2035.4,958.694 2033.64,956.141C2030.46,951.533 2028.74,945.941 2026.41,940.356C2024.81,936.502 2023.53,932.471 2022.66,928.359C2021.79,924.284 2021.32,920.128 2021.32,915.985C2021.32,909.543 2021.97,903.667 2023.04,897.887C2024.09,892.244 2025.53,886.69 2027.15,880.807L2027.15,880.806Z"/>
                    <path d="M2275.97,955.308C2230.21,955.308 2218.35,1026.67 2262.21,1041.47C2286.24,1049.58 2304.54,1027.65 2306.02,1005.04C2307.09,988.701 2300.68,967.533 2286.55,957.995C2284.44,956.568 2278.13,956.696 2275.97,955.308Z"/>
                    <path d="M2278.68,951.102C2277.87,950.583 2276.93,950.308 2275.97,950.308C2250.35,950.308 2234.05,970.136 2230.52,992.2C2227.02,1014.14 2236.19,1037.97 2260.62,1046.21C2274.75,1050.97 2287.18,1046.84 2296.25,1038.18C2304.74,1030.06 2310.19,1017.82 2311.01,1005.37C2311.58,996.56 2310.16,986.454 2306.68,977.259C2303.08,967.717 2297.26,959.185 2289.35,953.851C2288.46,953.251 2287.2,952.72 2285.68,952.354C2283.43,951.81 2280.03,951.969 2278.68,951.102ZM2274.89,960.322C2275.49,960.555 2276.16,960.761 2276.88,960.931C2279.11,961.455 2282.46,961.263 2283.76,962.139C2290.02,966.365 2294.47,973.236 2297.33,980.795C2300.29,988.621 2301.52,997.219 2301.03,1004.71C2300.38,1014.65 2296.12,1024.47 2289.34,1030.95C2282.84,1037.16 2273.94,1040.15 2263.81,1036.73C2244.49,1030.21 2237.63,1011.14 2240.4,993.777C2243.13,976.653 2255.28,960.881 2274.89,960.323L2274.89,960.322Z"/>
                    <path d="M2416.34,918.639C2396.6,945.287 2423.53,970.094 2447.45,944.661C2463.45,927.644 2430.93,900.263 2416.34,918.639Z"/>
                    <path d="M2412.43,915.53C2412.39,915.573 2412.36,915.617 2412.33,915.662C2400.34,931.838 2403.51,947.461 2412.39,955.084C2421.2,962.641 2436.7,963.393 2451.09,948.086C2461.32,937.211 2456.65,922.905 2446.44,914.43C2436.38,906.085 2421.61,903.967 2412.43,915.53ZM2420.31,921.684C2425.65,915.035 2434.22,917.286 2440.05,922.125C2445.91,926.983 2449.67,935.002 2443.81,941.236C2434.41,951.23 2424.66,952.429 2418.91,947.494C2413.08,942.496 2412.48,932.305 2420.3,921.7L2420.31,921.684Z"/>
                </g>
                <g id="Eyes">
                    <path d="M2178.95,835.47C2149.18,846.632 2147.21,859.693 2145.54,864.962C2140.62,880.459 2157.57,893.569 2171.43,893.569C2201.56,893.569 2234.24,895.987 2260.1,876.595C2271.65,867.931 2290.57,836.229 2266.71,829.79C2241.76,823.055 2202.97,826.464 2178.95,835.47Z" style="fill:white;"/>
                    <path d="M2177.46,831.491C2164.84,836.22 2156.97,841.328 2151.92,846.044C2143.91,853.509 2142.61,860.142 2141.49,863.675C2138.5,873.091 2141.99,881.83 2148.51,888.157C2154.66,894.12 2163.49,897.819 2171.43,897.819C2189.82,897.819 2209.14,898.666 2227.33,895.094C2239.83,892.639 2251.8,888.127 2262.65,879.995C2270.05,874.441 2280.21,860.221 2282.11,847.993C2283.67,837.947 2280.38,829.078 2267.82,825.686C2254.94,822.211 2238.5,821.315 2222.17,822.489C2205.92,823.656 2189.8,826.865 2177.46,831.491ZM2180.44,839.45C2192.12,835.07 2207.4,832.072 2222.78,830.967C2238.1,829.866 2253.53,830.633 2265.6,833.893C2272.79,835.832 2274.6,840.945 2273.71,846.689C2272.14,856.825 2263.69,868.592 2257.55,873.195C2247.77,880.524 2236.96,884.54 2225.7,886.753C2208.04,890.221 2189.28,889.319 2171.43,889.319C2165.53,889.319 2159,886.489 2154.43,882.058C2150.2,877.95 2147.65,872.361 2149.59,866.248C2150.48,863.458 2151.39,858.155 2157.71,852.26C2162.2,848.074 2169.25,843.647 2180.44,839.45Z"/>
                    <path d="M2399.94,821.047C2374.57,821.555 2331.46,834.424 2337.69,856.56C2339.52,863.073 2348.05,869.486 2352.81,871.629C2369.97,879.354 2393.88,879.153 2412.3,877.31C2429.87,875.552 2463.48,867.404 2460.98,840.164C2459.7,826.236 2414.94,812.172 2399.94,821.047Z" style="fill:white;"/>
                    <path d="M2398.82,816.825C2381.91,817.37 2358.12,823.064 2344.59,832.914C2335.51,839.523 2330.86,847.984 2333.6,857.711C2334.49,860.855 2336.56,864.026 2339.2,866.824C2342.95,870.8 2347.8,874.034 2351.07,875.505C2358.39,878.799 2366.86,880.752 2375.66,881.751C2388.24,883.18 2401.48,882.663 2412.72,881.538C2424.08,880.402 2441.71,876.621 2453.18,867.394C2461.16,860.968 2466.34,852.039 2465.21,839.776C2464.91,836.534 2463.09,833.175 2459.84,830.078C2455.73,826.163 2449.2,822.486 2441.73,819.671C2426.82,814.05 2408.33,812.119 2398.82,816.825ZM2400.03,825.297C2400.76,825.282 2401.47,825.078 2402.1,824.705C2408.54,820.899 2421.03,822.242 2432.5,825.558C2440.44,827.853 2447.92,831.224 2452.67,835.088C2454.89,836.888 2456.57,838.626 2456.75,840.553C2457.57,849.545 2453.7,856.06 2447.85,860.772C2437.68,868.958 2421.95,872.073 2411.88,873.081C2401.18,874.151 2388.59,874.665 2376.61,873.305C2368.73,872.41 2361.12,870.707 2354.55,867.753C2352.4,866.785 2349.38,864.797 2346.74,862.335C2344.51,860.265 2342.48,857.884 2341.78,855.409C2339.43,847.062 2346.42,840.862 2355.83,835.975C2368.76,829.26 2386.88,825.56 2400.03,825.297Z"/>
                    <path d="M2405.31,838.123C2399.57,834.682 2384.21,852.118 2396.61,860.982C2415.18,874.252 2423.82,853.067 2405.31,838.123Z"/>
                    <path d="M2408.45,834.233C2408.27,834.088 2408.08,833.955 2407.88,833.836C2405.39,832.339 2401.97,832.23 2398.43,834.022C2394.81,835.857 2390.86,839.859 2388.69,844.61C2385.59,851.398 2385.82,859.413 2393.71,865.05C2404.69,872.899 2413.26,870.652 2417.43,865.549C2422.6,859.229 2422.01,845.178 2408.45,834.233ZM2403.21,842.891C2408.83,847.805 2411.2,853.228 2410.5,857.276C2409.8,861.284 2405.49,861.178 2399.52,856.914C2397.15,855.22 2396.61,852.967 2397.08,850.817C2397.69,848.103 2399.51,845.558 2401.47,843.942C2401.96,843.536 2402.73,843.127 2403.21,842.891Z"/>
                    <path d="M2211.34,843.6C2208.93,841.429 2196.73,852.335 2195.39,853.941C2187.27,863.681 2199.13,881.092 2210.4,881.834C2247.39,884.27 2231.58,838.129 2211.34,843.6Z"/>
                    <path d="M2211.19,838.503C2209.53,838.349 2207.52,838.682 2205.34,839.828C2200.26,842.499 2192.65,849.42 2191.55,850.739C2186.1,857.276 2186.87,866.411 2191.43,873.986C2195.66,881.017 2203.05,886.361 2210.07,886.823C2221.25,887.559 2228.37,884.287 2232.57,879.625C2236.49,875.268 2238.05,869.489 2237.61,863.537C2236.59,849.69 2224.43,835.875 2211.19,838.503ZM2210.54,848.534C2211.23,848.648 2211.95,848.615 2212.65,848.427C2215.59,847.632 2218.35,848.659 2220.65,850.502C2224.56,853.644 2227.25,859.051 2227.64,864.271C2228.17,871.474 2223.37,877.677 2210.72,876.844C2206.57,876.571 2202.5,872.988 2199.99,868.827C2197.7,865.011 2196.49,860.434 2199.23,857.142C2200.07,856.141 2208.68,849.88 2210.54,848.534Z"/>
                </g>
                <g id="Nose">
                    <path d="M2598.67,946.736C2576.92,950.648 2568.45,976.143 2581.05,994.29C2588.99,1005.72 2612.85,1007.07 2624.56,1002.28C2653.02,990.638 2657.26,949.823 2621.87,945.273C2615.66,944.474 2604.35,943.981 2598.67,946.736Z"/>
                    <path d="M2597.15,941.934C2584.55,944.431 2575.84,953.132 2572.14,963.863C2568.53,974.338 2569.75,986.779 2576.95,997.141C2580.83,1002.73 2587.77,1006.52 2595.73,1008.39C2606.4,1010.91 2618.77,1010.05 2626.45,1006.91C2642.55,1000.32 2651.75,985.475 2652.15,971.62C2652.57,956.979 2643.67,943.034 2622.51,940.314C2618.6,939.811 2612.81,939.427 2607.47,939.79C2603.57,940.055 2599.91,940.752 2597.15,941.934ZM2599.55,951.657C2600,951.576 2600.44,951.434 2600.85,951.235C2602.71,950.331 2605.36,949.957 2608.14,949.767C2612.8,949.451 2617.84,949.795 2621.24,950.232C2635.82,952.107 2642.44,961.243 2642.15,971.334C2641.86,981.728 2634.75,992.713 2622.66,997.656C2617.48,999.775 2609.62,1000.45 2602.16,999.426C2595.19,998.471 2588.44,996.165 2585.16,991.438C2579.9,983.863 2578.96,974.777 2581.6,967.12C2584.23,959.475 2590.49,953.287 2599.55,951.657Z"/>
                </g>
            </g>
            <g id="Hat">
                <path d="M2090.06,649.914C2087.47,649.914 2061.95,695.442 2052.68,714.51C2045.5,729.274 2019.55,776.373 2022.63,778.222C2028.53,781.761 2045.27,777.92 2052,777.541C2078.1,776.073 2148.82,768.855 2157.64,768.289C2188.99,766.274 2219.94,761.488 2251.41,759.717C2306.32,756.627 2361.24,752.451 2416.38,748.968C2450.7,746.801 2526.8,739.37 2527.73,734.375C2529.34,725.669 2512.89,687.273 2510.61,677.501C2505.95,657.588 2494.15,607.665 2491.14,606.306C2487.81,604.805 2480.04,607.428 2476.4,607.633C2459.12,608.604 2440.55,612.532 2423.45,615.83C2415.38,617.386 2333.09,626.375 2299.82,630.117C2289.72,631.253 2279.19,631.273 2269.36,633.485C2266.14,634.208 2265.57,587.929 2257,580.216C2252.77,576.41 2222.8,580.583 2216.48,581.53C2201.45,583.784 2160.59,589.461 2157.86,592.734C2153.8,597.615 2155.86,615.3 2155.86,621.511C2155.86,629.12 2160.2,641.457 2157.71,648.179C2156.72,650.868 2094.72,654.107 2090.06,649.914Z" style="fill:white;"/>
                <path d="M2154.14,644.934C2153.19,645.124 2151.88,645.363 2150.61,645.528C2139.45,646.968 2116.46,648.097 2102.26,647.53C2097.79,647.351 2092.54,646.465 2092.54,646.465L2092.56,646.485C2091.84,645.953 2090.96,645.664 2090.06,645.664C2089.31,645.664 2087.49,646.011 2085.7,648.083C2084.12,649.927 2081.29,654.206 2077.86,659.865C2068.78,674.828 2055.12,699.754 2048.86,712.652C2043.2,724.289 2025.94,755.934 2020.26,769.913C2018.75,773.631 2018.08,776.424 2018.13,777.743C2018.21,779.988 2019.34,781.207 2020.44,781.867C2022.92,783.35 2026.86,784.021 2031.38,783.953C2038.66,783.842 2047.71,782.04 2052.24,781.785C2059.91,781.353 2071.42,780.427 2084.09,779.319C2114.53,776.655 2151.68,772.93 2157.91,772.53C2183.04,770.915 2207.91,767.524 2232.99,765.325C2239.19,764.782 2245.41,764.311 2251.64,763.96L2416.65,753.21C2439.64,751.757 2481.31,747.95 2506.78,744.089C2516.72,742.581 2524.28,740.999 2527.61,739.6C2530.64,738.331 2531.68,736.336 2531.9,735.151C2532.39,732.537 2531.68,727.585 2530.01,721.53C2525.89,706.634 2516.43,683.75 2514.74,676.533C2511.57,662.982 2505.11,635.581 2500.33,618.921C2498.52,612.602 2496.9,607.758 2495.8,605.566C2494.81,603.616 2493.58,602.743 2492.89,602.431C2491.26,601.696 2488.93,601.452 2486.32,601.699C2482.8,602.032 2478.56,603.254 2476.16,603.389C2469.07,603.788 2461.77,604.672 2454.44,605.809C2443.71,607.472 2432.91,609.677 2422.64,611.657C2419.47,612.27 2404.66,614.038 2385.91,616.189C2357.23,619.48 2319.39,623.639 2299.35,625.894C2292.29,626.687 2285.03,626.937 2277.94,627.768C2275.91,628.004 2273.91,628.287 2271.92,628.64C2270.8,622.689 2269.81,610.932 2268.08,600.312C2266.35,589.759 2263.51,580.357 2259.84,577.057C2257.96,575.362 2252.11,574.231 2244.87,574.429C2234.18,574.721 2220,576.705 2215.85,577.327C2205.36,578.9 2182.36,582.136 2168.35,585.066C2163.05,586.174 2158.95,587.303 2157,588.243C2155.81,588.82 2155.04,589.482 2154.6,590.013C2152.83,592.137 2151.67,596.048 2151.29,600.722C2150.7,607.977 2151.61,617.317 2151.61,621.511C2151.61,626.739 2153.59,634.162 2154.12,640.539C2154.25,642.115 2154.31,643.61 2154.14,644.934ZM2254.34,583.553C2256.21,585.442 2257.3,589.749 2258.4,594.819C2260.89,606.252 2262.08,621.433 2263.38,629.171C2263.97,632.664 2264.87,635.008 2265.55,635.873C2266.99,637.715 2268.73,637.983 2270.29,637.631C2273.12,636.995 2276.01,636.552 2278.93,636.21C2286,635.381 2293.26,635.132 2300.3,634.34C2320.34,632.085 2358.2,627.925 2386.88,624.634C2405.96,622.444 2421.02,620.627 2424.25,620.004C2434.42,618.042 2445.11,615.856 2455.74,614.208C2462.8,613.115 2469.82,612.259 2476.64,611.876C2478.84,611.752 2482.49,610.806 2485.85,610.317C2486.79,610.18 2487.69,609.994 2488.43,610.008C2488.85,610.991 2489.53,612.686 2490.06,614.331C2494.78,628.79 2502.82,662.879 2506.47,678.469C2507.97,684.889 2515.52,703.574 2520.15,718.231C2521.96,723.95 2523.45,728.932 2523.62,731.99C2523.04,732.2 2522.32,732.444 2521.65,732.624C2512.79,735.008 2493.1,737.609 2472.11,739.85C2451.84,742.016 2430.36,743.827 2416.11,744.727L2251.17,755.474C2244.84,755.83 2238.54,756.306 2232.25,756.858C2207.23,759.051 2182.43,762.437 2157.36,764.048C2151.12,764.449 2113.87,768.18 2083.34,770.851C2070.78,771.951 2059.37,772.87 2051.76,773.298C2047.86,773.518 2040.58,774.899 2034.01,775.336C2031.55,775.499 2029.2,775.625 2027.32,775.359C2027.56,774.638 2027.84,773.837 2028.14,773.111C2033.76,759.256 2050.89,727.903 2056.5,716.368C2063.68,701.601 2080.68,670.834 2089.01,658.047C2089.76,656.904 2090.58,655.758 2091.23,654.888C2091.85,655.049 2092.54,655.191 2093.29,655.306C2100.73,656.447 2116.69,656.35 2130.96,655.628C2141.73,655.084 2151.54,654.185 2156.04,653.268C2159.82,652.499 2161.41,650.417 2161.7,649.655C2162.69,646.963 2162.9,643.549 2162.59,639.832C2162.08,633.689 2160.11,626.547 2160.11,621.511C2160.11,617.957 2159.42,610.62 2159.62,604.113C2159.72,600.718 2159.8,597.551 2160.85,595.847C2161.32,595.664 2162.4,595.258 2163.39,594.976C2167.57,593.793 2174.29,592.486 2181.71,591.207C2194.49,589.003 2209.3,586.905 2217.11,585.733C2220.62,585.207 2231.54,583.668 2241.14,583.101C2245.23,582.86 2249.06,582.787 2251.91,583.082C2252.82,583.176 2254.03,583.474 2254.34,583.553Z"/>
            </g>
        </g>
    </g>
</svg>
