<?xml version="1.0" encoding="UTF-8" standalone="no"?>
<!DOCTYPE svg PUBLIC "-//W3C//DTD SVG 1.1//EN" "http://www.w3.org/Graphics/SVG/1.1/DTD/svg11.dtd">
<svg width="100%" height="100%" viewBox="0 0 872 1482" version="1.1" xmlns="http://www.w3.org/2000/svg" xmlns:xlink="http://www.w3.org/1999/xlink" xml:space="preserve" xmlns:serif="http://www.serif.com/" style="fill-rule:evenodd;clip-rule:evenodd;stroke-linejoin:round;stroke-miterlimit:2;">
    <g transform="matrix(1,0,0,1,-1214.14,0)">
        <g id="dog_house" transform="matrix(1.03281,0,0,0.989131,-1.2574,289.205)">
            <rect x="1176.78" y="-292.383" width="843.332" height="1497.61" style="fill:none;"/>
            <g id="Dog-House" serif:id="Dog House" transform="matrix(0.968229,0,0,1.01099,-613.97,-858.043)">
                <g id="Head">
                    <g id="Face-Outline" serif:id="Face Outline">
                        <g id="Face">
                            <path d="M2430.2,1097.47C2422.53,1102.07 2401.84,1097.8 2393.27,1098.35C2376.43,1099.43 2359.45,1104.53 2342.78,1105.36C2292.02,1107.9 2240.7,1102.31 2189.86,1107.4C2175.81,1108.81 2124.67,1115.11 2113.51,1100.05C2108.8,1093.69 2123.29,1013.29 2118.95,1012.97C2075.08,1009.76 2047.97,994.788 2034.03,980.794C1992.31,938.919 2012.65,847.48 2055.04,804.286C2144.63,712.999 2415.71,674.598 2505.11,760.474C2548.46,802.117 2571.25,839.752 2545.02,892.863C2530.79,921.677 2470.17,921.242 2471.43,923.511C2471.51,923.65 2471.76,923.775 2471.89,923.852C2491.95,935.89 2620.27,966.163 2628.96,981.814C2631.34,986.097 2617.06,988.71 2615.36,989.094C2592.23,994.297 2501.66,989.409 2478.12,999.843C2459.13,1008.26 2432.74,1010.99 2430.09,1042.29C2427.89,1068.21 2430.2,1099.06 2430.2,1097.47Z" style="fill:white;"/>
                            <path d="M2113.71,1018.55C2097.4,1017.01 2083.45,1013.85 2071.66,1009.78C2052.22,1003.08 2038.55,993.838 2029.78,985.029C2007.02,962.189 2001.25,925.53 2007.58,888.996C2013.41,855.291 2029.43,821.818 2050.76,800.084C2095.47,754.533 2184.5,721.643 2274.44,710.578C2368.23,699.04 2462.75,711.465 2509.26,756.147C2536.04,781.865 2555.01,806.284 2560.51,833.305C2564.36,852.243 2561.75,872.532 2550.4,895.52C2543.92,908.645 2529.1,916.735 2513.59,921.42C2506.51,923.558 2499.33,925.018 2492.99,926.064C2520.65,935.566 2569.95,948.952 2601.59,960.685C2612.73,964.816 2621.78,968.79 2627.25,972.293C2630.82,974.579 2633.1,976.911 2634.21,978.901C2636.32,982.707 2635.54,986.367 2631.83,989.39C2628.07,992.448 2618.21,994.602 2616.67,994.947C2599.03,998.917 2542.41,997.135 2505.69,1000.57C2494.84,1001.58 2485.86,1002.98 2480.55,1005.33C2469.11,1010.4 2454.74,1013.05 2445.17,1022.05C2440.27,1026.66 2436.88,1033.14 2436.06,1042.8C2434.5,1061.19 2435.26,1082.11 2435.8,1091.73C2435.92,1093.92 2436.09,1096.17 2436.11,1096.48C2436.17,1096.8 2436.2,1097.13 2436.2,1097.47C2436.2,1098.13 2436.11,1098.54 2436.08,1098.71C2435.72,1100.47 2434.86,1101.35 2434.41,1101.79C2433.42,1102.78 2432.39,1103.36 2431.34,1103.58C2428.22,1104.87 2424.07,1105.53 2419.45,1105.62C2410.47,1105.78 2399.35,1103.97 2393.66,1104.34C2380.36,1105.19 2366.97,1108.6 2353.72,1110.35C2350.16,1110.82 2346.61,1111.17 2343.08,1111.35C2307.45,1113.13 2271.55,1110.93 2235.74,1111.2C2220.62,1111.31 2205.51,1111.86 2190.45,1113.37C2180.8,1114.34 2154.07,1117.5 2134.04,1114.87C2122.5,1113.36 2113.11,1109.59 2108.69,1103.62C2107.6,1102.15 2106.48,1098.13 2106.56,1092.2C2106.78,1075.58 2112.54,1038.04 2113.62,1021.12C2113.67,1020.28 2113.7,1019.38 2113.71,1018.55ZM2619.49,981.589C2617.07,982.346 2614.55,983.126 2614.04,983.24C2596.64,987.155 2540.78,985.235 2504.57,988.621C2492.09,989.789 2481.8,991.652 2475.69,994.357C2463.08,999.945 2447.49,1003.39 2436.95,1013.31C2430.19,1019.67 2425.24,1028.47 2424.11,1041.79C2422.49,1060.81 2423.26,1082.44 2423.82,1092.4L2423.87,1093.32C2422.48,1093.53 2420.89,1093.59 2419.22,1093.62C2410.05,1093.79 2398.7,1091.99 2392.89,1092.37C2379.32,1093.24 2365.66,1096.66 2352.15,1098.45C2348.91,1098.88 2345.69,1099.21 2342.48,1099.37C2307.03,1101.14 2271.3,1098.93 2235.65,1099.2C2220.16,1099.31 2204.69,1099.89 2189.26,1101.43C2181.23,1102.23 2160.81,1104.7 2143.02,1103.66C2132.59,1103.05 2122.98,1101.83 2118.8,1097.06C2118.75,1095.79 2118.56,1089.89 2118.92,1084.82C2120.26,1066.26 2124.67,1036.43 2125.59,1021.88C2125.91,1016.92 2125.68,1013.35 2125.2,1011.83C2124.03,1008.11 2121.4,1007.14 2119.39,1006.99C2102.2,1005.73 2087.67,1002.62 2075.57,998.44C2058.3,992.479 2046.08,984.389 2038.28,976.559C2018.06,956.266 2013.78,923.503 2019.4,891.042C2024.81,859.773 2039.54,828.652 2059.32,808.489C2102.57,764.43 2188.91,733.191 2275.91,722.488C2365.69,711.443 2456.42,722.028 2500.95,764.801C2521.15,784.199 2536.83,802.611 2544.71,822.318C2552.88,842.762 2552.31,864.542 2539.64,890.207C2536.61,896.353 2530.97,900.809 2524.42,904.248C2508.1,912.816 2486.1,915.019 2476.16,916.308C2472.88,916.734 2470.6,917.179 2469.65,917.541C2467.03,918.542 2466.14,920.342 2465.76,921.403C2465.18,923.045 2465.24,924.725 2466.19,926.428C2466.19,926.428 2468.8,928.997 2468.8,928.997C2483.48,937.804 2555.59,956.425 2597.42,971.936C2605.94,975.097 2613.16,978.111 2618.23,980.895L2619.49,981.589Z"/>
                        </g>
                        <path d="M2227.9,926.326C2224.44,926.326 2216.67,939.143 2214.52,941.803C2202.44,956.751 2190.45,972.673 2177.21,986.568C2167.87,996.377 2153.69,1004.94 2141.08,1009.67C2129.97,1013.82 2114.48,1012.18 2111.44,1014.92" style="fill-opacity:0;"/>
                        <path d="M2114.87,1019.83C2115.31,1019.74 2116.93,1019.41 2118.15,1019.28C2122.26,1018.84 2127.75,1018.62 2133.2,1017.77C2136.64,1017.23 2140.06,1016.45 2143.18,1015.28C2149.85,1012.79 2156.93,1009.28 2163.57,1005.1C2170.29,1000.87 2176.57,995.947 2181.56,990.706C2186.96,985.035 2192.16,979.034 2197.24,972.897C2204.71,963.87 2211.93,954.548 2219.18,945.575C2220.75,943.636 2228.52,933.413 2229.51,932.098C2232.04,931.396 2233.9,929.076 2233.9,926.326C2233.9,923.015 2231.21,920.326 2227.9,920.326C2225.97,920.326 2223,921.48 2220.2,924.335C2216.35,928.255 2211.49,935.998 2209.85,938.032C2202.63,946.968 2195.44,956.254 2187.99,965.244C2183.09,971.166 2178.08,976.959 2172.87,982.43C2168.52,986.996 2163.03,991.26 2157.18,994.944C2151.24,998.679 2144.93,1001.82 2138.98,1004.05C2130.18,1007.34 2118.52,1006.75 2112.97,1007.93C2110.39,1008.47 2108.54,1009.45 2107.42,1010.46C2104.96,1012.67 2104.76,1016.47 2106.98,1018.93C2109.03,1021.2 2112.42,1021.55 2114.87,1019.83Z"/>
                        <path d="M2367.62,1012.01C2373.52,1001.39 2389.33,997.328 2399.98,995.276C2427.66,989.941 2458.05,988.428 2485.92,991.568C2491.67,992.216 2515.29,990.097 2519.11,993.541" style="fill:rgb(152,90,91);fill-opacity:0;"/>
                        <path d="M2515.6,998.41C2518.05,1000.18 2521.5,999.853 2523.57,997.558C2525.78,995.098 2525.59,991.301 2523.12,989.084C2521.56,987.673 2518.03,986.309 2513.28,985.858C2504.75,985.047 2490.82,986.082 2486.6,985.606C2472.34,983.999 2457.43,983.582 2442.55,984.253C2427.73,984.921 2412.94,986.667 2398.84,989.385C2391.98,990.707 2383.15,992.856 2375.78,996.77C2370.11,999.78 2365.3,1003.84 2362.38,1009.1C2360.77,1012 2361.82,1015.65 2364.71,1017.26C2367.61,1018.87 2371.26,1017.82 2372.87,1014.92C2374.7,1011.63 2377.86,1009.25 2381.41,1007.37C2387.7,1004.03 2395.26,1002.3 2401.11,1001.17C2414.65,998.558 2428.86,996.882 2443.09,996.241C2457.33,995.599 2471.6,995.993 2485.25,997.531C2488.6,997.908 2497.84,997.412 2505.94,997.519C2509.74,997.569 2514.89,998.305 2515.6,998.41Z"/>
                        <path d="M2359.42,891.868C2362.92,891.868 2366.27,895.323 2369.59,896.12C2394.33,902.06 2418.67,908.472 2442.65,916.564C2453.68,920.286 2465.77,921.877 2476.74,925.17C2478.22,925.614 2486.56,929.747 2486.38,929.966" style="fill-opacity:0;"/>
                        <path d="M2482.62,934.634C2485.16,936.688 2488.89,936.326 2490.99,933.808C2491.35,933.372 2493.87,927.193 2488.43,924.14C2485.98,922.765 2479.79,919.821 2478.47,919.423L2444.57,910.879C2432.45,906.791 2420.25,903.127 2407.95,899.736C2395.72,896.367 2383.41,893.267 2370.99,890.286C2368.53,889.695 2366.1,887.462 2363.54,886.589C2362.18,886.123 2360.81,885.868 2359.42,885.868C2356.11,885.868 2353.42,888.557 2353.42,891.868C2353.42,895.18 2356.11,897.868 2359.42,897.868L2368.19,901.954C2380.47,904.904 2392.66,907.971 2404.76,911.304C2416.84,914.635 2428.83,918.233 2440.73,922.249C2444.2,923.42 2447.77,924.393 2451.38,925.271C2459.31,927.198 2467.43,928.64 2475.01,930.916C2476.02,931.219 2480.69,933.558 2482.56,934.605L2482.62,934.634Z"/>
                    </g>
                    <g id="Spots">
                        <path d="M2326.96,750.771C2317.3,750.771 2325.9,786.486 2343.55,792.576C2368.47,801.178 2394.76,793.212 2399.79,773.868C2411.09,730.383 2332.11,731.362 2326.96,750.771Z"/>
                        <path d="M2322.66,745.74C2320.84,746.667 2319.38,748.256 2318.35,750.485C2316.46,754.557 2316.53,762.54 2319.23,770.986C2322.9,782.486 2331.11,794.629 2341.59,798.248C2356.92,803.538 2372.71,803.054 2384.7,798.033C2395.21,793.632 2402.89,785.804 2405.6,775.376C2410.84,755.179 2400.33,742.736 2384.69,736.517C2370.64,730.926 2352.16,730.821 2339.23,734.654C2331.31,737 2325.48,741.038 2322.66,745.74ZM2329.14,756.355C2330.88,755.678 2332.26,754.2 2332.76,752.31C2333.58,749.225 2337.72,747.618 2342.64,746.159C2353.34,742.987 2368.63,743.042 2380.26,747.667C2390.27,751.649 2397.34,759.429 2393.98,772.359C2391.76,780.891 2384.16,786.388 2374.67,788.736C2365.95,790.892 2355.6,790.389 2345.51,786.905C2340.76,785.268 2337.06,780.707 2334.26,775.683C2331.46,770.646 2329.64,765.008 2329.1,760.424C2328.93,759.045 2329.04,757.337 2329.14,756.355Z"/>
                        <path d="M2022.63,878.398C2019.07,891.202 2016.32,902.392 2016.32,915.985C2016.32,924.964 2018.35,934 2021.8,942.28C2025.88,952.083 2028.38,961.822 2038.65,967.009C2054.86,975.184 2079.2,921.557 2073.31,894.59C2068.18,871.043 2038.38,859.269 2022.63,878.398Z"/>
                        <path d="M2018,874.585C2017.47,875.232 2017.07,875.984 2016.85,876.792C2014.63,884.779 2012.72,892.16 2011.56,899.845C2010.77,905.003 2010.32,910.295 2010.32,915.985C2010.32,920.894 2010.87,925.818 2011.9,930.647C2012.91,935.425 2014.39,940.109 2016.26,944.587C2018.89,950.909 2020.98,957.172 2024.58,962.388C2027.33,966.374 2030.89,969.81 2035.95,972.366C2040.95,974.887 2046.5,974.246 2052.02,970.45C2057.8,966.476 2063.83,958.47 2068.73,948.538C2077.23,931.32 2082.47,908.406 2079.18,893.311C2076.2,879.652 2066.2,869.344 2054.58,865.061C2042.09,860.454 2027.82,862.65 2018,874.585ZM2028.05,881.302C2034.23,874.567 2042.86,873.527 2050.43,876.319C2058.47,879.283 2065.39,886.416 2067.45,895.868C2069.81,906.702 2066.65,922.178 2061.35,935.59C2057.37,945.666 2052.17,954.628 2046.76,959.354C2044.81,961.059 2043.12,962.543 2041.36,961.652C2038.28,960.099 2036.13,957.996 2034.46,955.573C2031.32,951.02 2029.64,945.49 2027.34,939.972C2025.75,936.174 2024.5,932.203 2023.63,928.151C2022.78,924.144 2022.32,920.058 2022.32,915.985C2022.32,909.607 2022.97,903.791 2024.03,898.069C2025.05,892.527 2026.46,887.072 2028.05,881.303L2028.05,881.302Z"/>
                        <path d="M2275.97,955.308C2230.21,955.308 2218.35,1026.67 2262.21,1041.47C2286.24,1049.58 2304.54,1027.65 2306.02,1005.04C2307.09,988.701 2300.68,967.533 2286.55,957.995C2284.44,956.568 2278.13,956.696 2275.97,955.308Z"/>
                        <path d="M2278.92,950.087C2278.03,949.576 2277.01,949.308 2275.97,949.308C2249.81,949.308 2233.13,969.515 2229.54,992.043C2225.96,1014.44 2235.36,1038.74 2260.3,1047.15C2274.83,1052.06 2287.62,1047.81 2296.94,1038.9C2305.6,1030.62 2311.18,1018.14 2312.01,1005.43C2312.59,996.494 2311.15,986.238 2307.62,976.906C2303.94,967.165 2297.98,958.467 2289.91,953.022C2288.94,952.369 2287.57,951.781 2285.92,951.382C2283.85,950.884 2279.37,950.158 2278.92,950.087ZM2283.48,963.166C2289.43,967.293 2293.66,973.904 2296.4,981.149C2299.3,988.837 2300.51,997.285 2300.03,1004.65C2299.4,1014.34 2295.26,1023.91 2288.65,1030.23C2282.41,1036.19 2273.86,1039.07 2264.13,1035.78C2245.32,1029.44 2238.69,1010.84 2241.39,993.935C2244.04,977.322 2255.75,961.972 2274.73,961.329L2274.73,961.328C2275.31,961.547 2275.96,961.742 2276.65,961.905C2278.63,962.369 2282.81,963.056 2283.48,963.166Z"/>
                        <path d="M2416.34,918.639C2396.6,945.287 2423.53,970.094 2447.45,944.661C2463.45,927.644 2430.93,900.263 2416.34,918.639Z"/>
                        <path d="M2411.64,914.908C2411.6,914.96 2411.56,915.013 2411.52,915.066C2399.12,931.798 2402.55,947.958 2411.74,955.843C2420.86,963.664 2436.93,964.612 2451.82,948.771C2462.48,937.431 2457.73,922.498 2447.08,913.66C2436.6,904.966 2421.21,902.861 2411.64,914.908ZM2421.11,922.291C2426.07,916.143 2434.01,918.406 2439.42,922.895C2444.84,927.393 2448.5,934.779 2443.08,940.551C2434.18,950.017 2425,951.41 2419.56,946.735C2414.03,941.999 2413.69,932.359 2421.09,922.31L2421.11,922.291Z"/>
                    </g>
                    <g id="Eyes">
                        <path d="M2178.95,835.47C2149.18,846.632 2147.21,859.693 2145.54,864.962C2140.62,880.459 2157.57,893.569 2171.43,893.569C2201.56,893.569 2234.24,895.987 2260.1,876.595C2271.65,867.931 2290.57,836.229 2266.71,829.79C2241.76,823.055 2202.97,826.464 2178.95,835.47Z" style="fill:white;"/>
                        <path d="M2176.85,829.852C2163.94,834.691 2155.9,839.939 2150.72,844.765C2142.37,852.553 2140.99,859.459 2139.82,863.146C2137.22,871.331 2139.16,879.028 2143.71,885.291C2149.96,893.896 2161.37,899.569 2171.43,899.569C2189.93,899.569 2209.37,900.405 2227.67,896.811C2240.42,894.306 2252.63,889.692 2263.7,881.395C2271.37,875.646 2281.87,860.921 2283.84,848.261C2285.53,837.33 2281.95,827.687 2268.28,823.997C2255.24,820.477 2238.58,819.555 2222.05,820.743C2205.62,821.924 2189.32,825.176 2176.85,829.852L2176.85,829.852ZM2181.06,841.088C2192.6,836.76 2207.7,833.805 2222.91,832.712C2238.01,831.627 2253.23,832.367 2265.15,835.582C2271.22,837.222 2272.73,841.563 2271.98,846.421C2270.47,856.125 2262.38,867.387 2256.5,871.795C2246.94,878.959 2236.37,882.873 2225.36,885.036C2207.81,888.482 2189.17,887.569 2171.43,887.569C2165.95,887.569 2159.89,884.918 2155.65,880.802C2151.89,877.151 2149.53,872.211 2151.26,866.778C2152.1,864.141 2152.93,859.112 2158.91,853.54C2163.28,849.463 2170.15,845.176 2181.06,841.088L2181.06,841.088Z"/>
                        <path d="M2399.94,821.047C2374.57,821.555 2331.46,834.424 2337.69,856.56C2339.52,863.073 2348.05,869.486 2352.81,871.629C2369.97,879.354 2393.88,879.153 2412.3,877.31C2429.87,875.552 2463.48,867.404 2460.98,840.164C2459.7,826.236 2414.94,812.172 2399.94,821.047Z" style="fill:white;"/>
                        <path d="M2398.4,815.089C2381.21,815.715 2357.24,821.54 2343.55,831.499C2333.81,838.594 2328.98,847.743 2331.92,858.185C2332.87,861.574 2335.08,865.009 2337.92,868.025C2341.85,872.185 2346.93,875.562 2350.35,877.1C2357.82,880.465 2366.48,882.47 2375.46,883.49C2388.17,884.933 2401.54,884.416 2412.9,883.28C2424.52,882.117 2442.54,878.199 2454.28,868.758C2462.7,861.978 2468.14,852.553 2466.95,839.616C2466.62,836.015 2464.66,832.252 2461.05,828.812C2456.8,824.766 2450.06,820.942 2442.35,818.033C2427.15,812.306 2408.36,810.472 2398.4,815.089ZM2400.06,827.046C2401.09,827.026 2402.11,826.738 2402.99,826.211C2409.14,822.577 2421.07,824.072 2432.01,827.239C2439.7,829.462 2446.96,832.702 2451.57,836.446C2453.35,837.893 2454.86,839.164 2455.01,840.713C2455.77,849.032 2452.17,855.049 2446.75,859.409C2436.85,867.38 2421.51,870.358 2411.7,871.339C2401.12,872.398 2388.66,872.912 2376.81,871.566C2369.12,870.692 2361.68,869.042 2355.27,866.157C2353.25,865.247 2350.42,863.368 2347.93,861.054C2345.95,859.213 2344.09,857.136 2343.47,854.935C2341.33,847.337 2348.07,841.977 2356.64,837.529C2369.34,830.931 2387.14,827.305 2400.06,827.046Z"/>
                        <path d="M2405.31,838.123C2399.57,834.682 2384.21,852.118 2396.61,860.982C2415.18,874.252 2423.82,853.067 2405.31,838.123Z"/>
                        <path d="M2409.08,833.455C2408.86,833.28 2408.63,833.121 2408.39,832.979C2406.22,831.673 2403.52,831.284 2400.56,832.113C2396.14,833.354 2390.55,838.13 2387.78,844.194C2384.49,851.392 2384.76,859.885 2393.13,865.864C2404.74,874.16 2413.8,871.576 2418.21,866.182C2423.6,859.591 2423.22,844.869 2409.08,833.455ZM2403.12,844.165C2408.01,848.633 2410.15,853.438 2409.51,857.103C2408.91,860.558 2405.24,859.774 2400.1,856.1C2398.13,854.691 2397.66,852.822 2398.06,851.034C2398.32,849.848 2398.86,848.703 2399.53,847.665C2400.39,846.311 2402.15,844.893 2403.12,844.165Z"/>
                        <path d="M2211.34,843.6C2208.93,841.429 2196.73,852.335 2195.39,853.941C2187.27,863.681 2199.13,881.092 2210.4,881.834C2247.39,884.27 2231.58,838.129 2211.34,843.6Z"/>
                        <path d="M2211.12,837.499C2209.32,837.362 2207.18,837.73 2204.88,838.943C2199.68,841.673 2191.91,848.75 2190.78,850.099C2185.06,856.961 2185.78,866.55 2190.57,874.501C2194.98,881.82 2202.7,887.34 2210,887.821C2221.59,888.584 2228.96,885.128 2233.31,880.294C2237.42,875.734 2239.06,869.692 2238.61,863.464C2237.55,849.092 2224.86,834.877 2211.12,837.499ZM2210.72,849.567C2211.45,849.643 2212.19,849.587 2212.91,849.392C2215.53,848.684 2217.97,849.641 2220.02,851.282C2223.73,854.261 2226.27,859.395 2226.64,864.345C2227.13,871.038 2222.54,876.621 2210.79,875.847C2206.92,875.592 2203.18,872.186 2200.85,868.311C2198.78,864.869 2197.53,860.752 2200,857.782C2200.79,856.84 2208.73,851.022 2210.72,849.567Z"/>
                    </g>
                    <g id="Nose">
                        <path d="M2598.67,946.736C2576.92,950.648 2568.45,976.143 2581.05,994.29C2588.99,1005.72 2612.85,1007.07 2624.56,1002.28C2653.02,990.638 2657.26,949.823 2621.87,945.273C2615.66,944.474 2604.35,943.981 2598.67,946.736Z"/>
                        <path d="M2596.86,940.973C2583.94,943.571 2575,952.513 2571.2,963.537C2567.49,974.294 2568.74,987.07 2576.13,997.712C2580.13,1003.48 2587.28,1007.43 2595.5,1009.37C2606.38,1011.94 2619,1011.04 2626.83,1007.84C2643.34,1001.08 2652.74,985.85 2653.15,971.648C2653.58,956.552 2644.45,942.127 2622.64,939.322C2618.68,938.813 2612.81,938.424 2607.4,938.793C2603.43,939.063 2599.69,939.78 2596.86,940.973ZM2599.73,952.641C2600.27,952.544 2600.79,952.374 2601.28,952.135C2603.53,951.048 2606.91,950.758 2610.31,950.667C2614.26,950.561 2618.26,950.858 2621.11,951.224C2635.03,953.014 2641.43,961.669 2641.15,971.305C2640.87,981.354 2633.97,991.952 2622.28,996.73C2617.24,998.796 2609.56,999.432 2602.3,998.435C2595.62,997.521 2589.13,995.393 2585.98,990.868C2580.92,983.572 2580,974.821 2582.54,967.446C2585.06,960.128 2591.05,954.202 2599.73,952.641Z"/>
                    </g>
                </g>
                <g id="Facade">
                    <path d="M2018.36,1096.06C2018.36,1115.97 2018.24,1199.97 2019.22,1217.65C2020.52,1241.01 2021.46,1332.9 2023.05,1358.7C2026.93,1421.68 2018.75,1497.66 2022.64,1560.66C2024.94,1597.82 2024.96,1739.02 2024.96,1766.71C2024.96,1822.84 2024.71,1972.79 2030.1,1980.06C2030.21,1980.2 2030.4,1980.3 2030.56,1980.37C2032.27,1981.14 2151.87,1985.58 2224.47,1981.74C2249.47,1980.41 2443.99,1977.85 2466.16,1976.43C2505.11,1973.93 2645.35,1972.58 2644.81,1970.49C2641.34,1957.1 2637.97,1840.21 2635.28,1810.66C2629.7,1749.29 2628.44,1703.58 2625.56,1651.74C2624.68,1636.02 2615.95,1515.98 2612.81,1465.38C2610.33,1425.45 2608.99,1296.5 2603.43,1256.52C2601.19,1240.37 2601.17,1164.8 2599.45,1139.96C2598.75,1129.8 2600.16,1066.71 2595.27,1062.31C2595.25,1062.3 2595.24,1062.27 2595.22,1062.27C2583.14,1058.65 2486.12,1076.1 2457.85,1076.1C2410.77,1076.1 2352.82,1085.81 2305.66,1088.16C2293.22,1088.79 2200.03,1091.36 2187.58,1091.43C2105.83,1091.89 2094.93,1092.64 2018.36,1096.06Z" style="fill:white;"/>
                    <path d="M2599.8,1058.39C2599.56,1058.18 2597.97,1056.83 2596.94,1056.52C2593.2,1055.4 2581.92,1055.82 2567.02,1057.46C2532.89,1061.2 2477.93,1070.1 2457.85,1070.1C2443.25,1070.1 2427.62,1071.02 2411.6,1072.37C2375.81,1075.38 2338,1080.54 2305.36,1082.17L2187.55,1085.43C2147.76,1085.65 2124.73,1085.95 2102.77,1086.58C2079.54,1087.25 2057.51,1088.31 2018.1,1090.06C2014.89,1090.2 2012.36,1092.85 2012.36,1096.06C2012.36,1109.13 2012.31,1149.8 2012.55,1181.22C2012.67,1197.82 2012.89,1211.86 2013.23,1217.98L2017.06,1359.07C2020.14,1408.95 2015.61,1467.01 2015.57,1520.27C2015.55,1534.27 2015.85,1547.93 2016.66,1561.04C2017.4,1573.06 2017.9,1596.05 2018.24,1622.54C2018.95,1677.72 2018.96,1748.04 2018.96,1766.71C2018.96,1805.08 2018.85,1887.23 2020.49,1937.8C2021.08,1955.96 2021.92,1970.12 2023.04,1976.94C2023.62,1980.48 2024.6,1982.7 2025.28,1983.63C2025.28,1983.63 2028.09,1985.85 2028.09,1985.85C2028.44,1986 2032.67,1986.66 2039.96,1986.99C2056,1987.73 2089.99,1988.8 2127.44,1989.16C2160.5,1989.48 2196.26,1989.24 2224.79,1987.73L2466.55,1982.42C2496.83,1980.47 2588.4,1979.23 2627.26,1977.79C2635.24,1977.49 2641.07,1977.17 2643.8,1976.86C2645.54,1976.65 2646.64,1976.3 2647.11,1976.09C2651.31,1974.24 2651.1,1970.86 2650.61,1968.98C2649.67,1965.33 2648.81,1953.7 2647.89,1938.25C2645.47,1897.55 2643.19,1831.34 2641.26,1810.12C2639.17,1787.19 2637.69,1766.47 2636.51,1746.79C2634.52,1713.84 2633.35,1683.82 2631.55,1651.4L2618.79,1465C2617.14,1438.33 2615.99,1371.88 2613.76,1318.83C2612.64,1292.28 2611.23,1269.06 2609.38,1255.69C2608.8,1251.53 2608.39,1243.32 2608.04,1233.04C2607.06,1203.64 2606.71,1157.85 2605.44,1139.54C2604.93,1132.25 2605.52,1097.65 2604.08,1077.1C2603.67,1071.34 2603.09,1066.61 2602.33,1063.65C2601.69,1061.13 2600.7,1059.41 2599.8,1058.39ZM2590.91,1067.67C2591.02,1068.15 2591.12,1068.66 2591.2,1069.13C2592.08,1074.71 2592.53,1083.63 2592.8,1093.28C2593.33,1112.57 2593.07,1134.69 2593.47,1140.37C2594.73,1158.6 2595.07,1204.18 2596.05,1233.44C2596.41,1244.29 2596.88,1252.95 2597.49,1257.34C2599.31,1270.47 2600.67,1293.27 2601.76,1319.34C2604.01,1372.47 2605.16,1439.03 2606.82,1465.75L2619.57,1652.07C2621.37,1684.5 2622.54,1714.54 2624.53,1747.51C2625.72,1767.3 2627.21,1788.15 2629.31,1811.2C2631.23,1832.37 2633.5,1898.38 2635.91,1938.97C2636.56,1949.98 2637.26,1959.18 2637.96,1965.28C2635.1,1965.46 2631.32,1965.63 2626.82,1965.79C2587.88,1967.24 2496.12,1968.49 2465.78,1970.44L2224.16,1975.74C2201.35,1976.95 2173.88,1977.34 2146.91,1977.28C2103.85,1977.18 2062.05,1975.95 2042.43,1975.09C2039.3,1974.95 2036.75,1974.83 2034.86,1974.72C2034.76,1974.19 2034.67,1973.63 2034.6,1973.08C2033.29,1962.94 2032.47,1941.7 2031.93,1916.12C2030.87,1866.21 2030.96,1799.97 2030.96,1766.71C2030.96,1748.02 2030.95,1677.62 2030.24,1622.38C2029.9,1595.64 2029.38,1572.44 2028.63,1560.3C2025.55,1510.4 2030.07,1452.34 2030.12,1399.1C2030.14,1385.1 2029.85,1371.44 2029.04,1358.33L2025.21,1217.32C2024.87,1211.29 2024.67,1197.47 2024.55,1181.13C2024.34,1153.46 2024.35,1118.61 2024.36,1101.79C2060.14,1100.19 2081.09,1099.21 2103.12,1098.58C2125.01,1097.94 2147.96,1097.65 2187.62,1097.43L2305.96,1094.16C2338.72,1092.52 2376.68,1087.35 2412.6,1084.33C2428.28,1083.01 2443.57,1082.1 2457.85,1082.1C2478.16,1082.1 2533.79,1073.18 2568.33,1069.39C2578.4,1068.28 2586.48,1067.46 2590.91,1067.67ZM2599.73,1058.31L2599.8,1058.39L2599.83,1058.41L2599.73,1058.31C2599.58,1058.13 2599.43,1057.98 2599.28,1057.85C2599.41,1057.97 2599.61,1058.18 2599.73,1058.31Z"/>
                </g>
                <g id="Door">
                    <path d="M2104.79,1978.06C2104.79,1972.65 2096.81,1916.62 2095.72,1900.87C2088.66,1799.43 2082.94,1742.64 2116.78,1642.94C2132.55,1596.49 2145.45,1571.76 2158.26,1556.4C2197.7,1509.06 2297.31,1498.19 2323.14,1564.07C2346.54,1623.74 2352.42,1710.73 2356,1775.24C2357.69,1805.7 2359.24,1835.15 2360.53,1865.94C2362.59,1915.1 2369.53,1936.72 2359.68,1972.21C2359.66,1972.28 2359.63,1972.3 2359.58,1972.35C2353.1,1978.18 2106.63,1974.76 2104.79,1978.06Z" style="fill:white;"/>
                    <path d="M2106.97,1983.65L2107.41,1983.59C2110.36,1983.27 2116.6,1983.04 2125.23,1982.87C2164.66,1982.07 2252.59,1982.46 2308.88,1981.41C2330.36,1981.01 2347.29,1980.38 2355.35,1979.42C2360.07,1978.86 2362.8,1977.52 2363.59,1976.81C2363.59,1976.81 2365.46,1973.82 2365.46,1973.82C2368.8,1961.8 2370.28,1951.3 2370.7,1940.86C2371.54,1919.88 2367.93,1899.11 2366.53,1865.69L2361.99,1774.9C2359.86,1736.47 2356.9,1690.08 2349.96,1646.19C2345.14,1615.77 2338.39,1586.53 2328.73,1561.88C2314.68,1526.06 2280.55,1511.02 2244.55,1511.8C2210.11,1512.55 2174.17,1527.93 2153.64,1552.56C2146.82,1560.75 2139.94,1571.5 2132.67,1586.56C2125.95,1600.47 2118.86,1618.13 2111.1,1641.01C2097.85,1680.06 2090.6,1712.6 2087.09,1743.78C2081.57,1792.93 2085.38,1838.65 2089.73,1901.28L2098.79,1978.06C2098.79,1980.79 2100.63,1983.18 2103.28,1983.87C2104.54,1984.19 2105.82,1984.1 2106.97,1983.65ZM2354.74,1967.41C2351.05,1967.92 2344.77,1968.31 2336.58,1968.64C2289.02,1970.59 2179.78,1969.97 2130.11,1970.78C2121.41,1970.92 2114.5,1971.11 2110,1971.36L2101.7,1900.45C2097.41,1838.68 2093.57,1793.59 2099.02,1745.12C2102.44,1714.71 2109.53,1682.96 2122.46,1644.87C2130.03,1622.57 2136.93,1605.34 2143.47,1591.78C2150.21,1577.82 2156.54,1567.83 2162.86,1560.24C2181.34,1538.07 2213.81,1524.47 2244.81,1523.8C2275.77,1523.12 2305.48,1535.46 2317.56,1566.26C2326.93,1590.17 2333.43,1618.55 2338.1,1648.07C2344.99,1691.55 2347.89,1737.49 2350.01,1775.57L2354.54,1866.2C2355.69,1893.69 2358.38,1912.56 2358.78,1930.07C2359.06,1942.31 2358.19,1953.86 2354.74,1967.41Z"/>
                    <path d="M2091.23,1958.11C2092.18,1958.11 2096.35,2023.23 2096.98,2023.51C2106.77,2027.9 2213.35,2024.76 2225.83,2024.1C2245.77,2023.04 2358.88,2022.69 2380.09,2022.69C2380.91,2022.69 2381.12,1956.86 2377.52,1954.7C2365.9,1947.74 2307.24,1954.75 2269.42,1954.75C2246.53,1954.75 2182.85,1955.7 2160.07,1957.56C2152.51,1958.18 2088.91,1957.48 2091.23,1958.11Z" style="fill:white;"/>
                    <path d="M2085.58,1960.24C2085.69,1961.12 2085.95,1963.2 2086.13,1965.16C2087.35,1977.88 2089.29,2005.95 2090.34,2018.15C2090.58,2020.87 2090.77,2022.85 2090.91,2023.79C2091.47,2027.67 2094.16,2028.82 2094.52,2028.98C2098.22,2030.64 2114.9,2031.67 2135.5,2031.78C2170.75,2031.98 2218.07,2030.52 2226.15,2030.09C2232.99,2029.73 2250.84,2029.45 2272.16,2029.24C2312.89,2028.84 2366.2,2028.69 2380.09,2028.69C2380.57,2028.69 2385.86,2027.71 2386.27,2021.76C2386.42,2019.57 2386.53,2014.96 2386.57,2009.1C2386.68,1993.73 2386.28,1969.72 2384.89,1959.12C2384.45,1955.75 2383.74,1953.38 2383.14,1952.27C2382.38,1950.86 2381.42,1950.05 2380.6,1949.56C2376.62,1947.17 2367.85,1945.81 2356.28,1945.64C2332.64,1945.32 2295.92,1948.75 2269.42,1948.75C2256.01,1948.75 2228.63,1949.07 2203.63,1949.72C2185.77,1950.17 2169.12,1950.8 2159.58,1951.58C2153.72,1952.06 2114.03,1951.73 2097.93,1951.86C2094.76,1951.88 2092.44,1951.93 2091.39,1952C2090.51,1952.05 2089.93,1952.18 2089.67,1952.25C2084.06,1953.75 2084.85,1958.37 2085.58,1960.24ZM2372.66,1959.06C2372.93,1960.86 2373.39,1964.13 2373.6,1967.13C2374.61,1981.28 2374.73,2004.4 2374.48,2015.76L2374.45,2016.7C2355.11,2016.72 2308.53,2016.88 2272.04,2017.24C2250.48,2017.45 2232.43,2017.74 2225.52,2018.1C2217.5,2018.53 2170.54,2019.98 2135.56,2019.79C2120.85,2019.7 2108.38,2019.56 2102.45,2018.73L2102.3,2017.12C2101.24,2004.89 2099.29,1976.77 2098.08,1964.02L2098.06,1963.86C2114.42,1963.72 2154.62,1964.03 2160.56,1963.54C2169.95,1962.77 2186.35,1962.16 2203.94,1961.71C2228.82,1961.07 2256.08,1960.75 2269.42,1960.75C2292.16,1960.75 2322.4,1958.23 2345.48,1957.71C2357.63,1957.44 2367.6,1957.37 2372.66,1959.06Z"/>
                    <g id="Door-Knob" serif:id="Door Knob">
                        <path d="M2293.26,1747.21C2253.73,1747.21 2267.09,1805.28 2300.42,1801C2333.04,1796.81 2322.83,1745.42 2301.37,1750.25"/>
                        <path d="M2298.77,1744.84C2297.86,1742.71 2295.73,1741.21 2293.26,1741.21C2268.38,1741.21 2260.27,1759.63 2263.7,1777.21C2266.95,1793.93 2281.25,1809.51 2301.18,1806.95C2319.77,1804.56 2327.36,1790 2327.32,1775.34C2327.27,1757.45 2314.97,1741.04 2300.06,1744.39C2299.6,1744.5 2299.17,1744.64 2298.77,1744.84ZM2295.86,1752.61C2295.08,1752.99 2294.19,1753.21 2293.26,1753.21C2278.27,1753.21 2273.41,1764.32 2275.47,1774.92C2277.62,1785.91 2286.55,1796.73 2299.65,1795.05C2311.05,1793.58 2315.35,1784.36 2315.32,1775.38C2315.3,1769.15 2313.37,1762.9 2309.91,1758.99C2308,1756.82 2305.57,1755.45 2302.69,1756.1C2299.82,1756.75 2296.97,1755.22 2295.86,1752.61Z"/>
                    </g>
                </g>
                <g id="Arms">
                    <g id="Arm-R">
                        <path d="M2325.55,1120.42C2325.55,1118.11 2323.26,1204.98 2324.16,1218.69C2326.37,1252.55 2326.34,1322.07 2328.8,1325.4C2329.02,1325.69 2413.38,1316.87 2442.27,1314.27C2470.98,1311.69 2552.91,1318.54 2553.16,1317.88C2557.2,1306.96 2554.63,1274.45 2554.1,1261.72C2552.57,1224.43 2552.06,1186.55 2552.06,1149.43C2552.06,1137.36 2553.33,1100.88 2550.89,1098.68C2550.22,1098.08 2511.82,1101.48 2498.77,1102.46C2470.21,1104.6 2440.89,1106.77 2412.6,1111.54C2401,1113.5 2332.07,1116.23 2325.55,1120.42Z" style="fill:white;"/>
                        <path d="M2323.28,1115.9C2321.44,1116.06 2319.93,1117.23 2319.59,1120.21L2319.55,1120.42L2319.56,1120.52C2319.54,1120.71 2319.53,1120.92 2319.52,1121.13C2319.48,1122.6 2319.39,1125.73 2319.28,1130.01C2318.7,1152.86 2317.47,1208.33 2318.17,1219.08C2319.9,1245.54 2320.26,1293.8 2321.51,1315.18C2321.97,1323.03 2323.28,1328.01 2323.98,1328.97C2324.07,1329.09 2326.03,1331.67 2330.41,1331.32C2332.15,1331.18 2335.78,1330.84 2340.74,1330.36C2364.78,1328.01 2420.43,1322.26 2442.8,1320.25C2464.84,1318.27 2518.51,1321.93 2541.71,1323.36C2546.61,1323.67 2550.19,1323.87 2551.9,1323.91C2556.98,1324.04 2558.67,1320.28 2558.78,1319.96C2560.3,1315.88 2561.1,1309.1 2561.32,1301.33C2561.71,1287.4 2560.45,1270.03 2560.1,1261.47C2559.34,1242.9 2558.83,1224.18 2558.51,1205.49C2558.19,1186.72 2558.06,1167.98 2558.06,1149.43C2558.06,1139.65 2558.86,1114.05 2557.92,1103.1C2557.49,1098.09 2555.81,1095.03 2554.9,1094.22C2554.54,1093.9 2553.22,1092.7 2550.56,1092.62C2549.67,1092.59 2547.83,1092.65 2545.32,1092.8C2534.23,1093.46 2508.53,1095.71 2498.32,1096.48C2481.13,1097.77 2463.66,1099.06 2446.31,1100.93C2434.65,1102.18 2423.04,1103.69 2411.6,1105.62C2403.25,1107.03 2365.03,1108.83 2342.09,1111.3C2331.9,1112.4 2324.39,1114.03 2322.31,1115.37L2323.28,1115.9ZM2546.01,1104.78C2546.85,1115.83 2546.06,1140.06 2546.06,1149.43C2546.06,1168.05 2546.19,1186.86 2546.51,1205.69C2546.83,1224.48 2547.34,1243.3 2548.11,1261.97C2548.41,1269.25 2549.39,1283.06 2549.39,1295.53C2549.39,1301.66 2549.23,1307.45 2548.52,1311.75C2546.87,1311.66 2544.82,1311.53 2542.45,1311.39C2518.82,1309.93 2464.17,1306.28 2441.73,1308.3C2419.33,1310.31 2363.63,1316.06 2339.58,1318.41L2333.53,1318.99L2330.14,1218.3C2329.45,1207.68 2330.7,1152.88 2331.28,1130.32L2331.43,1124.62C2335.47,1123.77 2343.09,1123.19 2351.99,1122.39C2375.14,1120.32 2406.14,1118.72 2413.6,1117.46C2424.8,1115.57 2436.17,1114.09 2447.59,1112.86C2464.82,1111.01 2482.16,1109.72 2499.22,1108.44C2509.39,1107.68 2534.96,1105.44 2546.01,1104.78Z"/>
                        <path d="M2514.45,1188.04C2512.86,1173.3 2513.79,1143.3 2510.88,1141.44C2503.1,1136.49 2449.49,1140.11 2422.7,1139.82C2416.42,1139.76 2364.24,1138.83 2359.64,1144.36C2354.93,1150.02 2356,1211.3 2357.22,1222.28C2357.8,1227.48 2360.23,1276.49 2361.55,1277.68C2363.11,1279.08 2440.66,1273.26 2448.6,1274.46C2466.26,1277.15 2482.86,1285 2503.51,1301.01C2528.98,1320.76 2542.51,1334.14 2564.59,1357.98C2574.3,1368.46 2579.97,1393.75 2592.37,1400.54C2609.95,1410.18 2611.37,1363.91 2614.68,1363.01C2618.56,1361.96 2636.9,1415.32 2657.06,1396.8C2671.24,1383.78 2654.95,1350.18 2654.95,1350.18C2658.18,1353.44 2697.3,1356.54 2701.91,1338.43C2708.43,1312.85 2658.91,1311.04 2655.6,1316.34C2655.6,1316.34 2682.56,1281.25 2676.46,1268.9C2668.51,1252.8 2652.27,1264.79 2644.31,1273.03C2641.63,1275.8 2631.28,1287.16 2632.72,1285.86C2633.47,1285.19 2600.59,1261.13 2589.68,1250.6C2580.92,1242.16 2524.28,1195.96 2514.45,1188.04Z" style="fill:white;"/>
                        <path d="M2617.01,1377.14C2622.02,1385.89 2628.95,1397.19 2636.67,1402.65C2644.29,1408.04 2652.59,1409.05 2661.12,1401.22C2667.21,1395.63 2669.26,1387.17 2668.79,1378.26C2668.42,1371.29 2666.53,1364.09 2664.63,1358.41C2671.39,1358.93 2680.03,1358.66 2687.63,1356.71C2697.54,1354.16 2705.5,1348.66 2707.73,1339.91C2710.98,1327.15 2704.27,1318.56 2693.77,1313.47C2686.23,1309.83 2676.64,1308.22 2668.72,1308.01C2672.8,1301.72 2677.43,1293.84 2680.3,1286.61C2683.5,1278.54 2684.21,1271.05 2681.84,1266.25C2677.22,1256.88 2670.46,1254.36 2663.53,1255.04C2655.05,1255.88 2645.65,1263.01 2640,1268.86C2638.58,1270.33 2635.03,1274.17 2632.18,1277.33C2623.12,1270.05 2602.11,1254.25 2593.84,1246.28C2590.78,1243.33 2581.93,1235.8 2571.24,1226.89C2552.85,1211.56 2528.96,1192.07 2520.18,1184.96L2520.18,1184.96C2519.19,1172.91 2519.38,1153.71 2518.19,1145.04C2517.51,1140.01 2515.35,1137.18 2514.1,1136.38C2511.35,1134.63 2503.82,1133.3 2493.67,1132.97C2473.52,1132.31 2441.55,1134.02 2422.76,1133.82C2418.1,1133.77 2388.5,1133.27 2371.14,1135.2C2362.67,1136.14 2356.69,1138.52 2355.03,1140.52C2354.08,1141.66 2352.94,1144.07 2352.26,1147.66C2351.41,1152.12 2350.84,1159.17 2350.53,1167.25C2349.72,1188.02 2350.47,1215.84 2351.26,1222.94C2351.72,1227.12 2353.38,1259.67 2354.7,1272.81C2354.99,1275.62 2355.29,1277.66 2355.53,1278.64C2356.05,1280.69 2357.07,1281.72 2357.55,1282.15C2357.99,1282.55 2359.35,1283.63 2361.95,1283.83C2363.39,1283.94 2366.38,1283.91 2370.45,1283.77C2390.94,1283.06 2441.41,1279.44 2447.69,1280.39C2456.83,1281.79 2465.65,1284.66 2474.99,1289.47C2482.78,1293.49 2490.91,1298.83 2499.83,1305.75C2512.43,1315.51 2522.06,1323.7 2531.28,1332.4C2540.49,1341.09 2549.29,1350.29 2560.19,1362.06C2567.6,1370.06 2572.53,1386.9 2580.11,1397.14C2582.89,1400.9 2586.01,1403.9 2589.49,1405.8C2598.55,1410.77 2605.17,1407.23 2609.91,1399.21C2613.33,1393.43 2615.45,1384.51 2617.01,1377.14ZM2506.18,1145.9C2502.41,1144.81 2494.36,1144.86 2484.6,1144.82C2464.85,1144.74 2438.84,1146 2422.64,1145.82C2419.09,1145.79 2400.74,1145.47 2384.78,1146.22C2378.29,1146.53 2372.21,1147 2367.78,1147.77C2366.62,1147.97 2365.24,1148.35 2364.37,1148.6C2364.19,1149.33 2363.95,1150.37 2363.82,1151.24C2362.94,1156.88 2362.49,1165.8 2362.29,1175.44C2361.91,1194.17 2362.51,1215.59 2363.18,1221.62C2363.65,1225.81 2365.32,1258.43 2366.64,1271.61L2366.67,1271.85C2367.73,1271.84 2368.9,1271.82 2370.03,1271.78C2391.11,1271.05 2443.04,1267.55 2449.5,1268.53C2457.94,1269.82 2466.15,1272.2 2474.62,1275.98C2484.79,1280.52 2495.35,1287.09 2507.18,1296.27C2520.13,1306.31 2530.04,1314.73 2539.52,1323.67C2548.91,1332.53 2557.88,1341.9 2568.99,1353.9C2575.78,1361.24 2580.81,1375.51 2587.24,1386.2C2589.6,1390.12 2592.07,1393.54 2595.25,1395.28C2598.74,1397.19 2599.83,1393.21 2601.32,1389.46C2604.71,1380.91 2606.19,1369.15 2607.61,1364.03C2608.88,1359.41 2611.76,1357.59 2613.11,1357.22C2614.47,1356.85 2616.03,1356.86 2617.72,1357.68C2618.84,1358.22 2620.75,1359.89 2622.64,1362.9C2626.84,1369.61 2634.3,1386.27 2643.6,1392.85C2646.53,1394.92 2649.72,1395.39 2653,1392.38C2656.53,1389.14 2657.08,1384.05 2656.81,1378.9C2656.13,1366.29 2649.55,1352.8 2649.55,1352.8C2648.27,1350.16 2649.08,1346.98 2651.47,1345.28C2653.59,1343.78 2656.38,1343.83 2658.43,1345.3C2658.88,1345.42 2660.54,1345.87 2661.86,1346.07C2667.62,1346.94 2676.81,1347.1 2684.64,1345.09C2689.96,1343.72 2694.9,1341.64 2696.1,1336.95C2697.7,1330.65 2693.72,1326.78 2688.54,1324.28C2680.59,1320.43 2669.76,1319.45 2663.03,1320.1C2661.8,1320.22 2660.28,1320.59 2659.68,1320.73C2657.66,1322.63 2654.53,1322.9 2652.18,1321.27C2649.55,1319.45 2648.82,1315.88 2650.51,1313.17C2650.61,1313.01 2650.72,1312.85 2650.85,1312.69L2650.84,1312.69C2650.84,1312.69 2661.01,1299.47 2667.17,1286.67C2668.95,1282.97 2670.4,1279.33 2671.04,1276.1C2671.4,1274.32 2671.67,1272.74 2671.08,1271.56C2668.88,1267.09 2665.57,1266.42 2662.21,1267.56C2657.07,1269.3 2652.01,1273.7 2648.63,1277.2C2646.67,1279.23 2640.53,1285.93 2638.11,1288.69L2637.57,1289.33C2637.24,1289.81 2636.93,1290.15 2636.74,1290.32C2634.95,1291.93 2630.38,1291.3 2628.11,1288.94L2628.12,1289.59C2628.12,1289.59 2626.46,1288.14 2624.85,1286.84C2615.71,1279.48 2594.02,1263.12 2585.51,1254.92C2582.54,1252.05 2573.93,1244.76 2563.55,1236.1C2543.59,1219.46 2517.11,1197.89 2510.68,1192.7C2509.44,1191.71 2508.65,1190.26 2508.48,1188.68C2507.23,1177.05 2507.56,1155.87 2506.3,1146.66C2506.27,1146.42 2506.23,1146.15 2506.18,1145.9Z"/>
                        <path d="M2472.33,1289.45C2473.19,1290.8 2474.59,1291.81 2476.29,1292.12C2479.55,1292.72 2482.68,1290.57 2483.28,1287.31C2483.55,1285.88 2483.39,1284.1 2482.15,1282.32C2481.26,1281.05 2478.13,1279.01 2477.27,1278.34L2464.71,1270.01C2461.63,1267.19 2446.49,1254.23 2432.97,1242.94C2423,1234.61 2413.88,1227.18 2410.99,1225.22C2408.24,1223.37 2404.51,1224.1 2402.66,1226.84C2400.8,1229.59 2401.53,1233.32 2404.27,1235.17C2407.05,1237.04 2415.74,1244.18 2425.28,1252.15C2438.62,1263.29 2453.57,1276.08 2456.6,1278.86C2458.05,1280.18 2459.54,1281.3 2461.07,1282.3C2464.01,1284.23 2467.09,1285.65 2469.94,1287.84C2470.27,1288.1 2471.63,1288.99 2472.33,1289.45Z"/>
                        <path d="M2490.81,1177.95L2494.34,1179.95C2496.06,1180.91 2497.62,1182.16 2499.1,1183.52C2501.74,1185.96 2504.13,1188.74 2506.52,1191.26C2507.07,1191.83 2508.88,1193.11 2509.75,1193.72C2510.76,1195.61 2512.75,1196.89 2515.04,1196.89C2518.36,1196.89 2521.04,1194.2 2521.04,1190.89C2521.04,1189.25 2520.45,1187.44 2518.96,1185.82C2518.06,1184.84 2515.53,1183.12 2515.04,1182.8C2512.53,1180.15 2510,1177.25 2507.24,1174.7C2505.04,1172.68 2502.7,1170.87 2500.15,1169.45C2499.17,1168.91 2493.89,1165.88 2491.6,1165.75C2488.84,1165.58 2486.95,1166.78 2485.75,1168.39C2483.78,1171.05 2484.34,1174.81 2487,1176.79C2488.14,1177.63 2489.49,1178.01 2490.81,1177.95Z"/>
                        <path d="M2531.94,1212.65C2529.54,1212.65 2527.26,1215.36 2525.32,1216.49C2512.81,1223.78 2509.61,1242.51 2510.21,1255.98C2510.67,1266.33 2518.66,1274.72 2525.68,1281.46C2529.34,1284.97 2532.55,1289.38 2536.8,1292.24C2549.51,1300.83 2569.06,1305.57 2583.34,1298.08C2586.39,1296.48 2588.15,1292.87 2590.37,1290.37C2600.51,1278.96 2597.15,1260.07 2587.5,1248.77C2581.82,1242.13 2562.85,1226.81 2560.23,1224.45C2555.12,1219.85 2547.98,1216.14 2541.29,1214.64C2539.46,1214.22 2533.26,1211.26 2531.94,1212.65Z"/>
                        <path d="M2530.07,1206.84C2528.97,1207.06 2527.88,1207.48 2526.82,1208.06C2525.2,1208.96 2523.66,1210.51 2522.3,1211.3C2516.1,1214.92 2511.67,1220.75 2508.77,1227.61C2504.96,1236.64 2503.82,1247.46 2504.21,1256.25C2504.44,1261.39 2506.12,1266.16 2508.67,1270.54C2512.03,1276.3 2516.95,1281.39 2521.53,1285.79C2524.09,1288.25 2526.43,1291.14 2529.06,1293.64C2530.44,1294.95 2531.88,1296.17 2533.44,1297.21C2540.46,1301.95 2549.36,1305.64 2558.48,1307.11C2568.06,1308.65 2577.85,1307.73 2586.13,1303.39C2587.63,1302.6 2588.95,1301.54 2590.15,1300.3C2591.89,1298.48 2593.26,1296.15 2594.86,1294.36C2601.13,1287.3 2603.33,1277.94 2602.29,1268.58C2601.33,1259.93 2597.58,1251.33 2592.06,1244.87C2590.25,1242.75 2587.19,1239.8 2583.69,1236.64C2575.98,1229.69 2566.08,1221.64 2564.24,1219.99C2561.33,1217.37 2557.84,1214.99 2554.12,1213.06C2550.39,1211.12 2546.44,1209.64 2542.61,1208.78C2540.72,1208.36 2534.93,1206.08 2532.29,1206.32C2531.46,1206.39 2530.72,1206.58 2530.07,1206.84ZM2533.15,1218.52L2533.5,1218.43C2534.87,1218.9 2538.93,1220.26 2539.97,1220.49C2542.84,1221.13 2545.8,1222.26 2548.6,1223.71C2551.39,1225.16 2554.02,1226.93 2556.21,1228.91C2557.84,1230.38 2565.81,1236.87 2572.97,1243.17C2577.07,1246.78 2580.91,1250.3 2582.94,1252.67C2586.95,1257.36 2589.66,1263.62 2590.36,1269.91C2591.03,1275.86 2589.88,1281.89 2585.88,1286.39L2580.55,1292.76C2574.52,1295.93 2567.36,1296.38 2560.39,1295.26C2553.02,1294.07 2545.82,1291.1 2540.15,1287.27C2539.15,1286.59 2538.22,1285.8 2537.33,1284.95C2534.72,1282.46 2532.39,1279.58 2529.84,1277.13C2526.02,1273.47 2521.84,1269.3 2519.04,1264.5C2517.47,1261.8 2516.34,1258.89 2516.2,1255.71C2515.93,1249.66 2516.49,1242.44 2518.52,1235.88C2520.34,1230.01 2523.3,1224.61 2528.34,1221.67C2529.52,1220.99 2532.04,1219.04 2532.59,1218.61L2533.15,1218.52Z"/>
                        <path d="M2357.04,1195.4C2357.93,1196.2 2358.78,1199.82 2359.8,1201.11C2363.59,1205.95 2371.4,1212.56 2377.98,1212.88C2393.75,1213.67 2404.87,1204.99 2415.34,1194.62C2422.86,1187.17 2427.64,1182.68 2429.93,1171.71C2431.33,1164.96 2431.22,1154.4 2426.57,1148.82C2419.03,1139.78 2404.66,1142.29 2394.5,1143.12C2384.28,1143.95 2372.94,1142.99 2364.41,1150.02C2360.28,1153.43 2359.78,1159.59 2359.78,1164.55C2359.78,1176.34 2353.89,1180.86 2357.04,1195.4Z"/>
                        <path d="M2352.3,1199.07C2352.61,1199.84 2354.19,1203.68 2355.08,1204.82C2357.69,1208.15 2361.95,1212.21 2366.58,1215.04C2370.22,1217.26 2374.11,1218.7 2377.68,1218.88C2384.91,1219.24 2391.29,1217.88 2397.12,1215.37C2405.48,1211.77 2412.68,1205.7 2419.56,1198.88C2424.62,1193.87 2428.49,1190.03 2431.35,1185.07C2433.27,1181.73 2434.77,1177.9 2435.8,1172.93C2436.77,1168.29 2437.11,1162.08 2436.1,1156.45C2435.31,1152.04 2433.68,1147.99 2431.17,1144.97C2427.17,1140.17 2421.77,1137.71 2415.78,1136.72C2408.59,1135.53 2400.5,1136.61 2394.01,1137.14C2387.61,1137.66 2380.8,1137.55 2374.44,1138.93C2369.47,1140.02 2364.77,1141.95 2360.59,1145.39C2358.06,1147.48 2356.36,1150.21 2355.31,1153.26C2354.07,1156.86 2353.78,1160.96 2353.78,1164.55C2353.78,1173.29 2350.48,1177.98 2350.15,1185.83C2350.02,1188.92 2350.26,1192.43 2351.18,1196.67C2351.37,1197.55 2351.75,1198.37 2352.3,1199.07ZM2364.67,1197.59C2364.47,1197.1 2363.34,1194.23 2362.69,1193.05C2361.98,1189.31 2362,1186.39 2362.37,1183.82C2363.3,1177.32 2365.78,1172.52 2365.78,1164.55C2365.78,1162.53 2365.85,1160.27 2366.37,1158.16C2366.69,1156.83 2367.16,1155.53 2368.23,1154.65C2370.86,1152.48 2373.86,1151.34 2377,1150.66C2382.83,1149.39 2389.11,1149.58 2394.99,1149.1C2400.6,1148.64 2407.6,1147.53 2413.83,1148.56C2416.95,1149.08 2419.87,1150.15 2421.96,1152.66C2423.6,1154.62 2424.25,1157.53 2424.55,1160.48C2424.92,1164 2424.65,1167.64 2424.05,1170.48C2423.12,1174.97 2421.72,1178.15 2419.75,1180.95C2417.5,1184.15 2414.62,1186.89 2411.12,1190.35C2406.27,1195.15 2401.3,1199.6 2395.68,1202.72C2390.58,1205.55 2384.92,1207.22 2378.28,1206.89C2375.99,1206.78 2373.57,1205.39 2371.32,1203.8C2368.66,1201.91 2366.26,1199.59 2364.67,1197.59Z"/>
                    </g>
                    <g id="Arm-L">
                        <path d="M2054.9,1143.24C2054.9,1147.67 2053.28,1178.93 2052.93,1190.25C2052.24,1212.81 2050.46,1251.32 2050.19,1260.32C2049.79,1273.5 2050.48,1347.06 2052.78,1350.17C2054.3,1352.21 2089.91,1348.12 2100.2,1346.65C2137.88,1341.3 2149.83,1343.84 2187.44,1342.3C2193.93,1342.03 2247.53,1347.29 2248.69,1338.69C2249.62,1331.79 2249.79,1265.89 2249.32,1254.9C2248.93,1245.69 2248.29,1200.86 2248.29,1186.48C2248.29,1178.58 2249.96,1137.36 2248.03,1135.87C2245.07,1133.58 2208.92,1136.3 2204.64,1136.48C2179.37,1137.56 2142.34,1139.37 2117.01,1140.15C2096.24,1140.8 2057.43,1140.39 2054.9,1143.24Z" style="fill:white;"/>
                        <path d="M2050.41,1139.25C2049.44,1140.35 2048.9,1141.77 2048.9,1143.24L2046.94,1190.06L2044.19,1260.14C2043.91,1269.48 2044.17,1308.92 2045.15,1332.54C2045.48,1340.34 2045.9,1346.47 2046.39,1349.41C2046.77,1351.75 2047.54,1353.16 2047.96,1353.74C2048.55,1354.53 2049.54,1355.51 2051.27,1356.09C2052.3,1356.44 2054.49,1356.75 2057.51,1356.73C2068.01,1356.65 2092.7,1353.78 2101.05,1352.59C2115.2,1350.58 2125.66,1349.7 2135.25,1349.3C2151.01,1348.64 2164.45,1349.24 2187.68,1348.29C2192.39,1348.1 2221.72,1350.76 2238.2,1349.05C2243.81,1348.46 2248.18,1347.22 2250.54,1345.66C2253.1,1343.97 2254.33,1341.79 2254.64,1339.49C2255.05,1336.4 2255.36,1321.7 2255.48,1305.23C2255.64,1284.48 2255.58,1260.85 2255.31,1254.64L2254.29,1186.48C2254.29,1180.1 2255.36,1152.11 2254.79,1140.54C2254.64,1137.6 2254.31,1135.46 2253.98,1134.44C2253.39,1132.64 2252.4,1131.66 2251.7,1131.12C2250.53,1130.22 2245.89,1129 2239.48,1128.96C2227.56,1128.88 2207.52,1130.35 2204.39,1130.49L2116.82,1134.16C2102.8,1134.59 2080.59,1134.55 2066.78,1135.35C2060.87,1135.69 2056.33,1136.26 2054.16,1136.96C2052.24,1137.57 2051.07,1138.52 2050.41,1139.25ZM2242.8,1141.05L2242.8,1141.13C2243.37,1152.56 2242.29,1180.18 2242.29,1186.48L2243.33,1255.16C2243.59,1261.29 2243.64,1284.63 2243.48,1305.14C2243.38,1318.69 2243.2,1330.99 2242.9,1336.04C2242.68,1336.11 2242.45,1336.19 2242.24,1336.24C2228.94,1339.73 2192.42,1336.09 2187.19,1336.3C2163.95,1337.25 2150.51,1336.65 2134.74,1337.31C2124.83,1337.73 2114,1338.63 2099.36,1340.71C2091.45,1341.84 2068.28,1344.56 2057.91,1344.71C2057.17,1336.98 2056.69,1321.17 2056.4,1305.2C2056.06,1286.05 2056,1266.65 2056.19,1260.5L2058.93,1190.43L2060.71,1147.9L2061.55,1147.79C2073.65,1146.49 2100.97,1146.65 2117.2,1146.15L2204.9,1142.47C2208.31,1142.33 2232.24,1140.53 2242.8,1141.05Z"/>
                        <path d="M2082.51,1239.65C2082.51,1241.53 2084.18,1228.33 2084.18,1226.63C2084.18,1214.28 2086.98,1190.38 2088.36,1177.99C2088.49,1176.84 2133.45,1171.73 2151.12,1170.82C2166.62,1170.03 2202.69,1164.15 2204.57,1170.05C2208.22,1181.56 2206.98,1251.58 2206.76,1273.32C2206.69,1280.21 2205.67,1299.64 2204.34,1302.51C2200.99,1309.74 2146.5,1304.14 2132.86,1308.22C2116.28,1313.18 2062.31,1358.97 2036.73,1383.96C2028.93,1391.59 2015.56,1400.56 2008.08,1408.64C2000.83,1416.47 2026.38,1435.64 2019.07,1450.45C2013.41,1461.92 1985.57,1442.09 1984.85,1443.38C1984.11,1444.72 2003.13,1518.58 1974.62,1508.96C1948.6,1500.18 1952.09,1455.98 1951.44,1461.97C1950.23,1473.12 1918.58,1518.17 1898.35,1497.28C1886.06,1484.59 1908.83,1453.88 1908.45,1453.54C1906.35,1451.65 1874.19,1469.67 1865.54,1454.11C1858.01,1440.54 1885.61,1416.68 1893.13,1408.77C1900.55,1400.99 1938.38,1366.11 1946.58,1359.4C1957.63,1350.36 1979.27,1334.61 1999.97,1313.85C2018.42,1295.34 2039.68,1278.96 2059.58,1262.32C2063.98,1258.65 2085.23,1239.1 2082.51,1239.65Z" style="fill:white;"/>
                        <path d="M2076.85,1237.66L2076.82,1237.78L2076.56,1238.08C2071.89,1243.21 2059.01,1254.99 2055.74,1257.72C2043.77,1267.72 2031.32,1277.63 2019.27,1287.96C2011.14,1294.94 2003.2,1302.1 1995.72,1309.61C1988.92,1316.43 1982.02,1322.7 1975.43,1328.36C1962.13,1339.79 1950.11,1348.76 1942.78,1354.76C1938.63,1358.15 1926.98,1368.67 1915.45,1379.32C1903.93,1389.94 1892.53,1400.7 1888.79,1404.64C1883.56,1410.13 1869.08,1423.13 1862.36,1435.3C1858,1443.18 1856.9,1450.91 1860.3,1457.02C1863.77,1463.28 1869.73,1466.06 1876.81,1466.44C1882.85,1466.77 1889.83,1465.13 1895.87,1463.32C1893.63,1467.67 1891.43,1472.68 1890.1,1477.63C1887.65,1486.7 1888.29,1495.52 1894.04,1501.46C1904.4,1512.16 1917.09,1510.19 1928.72,1502.11C1936.03,1497.03 1942.75,1489.43 1947.85,1482.08C1948.06,1483.01 1948.29,1483.95 1948.54,1484.9C1951.85,1497.22 1958.95,1510 1972.7,1514.65C1978.52,1516.61 1983.04,1515.97 1986.54,1513.99C1991.24,1511.33 1994.43,1505.58 1995.66,1497.77C1997.67,1485 1994.88,1466.04 1992.73,1453.86C1997.5,1456.22 2003.12,1458.67 2007.98,1459.59C2015.5,1461.01 2021.53,1459.01 2024.45,1453.11C2027.26,1447.42 2026.81,1441.25 2024.5,1435.1C2022.19,1428.97 2017.95,1422.83 2015,1417.53C2014.26,1416.2 2013.62,1414.94 2013.18,1413.76C2013.03,1413.34 2012.89,1412.71 2012.82,1412.36C2014.2,1410.89 2015.79,1409.4 2017.5,1407.89C2025.03,1401.24 2034.72,1394.32 2040.92,1388.26C2054.51,1374.99 2076.16,1355.81 2095.87,1340.09C2112.32,1326.98 2127.23,1316.17 2134.58,1313.97C2145.59,1310.67 2183.55,1313.89 2198.91,1311.25C2205.13,1310.17 2208.69,1307.39 2209.78,1305.03C2210.4,1303.7 2211.18,1299.54 2211.65,1294.37C2212.29,1287.21 2212.71,1277.79 2212.76,1273.38C2212.9,1259.56 2213.45,1226.26 2212.9,1200.81C2212.57,1185.36 2211.7,1172.68 2210.28,1168.24C2209.66,1166.27 2208.22,1164.38 2205.49,1163.14C2203.26,1162.13 2199.4,1161.51 2194.52,1161.45C2182.11,1161.33 2161.56,1164.28 2150.82,1164.83C2137.01,1165.54 2106.7,1168.78 2093.62,1170.76C2090.51,1171.23 2088.27,1171.66 2087.24,1171.96C2083.06,1173.18 2082.49,1176.46 2082.39,1177.33C2081.58,1184.65 2080.27,1195.99 2079.33,1206.6C2078.66,1214.19 2078.18,1221.41 2078.18,1226.63C2078.18,1227.8 2077.29,1234.86 2076.85,1237.66ZM2199.3,1173.79L2199.02,1173.74C2188.64,1172.25 2163.58,1176.19 2151.43,1176.81C2137.9,1177.51 2108.22,1180.69 2095.41,1182.62L2093.85,1182.88C2093.06,1189.89 2092.05,1199.02 2091.28,1207.66C2090.64,1214.85 2090.18,1221.69 2090.18,1226.63C2090.18,1227.96 2089.26,1235.85 2088.74,1239.27C2088.76,1239.57 2088.76,1239.88 2088.74,1240.2C2088.71,1240.57 2088.5,1241.4 2087.97,1242.48C2087.47,1243.84 2086.8,1244.8 2086.05,1245.44C2085.86,1245.67 2085.65,1245.91 2085.43,1246.15C2080.5,1251.58 2066.89,1264.04 2063.43,1266.93C2051.51,1276.89 2039.09,1286.77 2027.09,1297.07C2019.2,1303.84 2011.49,1310.79 2004.22,1318.08C1997.19,1325.13 1990.06,1331.61 1983.25,1337.46C1969.86,1348.97 1957.76,1358.01 1950.38,1364.05C1946.31,1367.37 1934.9,1377.69 1923.59,1388.13C1912.32,1398.54 1901.14,1409.06 1897.48,1412.91C1893.24,1417.37 1882.4,1427 1875.5,1436.91C1873.54,1439.72 1871.91,1442.53 1870.97,1445.24C1870.22,1447.41 1869.82,1449.45 1870.79,1451.19C1872.76,1454.73 1876.92,1454.77 1881.17,1454.36C1889.91,1453.52 1899.54,1449.36 1904.11,1448.06C1908.56,1446.78 1911.51,1448.22 1912.47,1449.08C1912.97,1449.53 1915.94,1452.42 1913.61,1456.68C1913.38,1457.11 1912.84,1457.97 1912.08,1459.19C1909.53,1463.25 1904.02,1472.09 1901.68,1480.76C1900.43,1485.41 1899.71,1490.06 1902.66,1493.11C1908.4,1499.04 1915.42,1496.74 1921.86,1492.26C1933.98,1483.83 1944.83,1467.28 1945.47,1461.33C1945.52,1460.95 1945.58,1460.59 1945.66,1460.27C1946.72,1447.65 1957.12,1451.67 1957.47,1460.76C1957.51,1461.07 1957.54,1461.41 1957.55,1461.77C1957.57,1462.51 1957.59,1464.07 1957.72,1466.17C1958.28,1475.59 1960.2,1497.76 1976.54,1503.28C1978.26,1503.86 1979.59,1504.13 1980.62,1503.55C1981.87,1502.84 1982.44,1501.32 1982.98,1499.56C1983.9,1496.62 1984.27,1492.99 1984.36,1489.04C1984.68,1474.93 1981.17,1457.18 1979.65,1449.04C1978.71,1444.03 1979.41,1440.82 1979.61,1440.46C1980.45,1438.95 1982.47,1436.5 1986.64,1437.52C1987.4,1437.71 1989,1438.38 1991.09,1439.49C1995.11,1441.62 2002.2,1445.69 2008.46,1447.39C2009.82,1447.76 2011.13,1448.02 2012.32,1448.04C2012.87,1448.04 2013.45,1448.27 2013.69,1447.8C2015.86,1443.39 2013.27,1438.6 2010.71,1433.91C2006.49,1426.21 2001.37,1418.77 2000.84,1413.45C2000.5,1410.01 2001.38,1407.04 2003.68,1404.56C2005.39,1402.71 2007.39,1400.81 2009.56,1398.9C2016.94,1392.38 2026.45,1385.62 2032.54,1379.67C2046.34,1366.18 2068.35,1346.68 2088.39,1330.71C2106.44,1316.32 2123.08,1304.89 2131.14,1302.48C2134.54,1301.46 2140.22,1300.9 2147.04,1300.68C2161.26,1300.24 2180.95,1301.06 2193.02,1299.91C2195.25,1299.7 2197.92,1299.11 2199.21,1298.8C2199.61,1296.57 2199.83,1292.14 2200.13,1287.58C2200.5,1282.06 2200.73,1276.36 2200.76,1273.26C2200.9,1259.51 2201.45,1226.38 2200.9,1201.07C2200.64,1189.04 2200.24,1178.86 2199.3,1173.79Z"/>
                        <path d="M2180.03,1267.51C2180.3,1267.02 2178.14,1268.46 2177.91,1268.62C2176.41,1269.66 2175.03,1270.82 2173.58,1271.91C2169.43,1275.02 2165.18,1278.04 2161.08,1281.21C2154.98,1285.91 2148.03,1289.77 2142.51,1295.2C2136.83,1300.78 2132.69,1308.46 2125.55,1312.32" style="fill:white;fill-opacity:0;"/>
                        <path d="M2181.87,1273.21C2183.26,1272.77 2184.5,1271.81 2185.27,1270.43C2187.8,1265.9 2184.99,1263.44 2183.23,1262.34C2182.4,1261.81 2180.49,1260.83 2177.83,1261.8C2177.06,1262.08 2174.79,1263.48 2174.5,1263.69L2169.98,1267.11L2157.41,1276.45C2153.16,1279.74 2148.49,1282.61 2144.18,1285.89C2142.12,1287.46 2140.15,1289.11 2138.31,1290.92C2134.34,1294.81 2131.13,1299.73 2127.12,1303.65C2125.79,1304.96 2124.36,1306.14 2122.7,1307.04C2119.79,1308.61 2118.7,1312.26 2120.27,1315.17C2121.85,1318.08 2125.49,1319.17 2128.4,1317.6C2131.06,1316.16 2133.39,1314.32 2135.53,1312.22C2139.53,1308.29 2142.75,1303.37 2146.71,1299.48C2148.2,1298.02 2149.8,1296.7 2151.45,1295.44C2155.78,1292.14 2160.47,1289.26 2164.74,1285.96L2177.18,1276.71L2181.33,1273.55L2181.87,1273.21ZM2175.64,1271.59C2173.91,1269.74 2173.49,1266.91 2174.79,1264.59C2172.85,1268.06 2174.15,1270.28 2175.64,1271.59Z"/>
                        <path d="M2096.38,1184.15C2074.23,1204.08 2097.43,1244.57 2125.48,1224.74C2128.86,1222.35 2133.51,1219.6 2134.95,1215.44C2141.28,1197.21 2117.81,1178.16 2100.76,1186.69"/>
                        <path d="M2100.84,1180.14L2100.84,1180.13C2098.62,1177.67 2094.82,1177.47 2092.36,1179.69C2078.91,1191.79 2079.09,1210.12 2086.98,1222.47C2095.16,1235.3 2111.26,1242.14 2128.94,1229.64C2131.64,1227.73 2134.99,1225.55 2137.37,1222.84C2138.8,1221.21 2139.93,1219.4 2140.62,1217.41C2144.64,1205.83 2139.52,1193.86 2130.33,1186.31C2122.1,1179.55 2110.82,1176.55 2100.84,1180.14ZM2097.53,1191.74C2091.92,1199.28 2092.68,1209.11 2097.09,1216.02C2101.94,1223.61 2111.54,1227.24 2122.01,1219.84C2123.56,1218.74 2125.42,1217.58 2127.04,1216.2C2127.97,1215.4 2128.9,1214.58 2129.28,1213.47C2131.62,1206.74 2128.06,1199.98 2122.71,1195.58C2117.31,1191.14 2109.81,1188.87 2103.44,1192.05C2101.49,1193.03 2099.25,1192.84 2097.53,1191.74Z"/>
                        <path d="M2102.5,1268.87C2094.87,1267.15 2088.38,1276.65 2084.41,1281.8C2080.94,1286.28 2075.13,1291.76 2073.65,1297.37C2070.67,1308.62 2078.17,1321.85 2089.62,1324.43C2094.19,1325.45 2100.06,1321.35 2103.73,1319.14C2113.96,1313.01 2128.12,1303.45 2124.75,1289.28C2123.24,1282.96 2114.24,1265.86 2105.37,1270.16"/>
                        <path d="M2105.62,1263.75C2105.07,1263.41 2104.47,1263.16 2103.81,1263.02C2099.95,1262.15 2096.25,1262.91 2092.82,1264.82C2087.46,1267.8 2082.8,1274.07 2079.66,1278.13C2077.18,1281.34 2073.56,1285.06 2071.04,1288.96C2069.58,1291.21 2068.46,1293.52 2067.85,1295.84C2065.96,1302.98 2067.31,1310.76 2071.02,1317.15C2074.79,1323.63 2080.94,1328.63 2088.3,1330.28C2090.68,1330.82 2093.27,1330.63 2095.89,1329.85C2099.84,1328.68 2103.94,1326.02 2106.82,1324.29C2113.61,1320.21 2121.86,1314.65 2126.68,1307.58C2130.51,1301.93 2132.37,1295.39 2130.58,1287.89C2129.37,1282.79 2123.99,1271.86 2117.41,1266.86C2113.7,1264.04 2109.66,1262.83 2105.62,1263.75ZM2101.56,1274.79L2101.18,1274.72C2099.21,1274.28 2097.62,1275.82 2096.04,1277.27C2093.28,1279.82 2090.95,1283.14 2089.15,1285.46C2087.13,1288.08 2084.29,1291.04 2082.01,1294.18C2080.88,1295.72 2079.88,1297.29 2079.45,1298.91C2078.36,1303.01 2079.26,1307.45 2081.4,1311.12C2083.5,1314.73 2086.83,1317.65 2090.94,1318.57C2092.06,1318.83 2093.27,1318.13 2094.49,1317.55C2096.78,1316.47 2098.96,1315.01 2100.64,1314C2106.09,1310.73 2112.89,1306.5 2116.75,1300.83C2118.74,1297.91 2119.83,1294.55 2118.91,1290.67C2118.29,1288.08 2116.11,1283.34 2113.22,1279.6C2112.27,1278.37 2111.25,1277.25 2110.15,1276.41C2109.43,1275.86 2108.77,1275.18 2107.99,1275.56C2105.81,1276.62 2103.31,1276.24 2101.56,1274.79Z"/>
                        <path d="M1915.81,1398.56C1915.07,1398.56 1917.88,1405.62 1918.26,1406.29C1919.16,1407.91 1921.29,1409.74 1922.87,1410.69C1930.67,1415.37 1941.44,1416.63 1950.43,1415.39C1966.57,1413.15 1988.89,1383.51 1981.73,1367.76C1974.09,1350.96 1962.7,1356.34 1950.56,1366.81C1936.67,1378.79 1928.21,1382.1 1923.02,1400.78"/>
                        <path d="M1919.06,1393.52C1918.12,1392.91 1917.01,1392.56 1915.81,1392.56C1913.84,1392.56 1908.67,1394.38 1909.86,1400.47C1910.31,1402.78 1912.64,1408.53 1913.01,1409.21C1913.62,1410.29 1914.52,1411.46 1915.6,1412.54C1916.92,1413.86 1918.49,1415.06 1919.78,1415.84C1924.33,1418.57 1929.74,1420.34 1935.34,1421.2C1940.7,1422.03 1946.23,1422.03 1951.26,1421.33C1960.51,1420.05 1971.82,1411.37 1979.56,1400.33C1987.71,1388.71 1991.51,1374.79 1987.19,1365.28C1983.07,1356.21 1977.7,1352.33 1972.23,1351.29C1964.7,1349.85 1955.65,1354.5 1946.64,1362.27C1937.71,1369.97 1930.99,1374.32 1925.83,1381.02C1923.22,1384.4 1920.97,1388.35 1919.06,1393.52ZM1926.34,1405.77C1929.53,1407.61 1933.3,1408.74 1937.17,1409.34C1941.36,1409.99 1945.68,1409.99 1949.61,1409.44C1956.36,1408.51 1964.09,1401.5 1969.74,1393.44C1975.21,1385.63 1979.17,1376.63 1976.27,1370.25C1973.87,1364.98 1971.48,1362.56 1968.12,1363.07C1963.85,1363.72 1959.32,1367.18 1954.48,1371.36C1946.32,1378.39 1940.05,1382.23 1935.34,1388.34C1932.65,1391.83 1930.54,1396.13 1928.8,1402.39C1928.4,1403.83 1927.5,1405.01 1926.34,1405.77ZM1918.05,1404.13C1917.36,1404.41 1916.6,1404.56 1915.81,1404.56C1916.63,1404.56 1917.38,1404.42 1918.05,1404.14L1918.05,1404.13Z"/>
                    </g>
                </g>
                <g id="Hat">
                    <path d="M2090.06,649.914C2087.47,649.914 2061.95,695.442 2052.68,714.51C2045.5,729.274 2019.55,776.373 2022.63,778.222C2028.53,781.761 2045.27,777.92 2052,777.541C2078.1,776.073 2148.82,768.855 2157.64,768.289C2188.99,766.274 2219.94,761.488 2251.41,759.717C2306.32,756.627 2361.24,752.451 2416.38,748.968C2450.7,746.801 2526.8,739.37 2527.73,734.375C2529.34,725.669 2512.89,687.273 2510.61,677.501C2505.95,657.588 2494.15,607.665 2491.14,606.306C2487.81,604.805 2480.04,607.428 2476.4,607.633C2459.12,608.604 2440.55,612.532 2423.45,615.83C2415.38,617.386 2333.09,626.375 2299.82,630.117C2289.72,631.253 2279.19,631.273 2269.36,633.485C2266.14,634.208 2265.57,587.929 2257,580.216C2252.77,576.41 2222.8,580.583 2216.48,581.53C2201.45,583.784 2160.59,589.461 2157.86,592.734C2153.8,597.615 2155.86,615.3 2155.86,621.511C2155.86,629.12 2160.2,641.457 2157.71,648.179C2156.72,650.868 2094.72,654.107 2090.06,649.914Z" style="fill:white;"/>
                    <path d="M2152.5,643.467C2151.84,643.583 2151.1,643.699 2150.38,643.792C2139.3,645.223 2116.45,646.345 2102.33,645.781C2098.49,645.627 2094.03,644.955 2093.24,644.831C2092.29,644.235 2091.19,643.914 2090.06,643.914C2089.06,643.914 2087.2,644.144 2085.29,645.966C2084.3,646.91 2082.57,649.167 2080.43,652.449C2071.93,665.481 2054.6,696.835 2047.28,711.887C2041.61,723.545 2024.33,755.25 2018.64,769.254C2016.99,773.307 2016.33,776.369 2016.38,777.807C2016.49,780.843 2018.06,782.475 2019.55,783.368C2022.23,784.978 2026.5,785.777 2031.41,785.702C2038.71,785.592 2047.79,783.788 2052.33,783.532C2060.02,783.099 2071.55,782.173 2084.24,781.062C2114.66,778.4 2151.8,774.676 2158.02,774.277C2183.17,772.661 2208.05,769.269 2233.14,767.069C2239.33,766.526 2245.53,766.057 2251.74,765.708L2416.76,754.956C2439.79,753.502 2481.53,749.687 2507.04,745.819C2517.18,744.281 2524.89,742.641 2528.29,741.214C2532.12,739.605 2533.35,736.973 2533.62,735.471C2534.14,732.708 2533.46,727.464 2531.69,721.063C2527.58,706.19 2518.13,683.341 2516.45,676.134C2512.75,660.337 2504.59,625.801 2499.81,611.15C2498.59,607.409 2497.45,604.766 2496.67,603.571C2495.62,601.96 2494.43,601.207 2493.61,600.836C2492.16,600.183 2490.28,599.819 2488.14,599.846C2484.27,599.894 2478.92,601.482 2476.06,601.642C2468.92,602.044 2461.56,602.934 2454.17,604.079C2443.42,605.746 2432.6,607.955 2422.31,609.939L2299.15,624.155C2292.09,624.948 2284.83,625.199 2277.74,626.029C2276.26,626.202 2274.8,626.399 2273.34,626.633C2272.53,621.582 2271.77,613.623 2270.65,605.648C2268.83,592.606 2265.47,579.764 2261.01,575.756C2259.31,574.226 2255.03,572.804 2249.22,572.663C2238.29,572.397 2220.37,574.879 2215.59,575.596C2205.08,577.173 2182.03,580.417 2167.99,583.353C2162.51,584.501 2158.26,585.693 2156.24,586.666C2154.75,587.387 2153.8,588.231 2153.25,588.893C2151.32,591.216 2149.96,595.467 2149.55,600.58C2148.95,607.885 2149.86,617.289 2149.86,621.511C2149.86,626.778 2151.84,634.259 2152.38,640.684C2152.46,641.655 2152.52,642.592 2152.5,643.467ZM2253.4,585.118C2254.94,586.968 2255.74,590.791 2256.69,595.191C2259.18,606.597 2260.36,621.742 2261.66,629.461C2262.32,633.382 2263.41,635.983 2264.17,636.954C2266.15,639.477 2268.53,639.82 2270.67,639.338C2273.44,638.716 2276.27,638.283 2279.13,637.948C2286.2,637.12 2293.45,636.871 2300.49,636.08C2320.54,633.824 2358.39,629.664 2387.08,626.372C2406.23,624.175 2421.34,622.348 2424.59,621.722C2434.73,619.765 2445.4,617.582 2456.01,615.938C2463.01,614.853 2469.97,614.003 2476.74,613.623L2487.36,611.98C2487.69,612.825 2488.07,613.861 2488.4,614.874C2493.11,629.3 2501.12,663.313 2504.76,678.868C2506.27,685.308 2513.83,704.055 2518.49,718.758C2520,723.548 2521.35,727.776 2521.77,730.688C2520.28,731.118 2518.17,731.681 2516.08,732.097C2494.04,736.493 2442.48,741.308 2416,742.98L2251.07,753.727C2244.72,754.083 2238.41,754.561 2232.1,755.114C2207.09,757.307 2182.3,760.692 2157.25,762.301C2151.01,762.703 2113.73,766.435 2083.19,769.108C2070.65,770.205 2059.26,771.123 2051.66,771.551C2047.75,771.771 2040.48,773.153 2033.89,773.59C2032.43,773.687 2031.02,773.799 2029.75,773.802L2029.76,773.769C2035.37,759.94 2052.48,728.646 2058.07,717.133C2065.23,702.414 2082.17,671.747 2090.48,659.003C2090.97,658.256 2091.49,657.506 2091.96,656.847C2092.3,656.917 2092.66,656.98 2093.02,657.036C2100.53,658.187 2116.64,658.104 2131.05,657.376C2141.93,656.826 2151.84,655.909 2156.39,654.982C2161.11,654.02 2162.98,651.217 2163.34,650.263C2164.41,647.364 2164.67,643.689 2164.33,639.687C2163.83,633.592 2161.86,626.507 2161.86,621.511C2161.86,617.968 2161.17,610.653 2161.37,604.166C2161.45,601.421 2161.36,598.823 2162.05,597.269C2162.74,597.027 2163.92,596.638 2164.91,596.377C2170.28,594.969 2178.91,593.411 2187.86,591.951C2199.06,590.122 2210.74,588.459 2217.37,587.464C2220.38,587.012 2228.88,585.811 2237.3,585.127C2243.36,584.634 2252.13,585.052 2253.4,585.118Z"/>
                </g>
            </g>
        </g>
        <g id="Flowers" transform="matrix(1,0,0,1,-742.036,264.944)">
            <g id="_5" serif:id="5">
            </g>
            <g id="_4" serif:id="4">
            </g>
            <g id="_3" serif:id="3">
            </g>
            <g id="_2" serif:id="2">
            </g>
            <g id="_1" serif:id="1">
            </g>
        </g>
    </g>
</svg>
