<?xml version="1.0" encoding="UTF-8" standalone="no"?><!DOCTYPE svg PUBLIC "-//W3C//DTD SVG 1.1//EN" "http://www.w3.org/Graphics/SVG/1.1/DTD/svg11.dtd"><svg width="100%" height="100%" viewBox="0 0 810 1207" version="1.1" xmlns="http://www.w3.org/2000/svg" xmlns:xlink="http://www.w3.org/1999/xlink" xml:space="preserve" xmlns:serif="http://www.serif.com/" style="fill-rule:evenodd;clip-rule:evenodd;stroke-linejoin:round;stroke-miterlimit:2;"><g id="Flowers"><g id="_5" serif:id="5"></g><g id="_4" serif:id="4"></g><g id="_3" serif:id="3"></g><g id="_2" serif:id="2"></g><g id="_1" serif:id="1"></g></g><rect id="Fountain" x="0" y="0" width="809.126" height="1206.13" style="fill:none;"/><g id="Fountain1" serif:id="Fountain"><g id="Base"><path d="M340.081,748.84c0,-1.049 -20.271,60.07 -28.094,78.485c-3.529,8.307 -18.288,39.17 -23.534,52.906c-8.595,22.507 -22.581,58.761 -29.858,81.683c-3.437,10.825 -18.301,43.253 -17.462,44.765c1.552,2.796 328.683,-3.92 328.038,-6.009c-4.135,-13.4 -16.874,-48.176 -19.905,-61.818c-2.198,-9.887 -20.897,-74.018 -27.314,-93.816c-4.589,-14.158 -11.75,-39.143 -16.252,-52.112c-1.006,-2.898 -8.505,-40.582 -10.608,-42.474c-1.625,-1.462 -153.777,-0.5 -155.011,-1.61Z" style="fill:#fff;"/><path d="M344.9,748.434c-1.149,-1.732 -7.474,-6.905 -9.822,-0.599c-0.445,1.194 -1.329,3.726 -2.527,7.196c-5.812,16.838 -19.165,56.213 -25.166,70.339c-2.461,5.792 -10.392,22.569 -16.734,36.83c-2.783,6.26 -5.264,12.044 -6.869,16.247c-5.097,13.346 -12.086,31.519 -18.453,48.888c-4.406,12.021 -8.514,23.659 -11.5,33.066c-2.695,8.49 -12.474,30.344 -16.066,39.929c-0.902,2.406 -1.438,4.206 -1.578,5.105c-0.288,1.847 0.237,3.06 0.577,3.671c0.332,0.599 1.186,2.014 3.497,2.556c0.557,0.13 1.745,0.283 3.52,0.377c4.495,0.239 13.927,0.333 26.858,0.306c61.292,-0.13 201.97,-2.927 265.957,-5.014c14.253,-0.465 24.724,-0.897 29.707,-1.255c1.806,-0.13 3.013,-0.273 3.571,-0.386c4.984,-1.009 4.365,-5.56 4.077,-6.495c-2.786,-9.026 -9.469,-27.739 -14.47,-43.181c-2.372,-7.323 -4.364,-13.889 -5.333,-18.247c-1.003,-4.514 -5.412,-20.248 -10.545,-37.964c-6.166,-21.285 -13.373,-45.448 -16.893,-56.308l-16.284,-52.21c-0.719,-2.072 -4.769,-22.135 -7.756,-33.782c-1.531,-5.974 -3.461,-10.077 -4.232,-10.77c-0.27,-0.243 -1.696,-1.285 -4.516,-1.487c-2.395,-0.171 -7.411,-0.304 -14.233,-0.402c-30.233,-0.435 -96.663,-0.261 -125.614,-0.576c-5.931,-0.064 -10.261,-0.147 -12.33,-0.263c-0.32,-0.018 -0.703,-0.051 -0.703,-0.051c0,-0 2.141,0.948 2.386,1.169l1.474,3.311Zm-1.434,5.647c2.728,0.085 6.867,0.152 12.054,0.203c30.226,0.297 96.632,0.125 125.567,0.582c4.578,0.073 8.195,0.158 10.546,0.267l0.245,0.789c3.019,10.288 8.268,36.248 9.099,38.642l16.219,52.014c2.991,9.23 8.66,28.126 14.073,46.637c6.139,20.996 11.954,41.493 13.116,46.721c1.016,4.575 3.09,11.472 5.58,19.159c4.071,12.569 9.261,27.31 12.535,37.196c-5.58,0.313 -14.638,0.667 -26.232,1.045c-63.913,2.085 -204.431,4.879 -265.653,5.009c-9.97,0.021 -17.816,-0.027 -22.851,-0.165c4.034,-10.368 13.015,-30.622 15.596,-38.753c2.949,-9.289 7.008,-20.78 11.359,-32.65c6.35,-17.325 13.322,-35.451 18.405,-48.762c1.556,-4.076 3.966,-9.682 6.664,-15.751c6.368,-14.32 14.33,-31.168 16.801,-36.984c6.057,-14.257 19.548,-53.991 25.415,-70.986l1.462,-4.213Z"/><path d="M23.458,963.298c-0,6.903 -3.888,18.712 -2.495,30.977c1.286,11.318 6.993,27.2 9.272,29.661c7.62,8.227 147.272,15.575 178.646,16.577c37.38,1.194 143.885,-4.271 167.534,-3.537c80.861,2.508 109.936,2.275 190.438,-5.488c45.186,-4.358 100.724,-7.171 145.537,-14.854c13.875,-2.378 41.356,-4.846 43.036,-22.972c0.745,-8.033 -17.166,-32.261 -22.224,-36.056c-0.778,-0.585 -20.881,3.199 -21.744,3.31c-4.56,0.587 -60.389,4.524 -81.008,6.804c-26.73,2.954 -104.266,6.95 -143.018,7.869c-19.613,0.464 -159.45,7.059 -186.431,7.869c-41.4,1.242 -140.275,-2.861 -149.342,-3.153c-51.434,-1.653 -78.21,-5.756 -128.201,-17.007Z" style="fill:#fff;"/><path d="M24.555,958.42c-1.481,-0.334 -3.035,0.024 -4.221,0.973c-1.186,0.949 -1.876,2.386 -1.876,3.905c-0,5.048 -2.137,12.752 -2.666,21.331c-0.204,3.314 -0.191,6.745 0.203,10.21c0.681,5.998 2.525,13.216 4.511,19.239c2.181,6.612 4.735,11.824 6.061,13.256c1.009,1.089 3.398,2.501 7.232,3.564c8.654,2.4 27.032,4.721 48.958,6.741c45.501,4.194 106.507,7.25 125.965,7.872c8.373,0.267 20.19,0.205 33.767,-0.049c47.043,-0.878 115.415,-4.058 133.771,-3.489c40.542,1.258 68.104,1.826 95.619,1.109c27.546,-0.717 55.045,-2.72 95.454,-6.617c31.39,-3.027 67.773,-5.311 102.091,-8.996c15.209,-1.633 30.014,-3.541 43.811,-5.907c10.08,-1.728 26.87,-3.734 37.048,-10.868c5.621,-3.939 9.448,-9.298 10.122,-16.57c0.365,-3.943 -2.598,-11.367 -7.167,-18.812c-5.844,-9.521 -13.859,-19.323 -17.035,-21.706c-0.385,-0.289 -2.48,-1.269 -5.759,-0.893c-5.415,0.622 -18.919,3.154 -19.624,3.244c-0,0 -80.92,6.793 -80.92,6.793c-11.704,1.294 -33.195,2.785 -56.881,4.131c-30.238,1.718 -64.043,3.196 -85.705,3.709l-186.463,7.87c-14.745,0.442 -36.813,0.201 -59.491,-0.301c-40.873,-0.905 -83.72,-2.664 -89.54,-2.851c-25.483,-0.819 -44.865,-2.241 -64.062,-4.853c-19.266,-2.621 -38.344,-6.441 -63.203,-12.035Zm706.843,4.251c2.677,2.641 7.114,8.383 11.095,14.394c4.185,6.316 8.266,12.774 7.954,16.136c-0.524,5.659 -4.653,9.072 -9.738,11.517c-9.125,4.389 -21.39,5.655 -29.164,6.988c-13.601,2.332 -28.196,4.21 -43.189,5.82c-34.282,3.682 -70.626,5.961 -101.983,8.985c-40.113,3.868 -67.41,5.863 -94.755,6.575c-27.35,0.712 -54.748,0.142 -95.048,-1.108c-18.424,-0.571 -87.05,2.604 -134.267,3.486c-13.374,0.25 -25.014,0.315 -33.262,0.052c-16.909,-0.54 -65.34,-2.928 -107.503,-6.303c-22.758,-1.822 -43.68,-3.926 -56.755,-6.189c-3.845,-0.666 -6.974,-1.335 -9.21,-2.025c-0.689,-0.212 -1.534,-0.568 -1.874,-0.716c-1.149,-1.585 -2.9,-6.558 -4.597,-12.195c-1.42,-4.721 -2.665,-9.923 -3.171,-14.378c-0.443,-3.897 -0.289,-7.743 0.083,-11.369c0.487,-4.748 1.312,-9.161 1.867,-12.931l-0,-0c22.544,5.003 40.456,8.495 58.529,10.954c19.504,2.654 39.196,4.106 65.088,4.939c5.827,0.187 48.722,1.947 89.641,2.854c22.876,0.506 45.138,0.745 60.012,0.298l186.4,-7.868c21.745,-0.515 55.681,-1.997 86.035,-3.722c23.908,-1.358 45.599,-2.87 57.413,-4.176l81.096,-6.813c0.693,-0.09 13.808,-2.553 19.303,-3.205Z"/><path d="M33.839,1013.87c-7.936,11.897 -11.338,28.823 -14.01,42.565c-5.729,29.464 -5.77,60.945 -5.77,90.912c0,10.941 1.191,41.821 2.469,42.588c4.179,2.508 113.425,-1.932 129.789,-1.406c14.876,0.478 130.03,7.407 202.205,1.678c12.58,-0.998 189.09,-10.817 214.476,-12.722c48.407,-3.632 92.399,-8.246 140.497,-14.74c12.71,-1.716 48.616,-8.339 51.074,-11.044c3.987,-4.386 3.334,-52.768 3.175,-58.62c-0.922,-33.853 1.903,-87.665 -11.263,-91.457c-18.81,-5.418 -711.912,11.588 -712.642,12.246Z" style="fill:#fff;"/><path d="M30.493,1010.15c-0.309,0.278 -0.583,0.595 -0.814,0.941c-3.431,5.144 -6.094,11.154 -8.212,17.474c-2.998,8.94 -4.911,18.506 -6.546,26.911c-2.336,12.017 -3.746,24.364 -4.593,36.809c-1.25,18.39 -1.269,36.997 -1.269,55.058c0,8.708 0.749,29.877 1.696,38.943c0.246,2.357 0.562,4.057 0.824,4.848c0.622,1.876 1.749,2.708 2.377,3.084c0.575,0.346 2.149,0.928 4.703,1.141c4.176,0.349 12.846,0.408 23.842,0.285c34.417,-0.386 92.129,-2.492 103.656,-2.121c9.946,0.319 64.674,3.518 121.453,3.899c28.352,0.191 57.212,-0.322 81.308,-2.234l214.454,-12.721c24.253,-1.819 47.4,-3.885 70.509,-6.309c23.111,-2.425 46.183,-5.208 70.283,-8.462c8.965,-1.21 29.327,-4.832 41.698,-7.844c6.788,-1.652 11.456,-3.745 12.408,-4.792c1.365,-1.502 2.96,-6.924 3.596,-14.403c1.372,-16.129 0.994,-43.392 0.876,-47.716c-0.64,-23.498 0.46,-56.516 -3.076,-76.114c-1.098,-6.088 -2.695,-11 -4.742,-14.265c-1.941,-3.096 -4.368,-4.972 -7.059,-5.747c-8.047,-2.317 -138.862,-0.759 -286.545,2.085c-146.333,2.817 -309.312,6.698 -384.864,8.691c-18.742,0.494 -32.109,0.873 -38.515,1.09c-1.983,0.067 -3.316,0.12 -3.957,0.156c-2.378,0.133 -3.402,1.233 -3.491,1.313Zm720.224,137.913c-0.63,0.233 -1.53,0.55 -2.373,0.796c-4.689,1.37 -12.212,3.01 -19.993,4.535c-9.758,1.913 -19.921,3.636 -25.525,4.392c-23.999,3.24 -46.975,6.012 -69.989,8.426c-23.011,2.414 -46.062,4.471 -70.213,6.283l-214.497,12.724c-23.842,1.892 -52.398,2.392 -80.449,2.204c-56.662,-0.381 -111.275,-3.576 -121.2,-3.895c-10.225,-0.329 -56.613,1.269 -91.141,1.917c-15.37,0.288 -28.358,0.392 -34.608,0.033l-0.028,-0.231c-0.922,-8.824 -1.642,-29.429 -1.642,-37.904c0,-17.838 0.011,-36.216 1.246,-54.38c0.818,-12.029 2.174,-23.963 4.432,-35.578c1.557,-8.007 3.356,-17.125 6.211,-25.641c1.549,-4.621 3.407,-9.064 5.742,-13.013l3.008,-0.103c8.587,-0.279 26.52,-0.774 51.271,-1.412c110.24,-2.843 355.655,-8.538 513.063,-10.751c79.2,-1.114 135.892,-1.53 141.065,-0.04c1.113,0.32 1.605,1.68 2.3,3.288c1.823,4.221 2.902,10.479 3.637,17.847c1.931,19.359 1.175,45.917 1.712,65.653c0.09,3.302 0.338,20.264 -0.194,35.065c-0.259,7.204 -0.69,13.882 -1.444,18.098c-0.098,0.551 -0.259,1.195 -0.391,1.687Z"/><path d="M325.719,706.161c-0,-0.148 -5.238,12.431 -5.846,16.804c-1.789,12.874 -5.011,31.014 11.263,36.646c11.85,4.101 37.051,7.222 49.386,8.822c26.49,3.436 36.493,5.673 79.647,5.079c9.778,-0.134 43.651,-1.05 52.712,-6.531c7.382,-4.464 5.115,-32.282 4.561,-43.268c-0.172,-3.41 0.716,-9.54 -2.016,-12.223c-4.729,-4.643 -185.055,-7.422 -189.707,-5.329Z" style="fill:#fff;"/><path d="M323.976,701.801c-1.114,0.098 -2.149,0.795 -2.9,2.48c-0.12,0.268 -0.362,0.836 -0.682,1.617c-1.562,3.801 -4.967,12.739 -5.473,16.379c-1.174,8.449 -2.706,18.983 -0.018,27.358c2.073,6.458 6.362,11.851 14.598,14.701c5.065,1.753 12.472,3.354 20.335,4.724c10.913,1.9 22.725,3.382 30.043,4.331c15.702,2.037 25.662,3.65 40.041,4.517c10.093,0.609 22.362,0.851 40.318,0.604c6.647,-0.092 24.244,-0.546 37.935,-2.497c7.511,-1.07 13.916,-2.711 17.296,-4.755c3.557,-2.152 6.227,-8.037 7.138,-15.795c1.239,-10.553 0.192,-24.801 -0.172,-32.004c-0.128,-2.548 0.213,-6.486 -0.471,-9.656c-0.509,-2.359 -1.516,-4.392 -3.035,-5.883c-0.679,-0.667 -3.499,-2.015 -8.408,-2.629c-9.191,-1.15 -28.652,-2.156 -51.664,-2.941c-41.791,-1.425 -95.37,-2.147 -119.934,-1.82c-8.876,0.118 -14.434,0.7 -15.256,1.069l0.309,0.2Zm188.303,13.924c0.151,0.561 0.086,1.267 0.126,1.946c0.135,2.264 -0.042,4.612 0.043,6.294c0.299,5.923 1.119,16.838 0.58,26.188c-0.205,3.549 -0.596,6.857 -1.345,9.485c-0.392,1.373 -0.601,2.588 -1.389,3.065c-3.396,2.054 -10.712,3.181 -18.673,4.056c-12.209,1.34 -25.902,1.677 -31.52,1.754c-17.627,0.242 -29.671,0.011 -39.579,-0.586c-14.134,-0.853 -23.922,-2.451 -39.357,-4.453c-7.213,-0.935 -18.856,-2.393 -29.613,-4.266c-7.259,-1.264 -14.105,-2.704 -18.78,-4.322c-4.682,-1.62 -7.169,-4.637 -8.347,-8.307c-2.253,-7.019 -0.583,-15.845 0.401,-22.926c0.387,-2.79 2.881,-9.185 4.359,-12.818c1.572,-0.086 3.88,-0.194 6.109,-0.241c16.215,-0.34 50.764,-0.05 85.291,0.708c34.502,0.757 68.982,1.979 85.06,3.519c2.612,0.25 5.318,0.68 6.634,0.904Z"/></g><path d="M409.675,426.416c1.079,0.972 0.151,24.455 0.151,32.428c0,36.227 -9.412,72.251 -18.545,106.946c-7.22,27.429 -14.528,37.461 -14.211,37.689c5.616,4.041 138.598,-1.873 140.321,-3.424c0.744,-0.669 -12.655,-18.316 -16.277,-24.832c-10.162,-18.284 -17.501,-33.808 -18.57,-55.015c-1.292,-25.644 6.861,-50.643 13.606,-74.925c4.637,-16.691 4.153,-92.348 0.933,-91.91c-16.8,2.284 -87.181,20.987 -87.862,21.906c-1.818,2.456 3.534,37.27 0.454,51.137Z" style="fill:#fff;"/><path d="M404.997,428.176c0.035,0.356 0.097,1.056 0.122,1.645c0.291,6.838 -0.293,22.756 -0.293,29.023c0,14.221 -1.484,28.41 -3.832,42.497c-3.562,21.373 -9.108,42.511 -14.548,63.176c-4.729,17.966 -9.478,28.243 -11.98,33.086c-0.873,1.688 -1.482,2.749 -1.741,3.268c-1.974,3.949 0.873,6.27 1.425,6.666c0.856,0.617 3.62,1.55 8.063,1.876c9.436,0.694 29.347,0.519 51.102,-0.073c28.938,-0.787 61.159,-2.296 76.069,-3.383c3.889,-0.283 6.659,-0.549 7.981,-0.76c2.043,-0.325 3.072,-1.156 3.371,-1.426c0.869,-0.782 2.37,-2.552 1.403,-5.541c-0.198,-0.611 -0.812,-1.86 -1.848,-3.483c-3.338,-5.234 -12.016,-16.932 -14.806,-21.953c-4.946,-8.897 -9.217,-17.117 -12.369,-25.698c-3.074,-8.366 -5.071,-17.078 -5.578,-27.139c-0.498,-9.873 0.472,-19.645 2.214,-29.315c2.689,-14.92 7.209,-29.597 11.216,-44.021c3.236,-11.648 4.144,-51.43 3.27,-75.287c-0.301,-8.227 -0.837,-14.619 -1.492,-17.497c-1.138,-5.006 -4.988,-5.602 -6.337,-5.419c-10.214,1.389 -40.049,8.768 -62.318,14.639c-10.649,2.807 -19.565,5.266 -23.765,6.544c-3.372,1.027 -4.964,2.488 -5.123,2.702c-0.606,0.819 -1.481,3.747 -1.329,8.223c0.352,10.4 3.306,34.063 0.92,44.806c-0.214,0.964 -0.135,1.951 0.203,2.844Zm88.401,-69.118c0.14,1.095 0.279,2.353 0.371,3.597c1.488,20.009 1.129,68.454 -2.436,81.29c-4.089,14.718 -8.678,29.699 -11.422,44.924c-1.878,10.42 -2.897,20.952 -2.36,31.591c0.445,8.841 1.928,16.744 4.219,24.26c3.418,11.214 8.653,21.561 14.974,32.932c2.249,4.046 8.217,12.342 12.315,18.3l-1.788,0.131c-18.01,1.255 -57.436,3.004 -88.242,3.587c-13.782,0.261 -25.826,0.29 -33.405,-0.071l-0.954,-0.057c2.831,-5.874 7.161,-16.2 11.446,-32.48c5.517,-20.958 11.129,-42.4 14.742,-64.077c2.438,-14.632 3.968,-29.37 3.968,-44.141c0,-6.359 0.58,-22.511 0.284,-29.448c-0.045,-1.058 -0.181,-1.999 -0.365,-2.817c0.772,-4.094 0.991,-9.621 0.877,-15.589c-0.193,-10.119 -1.29,-21.589 -1.668,-28.844c-0.056,-1.076 -0.073,-2.215 -0.072,-3.158c0.837,-0.257 1.805,-0.546 2.754,-0.818c11.051,-3.165 35.256,-9.554 55.031,-14.292c8.586,-2.058 16.322,-3.805 21.731,-4.82Z"/><g id="Bowl"><path d="M210.217,599.579c0.081,-0.074 -3.465,45.278 -1.411,54.198c6.053,26.291 46.712,55.056 70.198,60.026c43.352,9.175 65.18,8.382 91.792,8.64c29.166,0.284 113.329,-3.335 129.789,-4.467c56.744,-3.9 107.612,2.644 147.276,-67.918c7.53,-13.397 12.835,-28.308 11.867,-43.994c-0.179,-2.904 -0.614,-11.993 -3.149,-13.924c-1.691,-1.286 -445.953,4.489 -446.362,7.439Z" style="fill:#fff;"/><path d="M208.553,594.831l-0.032,0.01l-0.05,0.021l-0.077,0.029l-0.076,0.033l-0.073,0.03l-0.044,0.021c-2.441,1.095 -2.852,3.303 -2.937,3.916c-0.025,0.184 -0.041,0.368 -0.042,0.552l-0.001,-0.001c-0,-0 -0.011,0.195 -0.022,0.358c-0.052,0.819 -0.172,2.53 -0.329,4.86c-0.849,12.659 -2.598,43.023 -0.937,50.239c3.209,13.937 15.298,28.687 29.951,40.502c14.617,11.785 31.665,20.666 44.085,23.294c18.658,3.949 33.38,6.071 46.21,7.23c17.291,1.562 31.132,1.368 46.569,1.518c11.421,0.111 31.241,-0.372 52.153,-1.073c32.649,-1.093 67.963,-2.714 78.027,-3.406c37.344,-2.567 72.151,-0.963 103.057,-18.585c17.364,-9.9 33.57,-25.782 48.234,-51.871c3.957,-7.04 7.319,-14.482 9.572,-22.221c2.301,-7.903 3.447,-16.114 2.928,-24.531c-0.13,-2.111 -0.416,-7.211 -1.387,-11.011c-0.788,-3.084 -2.229,-5.444 -3.725,-6.583c-0.161,-0.122 -2.508,-1.117 -6.981,-1.169c-6.094,-0.072 -18.825,-0.035 -36.261,0.092c-83.393,0.604 -274.687,3.231 -361.716,5.514c-19.357,0.508 -33.58,1.001 -40.357,1.449c-2.339,0.155 -3.908,0.327 -4.64,0.472c-0.402,0.08 -0.768,0.185 -1.099,0.311Zm444.789,2.178c0.422,2.488 1.298,7.782 1.396,9.363c0.447,7.248 -0.568,14.315 -2.548,21.12c-2.041,7.008 -5.104,13.741 -8.688,20.116c-17.669,31.433 -37.559,47.013 -59.354,54.949c-25.77,9.384 -54.016,8.376 -83.906,10.431c-10.018,0.689 -45.174,2.299 -77.676,3.388c-20.738,0.695 -40.394,1.178 -51.721,1.068c-15.171,-0.148 -28.773,0.057 -45.766,-1.478c-12.505,-1.13 -26.854,-3.206 -45.04,-7.054c-11.261,-2.383 -26.625,-10.61 -39.878,-21.296c-12.759,-10.287 -23.689,-22.826 -26.483,-34.961c-1.565,-6.798 0.369,-35.399 1.17,-47.325l0.088,-1.303l0.016,-0.001c6.71,-0.444 20.793,-0.928 39.959,-1.431c86.984,-2.282 278.177,-4.907 361.526,-5.511c17.345,-0.125 30.009,-0.164 36.071,-0.092l0.834,0.017Z"/><path d="M223.974,583.138c0.049,-0.044 -16.563,1.371 -18.646,1.746c-8.565,1.541 -13.317,8.279 -11.212,17.121c1.663,6.984 20.205,17.311 43.792,21.044c32.355,5.122 38.928,4.481 66.923,4.309c37.435,-0.23 70.687,-1.582 108.22,-2.426c26.447,-0.595 106.846,-6.699 160,-9.366c54.191,-2.719 94.634,-12.221 102.526,-18.437c8.863,-6.98 7.412,-20.973 -0.907,-27.326c-7.961,-6.079 -22.328,-1.483 -30.841,0c-23.979,4.178 -47.901,8.728 -71.987,12.223c-33.946,4.927 -131.917,9.171 -164.687,10.024c-26.866,0.699 -61.612,0.708 -88.441,-0.635c-24.872,-1.245 -94.226,-7.353 -94.74,-8.277Z" style="fill:#fff;"/><path d="M225.492,578.419c-0.553,-0.217 -1.226,-0.317 -2.043,-0.261c-0.295,0.02 -0.912,0.068 -1.752,0.137c-4.517,0.372 -15.559,1.363 -17.254,1.668c-5.828,1.048 -10.275,4 -12.957,8.082c-2.635,4.011 -3.642,9.206 -2.234,15.118c1.072,4.503 7.349,10.807 17.814,15.795c7.994,3.812 18.441,7.191 30.06,9.03c15.371,2.433 25.007,3.578 33.825,4.096c9.965,0.586 18.88,0.366 33.91,0.274c11.145,-0.068 21.919,-0.236 32.547,-0.46c25.096,-0.529 49.368,-1.374 75.756,-1.968c7.251,-0.163 18.536,-0.736 32.199,-1.541c36.232,-2.133 89.29,-5.89 127.939,-7.829c24.338,-1.222 45.93,-3.8 63.107,-6.837c22.466,-3.971 37.626,-9.014 42.262,-12.665c5.751,-4.53 8.244,-11.292 7.894,-17.996c-0.346,-6.634 -3.519,-13.154 -8.86,-17.232c-3.223,-2.462 -7.216,-3.685 -11.571,-4.001c-7.825,-0.568 -16.969,1.97 -23.163,3.049c-14.382,2.505 -28.743,5.145 -43.132,7.61c-9.555,1.638 -19.122,3.198 -28.715,4.59c-13.939,2.023 -38.743,3.923 -65.349,5.524c-37.952,2.285 -79.555,3.95 -98.75,4.449c-13.384,0.349 -28.73,0.525 -44.071,0.447c-15.323,-0.078 -30.641,-0.409 -43.99,-1.077c-19.244,-0.963 -65.208,-4.848 -85.048,-6.969c-3.937,-0.421 -6.808,-0.764 -8.168,-1.001c-0.116,-0.021 -0.286,-0.055 -0.286,-0.055c0,-0 0.698,0.51 1.408,1.056l-1.378,-1.033Zm-2.018,9.767l0.554,0.115c1.469,0.257 4.571,0.64 8.825,1.094c19.972,2.135 66.24,6.044 85.611,7.014c13.485,0.675 28.96,1.01 44.439,1.089c15.45,0.079 30.904,-0.099 44.382,-0.45c19.261,-0.501 61.008,-2.172 99.091,-4.464c26.946,-1.622 52.067,-3.56 66.184,-5.609c9.677,-1.405 19.329,-2.979 28.968,-4.63c14.398,-2.468 28.768,-5.109 43.159,-7.616c4.861,-0.846 11.697,-2.79 18.059,-2.975c3.32,-0.097 6.518,0.212 8.89,2.023c3.026,2.312 4.746,6.047 4.943,9.806c0.186,3.566 -1.036,7.209 -4.095,9.618c-4.129,3.252 -17.807,7.138 -37.816,10.675c-16.839,2.977 -38.007,5.499 -61.867,6.696c-38.676,1.941 -91.769,5.7 -128.026,7.835c-13.509,0.795 -24.666,1.365 -31.836,1.526c-26.383,0.593 -50.65,1.438 -75.742,1.967c-10.579,0.223 -21.304,0.39 -32.397,0.458c-14.743,0.091 -23.487,0.318 -33.262,-0.256c-8.563,-0.504 -17.921,-1.628 -32.848,-3.991c-8.576,-1.358 -16.454,-3.623 -23.008,-6.283c-5.926,-2.405 -10.742,-5.102 -13.894,-7.748c-1.433,-1.202 -2.56,-2.19 -2.808,-3.233c-0.678,-2.848 -0.406,-5.379 0.864,-7.311c1.296,-1.974 3.552,-3.224 6.37,-3.731c1.601,-0.288 12.036,-1.192 16.303,-1.543l0.957,-0.076Z"/></g><g id="Fountain-Head" serif:id="Fountain Head"><path d="M497.938,315.753c8.17,-9.801 18.913,-22.376 31.392,-30.464c7.827,-5.073 16.338,-8.381 25.341,-7.573c1.927,0.173 2.885,1.28 3.493,2.65c1.197,2.695 1.572,6.024 2.297,8.851c1.259,4.911 1.596,8.811 1.377,12.709c-0.235,4.172 -1.066,8.337 -2.036,13.576c-0.509,2.749 -1.092,12.059 -2.038,19.145c-0.367,2.747 -0.594,5.091 -1.146,6.021c-1.407,2.373 -0.621,5.443 1.753,6.85c2.374,1.407 5.443,0.622 6.85,-1.752c0.724,-1.221 1.497,-3.73 2.033,-6.951c1.174,-7.057 1.813,-18.426 2.381,-21.492c1.305,-7.05 2.317,-12.349 2.264,-18.036c-0.035,-3.818 -0.534,-7.806 -1.752,-12.554c-1.088,-4.243 -1.829,-9.313 -4.178,-12.895c-2.121,-3.235 -5.264,-5.62 -10.404,-6.082c-11.221,-1.008 -21.917,2.818 -31.674,9.141c-13.333,8.642 -24.905,21.981 -33.634,32.453c-1.767,2.12 -1.48,5.275 0.639,7.042c2.12,1.767 5.276,1.481 7.042,-0.639Z"/><path d="M475.43,226.05c1.253,-1.98 -7.894,-23.948 -11.969,-32.383c-9.285,-19.221 -17.17,-38.772 -25.285,-58.598c-3.186,-7.785 -20.519,-51.097 -11.237,-54.652c7.36,-2.819 24.415,40.502 24.415,40.502c0,-0 -10.752,-45.821 -2.923,-51.319c5.564,-3.906 21.934,37.519 21.934,37.519c0,0 -5.567,-34.227 -2.305,-42.542c1.064,-2.712 4.437,-7.251 8.075,-5.34c2.483,1.303 11.539,35.063 12.914,43.971c1.141,7.396 13.684,56.393 22.992,73.145c3.352,6.032 8.501,24.782 18.608,21.555c21.025,-6.715 -37.223,-149.492 -11.729,-162.789c10.265,-5.354 26.232,66.754 37.329,86.729c2.897,5.216 7.994,15.203 16.189,12.745c11.875,-3.562 -2.802,-49.364 -3.629,-69.075c-0.274,-6.542 -7.366,-46.321 -1.209,-50.241c20.759,-13.218 27.714,23.754 29.707,39.084c5.552,42.702 28.278,147.68 37.178,147.81c6.126,0.089 53.337,-17.409 64,-22.949c17.407,-9.045 65.59,-36.697 70.173,-31.59c9.065,10.102 -27.508,32.142 -25.146,35.15c1.015,1.293 31.975,-14.762 35.225,-8.618c5.399,10.21 -24.539,30.292 -23.927,31.32c0.561,0.943 37.931,-9.248 42.119,-4.356c8.074,9.43 -61.195,44.494 -72.567,49.595c-17.996,8.071 -58.07,26.328 -65.572,30.267c-18.75,9.843 -37.861,19.689 -57.57,30.233c-10.356,5.54 -39.067,19.795 -39.259,21.77c-1.274,13.101 -2.365,31.306 -4.956,44.2c-1.901,9.461 -2.876,24.96 -5.707,34.132c-3.817,12.363 -4.028,21.853 -4.911,34.552c-1.176,16.922 3.443,48.865 -2.762,50.711c-11.514,3.426 -19.322,-24.145 -21.064,-24.145c-0.522,-0 1.25,26.565 -7.856,26.706c-11.302,0.175 -11.86,-24.883 -14.992,-24.597c-2.06,0.188 -2.477,25.663 -12.037,24.225c-18.416,-2.771 -13.857,-48.048 -11.881,-59.607c3.081,-18.024 9.073,-64.837 7.332,-66.059c-7.121,-4.998 -48.72,44.065 -67.451,63.621c-27.998,29.23 -94.104,92.968 -103.56,84.268c-5.622,-5.172 5.769,-28.317 5.594,-28.788c-0.435,-1.175 -25.755,25.215 -34.494,18.3c-11.156,-8.827 12.692,-30.625 11.175,-30.625c-0.57,-0 -30.364,20.988 -36.423,13.493c-7.218,-8.931 27.944,-30.883 36.12,-35.694c8.425,-4.958 54.577,-49.114 63.685,-59.573c19.199,-22.046 29.134,-38.485 52.359,-71.036c12.922,-18.11 18.167,-29.91 30.74,-45.627c4.594,-5.742 29.894,-48.034 34.558,-55.4Z" style="fill:#fff;"/><path d="M471.442,224.888c-3.775,6.058 -14.7,24.201 -23.292,38.03c-4.796,7.719 -8.831,14.07 -10.401,16.033c-3.844,4.805 -7.017,9.25 -9.93,13.618c-6.655,9.977 -11.92,19.538 -20.943,32.184c-15.605,21.871 -25.199,36.458 -35.648,50.367c-5.03,6.696 -10.261,13.234 -16.471,20.366c-5.092,5.847 -21.862,22.303 -37.021,36.441c-11.539,10.763 -22.091,20.202 -25.677,22.311c-6.136,3.611 -26.905,16.629 -35.032,26.993c-4.44,5.662 -5.129,11.001 -2.169,14.663c1.373,1.699 3.341,2.736 5.852,3.023c2.698,0.307 6.259,-0.359 10.123,-1.757c2.848,-1.03 5.904,-2.447 8.878,-3.988c-0.467,0.832 -0.901,1.67 -1.289,2.507c-3.178,6.84 -3.273,13.551 2.312,17.97c2.045,1.619 4.612,2.263 7.571,1.94c3.544,-0.387 7.857,-2.331 12.164,-5.055c2.831,-1.79 5.682,-3.904 8.307,-5.983c-0.753,2.381 -1.401,4.814 -1.791,7.072c-0.943,5.452 -0.052,10.044 2.423,12.321c1.86,1.711 4.907,2.457 9.033,1.235c4.727,-1.399 11.698,-5.593 19.856,-11.676c24.633,-18.369 61.22,-54.118 80.267,-74.004c9.43,-9.845 24.656,-27.17 38.359,-41.306c8.362,-8.627 16.115,-16.06 21.548,-19.677c0.278,-0.185 0.576,-0.364 0.877,-0.529c-0.015,0.482 -0.039,0.978 -0.071,1.468c-0.883,13.678 -5.036,45.07 -7.425,59.041c-1.363,7.974 -3.846,31.422 0.223,47.074c2.442,9.395 7.379,16.015 15.005,17.162c4.643,0.699 8.318,-2.045 10.727,-6.985c1.095,-2.245 1.929,-4.996 2.597,-7.737c0.917,2.975 2.049,6.004 3.556,8.431c2.582,4.159 6.15,6.78 10.807,6.708c4.349,-0.068 7.694,-3.423 9.443,-8.859c0.685,-2.13 1.153,-4.593 1.471,-7.083c1.718,3.15 3.714,6.28 5.939,8.641c3.823,4.054 8.332,6.007 13.146,4.574c1.469,-0.437 2.806,-1.427 3.817,-3.141c1.151,-1.955 1.927,-5.402 2.201,-9.824c0.693,-11.187 -1.21,-29.749 -0.406,-41.303c0.527,-7.584 0.804,-14.007 1.784,-20.603c0.618,-4.159 1.52,-8.389 2.958,-13.046c0.937,-3.038 1.691,-6.733 2.333,-10.683c1.321,-8.128 2.178,-17.395 3.473,-23.841c1.073,-5.337 1.897,-11.565 2.581,-17.977c0.921,-8.645 1.589,-17.628 2.296,-25.143c0.488,-0.34 1.165,-0.799 1.775,-1.174c7.978,-4.888 27.418,-14.598 35.529,-18.937l57.542,-30.219c3.466,-1.819 13.935,-6.713 25.938,-12.238c13.879,-6.388 29.799,-13.609 39.412,-17.921c8.097,-3.631 45.176,-22.28 63.637,-36.343c5.938,-4.523 9.994,-8.799 11.288,-11.978c1.213,-2.978 0.776,-5.501 -0.957,-7.525c-0.883,-1.031 -2.382,-1.956 -4.558,-2.387c-2.639,-0.523 -6.79,-0.399 -11.522,0.171c-4.936,0.595 -10.576,1.638 -15.613,2.645c3.761,-3.361 7.728,-7.243 10.557,-11.041c4.207,-5.648 5.693,-11.363 3.442,-15.62c-1.38,-2.608 -5.486,-4.192 -11.288,-3.072c-3.48,0.672 -7.781,2.1 -11.993,3.668c3.69,-3.294 7.444,-6.876 10.191,-10.342c5.197,-6.56 6.531,-13.042 2.452,-17.587c-1.1,-1.227 -3.191,-2.216 -6.361,-1.875c-2.933,0.316 -7.489,1.794 -12.944,4.091c-16.978,7.149 -43.654,22.242 -55.689,28.495c-4.981,2.588 -18.064,7.811 -31.083,12.593c-12.797,4.701 -25.486,9.105 -29.959,9.808c-0.698,-1.182 -2.444,-4.266 -3.687,-7.489c-3.97,-10.292 -8.677,-27.485 -13.248,-46.724c-7.503,-31.577 -14.611,-68.636 -17.39,-90.015c-1.43,-10.996 -5.601,-32.322 -14.697,-40.869c-5.395,-5.068 -12.295,-6.696 -21.126,-1.073c-1.049,0.668 -2.018,1.747 -2.728,3.317c-0.942,2.083 -1.497,5.447 -1.605,9.567c-0.351,13.404 3.493,36.086 3.695,40.899c0.503,12.004 6.097,33.641 7.788,49.622c0.486,4.588 0.654,8.666 0.178,11.806c-0.269,1.781 -0.313,3.294 -1.49,3.647c-2.459,0.738 -4.357,-0.646 -5.96,-2.341c-2.453,-2.595 -4.253,-6.12 -5.584,-8.514c-8.816,-15.869 -20.713,-64.614 -30.378,-81.358c-1.897,-3.285 -3.855,-5.509 -5.595,-6.588c-2.32,-1.438 -4.569,-1.5 -6.702,-0.387c-3.564,1.859 -6.12,5.468 -7.476,10.721c-1.578,6.117 -1.574,14.77 -0.449,24.943c3.443,31.157 17.21,77.424 21.154,105.955c1.011,7.313 1.398,13.373 0.631,17.548c-0.305,1.659 -0.43,3.016 -1.498,3.357c-2.522,0.805 -4.24,-1.221 -5.863,-3.493c-3.684,-5.158 -6.133,-12.777 -8.032,-16.194c-3.406,-6.13 -7.229,-16.705 -10.769,-27.888c-5.958,-18.822 -11.063,-39.369 -11.766,-43.924c-0.98,-6.348 -5.779,-25.098 -9.444,-36.227c-1.326,-4.025 -2.562,-7.118 -3.415,-8.519c-0.748,-1.231 -1.586,-1.862 -2.148,-2.157c-2.868,-1.506 -5.66,-1.093 -8.101,0.431c-2.577,1.611 -4.672,4.732 -5.558,6.99c-1.097,2.795 -1.461,8.175 -1.218,14.367c0.053,1.363 0.131,2.768 0.228,4.193c-1.711,-3.357 -3.459,-6.514 -5.107,-9.032c-2.299,-3.514 -4.64,-5.873 -6.405,-6.701c-2.144,-1.007 -4.058,-0.771 -5.701,0.384c-1.306,0.916 -2.434,2.388 -3.198,4.447c-1.181,3.185 -1.546,8.257 -1.258,14.076c0.106,2.143 0.293,4.398 0.535,6.692c-1.576,-2.886 -3.174,-5.562 -4.715,-7.77c-2.484,-3.557 -5.015,-5.974 -7.055,-6.874c-1.774,-0.782 -3.436,-0.79 -4.934,-0.216c-2.081,0.797 -3.659,2.445 -4.525,5.016c-0.788,2.337 -0.944,5.737 -0.459,9.782c1.755,14.662 11.598,39.356 13.95,45.104c4.877,11.915 9.672,23.731 14.735,35.436c3.395,7.847 6.91,15.643 10.651,23.387c3.168,6.559 9.498,21.499 11.312,28.278c0.106,0.394 0.202,0.852 0.27,1.203Zm294.624,-73.788c0.076,0.404 0.006,0.842 -0.122,1.295c-0.375,1.337 -1.215,2.741 -2.286,4.206c-5.251,7.186 -15.745,15.025 -20.507,19.616c-2.444,2.357 -3.572,4.502 -3.713,5.637c-0.168,1.36 0.205,2.478 0.928,3.398c0.565,0.72 1.705,1.756 3.82,1.587c0.738,-0.059 2.269,-0.469 4.305,-1.238c5.043,-1.905 14.497,-6.104 21.714,-7.994c1.813,-0.475 4.131,-0.674 5.208,-0.745c0.022,0.588 -0.183,1.226 -0.437,1.897c-0.533,1.409 -1.446,2.879 -2.561,4.376c-5.095,6.839 -14.215,13.904 -18.185,17.269c-1.304,1.106 -2.171,1.962 -2.511,2.412c-1.595,2.114 -0.824,3.911 -0.347,4.712c0.332,0.559 1.434,2.13 4.036,2.011c0.74,-0.034 2.293,-0.281 4.402,-0.698c6.956,-1.373 21.066,-4.619 29.865,-5.013c1.113,-0.049 2.353,0.031 3.272,0.12c-0.226,0.364 -0.49,0.755 -0.751,1.068c-3.852,4.616 -12.368,10.543 -22.102,16.547c-18.441,11.375 -41.281,22.78 -47.369,25.51c-11.192,5.019 -30.915,13.975 -46.049,20.984c-9.299,4.306 -16.878,7.886 -19.745,9.391l-57.598,30.248c-8.205,4.39 -27.864,14.225 -35.934,19.17c-2.112,1.294 -3.55,2.388 -4.149,3.038c-0.958,1.039 -1.207,2.047 -1.27,2.702c-0.756,7.777 -1.448,17.355 -2.428,26.55c-0.656,6.152 -1.44,12.128 -2.469,17.249c-1.311,6.526 -2.189,15.906 -3.527,24.133c-0.577,3.552 -1.237,6.876 -2.08,9.607c-1.568,5.08 -2.553,9.694 -3.227,14.231c-1.01,6.795 -1.309,13.41 -1.852,21.223c-0.695,9.994 0.604,25.19 0.548,36.425c-0.016,3.356 -0.151,6.33 -0.537,8.636c-0.128,0.766 -0.431,1.711 -0.607,2.22c-1.627,0.121 -3.011,-1.09 -4.36,-2.521c-4.704,-4.988 -8.083,-13.911 -9.965,-17.736c-0.803,-1.631 -1.591,-2.667 -2.069,-3.085c-1.012,-0.887 -2.035,-1.095 -2.846,-1.095c-0.614,-0 -3.71,0.342 -4.054,3.894c-0.048,0.497 -0.069,1.559 -0.092,2.998c-0.056,3.601 -0.161,10.009 -1.41,15.051c-0.364,1.469 -0.811,2.809 -1.446,3.839c-0.268,0.437 -0.452,0.917 -0.916,0.925c-2.269,0.035 -3.491,-2.012 -4.615,-4.233c-2.528,-4.997 -3.683,-11.756 -4.873,-15.254c-1.377,-4.046 -4.169,-5.244 -5.805,-5.095c-0.946,0.087 -1.962,0.462 -2.854,1.453c-0.531,0.59 -1.281,2.049 -1.78,4.247c-0.788,3.469 -1.627,9.865 -3.523,14.656c-0.424,1.071 -0.896,2.05 -1.465,2.842c-0.414,0.576 -0.787,1.156 -1.457,1.055c-2.394,-0.36 -4.141,-1.885 -5.506,-4.008c-2.157,-3.354 -3.38,-8.051 -4.107,-13.206c-1.973,-14.013 -0.023,-31.311 1.08,-37.763c2.422,-14.168 6.627,-46.002 7.523,-59.873c0.213,-3.3 0.213,-5.705 0.043,-6.839c-0.295,-1.961 -1.316,-2.9 -1.879,-3.295c-1.649,-1.157 -4.205,-1.569 -7.473,-0.169c-3.216,1.378 -7.826,4.819 -13.148,9.631c-15.913,14.385 -39.256,41.343 -52.017,54.666c-13.943,14.556 -37.377,37.709 -58.498,56.132c-13.21,11.522 -25.472,21.196 -33.849,25.578c-1.938,1.014 -3.617,1.729 -5.011,2.023c-0.237,0.05 -0.559,0.076 -0.782,0.088c-0.141,-0.351 -0.072,-0.843 -0.087,-1.368c-0.051,-1.776 0.33,-3.902 0.882,-6.112c1.438,-5.751 4.109,-11.967 5.315,-14.854c1.086,-2.601 0.774,-4.441 0.704,-4.629c-0.47,-1.271 -2.51,-4.156 -6.178,-1.95c-0.596,0.359 -1.8,1.316 -3.406,2.685c-4.418,3.767 -12.737,11.162 -19.908,14.586c-1.464,0.7 -2.86,1.226 -4.142,1.438c-0.823,0.136 -1.574,0.233 -2.129,-0.207c-2.241,-1.773 -1.601,-4.472 -0.506,-7.205c2.272,-5.676 7.384,-11.576 10.194,-14.882c1.243,-1.462 2.116,-2.553 2.423,-3.072c1.194,-2.019 0.502,-3.583 0.152,-4.223c-0.617,-1.126 -1.655,-2.106 -3.57,-2.106c-0.164,-0 -1.87,0.393 -4.224,1.891c-3.579,2.278 -11.319,7.219 -18.562,10.44c-2.944,1.31 -5.785,2.345 -8.168,2.68c-1.015,0.143 -1.899,0.534 -2.358,-0.033c-0.246,-0.305 -0.05,-0.681 0.089,-1.098c0.229,-0.682 0.615,-1.394 1.102,-2.141c1.745,-2.674 4.675,-5.584 8.062,-8.497c9.07,-7.799 21.4,-15.415 25.785,-17.996c3.769,-2.218 14.946,-12.042 27.076,-23.356c15.4,-14.363 32.423,-31.097 37.597,-37.037c6.347,-7.289 11.693,-13.971 16.834,-20.815c10.483,-13.954 20.11,-28.585 35.764,-50.525c9.083,-12.729 14.388,-22.349 21.086,-32.392c2.794,-4.188 5.836,-8.452 9.522,-13.059c1.648,-2.061 5.916,-8.706 10.95,-16.809c9.106,-14.658 20.836,-34.169 23.864,-38.951c0.374,-0.59 0.764,-1.54 0.735,-2.899c-0.028,-1.331 -0.637,-3.95 -1.73,-7.225c-2.62,-7.842 -7.903,-20.24 -10.752,-26.138c-3.692,-7.643 -7.161,-15.339 -10.511,-23.083c-5.043,-11.657 -9.817,-23.424 -14.674,-35.29c-1.734,-4.238 -7.729,-19.159 -11.198,-32.256c-1.504,-5.675 -2.559,-10.978 -2.437,-14.779c0.013,-0.39 0.076,-0.834 0.152,-1.242c0.425,0.406 0.888,0.882 1.246,1.33c2.649,3.317 5.549,8.52 8.242,13.898c5.305,10.589 9.749,21.879 9.749,21.879c0.769,1.951 2.913,2.978 4.915,2.353c2.002,-0.626 3.181,-2.691 2.701,-4.732c0,-0 -3.834,-16.329 -5.203,-30.503c-0.503,-5.205 -0.691,-10.104 -0.148,-13.68l0.126,-0.96c6.776,8.486 16.622,33.728 16.622,33.728c0.751,1.9 2.813,2.928 4.783,2.386c1.969,-0.543 3.213,-2.482 2.885,-4.499c0,0 -2.155,-13.242 -2.973,-25.148c-0.444,-6.464 -0.65,-12.503 0.443,-15.291c0.221,-0.562 0.597,-1.237 1.075,-1.868c0.277,-0.365 0.588,-0.718 0.935,-1.008l0.028,-0.029c0.298,0.669 0.671,1.545 0.98,2.388c1.834,5.003 4.204,13.126 6.23,20.789c1.93,7.3 3.551,14.179 4.065,17.508c0.722,4.678 5.927,25.789 12.045,45.118c3.729,11.782 7.815,22.901 11.403,29.36c2.379,4.28 5.757,14.588 10.886,19.815c3.459,3.525 7.598,5.152 12.436,3.607c2.584,-0.825 4.603,-2.726 5.875,-5.814c1.264,-3.067 1.771,-7.638 1.508,-13.372c-1.252,-27.297 -19.379,-84.458 -22.48,-119.445c-0.594,-6.702 -0.635,-12.539 0.2,-17.095c0.558,-3.04 1.362,-5.457 2.99,-6.788c0.532,0.577 1.433,1.617 2.04,2.606c2.477,4.037 5.087,10.386 7.786,17.813c7.882,21.692 16.317,52.196 22.967,64.168c1.943,3.497 4.867,8.851 8.802,12.019c3.352,2.699 7.352,4.018 12.033,2.614c4.764,-1.429 7.599,-7.389 7.463,-16.471c-0.241,-15.938 -7.663,-42.725 -8.244,-56.602c-0.156,-3.708 -2.486,-18.051 -3.38,-30.547c-0.369,-5.159 -0.499,-9.983 -0.057,-13.482c0.137,-1.09 0.567,-2.469 0.697,-2.867c2.928,-1.799 5.422,-2.371 7.621,-1.729c2.623,0.767 4.655,3.037 6.436,5.891c5.648,9.056 8.142,23.985 9.217,32.26c3.765,28.952 15.384,86.392 25.293,120.74c3.788,13.13 7.444,22.983 10.26,26.991c1.875,2.667 3.999,3.54 5.534,3.562c2.891,0.042 14.533,-3.465 27.447,-8.064c15.29,-5.445 32.498,-12.24 38.455,-15.335c8.964,-4.657 26.099,-14.257 41.222,-21.762c8.804,-4.369 16.892,-8.035 22.154,-9.467c0.798,-0.217 1.73,-0.362 2.361,-0.442Z"/><path d="M563.087,179.908c0.079,0.313 0.237,0.97 0.237,1.127l0.102,4.438c-0.182,2.298 -0.281,4.602 -0.525,6.89c-0.153,1.438 -0.365,2.869 -0.703,4.288c-0.13,0.547 -0.516,1.768 -0.604,2.044c-0.228,0.029 -0.408,-0.227 -0.61,-0.37c-0.325,-0.229 -0.627,-0.496 -0.906,-0.747c-1.113,-1.001 -2.167,-2.504 -3.061,-4.102c-0.927,-1.658 -1.674,-3.425 -2.088,-4.913c-0.275,-0.991 -0.397,-2.702 -0.88,-3.841c-0.278,-0.656 -0.654,-1.194 -1.094,-1.591c-0.974,-0.877 -2.477,-0.799 -3.355,0.175c-0.838,0.931 -0.803,2.344 0.053,3.232c0.044,0.234 0.471,2.476 0.699,3.296c0.502,1.804 1.396,3.951 2.52,5.961c1.164,2.081 2.579,4.009 4.029,5.314c0.942,0.848 2.096,1.726 3.315,2.095c1.164,0.353 2.393,0.331 3.659,-0.32c0.758,-0.39 1.36,-0.991 1.811,-1.744c0.608,-1.015 0.894,-2.387 1.133,-3.389c0.385,-1.616 0.63,-3.246 0.805,-4.884c0.249,-2.331 0.351,-4.678 0.537,-7.018l-0.087,-4.814c-0,-0.427 -0.294,-2.05 -0.482,-2.673c-0.438,-1.446 -1.631,-1.769 -1.86,-1.818c-0.863,-0.183 -2.268,-0.19 -2.794,1.704c-0.16,0.575 -0.093,1.161 0.149,1.66Zm2.087,1.347c0.835,0.078 1.901,-0.153 2.341,-1.736c-0.297,1.068 -1.28,1.763 -2.341,1.736Z"/><path d="M593.138,175.413c0.177,0.71 0.905,3.611 1.13,4.258c0.81,2.332 2.233,6.254 2.017,9.443c-0.098,1.446 -0.595,2.728 -2.188,3.158c-1.757,0.474 -3.262,-0.965 -4.572,-2.546c-1.675,-2.02 -2.918,-4.597 -3.396,-6.317l-1.253,-4.56c-0.112,-0.367 -0.548,-1.822 -0.978,-2.264c-0.544,-0.558 -1.183,-0.783 -1.834,-0.783c-1.31,0 -2.375,1.065 -2.375,2.375c0,0.549 0.187,1.054 0.501,1.455c0.05,0.225 0.116,0.517 0.14,0.595l1.222,4.454c0.728,2.619 2.826,6.794 5.611,9.478c2.381,2.295 5.247,3.488 8.173,2.698c3.001,-0.81 4.592,-2.729 5.303,-5.168c1.198,-4.114 -0.717,-10.215 -1.884,-13.576c-0.275,-0.792 -0.68,-3.444 -1.349,-4.848c-0.669,-1.405 -1.73,-2.055 -2.632,-2.171c-1.301,-0.168 -2.492,0.752 -2.659,2.052c-0.118,0.918 0.305,1.781 1.023,2.267Z"/><path d="M600.281,221.534c0.176,0.415 0.626,1.516 0.938,2.583c1.191,4.074 2.42,10.817 2.104,16.014c-0.105,1.723 -0.362,3.258 -0.931,4.383c-0.263,0.519 -0.569,0.947 -1.08,1.063c-1.242,0.284 -2.779,-0.815 -4.515,-2.123c-4.213,-3.172 -8.735,-8.606 -10.699,-11.612l-0.166,-0.267c-0.06,-0.547 -0.15,-0.971 -0.251,-1.245c-0.514,-1.401 -1.541,-1.77 -2.272,-1.829c-1.358,-0.111 -3.793,1.165 -2.234,4.323l0.108,0.209c0.045,3.188 -0.849,9.627 -3.209,13.976c-0.985,1.816 -2.156,3.323 -3.863,3.536c-3.579,0.447 -6.913,-2.484 -9.821,-6.089c-3.684,-4.568 -6.531,-10.486 -7.713,-14.384c-0.284,-0.935 -0.464,-2.136 -0.514,-2.496c0.427,-0.893 0.261,-1.994 -0.486,-2.722c-0.94,-0.914 -2.445,-0.893 -3.359,0.046c-0.57,0.586 -1.141,2.023 -0.772,4.164c0.691,4.005 4.229,12.276 9.146,18.374c4.06,5.033 9.112,8.444 14.108,7.82c4.543,-0.567 7.849,-5.492 9.544,-11.184c0.511,-1.716 0.895,-3.479 1.166,-5.136c0.551,0.664 1.136,1.343 1.747,2.021c2.739,3.041 5.988,6.069 8.881,7.771c2.315,1.363 4.509,1.871 6.231,1.478c1.869,-0.427 3.299,-1.65 4.26,-3.548c1.154,-2.277 1.592,-5.733 1.472,-9.501c-0.204,-6.412 -1.91,-13.763 -3.178,-16.903c-0.542,-1.341 -1.193,-2.136 -1.593,-2.434c-0.622,-0.461 -1.241,-0.565 -1.778,-0.521c-1.306,0.107 -2.28,1.254 -2.173,2.561c0.056,0.685 0.399,1.279 0.902,1.672Z"/><path d="M583.762,214.982c-0.881,-0.852 -6.314,-4.401 -6.986,-4.286c-2.122,0.366 -2.985,5.79 -3.449,11.518c-0.299,3.699 -0.532,9.815 5.307,9.819c2.321,0.001 3.002,-3.563 3.89,-4.836c0.116,-0.166 2.922,5.291 6.734,1.681c2.348,-2.224 -2.285,-10.789 -5.496,-13.896Z"/><path d="M583.144,231.224c0.985,0.722 2.194,1.28 3.532,1.266c1.267,-0.014 2.713,-0.465 4.215,-1.888c1.356,-1.283 1.757,-3.891 0.783,-6.956c-1.17,-3.687 -4.032,-8.214 -6.261,-10.37c-0.691,-0.67 -3.925,-2.881 -5.982,-4.019c-1.448,-0.8 -2.687,-0.965 -3.058,-0.901c-1.294,0.223 -2.569,1.195 -3.428,3.086c-1.04,2.289 -1.643,6.353 -1.985,10.58c-0.219,2.705 -0.254,6.476 1.249,8.994c1.167,1.957 3.107,3.39 6.424,3.392c1.415,0.001 2.555,-0.601 3.466,-1.593c0.407,-0.444 0.746,-1.008 1.045,-1.591Zm-5.756,-17.668c1.693,0.951 4.179,2.607 4.722,3.133c1.302,1.259 2.845,3.531 3.972,5.813c0.656,1.33 1.176,2.661 1.371,3.795c0.057,0.328 0.046,0.809 0.04,0.979c-0.345,0.311 -0.63,0.492 -0.926,0.461c-0.944,-0.098 -1.514,-1.172 -1.826,-1.59c-0.238,-0.32 -0.423,-0.538 -0.514,-0.628c-1.713,-1.678 -3.15,-0.399 -3.651,0.32c-0.369,0.529 -0.734,1.373 -1.134,2.27c-0.23,0.513 -0.787,1.357 -0.913,1.545c-1.468,-0.033 -2.22,-0.772 -2.562,-1.788c-0.576,-1.713 -0.402,-3.855 -0.272,-5.461c0.261,-3.224 1.272,-7.269 1.693,-8.849Z"/></g></g></svg>