<?xml version="1.0" encoding="UTF-8" standalone="no"?>
<!DOCTYPE svg PUBLIC "-//W3C//DTD SVG 1.1//EN" "http://www.w3.org/Graphics/SVG/1.1/DTD/svg11.dtd">
<svg width="100%" height="100%" viewBox="0 0 796 1192" version="1.1" xmlns="http://www.w3.org/2000/svg" xmlns:xlink="http://www.w3.org/1999/xlink" xml:space="preserve" xmlns:serif="http://www.serif.com/" style="fill-rule:evenodd;clip-rule:evenodd;stroke-linejoin:round;stroke-miterlimit:2;">
    <g transform="matrix(1,0,0,1,-664.192,-1918.25)">
        <g id="Fountain">
            <g id="Base">
                <path d="M997.714,2659.11C997.714,2658.07 977.442,2719.18 969.619,2737.6C966.09,2745.91 951.331,2776.77 946.085,2790.51C937.49,2813.01 923.504,2849.26 916.227,2872.19C912.791,2883.01 897.926,2915.44 898.766,2916.95C900.318,2919.75 1227.45,2913.03 1226.8,2910.94C1222.67,2897.54 1209.93,2862.77 1206.9,2849.13C1204.7,2839.24 1186,2775.11 1179.58,2755.31C1175,2741.15 1167.83,2716.17 1163.33,2703.2C1162.33,2700.3 1154.83,2662.62 1152.73,2660.72C1151.1,2659.26 998.947,2660.22 997.714,2659.11Z" style="fill:white;"/>
                <path d="M1001.34,2658.83C1000.49,2657.56 995.664,2653.76 993.882,2658.55C993.439,2659.74 992.558,2662.26 991.365,2665.71C985.546,2682.57 972.176,2721.99 966.168,2736.13C963.706,2741.93 955.771,2758.71 949.426,2772.98C946.653,2779.22 944.181,2784.98 942.582,2789.17C937.487,2802.51 930.5,2820.68 924.136,2838.04C919.736,2850.04 915.634,2861.66 912.653,2871.05C909.954,2879.56 900.163,2901.44 896.566,2911.04C895.707,2913.33 895.186,2915.05 895.052,2915.9C894.827,2917.35 895.222,2918.3 895.487,2918.77C895.747,2919.24 896.391,2920.27 898.087,2920.7C898.567,2920.82 899.594,2920.96 901.132,2921.05C905.108,2921.28 913.451,2921.38 924.978,2921.37C975.766,2921.35 1088.9,2919.25 1161.36,2917.32C1188.7,2916.58 1210.26,2915.88 1220.51,2915.31C1223.61,2915.14 1225.73,2914.97 1226.72,2914.83C1227.67,2914.69 1228.25,2914.45 1228.49,2914.32C1230.93,2913.05 1230.77,2911.07 1230.39,2909.84C1227.6,2900.82 1220.92,2882.11 1215.92,2866.67C1213.54,2859.3 1211.53,2852.7 1210.56,2848.31C1209.56,2843.81 1205.15,2828.11 1200.03,2810.42C1193.87,2789.15 1186.67,2765.01 1183.15,2754.15L1166.88,2701.97C1166.15,2699.89 1162.09,2679.77 1159.09,2668.09C1158.12,2664.3 1157.23,2661.34 1156.59,2659.93C1156.13,2658.89 1155.59,2658.26 1155.23,2657.94C1155.01,2657.73 1153.8,2656.93 1151.46,2656.77C1149.08,2656.6 1144.09,2656.47 1137.3,2656.37C1107.07,2655.93 1040.64,2656.11 1011.69,2655.79C1005.73,2655.73 1001.38,2655.64 999.305,2655.53C998.938,2655.51 998.5,2655.47 998.5,2655.47C998.5,2655.47 1000.05,2656.17 1000.22,2656.33L1001.34,2658.83ZM1000.22,2663.08C1002.88,2663.18 1007.37,2663.25 1013.17,2663.31C1043.39,2663.61 1109.8,2663.43 1138.74,2663.89C1144.08,2663.97 1148.12,2664.08 1150.38,2664.21L1159.79,2704.43L1176.02,2756.47C1179.01,2765.7 1184.68,2784.61 1190.1,2803.14C1196.25,2824.17 1202.07,2844.7 1203.24,2849.94C1204.25,2854.49 1206.31,2861.34 1208.79,2868.98C1213.07,2882.22 1218.6,2897.87 1221.83,2907.72C1216.47,2908.05 1206.75,2908.44 1193.94,2908.86C1130.02,2910.95 989.481,2913.74 928.25,2913.87C917.02,2913.89 908.477,2913.83 903.598,2913.65C907.236,2903.95 917.08,2881.89 919.801,2873.32C922.755,2864.02 926.82,2852.51 931.177,2840.62C937.53,2823.29 944.504,2805.16 949.589,2791.84C951.151,2787.75 953.569,2782.12 956.279,2776.03C962.643,2761.72 970.601,2744.88 973.071,2739.07C979.121,2724.83 992.595,2685.14 998.455,2668.16C999.168,2666.09 999.767,2664.37 1000.22,2663.08Z"/>
                <path d="M681.09,2873.57C681.09,2880.47 677.202,2892.28 678.595,2904.55C679.881,2915.87 685.589,2931.75 687.868,2934.21C695.487,2942.44 835.139,2949.78 866.514,2950.79C903.894,2951.98 1010.4,2946.52 1034.05,2947.25C1114.91,2949.76 1143.98,2949.53 1224.49,2941.76C1269.67,2937.4 1325.21,2934.59 1370.02,2926.91C1383.9,2924.53 1411.38,2922.06 1413.06,2903.94C1413.8,2895.9 1395.89,2871.68 1390.84,2867.88C1390.06,2867.3 1369.95,2871.08 1369.09,2871.19C1364.53,2871.78 1308.7,2875.71 1288.08,2877.99C1261.35,2880.95 1183.82,2884.94 1145.07,2885.86C1125.45,2886.33 985.614,2892.92 958.633,2893.73C917.234,2894.97 818.358,2890.87 809.292,2890.58C757.857,2888.93 731.081,2884.82 681.09,2873.57Z" style="fill:white;"/>
                <path d="M681.913,2869.91C680.802,2869.66 679.637,2869.93 678.747,2870.64C677.858,2871.36 677.34,2872.43 677.34,2873.57C677.34,2878.64 675.203,2886.37 674.672,2894.98C674.472,2898.22 674.484,2901.58 674.869,2904.97C675.542,2910.89 677.365,2918.02 679.326,2923.96C681.427,2930.33 683.839,2935.38 685.117,2936.76C686.04,2937.76 688.255,2938.99 691.766,2939.97C700.381,2942.36 718.677,2944.66 740.504,2946.67C785.979,2950.86 846.948,2953.91 866.394,2954.53C874.752,2954.8 886.547,2954.74 900.098,2954.49C947.163,2953.61 1015.57,2950.43 1033.93,2951C1074.44,2952.25 1101.99,2952.82 1129.48,2952.11C1157,2951.39 1184.47,2949.39 1224.85,2945.49C1256.23,2942.47 1292.61,2940.18 1326.92,2936.5C1342.1,2934.87 1356.88,2932.97 1370.66,2930.6C1379.06,2929.16 1392.27,2927.62 1402.13,2922.88C1410.12,2919.04 1415.97,2913.17 1416.79,2904.28C1417.14,2900.49 1414.2,2893.39 1409.81,2886.24C1404.06,2876.88 1396.21,2867.22 1393.09,2864.88C1392.76,2864.64 1390.98,2863.91 1388.22,2864.23C1382.81,2864.85 1369.32,2867.38 1368.61,2867.47C1365.37,2867.89 1336.04,2870.01 1312.05,2872.01C1302.39,2872.82 1293.59,2873.61 1287.67,2874.27C1275.95,2875.56 1254.44,2877.06 1230.72,2878.4C1200.47,2880.12 1166.65,2881.6 1144.98,2882.11L958.521,2889.98C943.76,2890.43 921.668,2890.19 898.965,2889.68C858.086,2888.78 815.233,2887.02 809.412,2886.83C783.878,2886.01 764.457,2884.59 745.222,2881.97C725.924,2879.34 706.813,2875.52 681.913,2869.91ZM1389.48,2871.64C1392.66,2874.63 1398.75,2882.56 1403.41,2890.16C1406.74,2895.59 1409.59,2900.72 1409.33,2903.59C1408.76,2909.71 1404.38,2913.47 1398.88,2916.12C1389.65,2920.56 1377.25,2921.86 1369.39,2923.21C1355.76,2925.55 1341.14,2927.43 1326.12,2929.04C1291.84,2932.72 1255.49,2935.01 1224.12,2938.03C1183.98,2941.9 1156.65,2943.9 1129.28,2944.61C1101.91,2945.32 1074.49,2944.75 1034.16,2943.5C1015.75,2942.93 947.154,2946.11 899.958,2946.99C886.559,2947.24 874.897,2947.3 866.633,2947.04C847.256,2946.42 786.505,2943.38 741.192,2939.2C723.56,2937.58 708.281,2935.78 698.756,2933.89C695.907,2933.33 693.604,2932.76 691.956,2932.18C691.404,2931.98 690.7,2931.64 690.522,2931.55C689.325,2930.09 687.364,2924.79 685.538,2918.72C684.095,2913.93 682.835,2908.65 682.322,2904.12C681.987,2901.18 681.984,2898.26 682.158,2895.44C682.558,2888.95 683.828,2882.95 684.466,2878.17L684.466,2878.17C707.593,2883.32 725.819,2886.9 744.211,2889.4C763.677,2892.05 783.33,2893.5 809.171,2894.33C814.997,2894.51 857.886,2896.28 898.799,2897.18C921.651,2897.69 943.888,2897.93 958.746,2897.48L1145.15,2889.61C1166.89,2889.1 1200.81,2887.62 1231.15,2885.89C1255.03,2884.53 1276.69,2883.03 1288.49,2881.72C1294.36,2881.07 1303.09,2880.29 1312.68,2879.49C1336.81,2877.47 1366.3,2875.33 1369.57,2874.91C1370.27,2874.82 1383.69,2872.3 1389.08,2871.68L1389.48,2871.64Z"/>
                <path d="M691.471,2924.14C683.536,2936.04 680.134,2952.97 677.462,2966.71C671.732,2996.17 671.692,3027.65 671.692,3057.62C671.692,3068.56 672.883,3099.44 674.161,3100.21C678.34,3102.72 787.586,3098.28 803.95,3098.8C818.825,3099.28 933.979,3106.21 1006.15,3100.48C1018.73,3099.48 1195.24,3089.66 1220.63,3087.76C1269.04,3084.12 1313.03,3079.51 1361.13,3073.02C1373.84,3071.3 1409.74,3064.68 1412.2,3061.97C1416.19,3057.59 1415.54,3009.2 1415.38,3003.35C1414.45,2969.5 1417.28,2915.69 1404.11,2911.9C1385.3,2906.48 692.201,2923.48 691.471,2924.14Z" style="fill:white;"/>
                <path d="M688.962,2921.36C688.73,2921.56 688.525,2921.8 688.351,2922.06C684.979,2927.12 682.367,2933.03 680.284,2939.24C677.305,2948.12 675.405,2957.64 673.781,2965.99C671.454,2977.96 670.051,2990.25 669.208,3002.64C667.959,3021.01 667.942,3039.59 667.942,3057.62C667.942,3066.3 668.687,3087.4 669.631,3096.43C669.863,3098.66 670.151,3100.27 670.398,3101.02C670.881,3102.47 671.744,3103.13 672.231,3103.42C672.739,3103.73 674.139,3104.2 676.395,3104.39C680.551,3104.74 689.178,3104.79 700.119,3104.67C734.554,3104.28 792.296,3102.18 803.829,3102.55C813.773,3102.87 868.486,3106.07 925.251,3106.45C953.565,3106.64 982.387,3106.13 1006.45,3104.22L1220.91,3091.5C1245.15,3089.68 1268.29,3087.61 1291.38,3085.19C1314.48,3082.77 1337.54,3079.99 1361.63,3076.73C1369.4,3075.68 1385.78,3072.82 1398.02,3070.11C1404.46,3068.69 1409.8,3067.28 1412.31,3066.21C1413.68,3065.63 1414.55,3064.97 1414.98,3064.5C1415.71,3063.69 1416.56,3062 1417.1,3059.48C1417.82,3056.15 1418.33,3050.88 1418.66,3044.83C1419.54,3028.76 1419.23,3007.06 1419.12,3003.25C1418.49,2979.81 1419.6,2946.87 1416.07,2927.33C1415.01,2921.43 1413.48,2916.66 1411.5,2913.5C1409.75,2910.71 1407.58,2908.99 1405.15,2908.29C1398.44,2906.36 1306.33,2907.12 1190.26,2909.12C1033.58,2911.82 833.02,2916.54 741.249,2918.93C719.48,2919.5 703.829,2919.93 696.332,2920.18C694.047,2920.26 692.507,2920.32 691.767,2920.36C689.864,2920.46 689.028,2921.3 688.962,2921.36ZM1409.37,3059.28C1408.87,3059.49 1408.04,3059.81 1407.27,3060.05C1403.62,3061.19 1397.77,3062.54 1391.32,3063.87C1380.16,3066.18 1367.23,3068.41 1360.63,3069.3C1336.61,3072.54 1313.63,3075.32 1290.6,3077.73C1267.58,3080.15 1244.51,3082.2 1220.35,3084.02L1005.86,3096.74C981.985,3098.64 953.391,3099.14 925.302,3098.95C868.626,3098.57 813.998,3095.37 804.07,3095.05C792.501,3094.68 734.578,3096.78 700.035,3097.17C691.263,3097.27 684.015,3097.26 679.462,3097.06C678.699,3097.03 677.913,3096.97 677.246,3096.91C677.189,3096.51 677.134,3096.08 677.09,3095.65C676.165,3086.8 675.442,3066.12 675.442,3057.62C675.442,3039.75 675.453,3021.35 676.691,3003.15C677.512,2991.07 678.874,2979.09 681.143,2967.42C682.709,2959.37 684.522,2950.19 687.395,2941.62C689.05,2936.69 691.055,2931.95 693.597,2927.78C694.367,2927.75 695.364,2927.72 696.579,2927.68C704.068,2927.43 719.7,2926.99 741.444,2926.43C833.201,2924.04 1033.73,2919.32 1190.38,2916.62C1305.27,2914.64 1396.43,2913.59 1403.08,2915.5C1404.48,2915.9 1405.3,2917.47 1406.18,2919.49C1408.04,2923.8 1409.16,2930.19 1409.91,2937.71C1411.84,2957.1 1411.09,2983.69 1411.63,3003.45C1411.72,3006.76 1411.97,3023.76 1411.43,3038.6C1411.17,3045.87 1410.73,3052.62 1409.97,3056.87C1409.81,3057.75 1409.53,3058.74 1409.37,3059.28Z"/>
                <path d="M983.351,2616.43C983.351,2616.29 978.113,2628.87 977.506,2633.24C975.717,2646.11 972.494,2664.25 988.769,2669.89C1000.62,2673.99 1025.82,2677.11 1038.15,2678.71C1064.64,2682.14 1074.65,2684.38 1117.8,2683.79C1127.58,2683.65 1161.45,2682.74 1170.51,2677.26C1177.89,2672.79 1175.63,2644.97 1175.07,2633.99C1174.9,2630.58 1175.79,2624.45 1173.06,2621.76C1168.33,2617.12 988.003,2614.34 983.351,2616.43Z" style="fill:white;"/>
                <path d="M982.081,2613.19C981.224,2613.25 980.426,2613.77 979.85,2615.06C979.732,2615.33 979.496,2615.88 979.182,2616.65C977.649,2620.38 974.288,2629.15 973.791,2632.72C972.641,2641 971.092,2651.32 973.726,2659.53C975.687,2665.64 979.751,2670.73 987.542,2673.43C992.559,2675.16 999.895,2676.75 1007.68,2678.1C1018.58,2680 1030.37,2681.48 1037.67,2682.43C1053.34,2684.46 1063.28,2686.07 1077.63,2686.93C1087.7,2687.54 1099.94,2687.78 1117.85,2687.54C1124.47,2687.45 1142,2686.99 1155.63,2685.05C1162.93,2684.01 1169.17,2682.45 1172.45,2680.46C1175.79,2678.45 1178.14,2672.87 1179,2665.59C1180.23,2655.11 1179.18,2640.95 1178.82,2633.8C1178.69,2631.3 1179.04,2627.45 1178.38,2624.34C1177.92,2622.24 1177.04,2620.42 1175.69,2619.09C1175.07,2618.48 1172.47,2617.37 1168,2616.81C1158.83,2615.66 1139.41,2614.66 1116.45,2613.88C1074.68,2612.45 1021.12,2611.73 996.572,2612.05C987.988,2612.17 982.607,2612.66 981.813,2613.01L982.081,2613.19ZM1170.76,2624.89C1171.04,2625.43 1171.11,2626.13 1171.19,2626.84C1171.51,2629.39 1171.23,2632.24 1171.33,2634.18C1171.63,2640.13 1172.45,2651.1 1171.91,2660.5C1171.7,2664.15 1171.29,2667.55 1170.52,2670.26C1170.02,2671.99 1169.57,2673.44 1168.57,2674.05C1165.08,2676.16 1157.57,2677.38 1149.39,2678.28C1137.13,2679.62 1123.39,2679.96 1117.75,2680.04C1100.08,2680.28 1088.01,2680.05 1078.08,2679.45C1063.91,2678.59 1054.11,2676.99 1038.64,2674.99C1031.41,2674.05 1019.75,2672.59 1008.97,2670.71C1001.64,2669.44 994.72,2667.98 989.995,2666.34C984.869,2664.57 982.157,2661.25 980.867,2657.24C978.56,2650.05 980.212,2641.01 981.22,2633.76C981.652,2630.64 984.628,2623.14 986.032,2619.71C987.602,2619.63 990.629,2619.65 994.785,2619.58C1014.94,2619.25 1058.32,2619.73 1097.22,2620.79C1126.25,2621.59 1152.78,2622.7 1165.24,2624.04C1167.5,2624.28 1169.83,2624.71 1170.76,2624.89Z"/>
            </g>
            <path d="M1067.31,2336.69C1068.39,2337.66 1067.46,2361.14 1067.46,2369.12C1067.46,2405.35 1058.05,2441.37 1048.91,2476.06C1041.69,2503.49 1034.38,2513.53 1034.7,2513.75C1040.32,2517.79 1173.3,2511.88 1175.02,2510.33C1175.77,2509.66 1162.37,2492.01 1158.75,2485.5C1148.58,2467.21 1141.25,2451.69 1140.18,2430.48C1138.88,2404.84 1147.04,2379.84 1153.78,2355.56C1158.42,2338.87 1157.94,2263.21 1154.71,2263.65C1137.91,2265.93 1067.53,2284.63 1066.85,2285.55C1065.04,2288.01 1070.39,2322.82 1067.31,2336.69Z" style="fill:white;"/>
            <path d="M1063.85,2338.14C1063.89,2338.48 1063.97,2339.34 1064,2340.04C1064.29,2346.89 1063.71,2362.84 1063.71,2369.12C1063.71,2383.41 1062.22,2397.66 1059.86,2411.82C1056.29,2433.23 1050.74,2454.41 1045.29,2475.11C1040.52,2493.22 1035.73,2503.57 1033.21,2508.45C1032.34,2510.13 1031.73,2511.19 1031.47,2511.7C1029.97,2514.72 1032.09,2516.49 1032.51,2516.8C1033.3,2517.36 1035.86,2518.14 1039.94,2518.44C1049.35,2519.13 1069.21,2518.95 1090.91,2518.36C1119.83,2517.58 1152.03,2516.07 1166.93,2514.99C1170.76,2514.7 1173.5,2514.45 1174.8,2514.24C1176.45,2513.97 1177.29,2513.33 1177.53,2513.12C1178.19,2512.52 1179.32,2511.17 1178.58,2508.89C1178.4,2508.33 1177.82,2507.19 1176.87,2505.69C1173.52,2500.45 1164.82,2488.71 1162.02,2483.68C1157.05,2474.72 1152.75,2466.44 1149.58,2457.8C1146.46,2449.32 1144.44,2440.49 1143.92,2430.29C1143.42,2420.33 1144.39,2410.46 1146.15,2400.69C1148.85,2385.74 1153.38,2371.02 1157.4,2356.56C1160.62,2344.97 1161.49,2305.39 1160.62,2281.65C1160.33,2273.54 1159.81,2267.23 1159.16,2264.39C1158.25,2260.39 1155.29,2259.78 1154.21,2259.93C1145.32,2261.14 1121.52,2266.9 1100.83,2272.25C1087.22,2275.76 1074.96,2279.09 1069.21,2280.8C1065.75,2281.83 1063.98,2283.13 1063.84,2283.32C1063.29,2284.06 1062.62,2286.72 1062.76,2290.76C1063.11,2301.23 1066.05,2325.06 1063.65,2335.88C1063.47,2336.65 1063.55,2337.44 1063.85,2338.14ZM1152.09,2267.87C1152.28,2269.23 1152.52,2271.05 1152.65,2272.84C1154.14,2292.95 1153.75,2341.65 1150.17,2354.55C1146.09,2369.23 1141.51,2384.18 1138.77,2399.36C1136.91,2409.69 1135.9,2420.13 1136.43,2430.67C1136.87,2439.4 1138.34,2447.21 1140.6,2454.63C1143.99,2465.76 1149.19,2476.03 1155.47,2487.32C1157.94,2491.77 1164.92,2501.36 1168.95,2507.31C1168.16,2507.37 1167.31,2507.44 1166.38,2507.5C1151.55,2508.59 1119.5,2510.08 1090.71,2510.87C1069.33,2511.45 1049.76,2511.64 1040.49,2510.96L1040.35,2510.95C1040.77,2510.13 1041.22,2509.2 1041.72,2508.14C1044.51,2502.16 1048.54,2492.2 1052.54,2477.02C1058.05,2456.1 1063.65,2434.69 1067.26,2413.05C1069.68,2398.49 1071.21,2383.82 1071.21,2369.12C1071.21,2362.77 1071.79,2346.65 1071.49,2339.72C1071.43,2338.32 1071.31,2337.2 1071.17,2336.47C1071.91,2332.47 1072.12,2327.09 1072.01,2321.29C1071.81,2311.18 1070.71,2299.73 1070.34,2292.49C1070.26,2291.01 1070.26,2289.43 1070.28,2288.33C1071.27,2288.03 1072.62,2287.62 1073.92,2287.24C1084.99,2284.08 1109.21,2277.68 1129.01,2272.94C1138.32,2270.71 1146.63,2268.84 1152.09,2267.87Z"/>
            <g id="Bowl">
                <path d="M867.849,2509.85C867.93,2509.78 864.384,2555.13 866.438,2564.05C872.491,2590.34 913.15,2619.11 936.636,2624.08C979.988,2633.25 1001.82,2632.46 1028.43,2632.72C1057.59,2633 1141.76,2629.38 1158.22,2628.25C1214.96,2624.35 1265.83,2630.89 1305.49,2560.33C1313.02,2546.93 1318.33,2532.02 1317.36,2516.34C1317.18,2513.43 1316.75,2504.35 1314.21,2502.41C1312.52,2501.13 868.259,2506.9 867.849,2509.85Z" style="fill:white;"/>
                <path d="M867.141,2506.15C867.453,2506.05 867.798,2505.97 868.177,2505.91C869.52,2505.72 872.365,2505.52 876.529,2505.32C890.47,2504.63 919.788,2503.86 956.973,2503.1C1055.51,2501.07 1209.37,2499.04 1278.47,2498.58C1294.03,2498.47 1305.3,2498.45 1310.7,2498.52C1314.39,2498.57 1316.34,2499.32 1316.48,2499.43C1317.82,2500.45 1319.05,2502.58 1319.75,2505.33C1320.7,2509.05 1320.98,2514.04 1321.1,2516.11C1321.61,2524.38 1320.48,2532.45 1318.22,2540.21C1316,2547.86 1312.67,2555.21 1308.76,2562.17C1294.24,2588.01 1278.2,2603.76 1261,2613.57C1230.26,2631.1 1195.62,2629.44 1158.48,2631.99C1148.42,2632.68 1113.12,2634.3 1080.49,2635.39C1059.6,2636.1 1039.8,2636.58 1028.39,2636.47C1012.99,2636.32 999.178,2636.51 981.924,2634.95C969.135,2633.8 954.459,2631.68 935.86,2627.75C923.585,2625.15 906.748,2616.35 892.301,2604.7C877.885,2593.08 865.941,2578.6 862.784,2564.89C861.134,2557.73 862.906,2527.59 863.75,2515.02C863.907,2512.69 864.026,2510.97 864.079,2510.15C864.091,2509.96 864.102,2509.77 864.102,2509.77L864.103,2509.77C864.103,2509.62 864.115,2509.48 864.135,2509.34C864.173,2509.06 864.439,2507.99 865.424,2507.11L865.338,2507.07C865.935,2506.53 866.546,2506.25 867.141,2506.15ZM1312.03,2506.05C1312.34,2506.98 1312.8,2508.52 1312.98,2509.68C1313.39,2512.39 1313.53,2515.2 1313.62,2516.57C1314.07,2523.96 1313.04,2531.17 1311.02,2538.12C1308.95,2545.22 1305.86,2552.04 1302.22,2558.49C1284.37,2590.26 1264.24,2605.99 1242.21,2614.01C1216.33,2623.43 1187.97,2622.45 1157.96,2624.51C1147.94,2625.2 1112.76,2626.81 1080.24,2627.9C1059.48,2628.6 1039.8,2629.08 1028.46,2628.97C1013.26,2628.82 999.629,2629.02 982.599,2627.48C970.053,2626.35 955.658,2624.27 937.413,2620.41C926.007,2617.99 910.432,2609.69 897.009,2598.86C884.013,2588.39 872.938,2575.57 870.092,2563.21C868.515,2556.36 870.426,2527.54 871.233,2515.52L871.394,2513.14L872.502,2513.05C879.22,2512.61 893.32,2512.12 912.511,2511.62C999.5,2509.34 1190.71,2506.71 1274.06,2506.11C1291.42,2505.98 1304.09,2505.94 1310.16,2506.02C1310.82,2506.02 1311.47,2506.04 1312.03,2506.05Z"/>
                <path d="M881.607,2493.41C881.655,2493.37 865.044,2494.78 862.961,2495.16C854.396,2496.7 849.643,2503.44 851.748,2512.28C853.411,2519.26 871.953,2529.59 895.54,2533.32C927.896,2538.45 934.469,2537.8 962.463,2537.63C999.898,2537.4 1033.15,2536.05 1070.68,2535.21C1097.13,2534.61 1177.53,2528.51 1230.68,2525.84C1284.88,2523.12 1325.32,2513.62 1333.21,2507.4C1342.07,2500.42 1340.62,2486.43 1332.3,2480.08C1324.34,2474 1309.98,2478.59 1301.46,2480.08C1277.48,2484.26 1253.56,2488.8 1229.47,2492.3C1195.53,2497.23 1097.56,2501.47 1064.79,2502.32C1037.92,2503.02 1003.18,2503.03 976.347,2501.69C951.475,2500.44 882.12,2494.34 881.607,2493.41Z" style="fill:white;"/>
                <path d="M882.909,2489.97C882.456,2489.74 881.884,2489.63 881.166,2489.68C880.874,2489.7 880.263,2489.75 879.432,2489.82C874.947,2490.18 863.98,2491.16 862.297,2491.47C856.845,2492.45 852.672,2495.19 850.163,2499.01C847.699,2502.76 846.784,2507.62 848.1,2513.15C849.125,2517.45 855.239,2523.34 865.236,2528.1C873.139,2531.87 883.468,2535.21 894.954,2537.03C910.269,2539.45 919.871,2540.59 928.656,2541.11C938.598,2541.7 947.491,2541.47 962.486,2541.38C973.624,2541.31 984.393,2541.15 995.014,2540.92C1020.11,2540.39 1044.38,2539.55 1070.77,2538.95C1078.01,2538.79 1089.28,2538.22 1102.92,2537.41C1139.16,2535.28 1192.22,2531.53 1230.87,2529.59C1255.15,2528.37 1276.69,2525.8 1293.82,2522.77C1315.98,2518.85 1330.96,2513.95 1335.53,2510.35C1340.94,2506.09 1343.28,2499.71 1342.95,2493.4C1342.62,2487.13 1339.63,2480.95 1334.58,2477.1C1331.54,2474.78 1327.78,2473.65 1323.68,2473.35C1315.95,2472.79 1306.93,2475.32 1300.82,2476.38C1286.43,2478.89 1272.07,2481.53 1257.68,2483.99C1248.12,2485.63 1238.54,2487.2 1228.94,2488.59C1214.97,2490.62 1190.13,2492.52 1163.48,2494.12C1125.51,2496.41 1083.89,2498.08 1064.69,2498.58C1051.3,2498.92 1035.93,2499.1 1020.58,2499.02C1005.24,2498.94 989.9,2498.61 976.534,2497.94C957.274,2496.98 911.272,2493.09 891.416,2490.97C887.439,2490.54 884.539,2490.2 883.165,2489.96C883.011,2489.93 882.804,2489.89 882.804,2489.89L882.909,2489.97ZM881.227,2497.2C881.43,2497.26 881.646,2497.3 881.875,2497.34C883.331,2497.6 886.404,2497.98 890.619,2498.43C910.574,2500.56 956.803,2504.47 976.159,2505.43C989.627,2506.11 1005.08,2506.44 1020.54,2506.52C1035.98,2506.6 1051.42,2506.42 1064.88,2506.07C1084.14,2505.57 1125.87,2503.9 1163.93,2501.61C1190.84,2499.99 1215.92,2498.06 1230.01,2496.01C1239.68,2494.61 1249.32,2493.04 1258.95,2491.39C1273.35,2488.92 1287.71,2486.28 1302.11,2483.77C1307.01,2482.92 1313.92,2480.97 1320.34,2480.78C1323.96,2480.67 1327.44,2481.08 1330.03,2483.06C1333.34,2485.59 1335.24,2489.67 1335.46,2493.79C1335.67,2497.75 1334.29,2501.78 1330.89,2504.46C1326.7,2507.76 1312.83,2511.79 1292.52,2515.38C1275.64,2518.37 1254.42,2520.89 1230.5,2522.1C1191.82,2524.03 1138.73,2527.79 1102.48,2529.93C1088.95,2530.72 1077.78,2531.3 1070.6,2531.46C1044.22,2532.05 1019.95,2532.89 994.856,2533.42C984.271,2533.65 973.54,2533.81 962.44,2533.88C947.661,2533.97 938.896,2534.2 929.097,2533.62C920.502,2533.12 911.11,2531.99 896.127,2529.62C885.437,2527.93 875.819,2524.84 868.464,2521.33C863.804,2519.11 860.078,2516.75 857.661,2514.46C856.493,2513.36 855.627,2512.38 855.396,2511.41C854.627,2508.18 854.992,2505.32 856.432,2503.12C857.901,2500.89 860.431,2499.42 863.625,2498.85C865.237,2498.56 875.749,2497.64 880.047,2497.29L881.227,2497.2Z"/>
            </g>
            <g id="Fountain-Head" serif:id="Fountain Head">
                <path d="M1153.46,2224.27C1161.78,2214.28 1172.75,2201.49 1185.47,2193.26C1193.83,2187.84 1202.94,2184.39 1212.55,2185.25C1215,2185.47 1216.53,2186.55 1217.54,2188.09C1219.48,2191.05 1219.86,2195.3 1220.76,2198.81C1221.81,2202.9 1222.25,2206.34 1222.28,2209.63C1222.33,2214.88 1221.34,2219.77 1220.14,2226.28C1219.63,2229.01 1219.06,2238.25 1218.12,2245.28C1217.69,2248.52 1217.27,2251.25 1216.62,2252.34C1215.98,2253.41 1216.34,2254.79 1217.4,2255.43C1218.47,2256.06 1219.86,2255.71 1220.49,2254.64C1221.3,2253.27 1222.04,2249.92 1222.58,2245.88C1223.51,2238.93 1224.06,2229.79 1224.56,2227.1C1225.83,2220.25 1226.83,2215.11 1226.78,2209.59C1226.75,2205.97 1226.27,2202.19 1225.12,2197.69C1224.1,2193.73 1223.5,2188.97 1221.3,2185.62C1219.6,2183.03 1217.07,2181.14 1212.95,2180.77C1202.34,2179.82 1192.25,2183.5 1183.02,2189.48C1169.92,2197.97 1158.58,2211.1 1150,2221.39C1149.21,2222.34 1149.34,2223.76 1150.29,2224.55C1151.24,2225.35 1152.66,2225.22 1153.46,2224.27Z"/>
                <path d="M1133.06,2136.32C1134.32,2134.34 1125.17,2112.38 1121.09,2103.94C1111.81,2084.72 1103.92,2065.17 1095.81,2045.34C1092.62,2037.56 1075.29,1994.25 1084.57,1990.69C1091.93,1987.87 1108.99,2031.19 1108.99,2031.19C1108.99,2031.19 1098.23,1985.37 1106.06,1979.87C1111.63,1975.97 1128,2017.39 1128,2017.39C1128,2017.39 1122.43,1983.17 1125.69,1974.85C1126.76,1972.14 1130.13,1967.6 1133.77,1969.51C1136.25,1970.81 1145.31,2004.57 1146.68,2013.48C1147.82,2020.88 1160.37,2069.88 1169.67,2086.63C1173.03,2092.66 1178.17,2111.41 1188.28,2108.18C1209.31,2101.47 1151.06,1958.69 1176.55,1945.39C1186.82,1940.04 1202.78,2012.15 1213.88,2032.12C1216.78,2037.34 1221.88,2047.33 1230.07,2044.87C1241.94,2041.31 1227.27,1995.5 1226.44,1975.79C1226.17,1969.25 1219.08,1929.47 1225.23,1925.55C1245.99,1912.33 1252.95,1949.31 1254.94,1964.63C1260.49,2007.34 1283.22,2112.32 1292.12,2112.45C1298.24,2112.53 1345.45,2095.04 1356.12,2089.49C1373.53,2080.45 1421.71,2052.8 1426.29,2057.91C1435.36,2068.01 1398.78,2090.05 1401.14,2093.06C1402.16,2094.35 1433.12,2078.29 1436.37,2084.44C1441.77,2094.65 1411.83,2114.73 1412.44,2115.76C1413,2116.7 1450.37,2106.51 1454.56,2111.4C1462.63,2120.83 1393.37,2155.9 1382,2161C1364,2169.07 1323.92,2187.33 1316.42,2191.26C1297.67,2201.11 1278.56,2210.95 1258.85,2221.5C1248.5,2227.04 1219.79,2241.29 1219.59,2243.27C1218.32,2256.37 1217.23,2274.57 1214.64,2287.47C1212.74,2296.93 1211.76,2312.43 1208.93,2321.6C1205.11,2333.96 1204.9,2343.45 1204.02,2356.15C1202.84,2373.07 1207.46,2405.02 1201.26,2406.86C1189.74,2410.29 1181.93,2382.72 1180.19,2382.72C1179.67,2382.72 1181.44,2409.28 1172.34,2409.42C1161.04,2409.6 1160.48,2384.54 1157.35,2384.83C1155.29,2385.01 1154.87,2410.49 1145.31,2409.05C1126.89,2406.28 1131.45,2361 1133.43,2349.44C1136.51,2331.42 1142.5,2284.61 1140.76,2283.39C1133.64,2278.39 1092.04,2327.45 1073.31,2347.01C1045.31,2376.24 979.205,2439.97 969.749,2431.27C964.127,2426.1 975.517,2402.96 975.343,2402.49C974.908,2401.31 949.587,2427.7 940.848,2420.79C929.692,2411.96 953.54,2390.16 952.023,2390.16C951.454,2390.16 921.659,2411.15 915.601,2403.65C908.383,2394.72 943.545,2372.77 951.721,2367.96C960.145,2363 1006.3,2318.85 1015.41,2308.39C1034.61,2286.34 1044.54,2269.9 1067.77,2237.35C1080.69,2219.24 1085.93,2207.44 1098.51,2191.72C1103.1,2185.98 1128.4,2143.69 1133.06,2136.32Z" style="fill:white;"/>
                <path d="M1130.9,2135.53C1127.52,2140.93 1116.15,2159.83 1107.27,2174.12C1102.42,2181.92 1098.34,2188.33 1096.75,2190.32C1092.94,2195.08 1089.79,2199.49 1086.91,2203.81C1080.24,2213.81 1074.97,2223.38 1065.93,2236.04C1050.32,2257.93 1040.72,2272.53 1030.26,2286.45C1025.2,2293.17 1019.95,2299.74 1013.71,2306.91C1008.6,2312.78 991.774,2329.29 976.563,2343.48C964.894,2354.36 954.205,2363.89 950.579,2366.02C945.338,2369.11 929.174,2379.14 919.821,2388.4C916.221,2391.96 913.628,2395.47 912.753,2398.44C912.012,2400.96 912.343,2403.2 913.851,2405.07C914.948,2406.43 916.535,2407.22 918.54,2407.45C921.029,2407.74 924.306,2407.08 927.871,2405.79C932.657,2404.06 938.04,2401.21 942.615,2398.56C940.755,2401.09 938.938,2403.9 937.641,2406.69C934.841,2412.72 934.531,2418.66 939.452,2422.55C942.697,2425.12 947.886,2424.38 953.463,2421.47C959.206,2418.48 965.504,2413.41 970.112,2409.53C968.635,2413.4 967.052,2418.09 966.342,2422.2C965.523,2426.93 966.077,2430.95 968.226,2432.93C970.078,2434.64 973.621,2434.81 978.381,2432.74C984.987,2429.86 994.696,2422.91 1005.63,2413.91C1029.16,2394.55 1058.55,2365.66 1074.93,2348.56C1085.91,2337.1 1104.74,2315.5 1119.88,2300.61C1126.54,2294.05 1132.45,2288.8 1136.6,2286.42C1137.38,2285.97 1138.09,2285.63 1138.72,2285.43L1138.79,2285.41C1138.81,2285.95 1138.81,2286.6 1138.79,2287.25C1138.55,2294.08 1136.89,2308.76 1135.05,2322.79C1133.72,2332.95 1132.29,2342.77 1131.21,2349.07C1129.87,2356.91 1127.4,2380 1131.4,2395.4C1133.64,2404.01 1137.99,2410.22 1144.97,2411.28C1148.87,2411.86 1151.85,2409.4 1153.87,2405.25C1155.85,2401.18 1156.96,2395.44 1157.79,2391.13C1158.98,2395.56 1160.46,2401.58 1163.08,2405.79C1165.31,2409.39 1168.35,2411.74 1172.37,2411.67C1176.04,2411.62 1178.7,2408.61 1180.18,2404.03C1181.39,2400.25 1181.89,2395.41 1182.12,2391.28C1184.25,2395.8 1187.1,2401.29 1190.53,2404.92C1193.85,2408.44 1197.72,2410.26 1201.9,2409.02C1202.99,2408.7 1203.96,2407.94 1204.71,2406.67C1205.77,2404.87 1206.42,2401.69 1206.67,2397.62C1207.36,2386.43 1205.46,2367.87 1206.26,2356.31C1206.8,2348.67 1207.08,2342.21 1208.06,2335.57C1208.69,2331.33 1209.61,2327.01 1211.08,2322.26C1212,2319.29 1212.73,2315.68 1213.36,2311.82C1214.68,2303.67 1215.54,2294.37 1216.84,2287.91C1217.91,2282.62 1218.72,2276.45 1219.4,2270.09C1220.35,2261.16 1221.03,2251.86 1221.77,2244.2C1222.25,2243.84 1223.28,2243.1 1224.3,2242.47C1232.3,2237.57 1251.78,2227.83 1259.91,2223.48L1317.47,2193.26C1320.94,2191.43 1331.45,2186.52 1343.49,2180.98C1357.37,2174.59 1373.3,2167.36 1382.91,2163.05C1390.97,2159.44 1427.85,2140.9 1446.21,2126.91C1451.82,2122.64 1455.71,2118.67 1456.94,2115.66C1457.86,2113.4 1457.59,2111.48 1456.27,2109.94C1455.58,2109.14 1454.39,2108.47 1452.7,2108.13C1450.19,2107.63 1446.24,2107.78 1441.73,2108.32C1434.53,2109.19 1425.82,2111.02 1419.7,2112.28C1424.43,2108.32 1430.96,2102.64 1435.06,2097.14C1438.78,2092.15 1440.35,2087.15 1438.36,2083.39C1437.75,2082.23 1436.67,2081.41 1435.11,2081.02C1433.59,2080.65 1431.45,2080.73 1428.95,2081.21C1422.82,2082.4 1414.11,2085.96 1407.91,2088.45C1413.08,2083.91 1420.75,2077.65 1425.44,2071.74C1429.99,2065.99 1431.53,2060.38 1427.96,2056.4C1427.13,2055.47 1425.5,2054.84 1423.09,2055.1C1420.27,2055.4 1415.89,2056.85 1410.64,2059.06C1393.7,2066.2 1367.09,2081.26 1355.08,2087.5C1349.25,2090.53 1332.38,2097.16 1317.41,2102.49C1305.88,2106.6 1295.52,2110.01 1292.44,2110.19C1292.16,2109.85 1291.04,2108.45 1290.26,2106.92C1285.88,2098.24 1280.14,2077.89 1274.59,2054.54C1267.08,2022.9 1259.96,1985.77 1257.17,1964.35C1255.78,1953.64 1251.86,1932.84 1243.01,1924.53C1238.16,1919.97 1231.96,1918.6 1224.02,1923.65C1222.99,1924.31 1222.08,1925.57 1221.49,1927.43C1220.9,1929.32 1220.58,1931.98 1220.5,1935.11C1220.15,1948.47 1223.99,1971.09 1224.19,1975.89C1224.7,1987.86 1230.29,2009.45 1231.97,2025.4C1232.58,2031.13 1232.7,2036.1 1231.76,2039.48C1231.31,2041.11 1230.68,2042.34 1229.42,2042.71C1226.96,2043.45 1224.87,2042.64 1223.11,2041.22C1219.8,2038.56 1217.48,2033.97 1215.85,2031.03C1208.29,2017.43 1198.5,1979.58 1189.77,1958.66C1186.92,1951.81 1184.08,1946.72 1181.55,1944.51C1179.45,1942.7 1177.4,1942.41 1175.51,1943.4C1172.34,1945.06 1170.13,1948.32 1168.92,1953.01C1167.38,1958.97 1167.42,1967.4 1168.52,1977.32C1171.96,2008.46 1185.72,2054.71 1189.66,2083.23C1190.71,2090.77 1191.08,2097.02 1190.28,2101.33C1189.83,2103.78 1189.17,2105.53 1187.6,2106.04C1184.33,2107.08 1181.88,2104.84 1179.78,2101.89C1176.05,2096.68 1173.56,2088.99 1171.64,2085.53C1168.19,2079.33 1164.31,2068.64 1160.73,2057.32C1154.74,2038.39 1149.61,2017.72 1148.9,2013.14C1148.05,2007.62 1144.29,1992.67 1140.93,1981.63C1139.26,1976.14 1137.66,1971.6 1136.57,1969.55C1135.94,1968.37 1135.25,1967.75 1134.81,1967.52C1132.56,1966.34 1130.37,1966.69 1128.45,1967.88C1126.19,1969.3 1124.38,1972.05 1123.6,1974.03C1122.56,1976.69 1122.27,1981.8 1122.5,1987.69C1122.67,1992.08 1123.1,1996.91 1123.59,2001.4C1120.76,1995.23 1117.42,1988.48 1114.41,1983.88C1112.34,1980.72 1110.31,1978.55 1108.72,1977.8C1107.24,1977.1 1105.91,1977.23 1104.77,1978.03C1103.38,1979.01 1102.29,1980.84 1101.68,1983.43C1100.98,1986.39 1100.83,1990.47 1101.06,1995.04C1101.32,2000.29 1102.07,2006.22 1102.94,2011.75C1100.05,2005.71 1096.76,1999.44 1093.69,1995.05C1091.89,1992.47 1090.13,1990.51 1088.57,1989.45C1086.82,1988.26 1085.17,1988.05 1083.77,1988.59C1081.67,1989.39 1080.25,1991.43 1079.79,1994.62C1079.34,1997.8 1079.82,2002.33 1080.89,2007.44C1083.94,2021.88 1091.69,2041.22 1093.73,2046.19C1098.6,2058.1 1103.39,2069.91 1108.45,2081.6C1111.83,2089.42 1115.34,2097.2 1119.07,2104.92C1120.82,2108.55 1123.53,2114.72 1125.92,2120.69C1127.9,2125.62 1129.67,2130.41 1130.5,2133.51C1130.7,2134.29 1130.85,2135.16 1130.9,2135.53ZM1424.76,2059.59C1425.68,2060.75 1425.63,2062.15 1425.1,2063.66C1424.51,2065.34 1423.36,2067.12 1421.92,2068.94C1415.94,2076.49 1404.97,2084.55 1400.95,2088.81C1399.8,2090.02 1399.14,2091.07 1398.92,2091.8C1398.6,2092.9 1398.85,2093.77 1399.38,2094.45C1399.71,2094.88 1400.41,2095.47 1401.68,2095.37C1402.34,2095.32 1403.69,2094.92 1405.51,2094.24C1411.36,2092.03 1423.13,2086.73 1430.48,2085.51C1431.77,2085.3 1432.9,2085.2 1433.78,2085.34C1434.04,2085.38 1434.29,2085.32 1434.38,2085.49C1435.71,2088 1433.93,2091.12 1431.45,2094.45C1426.28,2101.4 1417.03,2108.6 1412.99,2112.01C1411.83,2113 1411.05,2113.74 1410.75,2114.14C1409.81,2115.39 1410.23,2116.44 1410.51,2116.91C1410.71,2117.24 1411.4,2118.14 1412.96,2118.06C1413.66,2118.03 1415.12,2117.79 1417.1,2117.4C1424.12,2116.01 1438.35,2112.75 1447.23,2112.35C1448.86,2112.28 1450.28,2112.3 1451.42,2112.47C1452.07,2112.57 1452.61,2112.58 1452.85,2112.87C1453.37,2113.47 1452.76,2114.19 1452.11,2115.16C1449.69,2118.81 1443.69,2123.49 1436.21,2128.49C1416.99,2141.32 1388.06,2155.81 1381.07,2158.94C1369.89,2163.96 1350.17,2172.91 1335.04,2179.92C1325.78,2184.21 1318.23,2187.77 1315.38,2189.27L1257.79,2219.51C1250.74,2223.28 1235.19,2231.09 1225.9,2236.32C1222.43,2238.28 1219.81,2239.91 1218.68,2240.87C1217.68,2241.73 1217.4,2242.6 1217.35,2243.05C1216.6,2250.83 1215.9,2260.41 1214.92,2269.62C1214.26,2275.82 1213.47,2281.86 1212.43,2287.02C1211.12,2293.53 1210.25,2302.89 1208.92,2311.09C1208.33,2314.73 1207.64,2318.14 1206.78,2320.93C1205.24,2325.92 1204.27,2330.45 1203.61,2334.91C1202.61,2341.66 1202.32,2348.23 1201.78,2355.99C1201.08,2365.96 1202.38,2381.11 1202.33,2392.31C1202.31,2396.48 1202.11,2400.08 1201.49,2402.57C1201.33,2403.23 1201.14,2403.8 1200.9,2404.25C1200.8,2404.45 1200.77,2404.66 1200.62,2404.71C1198.06,2405.47 1195.83,2403.99 1193.8,2401.83C1188.98,2396.72 1185.47,2387.59 1183.54,2383.67C1182.88,2382.34 1182.28,2381.47 1181.89,2381.13C1181.28,2380.6 1180.68,2380.47 1180.19,2380.47C1179.79,2380.47 1178.15,2380.66 1177.9,2382.62C1177.85,2382.96 1177.83,2383.71 1177.81,2384.74C1177.75,2388.53 1177.74,2396.92 1175.89,2402.65C1175.11,2405.07 1174.24,2407.14 1172.3,2407.17C1169.89,2407.21 1168.24,2405.57 1166.9,2403.42C1163.47,2397.89 1162.21,2389.02 1160.76,2385.5C1159.81,2383.21 1158.26,2382.48 1157.14,2382.59C1156.66,2382.63 1156.17,2382.8 1155.71,2383.19C1155.28,2383.56 1154.68,2384.49 1154.28,2386C1153.33,2389.58 1152.42,2397.96 1149.82,2403.28C1148.79,2405.4 1147.63,2407.12 1145.64,2406.83C1142.74,2406.39 1140.58,2404.61 1138.92,2402.03C1136.65,2398.5 1135.32,2393.56 1134.56,2388.12C1132.56,2373.91 1134.53,2356.37 1135.64,2349.82C1137.73,2337.66 1141.13,2312.42 1142.6,2296.84C1143.14,2291.11 1143.41,2286.64 1143.29,2284.53C1143.19,2282.73 1142.42,2281.8 1142.05,2281.54C1140.78,2280.65 1138.8,2280.47 1136.27,2281.55C1133.17,2282.88 1128.75,2286.23 1123.61,2290.87C1107.72,2305.23 1084.42,2332.15 1071.68,2345.45C1055.39,2362.46 1026.17,2391.18 1002.77,2410.43C992.247,2419.1 982.941,2425.84 976.583,2428.61C975.044,2429.28 973.712,2429.71 972.606,2429.81C972.045,2429.86 971.576,2429.9 971.272,2429.62C970.613,2429.01 970.478,2427.97 970.443,2426.74C970.389,2424.83 970.782,2422.54 971.377,2420.16C972.839,2414.31 975.549,2407.99 976.774,2405.05C977.116,2404.23 977.352,2403.65 977.446,2403.36C977.733,2402.47 977.52,2401.89 977.453,2401.7C977.142,2400.87 976.102,2399.45 974.05,2400.52C973.624,2400.74 972.761,2401.38 971.595,2402.36C967.596,2405.72 958.998,2413.52 951.385,2417.48C949.193,2418.62 947.104,2419.45 945.259,2419.65C944.094,2419.78 943.05,2419.66 942.244,2419.02C939.873,2417.15 939.768,2414.45 940.574,2411.61C942.515,2404.76 949.439,2397.1 952.388,2393.6C953.303,2392.51 953.893,2391.71 954.073,2391.34C954.543,2390.38 954.311,2389.64 954.132,2389.25C953.799,2388.53 953.195,2387.91 952.023,2387.91C951.893,2387.91 950.601,2388.34 948.739,2389.53C945.116,2391.83 937.279,2396.83 929.949,2400.09C926.838,2401.47 923.831,2402.55 921.313,2402.91C919.583,2403.15 918.132,2403.21 917.351,2402.24C916.541,2401.24 916.847,2399.97 917.525,2398.55C919.04,2395.36 922.586,2391.72 926.824,2388.08C935.984,2380.2 948.433,2372.51 952.862,2369.9C956.59,2367.7 967.631,2357.97 979.632,2346.77C994.979,2332.46 1011.95,2315.78 1017.1,2309.87C1023.42,2302.61 1028.74,2295.96 1033.86,2289.15C1044.33,2275.2 1053.95,2260.58 1069.6,2238.66C1078.67,2225.95 1083.96,2216.34 1090.65,2206.31C1093.47,2202.08 1096.54,2197.78 1100.26,2193.13C1101.89,2191.09 1106.11,2184.51 1111.09,2176.49C1120.2,2161.83 1131.93,2142.31 1134.96,2137.53C1135.21,2137.14 1135.45,2136.5 1135.43,2135.6C1135.4,2134.36 1134.8,2131.94 1133.79,2128.89C1131.19,2121.11 1125.95,2108.81 1123.12,2102.96C1119.42,2095.3 1115.94,2087.58 1112.58,2079.81C1107.53,2068.14 1102.75,2056.37 1097.89,2044.49C1096.14,2040.23 1090.11,2025.2 1086.62,2012.02C1085.07,2006.15 1084,2000.67 1084.13,1996.74C1084.16,1995.67 1084.28,1994.73 1084.54,1993.97C1084.72,1993.42 1084.93,1992.96 1085.38,1992.79C1085.6,1992.71 1085.77,1992.99 1086.04,1993.17C1086.6,1993.55 1087.18,1994.1 1087.79,1994.78C1090.01,1997.25 1092.47,2001.27 1094.87,2005.74C1101.12,2017.36 1106.89,2032.02 1106.89,2032.02C1107.33,2033.11 1108.53,2033.69 1109.66,2033.34C1110.78,2032.99 1111.45,2031.83 1111.18,2030.68C1111.18,2030.68 1107.32,2014.23 1105.93,1999.94C1105.42,1994.58 1105.24,1989.52 1105.8,1985.83C1106.05,1984.16 1106.34,1982.8 1107,1982.04C1107.39,1982.35 1108.16,1983 1108.69,1983.64C1110.62,1985.98 1112.81,1989.74 1114.97,1993.92C1120.57,2004.71 1125.9,2018.22 1125.9,2018.22C1126.33,2019.29 1127.49,2019.87 1128.6,2019.56C1129.7,2019.26 1130.4,2018.17 1130.22,2017.03C1130.22,2017.03 1128.05,2003.71 1127.23,1991.72C1126.76,1984.94 1126.64,1978.6 1127.79,1975.67C1128.21,1974.59 1129.1,1973.13 1130.24,1972.14C1130.88,1971.6 1131.62,1971.14 1132.41,1971.38C1132.65,1971.83 1133.29,1973.12 1133.77,1974.36C1135.31,1978.4 1137.3,1984.98 1139.16,1991.72C1141.62,2000.61 1143.84,2009.79 1144.46,2013.83C1145.17,2018.48 1150.36,2039.46 1156.44,2058.68C1160.13,2070.33 1164.16,2081.33 1167.71,2087.72C1170.04,2091.91 1173.29,2102.04 1178.31,2107.16C1181.28,2110.18 1184.81,2111.65 1188.97,2110.32C1191.09,2109.65 1192.71,2108.05 1193.76,2105.51C1194.95,2102.62 1195.38,2098.3 1195.13,2092.89C1193.88,2065.61 1175.76,2008.48 1172.66,1973.52C1171.92,1965.2 1172.02,1958.19 1173.53,1953.25C1174.37,1950.48 1175.62,1948.42 1177.59,1947.39C1177.77,1947.3 1177.92,1947.43 1178.11,1947.55C1178.61,1947.86 1179.11,1948.37 1179.64,1949.03C1181.54,1951.39 1183.54,1955.39 1185.62,1960.39C1194.4,1981.45 1204.31,2019.53 1211.91,2033.22C1213.77,2036.56 1216.53,2041.69 1220.28,2044.72C1223.19,2047.06 1226.66,2048.24 1230.72,2047.02C1232.65,2046.44 1234.14,2045.12 1235.17,2043.11C1236.45,2040.61 1237,2036.84 1236.93,2032.25C1236.69,2016.33 1229.27,1989.56 1228.69,1975.7C1228.51,1971.49 1225.51,1953.51 1225.04,1940.19C1224.89,1936.16 1224.98,1932.59 1225.48,1930.02C1225.72,1928.79 1225.87,1927.81 1226.44,1927.45C1230.05,1925.15 1233.13,1924.54 1235.81,1925.32C1238.81,1926.2 1241.2,1928.7 1243.24,1931.97C1249.01,1941.22 1251.61,1956.47 1252.71,1964.92C1255.96,1989.95 1265.1,2036.3 1273.91,2070.53C1278.68,2089.08 1283.41,2104.1 1287.03,2110.4C1288.77,2113.43 1290.73,2114.68 1292.09,2114.7C1294.91,2114.74 1306.28,2111.23 1318.92,2106.73C1334.12,2101.32 1351.23,2094.57 1357.15,2091.49C1367.54,2086.1 1388.88,2074.07 1405.37,2066.35C1412.3,2063.1 1418.34,2060.62 1422.26,2059.79C1423.23,2059.59 1424.45,2059.58 1424.76,2059.59Z"/>
                <path d="M1221.54,2089.87C1221.62,2090.2 1221.83,2091.11 1221.83,2091.31L1221.93,2095.82C1221.75,2098.12 1221.65,2100.43 1221.4,2102.73C1221.25,2104.2 1221.03,2105.67 1220.68,2107.13C1220.56,2107.65 1220.44,2108.33 1220.22,2108.94C1220.1,2109.25 1220.01,2109.57 1219.74,2109.71C1219.38,2109.9 1219.03,2109.82 1218.71,2109.67C1218.12,2109.4 1217.59,2108.93 1217.13,2108.5C1215.95,2107.45 1214.83,2105.86 1213.89,2104.18C1212.92,2102.45 1212.15,2100.62 1211.72,2099.07C1211.49,2098.26 1211.4,2096.94 1211.08,2095.91C1210.84,2095.13 1210.47,2094.48 1210,2094.05C1209.39,2093.5 1208.44,2093.55 1207.88,2094.17C1207.33,2094.78 1207.38,2095.73 1207.99,2096.28C1208.19,2096.46 1208.23,2096.8 1208.31,2097.14C1208.54,2098.09 1208.63,2099.17 1208.83,2099.87C1209.31,2101.62 1210.18,2103.7 1211.27,2105.64C1212.38,2107.63 1213.73,2109.48 1215.12,2110.73C1215.97,2111.5 1217,2112.31 1218.1,2112.64C1219.06,2112.93 1220.07,2112.91 1221.11,2112.38C1221.72,2112.07 1222.2,2111.57 1222.57,2110.96C1223.13,2110.03 1223.38,2108.75 1223.6,2107.82C1223.98,2106.24 1224.22,2104.65 1224.39,2103.05C1224.63,2100.72 1224.74,2098.39 1224.92,2096.05L1224.83,2091.31C1224.83,2090.92 1224.56,2089.45 1224.39,2088.89C1224.1,2087.94 1223.33,2087.71 1223.18,2087.67C1222.64,2087.56 1221.75,2087.56 1221.41,2088.76C1221.31,2089.15 1221.36,2089.55 1221.54,2089.87ZM1222.92,2090.66C1223.43,2090.68 1224.04,2090.5 1224.3,2089.56C1224.12,2090.2 1223.55,2090.63 1222.92,2090.66Z"/>
                <path d="M1251.44,2085.07C1251.59,2085.63 1252.48,2088.94 1252.73,2089.66C1253.57,2092.07 1255.01,2096.14 1254.79,2099.45C1254.67,2101.27 1253.97,2102.85 1251.96,2103.39C1250.33,2103.83 1248.81,2102.92 1247.48,2101.64C1245.21,2099.46 1243.51,2096.05 1242.92,2093.92L1241.67,2089.38C1241.58,2089.07 1241.26,2087.84 1240.9,2087.47C1240.55,2087.1 1240.13,2086.95 1239.7,2086.95C1238.87,2086.95 1238.2,2087.62 1238.2,2088.45C1238.2,2088.86 1238.36,2089.22 1238.62,2089.49C1238.67,2089.73 1238.77,2090.15 1238.8,2090.25C1238.8,2090.25 1240.03,2094.72 1240.03,2094.72C1240.73,2097.23 1242.73,2101.23 1245.4,2103.8C1247.55,2105.87 1250.11,2107 1252.74,2106.29C1256.2,2105.35 1257.57,2102.79 1257.78,2099.65C1258.03,2095.95 1256.5,2091.38 1255.56,2088.67C1255.29,2087.9 1254.9,2085.29 1254.25,2083.91C1253.74,2082.85 1252.98,2082.32 1252.29,2082.24C1251.47,2082.13 1250.72,2082.71 1250.62,2083.53C1250.53,2084.18 1250.88,2084.79 1251.44,2085.07Z"/>
                <path d="M1258.59,2131.22C1258.7,2131.42 1258.91,2131.85 1259.06,2132.24C1260.42,2135.8 1262.21,2144.22 1261.83,2150.46C1261.71,2152.32 1261.42,2153.97 1260.81,2155.18C1260.41,2155.95 1259.9,2156.53 1259.14,2156.7C1257.72,2157.03 1255.89,2155.92 1253.9,2154.43C1249.61,2151.19 1245,2145.66 1243,2142.59C1242.91,2142.46 1242.82,2142.31 1242.73,2142.16C1242.7,2141.82 1242.66,2141.53 1242.61,2141.3C1242.32,2140.05 1241.47,2139.69 1240.97,2139.65C1240.37,2139.6 1239.95,2139.82 1239.65,2140.13C1239.41,2140.38 1239.22,2140.71 1239.19,2141.19C1239.17,2141.51 1239.29,2142.16 1239.74,2142.99L1239.77,2143.05C1239.79,2143.36 1239.8,2143.71 1239.79,2144.05C1239.7,2146.97 1239.01,2151.65 1237.47,2155.54C1236.24,2158.65 1234.57,2161.36 1231.95,2161.69C1228.11,2162.17 1224.46,2159.15 1221.34,2155.28C1217.58,2150.62 1214.68,2144.58 1213.47,2140.6C1213.09,2139.35 1212.95,2137.91 1212.92,2137.62C1213.29,2137.04 1213.21,2136.26 1212.7,2135.76C1212.11,2135.18 1211.15,2135.19 1210.58,2135.78C1210.11,2136.26 1209.74,2137.45 1210.04,2139.19C1210.72,2143.11 1214.19,2151.2 1219.01,2157.16C1222.85,2161.93 1227.59,2165.26 1232.32,2164.66C1235.9,2164.22 1238.58,2160.9 1240.26,2156.64C1241.45,2153.64 1242.18,2150.21 1242.53,2147.34L1242.56,2147.09C1243.91,2148.83 1245.59,2150.79 1247.4,2152.62C1249.87,2155.15 1252.58,2157.44 1254.98,2158.67C1256.77,2159.6 1258.44,2159.94 1259.81,2159.63C1261.43,2159.26 1262.65,2158.18 1263.48,2156.54C1264.58,2154.36 1264.97,2151.06 1264.86,2147.46C1264.66,2141.16 1262.99,2133.94 1261.74,2130.86C1261.29,2129.73 1260.78,2129.05 1260.44,2128.8C1260.03,2128.49 1259.61,2128.42 1259.26,2128.45C1258.43,2128.51 1257.82,2129.24 1257.88,2130.06C1257.92,2130.56 1258.2,2130.98 1258.59,2131.22Z"/>
                <path d="M1241.39,2125.26C1240.51,2124.4 1235.08,2120.86 1234.41,2120.97C1232.29,2121.34 1231.42,2126.76 1230.96,2132.49C1230.66,2136.19 1230.43,2142.3 1236.27,2142.31C1238.59,2142.31 1239.27,2138.74 1240.16,2137.47C1240.27,2137.3 1243.08,2142.76 1246.89,2139.15C1249.24,2136.93 1244.61,2128.36 1241.39,2125.26Z"/>
                <path d="M1240.28,2138.81C1240.87,2139.53 1241.77,2140.45 1242.89,2140.88C1244.16,2141.37 1245.71,2141.31 1247.41,2139.7C1248.43,2138.72 1248.5,2136.73 1247.76,2134.41C1246.66,2130.97 1244,2126.73 1241.92,2124.72L1241.92,2124.72C1241.34,2124.16 1238.91,2122.49 1237.01,2121.37C1236.1,2120.83 1235.3,2120.42 1234.87,2120.29C1234.61,2120.21 1234.41,2120.21 1234.28,2120.23C1233.17,2120.42 1232.21,2121.64 1231.59,2123.64C1230.89,2125.87 1230.48,2129.1 1230.21,2132.43C1230.02,2134.84 1229.9,2138.21 1231.24,2140.46C1232.15,2141.98 1233.68,2143.05 1236.27,2143.06C1237.2,2143.06 1237.94,2142.64 1238.54,2141.99C1239.32,2141.14 1239.82,2139.82 1240.28,2138.81ZM1234.44,2121.73C1234.53,2121.76 1234.71,2121.84 1234.86,2121.91C1235.55,2122.24 1236.6,2122.86 1237.63,2123.51C1239.06,2124.43 1240.47,2125.4 1240.87,2125.8L1240.87,2125.8C1242.54,2127.41 1244.6,2130.55 1245.81,2133.45C1246.32,2134.68 1246.67,2135.86 1246.76,2136.86C1246.83,2137.61 1246.77,2138.24 1246.38,2138.61C1245.52,2139.42 1244.74,2139.7 1244.03,2139.63C1243.78,2139.6 1243.54,2139.53 1243.31,2139.43C1242.19,2138.94 1241.39,2137.82 1241.01,2137.31C1240.86,2137.11 1240.75,2136.98 1240.69,2136.93C1240.47,2136.72 1240.25,2136.71 1240.13,2136.72C1239.89,2136.73 1239.69,2136.83 1239.54,2137.04C1239.01,2137.81 1238.55,2139.4 1237.77,2140.55C1237.39,2141.1 1236.94,2141.56 1236.27,2141.56C1234.36,2141.55 1233.2,2140.82 1232.53,2139.69C1231.34,2137.7 1231.53,2134.69 1231.71,2132.55C1231.92,2129.88 1232.23,2127.28 1232.71,2125.24C1232.96,2124.18 1233.25,2123.28 1233.62,2122.62C1233.87,2122.17 1234.11,2121.84 1234.44,2121.73Z"/>
            </g>
        </g>
    </g>
</svg>
