<?xml version="1.0" encoding="UTF-8" standalone="no"?>
<!DOCTYPE svg PUBLIC "-//W3C//DTD SVG 1.1//EN" "http://www.w3.org/Graphics/SVG/1.1/DTD/svg11.dtd">
<svg width="100%" height="100%" viewBox="0 0 1110 1347" version="1.1" xmlns="http://www.w3.org/2000/svg" xmlns:xlink="http://www.w3.org/1999/xlink" xml:space="preserve" xmlns:serif="http://www.serif.com/" style="fill-rule:evenodd;clip-rule:evenodd;stroke-linejoin:round;stroke-miterlimit:2;">
    <g transform="matrix(1,0,0,1,-1793.97,-2109.61)">
        <g id="Maxweena-House" serif:id="Maxweena House">
            <g id="Building">
                <g id="Facade">
                    <path d="M1942.28,2835.75C1942.28,2831.36 1941.55,2938.8 1941.44,2981.68C1941.33,3028.47 1944.08,3100.03 1946.05,3128.49C1950.09,3186.58 1949.43,3231.83 1949.61,3289.87C1949.77,3345.34 1950.78,3412.78 1956.79,3421.64C1960.24,3426.74 2030.61,3421.4 2031.25,3421.4C2044.25,3421.4 2118.92,3420.13 2145.61,3420.62C2257.79,3422.7 2303.36,3424.58 2394.76,3427.7C2461.88,3429.98 2561.63,3429.54 2640.62,3433C2696.91,3435.47 2813.69,3447.46 2858.09,3447.46C2860.86,3447.46 2858.32,3404.93 2859.07,3352.83C2859.81,3302.19 2856.13,3231.29 2855.75,3177.44C2855.28,3111.66 2852.03,3032.39 2853.52,2990.08C2854.08,2974.12 2856.25,2844.38 2851.18,2840.31C2843.07,2833.83 1959.73,2824.88 1942.28,2835.75Z" style="fill:white;"/>
                    <path d="M1940.23,2832.12L1939.89,2831.93C1940.63,2831.47 1942.36,2830.84 1945.12,2830.43C1950.67,2829.6 1962.07,2828.88 1978.29,2828.31C2038.55,2826.18 2166.22,2825.8 2305.8,2826.45C2492.5,2827.31 2700.5,2830.02 2796.88,2832.88C2820.88,2833.59 2838,2834.31 2846.19,2835.01C2850.91,2835.42 2853.49,2836.4 2853.99,2836.8C2854.74,2837.4 2855.99,2839.12 2856.59,2842.25C2857.51,2847 2858.13,2857.08 2858.49,2869.91C2859.62,2910.39 2858.41,2978.91 2858.02,2990.24C2857.49,3005.07 2857.56,3024.47 2857.88,3046.23C2858.47,3086.47 2859.94,3134.77 2860.25,3177.41C2860.51,3214.3 2862.32,3259.21 2863.2,3300.11C2863.6,3318.94 2863.81,3336.92 2863.57,3352.89C2863.03,3390.48 2864.2,3423.08 2863.85,3438.35C2863.74,3443.3 2863.39,3446.66 2862.92,3448.12C2861.87,3451.37 2859.53,3451.96 2858.09,3451.96C2847.18,3451.96 2831.91,3451.24 2814.26,3450.12C2759.99,3446.66 2682.94,3439.37 2640.42,3437.5C2617.22,3436.48 2592.22,3435.8 2566.78,3435.29C2505.65,3434.06 2442,3433.81 2394.61,3432.19C2345.72,3430.53 2309.94,3429.21 2270.07,3428.03C2235.42,3427.01 2197.68,3426.09 2145.53,3425.12C2137.49,3424.97 2125.09,3424.98 2111.33,3425.07C2079.45,3425.28 2040.33,3425.9 2031.25,3425.9C2030.78,3425.9 1992.95,3428.76 1971.31,3428.29C1964.41,3428.15 1959.01,3427.57 1956.49,3426.65C1954.7,3426 1953.64,3425.01 1953.06,3424.17C1950.29,3420.07 1948.07,3404.24 1946.94,3382.73C1945.56,3356.42 1945.2,3321.24 1945.11,3289.88C1945,3254.84 1945.2,3224.46 1944.48,3193.1C1944.01,3172.62 1943.15,3151.71 1941.57,3128.81C1940.49,3113.36 1939.19,3085.24 1938.24,3055.26C1937.44,3029.88 1936.89,3003.17 1936.94,2981.67C1937.02,2949.3 1937.46,2880.17 1937.66,2850.08C1937.71,2843.69 1937.74,2839.06 1937.76,2836.92C1937.76,2836.64 1937.77,2836.39 1937.79,2836.14C1937.78,2836.01 1937.78,2835.88 1937.78,2835.75C1937.78,2835.52 1937.84,2835.28 1937.95,2835.03C1938.32,2833.35 1939.19,2832.46 1940.23,2832.12ZM2847.77,2844.24C2847.91,2844.93 2848.05,2845.78 2848.15,2846.62C2849.34,2856.36 2849.81,2877.19 2849.93,2900.07C2850.13,2937.84 2849.33,2981.14 2849.02,2989.93C2848.5,3004.88 2848.56,3024.43 2848.88,3046.36C2849.47,3086.58 2850.94,3134.86 2851.25,3177.47C2851.51,3214.41 2853.32,3259.36 2854.2,3300.3C2854.6,3319.01 2854.8,3336.89 2854.58,3352.76C2854.03,3390.31 2855.2,3422.89 2854.86,3438.15C2854.82,3439.89 2854.7,3441.61 2854.59,3442.93C2844.15,3442.81 2830.44,3442.13 2814.83,3441.14C2760.51,3437.68 2683.38,3430.38 2640.82,3428.51C2617.55,3427.49 2592.47,3426.8 2566.97,3426.29C2505.88,3425.07 2442.27,3424.81 2394.91,3423.2C2346.01,3421.53 2310.22,3420.22 2270.34,3419.04C2235.66,3418.01 2197.88,3417.09 2145.7,3416.12C2137.61,3415.97 2125.12,3415.98 2111.27,3416.07C2079.41,3416.28 2040.32,3416.9 2031.25,3416.9C2030.92,3416.9 2012.29,3418.3 1993.7,3418.98C1982.49,3419.39 1971.3,3419.55 1964.32,3418.95C1962.66,3418.81 1960.9,3418.48 1960.06,3418.31C1957.91,3413.68 1956.87,3400.13 1955.93,3382.26C1954.56,3356.08 1954.2,3321.07 1954.11,3289.85C1954,3254.74 1954.2,3224.32 1953.48,3192.9C1953.01,3172.28 1952.14,3151.24 1950.54,3128.18C1949.48,3112.8 1948.18,3084.82 1947.24,3054.98C1946.44,3029.7 1945.89,3003.1 1945.94,2981.69C1946.02,2949.34 1946.46,2880.22 1946.66,2850.14L1946.74,2839.33C1947.68,2839.18 1948.78,2839.03 1949.86,2838.91C1955.95,2838.29 1965.72,2837.76 1978.61,2837.31C2038.8,2835.18 2166.33,2834.8 2305.75,2835.45C2492.37,2836.31 2700.28,2839.02 2796.62,2841.87C2820.37,2842.58 2837.31,2843.28 2845.42,2843.98C2846.24,2844.05 2847.08,2844.14 2847.77,2844.24Z"/>
                </g>
                <g id="Door">
                    <path d="M2267.02,3421.02C2261.57,3418.68 2264.64,3353.96 2265.32,3334.58C2267.41,3274.32 2264.36,3218.95 2280.62,3160.39C2286.39,3139.61 2292.04,3108.64 2314.37,3076.3C2333.89,3048.03 2349.1,3037.93 2361.35,3029.66C2395.52,3006.6 2457.38,3005.33 2495.79,3018.2C2530.32,3029.78 2559.15,3056.39 2571.91,3084.7C2583.81,3111.11 2580.35,3114 2583.06,3128.62C2588.59,3158.45 2590.8,3188.23 2589.26,3218.83C2588.26,3238.61 2591.29,3308.17 2590.54,3330.3C2590.04,3345.26 2593.74,3428.01 2584.95,3430.95C2570.86,3435.66 2278.12,3425.78 2267.02,3421.02Z" style="fill:white;"/>
                    <path d="M2265.24,3425.15C2270.87,3427.57 2348.26,3431.57 2425.73,3434.07C2502.48,3436.55 2579.29,3437.59 2586.38,3435.22C2588.14,3434.63 2590.19,3432.83 2591.49,3429.28C2592.8,3425.68 2593.75,3419.59 2594.35,3412.06C2596.43,3385.83 2594.68,3341.08 2595.04,3330.45C2595.6,3313.75 2594.03,3270.08 2593.64,3241.06C2593.51,3231.69 2593.51,3223.87 2593.75,3219.05C2594.53,3203.61 2594.36,3188.37 2593.31,3173.23C2592.24,3158.02 2590.28,3142.92 2587.49,3127.8C2585.75,3118.44 2586.49,3113.83 2584.24,3104.95C2582.9,3099.66 2580.54,3092.9 2576.01,3082.85C2569.14,3067.61 2557.81,3052.82 2543.47,3040.46C2530.21,3029.04 2514.4,3019.69 2497.22,3013.93C2477.6,3007.36 2452.02,3004.35 2426.95,3005.95C2401.48,3007.57 2376.57,3013.97 2358.84,3025.93C2351.18,3031.1 2342.41,3036.98 2332.19,3047.32C2325.64,3053.95 2318.49,3062.42 2310.67,3073.74C2302.95,3084.92 2297.18,3095.93 2292.69,3106.43C2283.99,3126.82 2280.15,3145.26 2276.29,3159.18C2269.72,3182.82 2266.26,3205.94 2264.34,3229.06C2261.48,3263.58 2262.08,3298.12 2260.82,3334.43C2260.35,3347.88 2258.74,3383.09 2259.59,3404.34C2259.91,3412.39 2260.7,3418.59 2261.83,3421.36C2262.73,3423.56 2264.1,3424.66 2265.24,3425.15ZM2582.69,3426.89C2571.92,3428.91 2498.95,3427.43 2426.02,3425.07C2353.63,3422.73 2281.28,3419.56 2269.99,3417.21C2269.75,3416.15 2269.33,3414.12 2269.14,3412.37C2268.3,3404.36 2268.23,3391.41 2268.45,3378.14C2268.74,3361.03 2269.51,3343.38 2269.81,3334.74C2271.07,3298.58 2270.46,3264.19 2273.31,3229.8C2275.18,3207.23 2278.55,3184.66 2284.96,3161.59C2288.21,3149.88 2291.41,3134.89 2297.66,3118.24C2302.31,3105.83 2308.68,3092.47 2318.08,3078.86C2325.54,3068.06 2332.35,3059.97 2338.6,3053.64C2348.28,3043.84 2356.61,3038.29 2363.87,3033.39C2380.43,3022.22 2403.74,3016.44 2427.52,3014.93C2451.36,3013.41 2475.7,3016.21 2494.36,3022.47C2510.42,3027.85 2525.2,3036.6 2537.59,3047.28C2550.89,3058.74 2561.44,3072.42 2567.81,3086.55C2572.03,3095.93 2574.27,3102.23 2575.52,3107.16C2577.71,3115.81 2576.95,3120.31 2578.64,3129.44C2581.37,3144.22 2583.29,3158.99 2584.33,3173.85C2585.36,3188.64 2585.53,3203.52 2584.76,3218.6C2584.51,3223.55 2584.51,3231.57 2584.64,3241.18C2585.03,3270.06 2586.61,3313.52 2586.05,3330.14C2585.77,3338.32 2586.75,3366.7 2586.26,3391.28C2586.01,3404.06 2585.38,3415.8 2583.91,3422.9C2583.61,3424.4 2582.98,3426.11 2582.69,3426.89Z"/>
                    <path d="M2495.22,3214.27C2446.38,3222.56 2465.81,3295.72 2509.1,3279.17C2532.35,3270.28 2531.13,3243.78 2521.53,3228.66C2517.66,3222.57 2502.76,3211.06 2495.22,3214.27Z"/>
                    <path d="M2494.02,3209.91C2467.35,3214.67 2458.93,3236.68 2462.95,3255.81C2467.21,3276.1 2485.45,3293.03 2510.7,3283.37C2523.63,3278.43 2529.98,3268.76 2531.89,3258.13C2533.87,3247.1 2530.87,3234.97 2525.33,3226.24C2522.81,3222.28 2516.19,3216.19 2509.36,3212.55C2503.84,3209.59 2498.15,3208.46 2494.02,3209.91ZM2495.98,3218.7C2496.33,3218.65 2496.66,3218.55 2496.99,3218.41C2499.78,3217.22 2503.74,3219.48 2507.55,3221.9C2511.98,3224.72 2516.06,3228.44 2517.73,3231.07C2522.16,3238.04 2524.61,3247.73 2523.03,3256.54C2521.64,3264.32 2516.94,3271.35 2507.49,3274.97C2488.5,3282.22 2474.96,3269.21 2471.76,3253.96C2468.66,3239.2 2475.24,3222.23 2495.98,3218.7Z"/>
                </g>
                <g id="Windows">
                    <g id="Window-L">
                        <path d="M2020.4,3042.25C2016.89,3051.73 2020.7,3084.74 2021.2,3094.57C2022.44,3119.29 2022.6,3189.2 2023.65,3213.93C2025.05,3246.69 2021.02,3278.27 2027.47,3280.97C2028.83,3281.54 2100.35,3280.96 2116.89,3280.46C2135.81,3279.9 2207.8,3281.44 2209.53,3278.32C2210.2,3277.12 2208.99,3220.42 2209.19,3215.29C2210.76,3174.4 2209.98,3135.94 2209.98,3095.04C2209.98,3081.92 2213.97,3061.8 2209.72,3053.88C2206.01,3046.99 2171.13,3046.8 2156.73,3046.5C2133.49,3046.03 2105.85,3044.74 2082.65,3044.16C2059.08,3043.57 2042.4,3041.47 2020.4,3042.25Z" style="fill:white;"/>
                        <path d="M2020.24,3037.75C2018.42,3037.82 2016.82,3038.98 2016.18,3040.69C2014.89,3044.18 2014.37,3050.55 2014.44,3057.92C2014.57,3071.3 2016.37,3088.22 2016.7,3094.79C2017,3100.6 2017.23,3108.9 2017.42,3118.53C2018.07,3149.89 2018.35,3195.21 2019.16,3214.12C2020.06,3235.22 2018.71,3255.84 2019.36,3268.57C2019.64,3274.19 2020.4,3278.46 2021.62,3280.98C2022.68,3283.15 2024.14,3284.46 2025.73,3285.12C2026.19,3285.32 2034.11,3285.72 2045.35,3285.71C2068.06,3285.69 2105.61,3285.3 2117.03,3284.96C2132.03,3284.51 2180.38,3285.38 2200.7,3284.21C2205.25,3283.95 2208.54,3283.53 2210.06,3283.06C2212.11,3282.43 2213.05,3281.25 2213.46,3280.51C2213.64,3280.19 2214.22,3277.03 2214.23,3272.04C2214.28,3256.93 2213.53,3219.58 2213.69,3215.46C2214.31,3199.1 2214.57,3183.12 2214.65,3167.22C2214.76,3143.34 2214.48,3119.63 2214.48,3095.04C2214.48,3086.58 2216.14,3075.21 2216.18,3066.08C2216.2,3060.15 2215.46,3055.06 2213.68,3051.75C2212.24,3049.08 2207.7,3046.44 2200.99,3045.04C2188.39,3042.41 2167.3,3042.22 2156.82,3042L2082.76,3039.66C2066.27,3039.24 2053.14,3038.09 2039.21,3037.71C2033.15,3037.54 2026.94,3037.52 2020.24,3037.75ZM2205.2,3274.76C2203.82,3274.93 2201.97,3275.12 2200.19,3275.23C2179.93,3276.39 2131.72,3275.52 2116.76,3275.97L2029.67,3276.82C2029.49,3276.34 2029.2,3275.53 2029.07,3274.87C2028.41,3271.66 2028.21,3267.07 2028.17,3261.51C2028.08,3248.83 2028.91,3231.46 2028.15,3213.74C2027.34,3194.86 2027.07,3149.64 2026.42,3118.34C2026.22,3108.61 2025.99,3100.21 2025.69,3094.34C2025.36,3087.83 2023.56,3071.08 2023.44,3057.83C2023.4,3053.49 2023.49,3049.56 2023.94,3046.65L2023.94,3046.65C2029.17,3046.53 2034.12,3046.57 2038.96,3046.7C2052.9,3047.09 2066.03,3048.24 2082.54,3048.65L2156.64,3051C2164.22,3051.16 2177.52,3051.28 2188.87,3052.39C2194.35,3052.92 2199.35,3053.67 2202.9,3054.82C2204.24,3055.25 2205.4,3055.36 2205.76,3056.02C2207,3058.32 2207.2,3061.92 2207.18,3066.04C2207.14,3075.18 2205.48,3086.57 2205.48,3095.04C2205.48,3119.61 2205.76,3143.31 2205.65,3167.18C2205.57,3182.98 2205.32,3198.86 2204.69,3215.12C2204.53,3219.26 2205.28,3256.82 2205.23,3272.01C2205.23,3272.95 2205.21,3273.91 2205.2,3274.76Z"/>
                        <path d="M2052.51,3088.34C2051.56,3091.1 2050.96,3102.05 2050.78,3115.51C2050.49,3138.35 2051.01,3168.79 2051.01,3175.87C2051.01,3193.26 2050.57,3211.01 2050.92,3224.99C2051.15,3234.2 2051.74,3241.83 2052.95,3246.83C2053.25,3248.05 2054.01,3249.37 2055.67,3250.41C2057.45,3251.53 2061.7,3252.57 2067.62,3253.1C2078.88,3254.1 2097.12,3254.02 2113.53,3253.6C2127.44,3253.24 2154.64,3253.81 2166.64,3253.28C2171.26,3253.08 2174.22,3252.22 2174.89,3251.73C2175.65,3251.19 2176.67,3250.06 2177.22,3248.04C2177.84,3245.73 2178.17,3240.81 2178.19,3234.49C2178.24,3217.19 2176.42,3188.56 2176.42,3179.23C2176.42,3159.2 2175.26,3118.68 2174.55,3100.91C2174.4,3097.08 2174.26,3094.29 2174.17,3092.96C2173.9,3089.19 2171.03,3088.16 2170.85,3088.11C2166.05,3086.69 2159.54,3086.12 2152.2,3086.03C2139.42,3085.88 2123.96,3087.11 2111.2,3086.87C2095.19,3086.57 2072.12,3084.02 2061.88,3084.24C2058.35,3084.31 2055.91,3084.91 2054.85,3085.53C2053.53,3086.31 2052.85,3087.34 2052.51,3088.34ZM2165.33,3096.04C2165.4,3097.42 2165.47,3099.18 2165.56,3101.27C2166.26,3118.96 2167.42,3159.29 2167.42,3179.23C2167.42,3189.92 2169.83,3226.02 2169.03,3241.15C2168.97,3242.32 2168.83,3243.54 2168.71,3244.43L2113.3,3244.6C2094.28,3245.09 2072.71,3245.17 2063.17,3243.48C2062.58,3243.37 2061.89,3243.2 2061.35,3243.05C2060.49,3238.53 2060.1,3232.21 2059.92,3224.77C2059.57,3210.85 2060.01,3193.18 2060.01,3175.87C2060.01,3168.8 2059.49,3138.43 2059.78,3115.62C2059.91,3105.76 2060.09,3097.39 2060.61,3093.32C2061.08,3093.28 2061.59,3093.24 2062.06,3093.23C2072.24,3093.02 2095.14,3095.57 2111.03,3095.87C2123.81,3096.11 2139.29,3094.88 2152.09,3095.03C2157.06,3095.1 2161.59,3095.35 2165.33,3096.04Z"/>
                    </g>
                    <g id="Window-R">
                        <path d="M2640.96,3067.97C2638.58,3067.97 2638.81,3086.96 2638.62,3089.06C2636.5,3111.99 2640.55,3134.47 2640.55,3157.26C2640.55,3195.01 2639.05,3232.7 2640.32,3270.46C2640.66,3280.43 2636.67,3299.61 2641.72,3308.7C2641.77,3308.8 2641.86,3308.86 2641.95,3308.93C2644.54,3311.27 2672.12,3309.15 2678.27,3310.16C2708.27,3315.07 2739.32,3312.64 2769.58,3314.34C2776.94,3314.76 2801.11,3319.99 2806.77,3317.44C2808.04,3316.87 2806.66,3306.47 2806.66,3305.19C2806.66,3292.01 2807.94,3278.82 2807.94,3265.63C2807.94,3239.78 2808.21,3214.34 2809.08,3188.49C2809.77,3167.76 2813.97,3147.66 2811.95,3126.75C2811.2,3118.98 2815.43,3094.14 2812.63,3089.09C2811.28,3086.65 2793.33,3087.39 2790.78,3087.19C2768.16,3085.39 2745.5,3082.32 2722.87,3079.63C2703.39,3077.33 2682.92,3075.85 2663.87,3071.81C2660.15,3071.02 2643.74,3064.21 2640.96,3067.97Z" style="fill:white;"/>
                        <path d="M2637.97,3064.59C2636.96,3065.37 2636.03,3066.64 2635.53,3068.57C2634.25,3073.49 2634.3,3086.87 2634.14,3088.64C2633.49,3095.68 2633.4,3102.68 2633.6,3109.65C2634.06,3125.55 2636.05,3141.33 2636.05,3157.26C2636.05,3183.69 2635.31,3210.09 2635.31,3236.5C2635.31,3247.87 2635.44,3259.24 2635.82,3270.61C2636.05,3277.4 2634.28,3288.44 2634.71,3297.68C2634.95,3302.82 2635.88,3307.45 2637.78,3310.88C2637.78,3310.88 2638.94,3312.28 2638.94,3312.28C2639.75,3313.02 2641.84,3313.97 2645.01,3314.28C2653.18,3315.08 2672.54,3313.78 2677.54,3314.6C2686.72,3316.1 2696.01,3316.93 2705.33,3317.4C2726.63,3318.48 2748.18,3317.65 2769.33,3318.84C2774.8,3319.14 2789.58,3322.12 2799.13,3322.57C2803.35,3322.78 2806.76,3322.38 2808.62,3321.54C2809.65,3321.08 2811.3,3319.72 2811.68,3316.92C2812.08,3313.93 2811.16,3306.3 2811.16,3305.19L2812.44,3265.63C2812.44,3252.72 2812.51,3239.92 2812.68,3227.12C2812.86,3214.32 2813.14,3201.53 2813.57,3188.64C2814.06,3174.1 2816.27,3159.88 2816.85,3145.47C2817.11,3139.14 2817.05,3132.76 2816.43,3126.31C2815.88,3120.68 2818.05,3105.93 2818.1,3096.56C2818.12,3092.13 2817.53,3088.64 2816.57,3086.91C2815.86,3085.64 2813.24,3083.79 2809.08,3083.26C2803.18,3082.51 2793.02,3082.85 2791.14,3082.7C2782.13,3081.98 2773.11,3081.06 2764.08,3080.05C2750.52,3078.52 2736.95,3076.77 2723.39,3075.16C2711.76,3073.79 2699.77,3072.7 2687.93,3071.19C2680.1,3070.19 2672.34,3069.01 2664.8,3067.41C2661.96,3066.81 2651.95,3062.87 2645.78,3062.4C2642.22,3062.13 2639.52,3063.09 2637.96,3064.59L2637.97,3064.59ZM2644.1,3071.48C2646.54,3072.11 2660.27,3075.65 2662.93,3076.21C2670.71,3077.86 2678.71,3079.09 2686.79,3080.12C2698.65,3081.64 2710.67,3082.72 2722.34,3084.1C2735.91,3085.71 2749.49,3087.46 2763.07,3088.99C2772.2,3090.02 2781.32,3090.95 2790.43,3091.67C2792.39,3091.83 2803.88,3091.33 2809.04,3092.35C2809.36,3094.07 2809.15,3096.89 2808.99,3100.11C2808.55,3109.65 2806.97,3122.05 2807.47,3127.18C2808.05,3133.22 2808.1,3139.18 2807.86,3145.11C2807.28,3159.54 2805.07,3173.78 2804.58,3188.33C2804.14,3201.29 2803.86,3214.14 2803.68,3226.99C2803.51,3239.84 2803.44,3252.68 2803.44,3265.63L2802.16,3305.19C2802.16,3305.9 2802.46,3310.88 2802.63,3313.74C2800.9,3313.8 2798.59,3313.57 2796.03,3313.32C2786.67,3312.44 2774.66,3310.12 2769.83,3309.85C2748.66,3308.66 2727.1,3309.49 2705.79,3308.41C2696.8,3307.96 2687.85,3307.17 2678.99,3305.72C2677.4,3305.46 2674.51,3305.36 2670.97,3305.37C2663.93,3305.39 2654.06,3305.78 2647.86,3305.46C2646.87,3305.41 2645.78,3305.28 2645.04,3305.18C2644.17,3302.97 2643.84,3300.22 2643.7,3297.27C2643.28,3288.07 2645.05,3277.07 2644.82,3270.31C2644.44,3259.04 2644.31,3247.77 2644.31,3236.5C2644.31,3210.09 2645.05,3183.69 2645.05,3157.26C2645.05,3141.24 2643.06,3125.37 2642.6,3109.39C2642.41,3102.78 2642.48,3096.14 2643.1,3089.47C2643.25,3087.9 2643.07,3076.46 2644.1,3071.48Z"/>
                        <path d="M2675.2,3121.32C2674.71,3121.74 2673.71,3122.84 2673.38,3125.02C2673.14,3126.64 2673.04,3130.04 2673.09,3134.68C2673.35,3157.68 2676.88,3213.45 2677.49,3224.29C2678.24,3237.89 2676.97,3252.72 2677.73,3262.79C2678.08,3267.56 2678.95,3271.4 2680.36,3273.95C2680.78,3274.69 2681.55,3275.62 2682.98,3276.33C2684.44,3277.04 2687.62,3277.8 2691.91,3278.37C2700.81,3279.53 2715.15,3280.3 2726.63,3280.55C2744.64,3280.93 2761.03,3283.58 2768.89,3283.35C2772.75,3283.23 2775.24,3282.14 2776.4,3280.98C2778.14,3279.24 2779.32,3276.54 2779.74,3272.86C2780.37,3267.29 2779.33,3258.74 2778.75,3248.47C2778.34,3241.08 2778.2,3233.43 2778.2,3225.61C2778.2,3208.08 2778.89,3189.72 2778.73,3171.61C2778.68,3166.44 2779.57,3150.86 2779.26,3138.96C2779.06,3131.64 2778.19,3125.56 2776.84,3123.13C2776.47,3122.48 2775.74,3121.5 2774.17,3120.87C2773.29,3120.52 2771.38,3120.12 2768.7,3119.82C2759.14,3118.77 2737.44,3118.17 2724.51,3118.21C2711.88,3118.25 2696.56,3116.46 2686.51,3117.48C2681.47,3118 2677.55,3119.32 2675.2,3121.32ZM2769.5,3129.02C2770.03,3131.28 2770.15,3134.97 2770.26,3139.19C2770.57,3151.04 2769.68,3166.54 2769.73,3171.69C2769.89,3189.78 2769.2,3208.11 2769.2,3225.61C2769.2,3233.6 2769.34,3241.42 2769.77,3248.98C2770.15,3255.76 2770.76,3261.76 2770.91,3266.59C2770.99,3268.99 2770.96,3271.07 2770.67,3272.75C2770.57,3273.29 2770.5,3273.78 2770.33,3274.17C2769.64,3274.24 2768.17,3274.38 2766.96,3274.36C2761.09,3274.25 2751.83,3273.07 2741.09,3272.27C2736.54,3271.93 2731.74,3271.65 2726.82,3271.55C2713.7,3271.27 2696.7,3270.32 2689.13,3268.82C2688.67,3268.72 2688.15,3268.59 2687.74,3268.47C2686.79,3265.92 2686.59,3262.09 2686.5,3257.56C2686.3,3247.88 2687.12,3235.39 2686.47,3223.79C2685.87,3212.99 2682.34,3157.47 2682.09,3134.58C2682.06,3131.84 2682.16,3128.95 2682.23,3127.43C2684.4,3126.43 2687.79,3126.28 2691.77,3126.18C2701.38,3125.94 2713.92,3127.24 2724.54,3127.21C2737.17,3127.17 2758.37,3127.74 2767.72,3128.77C2768.3,3128.83 2768.95,3128.93 2769.5,3129.02Z"/>
                    </g>
                </g>
                <g id="Roof">
                    <g id="Freize">
                        <path d="M1912.32,2852.88C1908.78,2852.88 1906.5,2877.36 1906.27,2879.82C1904.77,2896 1908.85,2936.19 1933.69,2927.81C1968.5,2916.05 1978.23,2846.31 1972.24,2851.7C1967.04,2856.38 1995.32,2937.55 2023.34,2932.21C2065.25,2924.22 2071.01,2855.11 2071.01,2855.11C2072.5,2862.94 2092.46,2923.02 2113.19,2921.37C2140.83,2919.17 2160.29,2853.44 2158.92,2854.68C2156.73,2856.65 2172.34,2920.49 2195.43,2921.05C2219.09,2921.63 2230.71,2851.84 2230.71,2851.84C2230.71,2851.84 2252.83,2914.87 2269.91,2914.07C2294.08,2912.93 2314.48,2852.64 2314.51,2853.11C2315.23,2864.7 2339.35,2911.78 2361.93,2913.32C2386.78,2915.01 2400.39,2865.14 2399.47,2854.24C2399.47,2854.24 2421.3,2913.04 2440.49,2913.95C2459.31,2914.85 2481.57,2883 2481.57,2855.83C2481.57,2853.11 2497,2924.53 2523.42,2925.31C2557.82,2926.34 2557.21,2857.58 2565.07,2857.96C2565.48,2857.98 2573.96,2908.55 2594.45,2922.25C2623.98,2942.01 2647.71,2865.35 2649.88,2852.93C2649.93,2852.68 2671.21,2903.99 2687.22,2910.19C2711.68,2919.66 2743.91,2857.99 2738.47,2853.41C2737.9,2852.92 2737.68,2916.65 2764.28,2925.27C2788.07,2932.98 2813.28,2868.43 2807.91,2865.45C2807.91,2865.45 2811.36,2911.18 2827.17,2915.24C2843.54,2919.45 2866.62,2922.89 2876.2,2898.24C2879.32,2890.21 2878.79,2874.58 2881.04,2866.49C2884.29,2854.75 2872.59,2834.85 2866.9,2830.75C2859.27,2825.26 1977.65,2819.86 1936.86,2825.4C1917.54,2828.02 1916.4,2853.62 1912.32,2852.88Z" style="fill:white;"/>
                        <path d="M1910.34,2848.83C1908.94,2849.44 1907.44,2850.76 1906.43,2853.15C1903.76,2859.41 1901.99,2877.26 1901.79,2879.41C1900.86,2889.41 1902.03,2908.03 1908.27,2920.15C1913.56,2930.41 1922.11,2936.47 1935.12,2932.07C1950.03,2927.04 1960.92,2912.4 1967.94,2896.65C1970.36,2891.23 1972.32,2885.7 1973.86,2880.45C1977.61,2890.41 1982.71,2901.5 1988.66,2911.1C1993.75,2919.32 1999.48,2926.45 2005.43,2931.04C2011.49,2935.72 2017.88,2937.83 2024.18,2936.63C2038.92,2933.82 2049.66,2924.23 2057.33,2912.33C2065.23,2900.08 2069.81,2885.4 2072.39,2874.03C2076.68,2885.42 2082.99,2899.7 2090.31,2910.15C2097.34,2920.19 2105.63,2926.48 2113.55,2925.85C2126.62,2924.81 2138.53,2911.42 2147.18,2895.96C2151.5,2888.23 2155.08,2880.1 2157.76,2873.19C2160.31,2882.08 2164.17,2892.88 2169.06,2902.21C2175.97,2915.4 2185.33,2925.3 2195.32,2925.55C2203.84,2925.76 2211.54,2918.94 2217.47,2908.45C2224.28,2896.39 2229.12,2879.63 2231.99,2867.62C2236.26,2877.98 2242.58,2891.93 2249.41,2902.34C2256.02,2912.42 2263.7,2918.86 2270.12,2918.56C2281.86,2918.01 2293.33,2905.52 2301.93,2890.99C2306.93,2882.53 2311.07,2873.54 2313.99,2866.62C2317.99,2876.17 2324.7,2888.35 2332.76,2898.34C2341.46,2909.11 2351.8,2917.14 2361.63,2917.81C2372.89,2918.57 2382.49,2910.69 2389.54,2899.45C2395.09,2890.6 2399.09,2879.79 2401.45,2870.7C2405.93,2880.67 2412.42,2893.69 2419.59,2903.38C2426.13,2912.22 2433.53,2918.13 2440.28,2918.45C2450,2918.91 2460.78,2912.12 2469.38,2901.21C2475.09,2893.96 2479.87,2884.97 2482.83,2875.57C2485.84,2884.78 2490.02,2895.95 2495.25,2905.61C2502.61,2919.2 2512.39,2929.49 2523.28,2929.81C2534.38,2930.14 2542.47,2924.47 2548.42,2915.84C2556.9,2903.53 2560.8,2884.8 2563.82,2872.16C2565.93,2880.35 2569.14,2891.15 2573.59,2901.07C2578.29,2911.54 2584.45,2920.98 2591.95,2925.99C2603.67,2933.84 2614.76,2929.75 2624.31,2919.38C2636.59,2906.05 2646.16,2881.69 2650.99,2866.19C2652.09,2868.52 2653.34,2871.08 2654.7,2873.78C2659.7,2883.71 2666.23,2895.38 2672.81,2903.58C2677.11,2908.93 2681.56,2912.82 2685.6,2914.39C2696.39,2918.56 2708.88,2911.68 2719.38,2900.15C2725.56,2893.36 2731.1,2885.13 2735.31,2877.5C2736,2882.86 2736.99,2888.64 2738.41,2894.31C2742.45,2910.48 2750.22,2925.45 2762.89,2929.55C2773.58,2933.01 2785.08,2925.01 2794.14,2912.41C2799.3,2905.24 2803.76,2896.75 2807.06,2889C2808.33,2894.55 2810.01,2900.27 2812.19,2905.14C2815.57,2912.67 2820.35,2918.14 2826.05,2919.6C2837.38,2922.52 2851.66,2924.8 2863.23,2919.39C2870.23,2916.13 2876.39,2910.18 2880.39,2899.87C2881.17,2897.86 2881.77,2895.44 2882.23,2892.77C2883.63,2884.62 2883.65,2873.9 2885.37,2867.69C2886.82,2862.46 2885.92,2855.82 2883.65,2849.36C2880.14,2839.38 2873.45,2829.92 2869.53,2827.1C2869.11,2826.8 2867.16,2826.01 2863.62,2825.71C2858.05,2825.24 2846.45,2824.77 2829.91,2824.31C2768.35,2822.6 2637.79,2821.04 2494.97,2819.97C2245.71,2818.12 1959.11,2817.84 1936.26,2820.94C1929.07,2821.92 1923.93,2825.49 1920.16,2829.98C1915.1,2836 1911.14,2846.61 1910.34,2848.83ZM2864.9,2834.91C2864.25,2834.83 2863.11,2834.7 2861.97,2834.61C2855.08,2834.09 2840.7,2833.57 2820.37,2833.06C2741.04,2831.09 2571.53,2829.33 2401.9,2828.37C2179.79,2827.1 1957.46,2827.14 1937.47,2829.86C1932.8,2830.49 1929.5,2832.86 1927.05,2835.77C1921.75,2842.07 1919.85,2850.62 1917.93,2853.84C1916.94,2855.51 1915.77,2856.49 1914.59,2856.99C1912.27,2862.84 1910.93,2878.35 1910.75,2880.24C1909.94,2889.02 1910.79,2905.39 1916.27,2916.02C1919.45,2922.19 1924.43,2926.18 1932.25,2923.55C1942.4,2920.12 1950.06,2911.12 1955.8,2900.84C1962.81,2888.3 1966.93,2873.73 1968.56,2863.7C1968.08,2861.72 1967.71,2859.93 1967.48,2858.37C1966.65,2852.96 1968,2849.47 1969.23,2848.36C1971.47,2846.34 1973.57,2846.64 1975.17,2847.49C1976.32,2848.1 1978.31,2850.42 1978.38,2854.87C1978.42,2856.94 1978.2,2859.8 1977.71,2863.2C1980.73,2874.76 1987.57,2892.25 1996.31,2906.36C2000.77,2913.57 2005.71,2919.89 2010.92,2923.91C2014.71,2926.83 2018.57,2928.54 2022.49,2927.79C2034.69,2925.46 2043.42,2917.3 2049.77,2907.45C2064.01,2885.37 2066.52,2854.73 2066.52,2854.73C2066.71,2852.49 2068.53,2850.73 2070.77,2850.61C2073.02,2850.49 2075.01,2852.05 2075.43,2854.27C2076.29,2858.79 2083.54,2881.26 2093.48,2898.37C2096.88,2904.22 2100.57,2909.43 2104.47,2912.95C2107.21,2915.43 2109.95,2917.11 2112.83,2916.88C2119.35,2916.36 2125.16,2911.44 2130.39,2905C2141.87,2890.88 2150.08,2869.1 2153.24,2859C2153.64,2857.7 2154.01,2856.35 2154.24,2855.45C2154.24,2855.05 2154.26,2854.71 2154.3,2854.45C2154.55,2852.8 2155.33,2851.85 2155.91,2851.33C2157.41,2849.98 2158.88,2850.04 2159.89,2850.26C2160.58,2850.4 2164.02,2851.57 2163.42,2855.68C2163.39,2855.87 2163.34,2856.11 2163.28,2856.41C2163.33,2857.01 2163.43,2857.9 2163.55,2858.67C2164.91,2866.81 2169.75,2884.14 2177.03,2898.04C2182.18,2907.86 2188.1,2916.37 2195.54,2916.55C2198.55,2916.63 2201.18,2914.91 2203.64,2912.38C2207.26,2908.66 2210.38,2903.18 2213.09,2897.09C2221.92,2877.31 2226.27,2851.1 2226.27,2851.1C2226.61,2849.08 2228.27,2847.53 2230.32,2847.36C2232.37,2847.18 2234.27,2848.41 2234.95,2850.35C2234.95,2850.35 2243.03,2873.38 2253.14,2891.16C2256.86,2897.71 2260.82,2903.54 2264.78,2907.02C2266.5,2908.52 2268.07,2909.65 2269.7,2909.57C2275.46,2909.3 2280.74,2904.7 2285.68,2898.75C2296.41,2885.78 2304.76,2865.81 2308.35,2856.6C2309.22,2854.39 2309.81,2852.79 2310.1,2852.02C2312.3,2846.19 2318.97,2852.39 2319,2852.83C2319.41,2859.49 2328.28,2878.46 2339.76,2892.69C2346.67,2901.25 2354.43,2908.3 2362.24,2908.83C2370.41,2909.38 2376.8,2902.82 2381.91,2894.67C2390.79,2880.53 2395.51,2860.84 2394.99,2854.62C2394.8,2852.38 2396.3,2850.34 2398.49,2849.85C2400.69,2849.36 2402.91,2850.57 2403.69,2852.68C2403.69,2852.68 2411.99,2875.06 2422.8,2892.12C2426.07,2897.29 2429.56,2901.96 2433.14,2905.27C2435.69,2907.63 2438.17,2909.34 2440.71,2909.46C2449.76,2909.89 2459.3,2901.15 2466.45,2889.74C2472.75,2879.7 2477.07,2867.32 2477.07,2855.83C2477.07,2850.9 2481.55,2851.12 2482.65,2851.38C2483.27,2851.53 2484.55,2851.89 2485.49,2853.52C2485.6,2853.7 2485.83,2854.14 2486.06,2854.89C2486.32,2855.71 2486.83,2857.57 2487.56,2860.16C2490.48,2870.53 2497.24,2893.3 2507.32,2908.23C2512.03,2915.22 2517.26,2920.63 2523.55,2920.82C2531.33,2921.05 2536.84,2916.78 2541.01,2910.73C2551.21,2895.93 2554.04,2871.18 2557.5,2861.1C2559.43,2855.45 2562.86,2853.35 2565.29,2853.47C2565.58,2853.48 2568.68,2853.72 2569.57,2857.28C2569.73,2857.92 2570.02,2859.28 2570.44,2861.19C2572.05,2868.37 2575.68,2883.74 2581.8,2897.38C2585.75,2906.17 2590.66,2914.3 2596.95,2918.51C2607.1,2925.3 2615.88,2917.12 2623.43,2905.9C2635.86,2887.43 2644.22,2859.18 2645.45,2852.15C2645.75,2850.43 2646.73,2849.58 2647.54,2849.09C2648.43,2848.54 2649.47,2848.28 2650.68,2848.5C2651.16,2848.58 2652.48,2848.78 2653.58,2850.36C2653.64,2850.45 2653.79,2850.66 2653.96,2851.01C2654.01,2851.12 2654.12,2851.37 2654.28,2851.72C2654.71,2852.68 2655.59,2854.68 2656.82,2857.38C2660.9,2866.32 2668.93,2883.06 2677.44,2894.81C2681.34,2900.19 2685.16,2904.57 2688.85,2905.99C2696.7,2909.03 2705.09,2902.48 2712.72,2894.09C2721.9,2884.01 2729.61,2870.46 2732.97,2861.48C2733.31,2860.57 2733.61,2859.55 2733.85,2858.61L2733.83,2857.45C2733.81,2855.47 2733.85,2854.06 2733.91,2853.4C2734.4,2847.63 2740.78,2849.46 2741.38,2849.97C2742.84,2851.2 2744.18,2854.43 2743.07,2859.26L2742.89,2859.97C2743.23,2870.45 2745.02,2891.47 2752.07,2906.49C2755.29,2913.36 2759.53,2919 2765.66,2920.99C2768.62,2921.95 2771.58,2921.17 2774.47,2919.5C2778.87,2916.95 2783.03,2912.44 2786.83,2907.15C2794.52,2896.47 2800.57,2882.62 2803.04,2873.65C2803.39,2872.4 2803.65,2870.97 2803.83,2869.8C2803.55,2867.3 2803.43,2865.78 2803.43,2865.78C2803.3,2864.13 2804.1,2862.55 2805.49,2861.66C2806.89,2860.76 2808.66,2860.71 2810.1,2861.51C2811.64,2862.37 2813.58,2865.35 2812.94,2870.36C2813.7,2876.63 2815.35,2887.43 2818.52,2896.65C2820.87,2903.46 2823.59,2909.68 2828.29,2910.89C2836.31,2912.95 2846.07,2914.94 2854.8,2912.84C2861.91,2911.13 2868.18,2906.45 2872.01,2896.61C2872.59,2895.09 2873.01,2893.26 2873.36,2891.25C2874.81,2882.8 2874.92,2871.71 2876.7,2865.29C2877.99,2860.64 2876.25,2854.53 2873.82,2848.94C2871.16,2842.81 2867.54,2837.24 2864.9,2834.91Z"/>
                    </g>
                    <g id="Roof1" serif:id="Roof">
                        <path d="M2069.83,2301.72C2060.5,2305.92 1948.64,2724.18 1948.43,2725.11C1940.68,2759.99 1906.71,2852.73 1908.25,2853.42C1916.34,2857.05 2030.38,2849.64 2096.62,2845.39C2137.67,2842.76 2256.89,2845.67 2297.92,2844.34C2349.42,2842.67 2468.85,2839.94 2501.9,2842.06C2600.67,2848.41 2579.95,2843.33 2678.86,2849.27C2736.55,2852.73 2753.7,2851.7 2811.26,2857.33C2849.39,2861.07 2891.82,2867.86 2893.92,2865.97C2894.98,2865.01 2881.22,2810.63 2872.75,2787.77C2867.3,2773.05 2844.27,2678.96 2840.06,2663.78C2822.95,2602.13 2819.51,2579.36 2804.68,2517.07C2793.72,2471.05 2780.44,2386.86 2772.86,2343.9C2770.95,2333.09 2764.98,2299.66 2759.82,2290.36C2757.36,2285.94 2650.8,2290.22 2609.88,2290.22C2483.26,2290.22 2349.4,2284.38 2222.9,2292.5C2199.62,2294 2087.09,2293.94 2069.83,2301.72Z" style="fill:white;"/>
                        <path d="M2067.98,2297.62C2067.34,2297.9 2066.4,2298.51 2065.51,2299.8C2064.65,2301.06 2063.35,2303.83 2061.78,2307.98C2056.88,2320.9 2048.33,2348.65 2038,2384.02C2001.98,2507.32 1944.18,2723.47 1944.04,2724.14C1938.06,2751.02 1916.44,2812.4 1907.67,2839.13C1905.8,2844.86 1904.5,2849.05 1904.02,2851.07C1903.01,2855.32 1905.87,2857.28 1906.41,2857.53C1909.24,2858.8 1924.45,2859.15 1946.07,2858.4C1987.19,2856.96 2052.69,2852.72 2096.91,2849.88C2106.57,2849.26 2120.59,2848.96 2136.91,2848.83C2189.83,2848.4 2266.73,2849.85 2298.07,2848.84C2326.68,2847.91 2376.28,2846.65 2420.36,2846.09C2455.44,2845.63 2487,2845.61 2501.62,2846.55C2524.95,2848.05 2541.62,2848.91 2554.78,2849.43C2597.34,2851.12 2603.05,2849.23 2678.59,2853.76C2714.19,2855.9 2734.36,2856.32 2758.11,2857.66C2772.79,2858.48 2788.85,2859.66 2810.82,2861.81C2839.55,2864.62 2870.72,2869.17 2885.26,2870.44C2889.37,2870.8 2892.3,2870.87 2893.73,2870.68C2895.41,2870.45 2896.41,2869.79 2896.93,2869.32C2897.29,2868.99 2898.81,2867.14 2898.29,2863.7C2897.91,2861.15 2896.75,2855.85 2895.1,2849.04C2890.66,2830.79 2882.64,2801.5 2876.97,2786.21C2875.11,2781.19 2871.2,2766.85 2866.69,2749.6C2858.01,2716.4 2847.16,2672.53 2844.39,2662.58C2837.82,2638.89 2833.27,2620.95 2829.31,2604.3C2822.99,2577.67 2818.18,2554.31 2809.06,2516.03C2805.66,2501.75 2802.03,2483.78 2798.43,2464.51C2790.43,2421.78 2782.51,2372.68 2777.29,2343.12C2776.01,2335.86 2772.91,2318.49 2769.45,2304.92C2767.6,2297.69 2765.6,2291.5 2763.75,2288.17C2763.3,2287.35 2762.13,2286.01 2759.64,2285.35C2757.28,2284.74 2752.2,2284.29 2745.18,2284.07C2714,2283.11 2641.89,2285.72 2609.88,2285.72C2534.02,2285.72 2455.56,2283.62 2377.64,2283.69C2325.41,2283.73 2273.42,2284.75 2222.61,2288.01C2207.53,2288.98 2154.99,2289.3 2115.18,2291.52C2092.77,2292.76 2074.27,2294.78 2067.98,2297.62ZM2756.59,2293.97C2758.41,2298.02 2760.26,2304.94 2762.01,2312.42C2764.88,2324.69 2767.33,2338.46 2768.43,2344.68C2773.65,2374.27 2781.57,2423.4 2789.58,2466.17C2793.22,2485.6 2796.87,2503.72 2800.3,2518.12C2809.42,2556.39 2814.23,2579.75 2820.56,2606.38C2824.53,2623.12 2829.11,2641.16 2835.72,2664.99C2838.48,2674.93 2849.31,2718.73 2857.98,2751.88C2862.6,2769.53 2866.63,2784.2 2868.53,2789.33C2875.02,2806.84 2884.63,2842.99 2888.18,2858.98C2888.38,2859.88 2888.57,2860.79 2888.74,2861.65C2887.88,2861.61 2886.95,2861.55 2886.05,2861.47C2871.53,2860.21 2840.39,2855.66 2811.7,2852.85C2789.58,2850.69 2773.4,2849.5 2758.61,2848.67C2734.88,2847.34 2714.72,2846.91 2679.13,2844.78C2603.48,2840.24 2597.76,2842.13 2555.14,2840.44C2542.03,2839.92 2525.43,2839.06 2502.19,2837.57C2487.45,2836.62 2455.62,2836.63 2420.25,2837.09C2376.11,2837.65 2326.43,2838.91 2297.78,2839.84C2266.48,2840.86 2189.69,2839.4 2136.83,2839.83C2120.32,2839.96 2106.12,2840.28 2096.34,2840.9C2058.45,2843.33 2004.93,2846.8 1964.56,2848.64C1945.67,2849.5 1929.68,2850 1919.56,2849.87C1917.24,2849.84 1915.28,2849.83 1913.73,2849.77C1914.35,2847.73 1915.19,2845.08 1916.23,2841.94C1925.06,2815.01 1946.81,2753.17 1952.82,2726.09C1952.95,2725.49 1998.99,2553.35 2034.44,2428.86C2048.92,2378.04 2061.62,2335.17 2068.71,2315.22C2070.22,2310.96 2072.09,2306.71 2072.67,2305.43C2079.32,2303.03 2095.88,2301.61 2115.68,2300.5C2155.52,2298.28 2208.1,2297.96 2223.19,2296.99C2273.81,2293.74 2325.61,2292.73 2377.65,2292.69C2455.57,2292.62 2534.02,2294.72 2609.88,2294.72C2641.82,2294.72 2713.79,2292.1 2744.91,2293.07C2749.69,2293.22 2754.71,2293.75 2756.59,2293.97Z"/>
                    </g>
                    <path id="Roof-Window" serif:id="Roof Window" d="M2263.48,2339.39C2262.09,2342.62 2261.28,2372.37 2261.34,2410C2261.42,2468.91 2262.85,2547.59 2264.1,2570.96C2266.24,2610.95 2265.1,2701.33 2265.98,2756.88C2266.29,2776.51 2266.88,2791.86 2267.91,2799.25C2268.39,2802.66 2269.2,2804.82 2269.83,2805.71C2270.02,2805.98 2271.91,2807.72 2275.93,2807.83C2279.83,2807.92 2288.01,2807.84 2299.14,2807.63C2357.33,2806.49 2497.11,2801.66 2529.3,2800.05C2572.81,2797.88 2683.57,2804.04 2731.1,2803.21C2741.34,2803.03 2748.78,2802.48 2752.29,2801.55C2754.74,2800.9 2756.11,2799.77 2756.74,2798.92C2757.35,2798.1 2758.07,2796.38 2758.37,2793.73C2758.96,2788.61 2758.66,2778.07 2757.82,2764.71C2755.24,2723.93 2747.72,2656.15 2747.27,2639.71C2746.71,2619.29 2745.74,2601.65 2744.54,2585.19C2741.53,2544.01 2737.03,2510.26 2733.66,2458.78C2733.13,2450.72 2732.8,2422.57 2732.74,2394.47C2732.68,2366.1 2732.9,2337.77 2733.5,2330.24C2733.64,2328.55 2733.08,2326.52 2730.53,2325.12C2728.88,2324.22 2724.76,2323.37 2718.88,2322.97C2692.92,2321.22 2627.16,2324.53 2618.82,2324.91C2561.98,2327.54 2505.05,2329.05 2448.24,2331.29C2423.83,2332.25 2399.43,2333.34 2375.07,2334.71C2356.28,2335.77 2313.64,2330.71 2287.97,2331.48C2279.7,2331.73 2273.06,2332.64 2269.13,2334.32C2266.14,2335.6 2264.33,2337.43 2263.48,2339.39ZM2724.35,2332.69C2723.87,2343.3 2723.69,2368.88 2723.74,2394.49C2723.8,2422.84 2724.14,2451.23 2724.68,2459.37C2728.05,2510.88 2732.55,2544.65 2735.56,2585.85C2736.76,2602.18 2737.72,2619.69 2738.27,2639.96C2738.67,2654.48 2744.55,2708.94 2747.72,2749.68C2748.92,2765.07 2749.73,2778.47 2749.69,2786.93C2749.68,2789.16 2749.47,2791.54 2749.32,2792.92C2748.11,2793.16 2746.09,2793.5 2744.11,2793.66C2736.35,2794.3 2723.88,2794.39 2708.64,2794.2C2654.68,2793.53 2566.56,2789.18 2528.85,2791.07C2496.69,2792.67 2357.09,2797.49 2298.97,2798.63C2288.8,2798.83 2281.14,2798.91 2277.03,2798.84C2276.8,2797.44 2276.51,2795.49 2276.35,2793.62C2275.64,2785.48 2275.23,2772.53 2274.98,2756.74C2274.09,2701.09 2275.23,2610.54 2273.09,2570.48C2272,2550.11 2270.78,2487.58 2270.43,2432.93C2270.2,2397.69 2270.34,2365.74 2271.12,2350.52C2271.32,2346.7 2271.4,2344.13 2271.67,2343.16C2271.89,2343.03 2272.53,2342.64 2273.01,2342.46C2274.09,2342.05 2275.41,2341.72 2276.94,2341.45C2282.4,2340.48 2290.13,2340.28 2298.93,2340.45C2324.64,2340.93 2359.16,2344.62 2375.58,2343.7C2399.89,2342.33 2424.23,2341.24 2448.59,2340.28C2505.43,2338.05 2562.37,2336.53 2619.24,2333.9C2627.49,2333.52 2692.58,2330.22 2718.28,2331.95C2720.55,2332.11 2722.83,2332.43 2724.35,2332.69Z"/>
                </g>
            </g>
            <g id="Head">
                <path d="M1938.49,2717.94C1948.36,2717.94 1953.99,2805.11 2010.23,2790.8C2064.84,2776.89 2178.07,2714.04 2229.66,2683.21C2267.78,2660.43 2314.66,2625.22 2317.2,2626.37C2323.64,2629.27 2320.97,2727.62 2328.91,2741.92C2334.73,2752.39 2424.58,2744.72 2438.82,2744.54C2518.94,2743.53 2573.26,2743.9 2649.42,2742.84C2664.51,2742.62 2706.03,2747.63 2708.68,2744.06C2715.41,2734.99 2705.71,2658.35 2703.12,2645.31C2700.56,2632.37 2698.53,2574.58 2696.78,2558.81C2692.59,2521.23 2697.08,2480.91 2691.83,2443.09C2689.55,2426.72 2690.86,2391.85 2684.11,2376.66C2673.92,2353.7 2616.49,2362.76 2614.08,2348.18C2613.53,2344.88 2644.88,2308.95 2620.32,2287.2C2589.93,2260.28 2493.36,2259.71 2492.34,2258.79C2487.72,2254.64 2442.17,2135.01 2401.07,2120.07C2357.48,2104.23 2338.91,2221.58 2331.56,2225.18C2329.68,2226.11 2216.98,2225.97 2215.15,2225.46C2213.91,2225.1 2187.15,2118.45 2134.87,2120.62C2088.27,2122.55 2049.35,2251.05 2038.87,2292.88C2032.53,2318.21 2029.56,2337.08 2015.44,2359.95C1955.21,2457.54 1816.69,2490.82 1803.79,2615.62C1798.5,2666.73 1818.77,2712.74 1868.95,2721.47C1897.52,2726.45 1948.58,2716.95 1938.49,2717.94Z" style="fill:white;"/>
                <path d="M2329.01,2221.14L2218.34,2221.13C2217.92,2219.84 2217.38,2218.15 2216.71,2216.11C2211.93,2201.49 2201.03,2170.05 2184.09,2146.55C2171.09,2128.52 2154.46,2115.3 2134.69,2116.12C2117.39,2116.84 2100.59,2133.26 2086.2,2157.03C2060.62,2199.28 2041.42,2264.2 2034.51,2291.78C2030.69,2307.02 2028.12,2319.9 2023.55,2332.74C2020.66,2340.83 2016.97,2348.91 2011.61,2357.59C1969.61,2425.63 1889.37,2462.25 1840.54,2520.7C1818.91,2546.58 1803.29,2576.63 1799.31,2615.15C1796.64,2640.96 1800.33,2665.5 1810.73,2684.96C1821.93,2705.94 1840.86,2721.15 1868.17,2725.91C1888.98,2729.53 1921.45,2725.71 1934.71,2723.54C1935.78,2723.36 1936.74,2723.19 1937.58,2723.03C1938.37,2724.59 1939.89,2727.73 1941.01,2730.85C1945.9,2744.43 1952.57,2766.72 1965.55,2781.36C1976.11,2793.26 1990.62,2800.43 2011.34,2795.16C2034.39,2789.29 2067.81,2774.81 2102.69,2757.63C2150.87,2733.9 2201.88,2705.05 2231.97,2687.07C2246.37,2678.47 2262.01,2668.1 2276.06,2658.57C2292.95,2647.12 2307.52,2636.88 2314.75,2632.48C2314.96,2633.48 2315.17,2634.62 2315.32,2635.74C2317.62,2653.34 2317.92,2693.32 2320.23,2719.45C2321.27,2731.21 2322.89,2740.34 2324.98,2744.1C2325.9,2745.75 2327.83,2747.43 2330.96,2748.59C2334.99,2750.07 2341.63,2751.03 2349.78,2751.5C2378.94,2753.18 2428.59,2749.16 2438.88,2749.04L2649.48,2747.34C2661.59,2747.16 2690.66,2750.34 2703.16,2749.78C2708.28,2749.55 2711.43,2747.91 2712.3,2746.74C2713.37,2745.3 2714.34,2742.67 2714.85,2739.02C2715.66,2733.3 2715.67,2724.43 2715.17,2714.32C2713.88,2687.96 2709.22,2652.91 2707.54,2644.44C2706.9,2641.23 2706.32,2635.2 2705.75,2627.72C2704.02,2605.2 2702.56,2570.08 2701.25,2558.31C2697.92,2528.37 2700.11,2496.68 2698.45,2465.92C2698.03,2458.03 2697.36,2450.2 2696.28,2442.47C2694.75,2431.41 2694.86,2411.88 2692.99,2395.72C2692.04,2387.47 2690.55,2380.07 2688.23,2374.83C2685.73,2369.2 2680.97,2365.06 2674.79,2362.07C2662.44,2356.1 2643.96,2354.83 2630.69,2352.3C2626.81,2351.56 2623.43,2350.73 2620.96,2349.52C2620.11,2349.11 2619.33,2348.76 2618.89,2348.23C2619.49,2347.16 2620.62,2345.18 2621.68,2343.4C2626.16,2335.9 2632.87,2323.91 2634.04,2311.74C2634.99,2301.94 2632.55,2292.02 2623.3,2283.83C2612.29,2274.07 2593.01,2267.45 2572.41,2263.16C2544.66,2257.39 2514.55,2255.63 2500.53,2254.86C2498.04,2254.73 2496.08,2254.63 2494.75,2254.54C2493.99,2253.12 2492.79,2250.25 2491.01,2246.42C2481.79,2226.62 2462.62,2183.35 2440.85,2152C2428.57,2134.3 2415.28,2120.45 2402.6,2115.85C2387.02,2110.18 2373.89,2118.68 2363.41,2134.14C2347.45,2157.69 2337.45,2197.63 2331.43,2215.2C2330.62,2217.57 2329.53,2220.02 2329.01,2221.14ZM2705.49,2740.5C2705.82,2739.46 2705.96,2737.89 2706.15,2735.98C2706.87,2728.64 2706.47,2717.22 2705.58,2704.93C2703.84,2680.85 2700.16,2653.48 2698.71,2646.19C2698.03,2642.78 2697.38,2636.36 2696.77,2628.41C2695.06,2605.99 2693.61,2571.02 2692.3,2559.31C2688.95,2529.2 2691.14,2497.34 2689.47,2466.41C2689.06,2458.77 2688.41,2451.19 2687.37,2443.71C2685.83,2432.6 2685.92,2412.98 2684.05,2396.75C2683.22,2389.55 2682.03,2383.05 2680,2378.48C2676.99,2371.7 2668.89,2368.63 2659.85,2366.42C2644.5,2362.66 2626.23,2361.94 2617.35,2357.77C2612.84,2355.65 2610.25,2352.63 2609.64,2348.92C2609.49,2348.03 2609.95,2345.54 2611.87,2342.27C2615.4,2336.26 2623.84,2323.73 2625.08,2310.87C2625.77,2303.75 2624.06,2296.52 2617.33,2290.56C2607.24,2281.62 2589.45,2275.9 2570.57,2271.97C2543.35,2266.3 2513.8,2264.6 2500.04,2263.85C2496.46,2263.66 2493.91,2263.52 2492.69,2263.4C2490.58,2263.2 2489.55,2262.34 2489.33,2262.14C2488.45,2261.35 2486.05,2257.09 2482.85,2250.22C2473.76,2230.71 2454.91,2188.03 2433.46,2157.13C2422.44,2141.26 2410.91,2128.44 2399.53,2124.3C2387.89,2120.08 2378.69,2127.64 2370.87,2139.19C2355.33,2162.1 2345.8,2201.02 2339.95,2218.12C2338.73,2221.67 2337.62,2224.38 2336.68,2226.01C2335.63,2227.81 2334.45,2228.78 2333.54,2229.22C2333.26,2229.36 2331.41,2229.81 2328.23,2229.92C2322.59,2230.11 2310.7,2230.24 2296.67,2230.3C2262.28,2230.46 2215.11,2230.12 2213.92,2229.78C2213.57,2229.69 2211.6,2229.05 2210.57,2226.25C2210.13,2225.05 2209.32,2222.48 2208.15,2218.91C2203.55,2204.81 2193.12,2174.47 2176.79,2151.82C2165.69,2136.42 2151.94,2124.42 2135.06,2125.12C2126.41,2125.47 2118.19,2130.96 2110.29,2139.38C2100.91,2149.38 2092.16,2163.52 2084.21,2179.34C2064.01,2219.54 2049.11,2270.5 2043.24,2293.97C2039.35,2309.52 2036.7,2322.66 2032.03,2335.76C2028.94,2344.41 2024.99,2353.05 2019.27,2362.32C1977.05,2430.72 1896.53,2467.7 1847.44,2526.47C1826.92,2551.03 1812.04,2579.52 1808.26,2616.08C1805.79,2639.97 1809.04,2662.7 1818.66,2680.72C1828.62,2699.36 1845.46,2712.82 1869.72,2717.04C1889.59,2720.5 1920.59,2716.73 1933.25,2714.66C1934.29,2714.49 1935.24,2714.32 1936.03,2714.17C1936.62,2713.78 1937.3,2713.53 1938.05,2713.46C1942.18,2713.05 1943.75,2714.63 1943.98,2716.55C1944.99,2717.7 1945.96,2719.2 1946.82,2721.09C1951.82,2732.05 1957.67,2758.91 1972.28,2775.39C1980.77,2784.95 1992.46,2790.68 2009.12,2786.44C2031.74,2780.68 2064.5,2766.41 2098.71,2749.56C2146.66,2725.95 2197.41,2697.24 2227.36,2679.34C2256.07,2662.18 2289.76,2637.95 2305.65,2627.6C2309.83,2624.87 2312.91,2623.06 2314.48,2622.41C2316.72,2621.49 2318.33,2621.94 2319.04,2622.26C2319.99,2622.69 2321.08,2623.52 2321.92,2625.09C2322.93,2626.95 2323.89,2631.14 2324.53,2636.98C2326.65,2656.22 2326.99,2695.9 2329.4,2720.95C2330.24,2729.61 2331.15,2736.39 2332.71,2739.47C2333.06,2739.64 2334.56,2740.35 2335.79,2740.67C2341.39,2742.15 2350.58,2742.73 2361.2,2742.88C2390.3,2743.28 2429.74,2740.15 2438.77,2740.04L2649.36,2738.34C2661.4,2738.17 2690.33,2741.34 2702.76,2740.79C2703.69,2740.75 2704.78,2740.61 2705.49,2740.5Z"/>
                <path d="M2224.99,2533.83L2224.69,2534.45C2223.17,2537.87 2221.91,2541.54 2220.77,2545.33C2218.35,2553.41 2216.52,2562.05 2213.69,2569.68C2209.79,2580.22 2203.52,2588.02 2195.89,2594.28C2183.82,2604.16 2168.45,2610.32 2153.29,2617.15C2146.55,2620.18 2139.91,2623.41 2133.34,2626.77C2107.38,2640 2082.43,2655.12 2055.7,2667.15C2044.71,2672.09 2033.6,2675.97 2022.62,2680.51C2017.82,2682.49 2013.06,2684.59 2008.33,2686.96C2002.36,2689.94 1981.91,2699.41 1963.59,2707.04C1950.3,2712.57 1938.25,2717.3 1934.26,2717.3C1931.78,2717.3 1929.76,2719.32 1929.76,2721.8C1929.76,2724.28 1931.78,2726.3 1934.26,2726.3C1937.93,2726.3 1947.76,2723.11 1959.37,2718.48C1979.48,2710.46 2005.46,2698.46 2012.36,2695.01C2016.89,2692.74 2021.46,2690.72 2026.05,2688.83C2037.13,2684.25 2048.32,2680.34 2059.39,2675.36C2066.14,2672.32 2072.78,2669.09 2079.35,2665.74C2105.39,2652.47 2130.34,2637.35 2156.98,2625.35C2172.88,2618.2 2188.94,2611.61 2201.59,2601.24C2210.41,2594.01 2217.62,2584.99 2222.13,2572.81C2225.03,2565 2226.92,2556.17 2229.39,2547.91C2230.42,2544.5 2231.54,2541.18 2232.91,2538.11C2233.41,2536.99 2234.7,2533.63 2234.37,2532.15C2233.9,2529.96 2232.6,2528.17 2229.33,2528.17C2226.85,2528.17 2224.83,2530.19 2224.83,2532.67C2224.83,2533.08 2224.88,2533.47 2224.99,2533.83ZM2228.89,2537.15C2229.03,2537.17 2229.18,2537.17 2229.33,2537.17L2228.89,2537.15ZM2228.08,2536.99L2228.42,2537.08L2228.84,2537.15C2228.57,2537.12 2228.31,2537.07 2228.08,2536.99Z"/>
                <path d="M1837.09,2590.98C1834.49,2587.79 1818.59,2604.05 1816.15,2618.19C1813.81,2631.77 1822,2657.15 1845.18,2644.69C1854.36,2639.75 1856.74,2624.44 1856.74,2614.45C1856.74,2603.97 1852.49,2585.43 1837.09,2590.98Z"/>
                <path d="M1837.33,2586.18C1836.93,2586.1 1836.51,2586.07 1836.06,2586.07C1833.81,2586.1 1829.33,2588.47 1824.98,2593.1C1819.33,2599.12 1813.23,2608.67 1811.72,2617.42C1809.96,2627.6 1813.63,2643.3 1823.34,2649.54C1829.1,2653.24 1837.02,2654.18 1847.31,2648.65C1852,2646.13 1855.39,2641.52 1857.59,2635.98C1860.32,2629.1 1861.24,2620.79 1861.24,2614.45C1861.24,2607.17 1859.22,2596.59 1853.91,2590.7C1850.07,2586.45 1844.72,2584.1 1837.33,2586.18ZM1836.02,2595.34C1836.86,2595.55 1837.76,2595.52 1838.61,2595.21C1843.63,2593.4 1846.84,2595.51 1848.78,2598.93C1851.39,2603.52 1852.24,2609.87 1852.24,2614.45C1852.24,2619.81 1851.53,2626.85 1849.22,2632.66C1847.85,2636.11 1845.97,2639.15 1843.05,2640.72C1834.81,2645.15 1829.03,2643.79 1825.44,2639.48C1820.9,2634.02 1819.53,2625.07 1820.59,2618.95C1822.26,2609.24 1831.08,2598.35 1836.02,2595.34Z"/>
                <path d="M1937.28,2616.76C1937.28,2612.73 1920.37,2616.06 1917.4,2620.2C1906.08,2635.97 1911.71,2672.79 1930.1,2669.86C1960.08,2665.09 1953.94,2620.87 1937.28,2616.76Z"/>
                <path d="M1940.51,2613.12C1940.16,2612.7 1939.75,2612.32 1939.26,2611.98C1937.78,2610.93 1934.8,2610.23 1931.18,2610.52C1924.69,2611.03 1916.03,2614.39 1913.75,2617.57C1906.79,2627.26 1905.38,2644.06 1909.14,2656.63C1912.61,2668.24 1920.39,2675.96 1930.81,2674.3C1947.04,2671.72 1954.38,2659.41 1955.52,2646.28C1956.77,2631.95 1949.99,2617.19 1940.51,2613.12ZM1933.79,2619.59C1934.39,2620.33 1935.23,2620.89 1936.21,2621.13C1939.16,2621.86 1941.47,2624.52 1943.25,2627.88C1945.83,2632.77 1947.1,2639.25 1946.56,2645.5C1945.75,2654.74 1940.81,2663.6 1929.4,2665.41C1925.78,2665.99 1923.01,2664.05 1920.94,2661.05C1918.73,2657.82 1917.3,2653.45 1916.58,2648.74C1915.2,2639.66 1916.44,2629.25 1921.06,2622.82C1921.72,2621.91 1923.6,2621.37 1925.58,2620.75C1928.15,2619.95 1932.18,2619.67 1933.79,2619.59Z"/>
                <path d="M2129.55,2177.75C2123.99,2172.75 2112.03,2188.6 2110.46,2191.53C2103.98,2203.69 2100.57,2254.98 2122.44,2256.94C2147.96,2259.24 2163.82,2223.74 2157.97,2202.69C2155.33,2193.19 2140.92,2172.64 2129.55,2177.75Z"/>
                <path d="M2130.05,2172.85C2127.13,2171.71 2123.62,2172.36 2120.05,2174.66C2114.06,2178.53 2107.67,2187.21 2106.49,2189.41C2102.49,2196.92 2099.37,2218.39 2102.16,2235.56C2104.45,2249.61 2111,2260.43 2122.04,2261.42C2133.97,2262.5 2144.16,2256.57 2151.49,2247.32C2161.68,2234.45 2166.11,2215.17 2162.31,2201.48C2160.62,2195.43 2154.66,2185.27 2147.46,2178.88C2141.97,2174.01 2135.75,2171.47 2130.05,2172.85ZM2126.83,2181.34C2128.14,2182.33 2129.89,2182.54 2131.39,2181.86C2135.67,2179.93 2140.11,2183.85 2144.1,2188.19C2148.74,2193.24 2152.48,2199.73 2153.64,2203.89C2156.27,2213.36 2153.9,2226.04 2148.16,2236.16C2142.64,2245.9 2133.9,2253.45 2122.85,2252.46C2115.46,2251.8 2112.57,2243.51 2111.05,2234.12C2108.6,2219.07 2110.93,2200.22 2114.43,2193.65C2115.01,2192.55 2117.26,2189.46 2120,2186.55C2121.55,2184.9 2123.25,2183.31 2124.93,2182.22C2125.51,2181.85 2126.46,2181.48 2126.83,2181.34Z"/>
                <path d="M2405.15,2177.82C2398.23,2177.82 2390.68,2186.33 2388.26,2192.01C2384.14,2201.64 2381.85,2217.79 2389.28,2226.63C2404.14,2244.31 2421.22,2235.03 2425.52,2217.48C2426.64,2212.94 2429.91,2208.97 2427.08,2201.1C2423.28,2190.57 2414.53,2178.74 2405.15,2177.82Z"/>
                <path d="M2405.59,2173.34C2405.45,2173.33 2405.3,2173.32 2405.15,2173.32C2401.43,2173.32 2397.5,2175.02 2394.02,2177.73C2389.54,2181.21 2385.8,2186.32 2384.12,2190.24C2381.43,2196.53 2379.46,2205.36 2380.02,2213.52C2380.43,2219.57 2382.23,2225.25 2385.83,2229.53C2394.49,2239.83 2403.96,2242.12 2411.85,2239.83C2420.22,2237.4 2427.23,2229.41 2429.89,2218.55C2430.71,2215.24 2432.48,2212.18 2432.68,2207.95C2432.8,2205.55 2432.48,2202.83 2431.31,2199.58C2428.95,2193.02 2424.82,2186.02 2419.82,2180.99C2415.54,2176.68 2410.6,2173.84 2405.59,2173.34ZM2404.95,2182.33C2408.78,2182.81 2412.33,2185.8 2415.41,2189.51C2418.61,2193.37 2421.22,2198.13 2422.85,2202.63C2423.73,2205.08 2423.84,2207.01 2423.57,2208.68C2423.09,2211.62 2421.76,2213.92 2421.15,2216.41C2419.35,2223.77 2415.01,2229.54 2409.34,2231.19C2404.2,2232.68 2398.36,2230.44 2392.72,2223.74C2389.67,2220.11 2388.8,2214.92 2388.93,2209.71C2389.08,2203.97 2390.53,2198.14 2392.39,2193.77C2393.41,2191.4 2395.53,2188.45 2398.09,2186.07C2400.19,2184.12 2402.56,2182.42 2404.94,2182.32L2404.95,2182.33Z"/>
                <path d="M2256.31,2180C2244.7,2180 2227.76,2196.42 2220.18,2204.22C2186.9,2238.45 2182.92,2237.62 2174.18,2284.8C2171.07,2301.61 2174.7,2320.87 2191.68,2328.51C2215.26,2339.12 2229.23,2300.51 2236.85,2285.07C2239.24,2280.24 2240.83,2275.38 2242.6,2270.31C2242.68,2270.08 2244.57,2262.85 2245.13,2263.1C2248.68,2264.7 2252.01,2280.12 2253.1,2283.68C2259.73,2305.16 2272.06,2330.95 2297.13,2325.31C2303.11,2323.97 2309.89,2319.8 2312.55,2314.05C2316.97,2304.51 2318.52,2292.29 2317.35,2281.84C2317.32,2281.54 2316.84,2279.55 2317.09,2279.32C2317.38,2279.06 2320.82,2284.31 2321.13,2284.7C2324.16,2288.45 2326.51,2293.23 2330.77,2295.79C2341.15,2302.01 2361.83,2309.86 2365.92,2292.69C2368.18,2283.22 2363.96,2274.3 2360.89,2265.48C2351.33,2237.92 2328.71,2202.83 2301.55,2190.61C2292.7,2186.63 2274.48,2176.01 2264.59,2182.24" style="fill:white;"/>
                <path d="M2245.9,2274.51C2247.23,2278.85 2248.28,2283.3 2248.8,2285.01C2252.93,2298.4 2259.31,2313.28 2269.14,2322.13C2276.67,2328.91 2286.14,2332.4 2298.12,2329.7C2301.64,2328.91 2305.39,2327.3 2308.65,2325.03C2312.1,2322.64 2314.98,2319.52 2316.64,2315.94C2319.03,2310.79 2320.65,2304.91 2321.5,2298.9C2321.76,2297.14 2321.94,2295.36 2322.06,2293.58C2322.7,2294.43 2323.36,2295.25 2324.07,2296.02C2325.37,2297.42 2326.8,2298.66 2328.46,2299.65C2335.27,2303.74 2346.14,2308.27 2354.8,2307.51C2362.02,2306.88 2368.05,2303.15 2370.3,2293.74C2371.36,2289.3 2371.23,2284.97 2370.43,2280.7C2369.36,2275.03 2367.05,2269.49 2365.14,2264C2359.31,2247.19 2348.75,2227.66 2335.3,2211.92C2325.87,2200.89 2315.01,2191.73 2303.4,2186.51C2297.11,2183.68 2286.25,2177.72 2276.72,2176.22C2271.28,2175.35 2266.21,2175.91 2262.19,2178.43C2261.61,2178.8 2261.15,2179.28 2260.8,2179.82C2260.72,2177.42 2258.74,2175.5 2256.31,2175.5C2250.76,2175.5 2244.06,2178.53 2237.6,2182.99C2229.43,2188.62 2221.53,2196.37 2216.96,2201.08C2200.1,2218.41 2190.67,2226.97 2184.3,2237.05C2177.74,2247.42 2174.31,2259.38 2169.76,2283.98C2167.71,2295.03 2168.43,2307.04 2173.28,2316.69C2176.66,2323.45 2182.03,2329.1 2189.84,2332.61C2199.04,2336.76 2207.07,2334.87 2214.02,2329.66C2226.7,2320.17 2235.46,2298.06 2240.88,2287.07C2241.89,2285.02 2242.77,2282.97 2243.58,2280.9C2244.4,2278.8 2245.15,2276.67 2245.9,2274.51ZM2260.1,2182.43C2259.3,2183.67 2257.9,2184.5 2256.31,2184.5C2252.23,2184.5 2247.46,2187.12 2242.71,2190.4C2235.07,2195.67 2227.69,2202.95 2223.41,2207.35C2207.2,2224.02 2198.03,2232.17 2191.91,2241.85C2185.8,2251.51 2182.85,2262.72 2178.61,2285.62C2177.2,2293.24 2177.26,2301.41 2179.63,2308.55C2181.88,2315.32 2186.25,2321.13 2193.53,2324.41C2201.36,2327.93 2207.73,2324.25 2213.08,2318.32C2222.2,2308.22 2228.51,2291.81 2232.82,2283.08C2233.71,2281.27 2234.48,2279.45 2235.2,2277.63C2236.33,2274.74 2237.3,2271.83 2238.34,2268.83C2238.41,2268.64 2239.77,2263.6 2240.59,2261.81C2242.33,2257.99 2245.95,2258.53 2246.97,2258.99C2248.52,2259.69 2250.41,2261.64 2251.85,2264.69C2254.39,2270.08 2256.56,2279.61 2257.4,2282.35C2261.07,2294.23 2266.44,2307.59 2275.16,2315.44C2280.61,2320.35 2287.47,2322.87 2296.15,2320.92C2298.61,2320.37 2301.23,2319.23 2303.52,2317.64C2305.62,2316.18 2307.46,2314.34 2308.47,2312.16C2310.51,2307.77 2311.87,2302.75 2312.59,2297.63C2313.33,2292.47 2313.42,2287.2 2312.88,2282.34C2312.84,2282 2312.49,2280.11 2312.53,2279.33C2312.62,2277.58 2313.48,2276.52 2314.08,2275.98C2314.7,2275.42 2318.24,2273.57 2321.02,2276.83C2322.08,2278.07 2324.38,2281.56 2324.63,2281.87C2326.44,2284.11 2328,2286.71 2329.87,2288.99C2330.8,2290.12 2331.82,2291.17 2333.09,2291.93C2338.53,2295.19 2347.11,2299.15 2354.01,2298.55C2357.57,2298.23 2360.44,2296.29 2361.54,2291.65C2362.3,2288.49 2362.15,2285.4 2361.58,2282.36C2360.6,2277.13 2358.4,2272.03 2356.64,2266.96C2352.01,2253.63 2344.24,2238.49 2334.35,2225.17C2324.56,2211.99 2312.71,2200.57 2299.71,2194.71C2294.67,2192.45 2286.52,2187.93 2278.69,2185.84C2274.34,2184.67 2270.12,2184.08 2266.99,2186.05C2264.89,2187.37 2262.11,2186.74 2260.78,2184.64C2260.35,2183.95 2260.12,2183.19 2260.1,2182.43Z"/>
                <path d="M2612.52,2339.64C2607.14,2343.54 2590.31,2346.77 2585.77,2347.17C2585.47,2347.03 2585.13,2346.87 2584.99,2346.81C2582.47,2345.86 2580.77,2347.16 2580.23,2347.65C2579.22,2348.56 2578.79,2350.07 2578.79,2350.07C2578.79,2350.07 2578.97,2349.45 2579.2,2349.05C2577.99,2351.22 2578.77,2353.96 2580.95,2355.17C2581.67,2355.57 2582.45,2355.75 2583.22,2355.73C2583.95,2355.97 2584.73,2356.21 2585.02,2356.21C2588.05,2356.21 2605.64,2353.01 2614.4,2348.87C2617.08,2347.61 2619.05,2346.15 2620.1,2344.79C2621.72,2342.72 2621.99,2340.57 2621.21,2338.47C2620.35,2336.15 2617.76,2334.96 2615.43,2335.82C2613.75,2336.45 2612.66,2337.97 2612.52,2339.64Z"/>
                <path d="M2321.77,2635.65L2321.89,2635.84C2322.25,2636.4 2322.99,2637.59 2323.99,2639.2C2329.17,2647.54 2341.3,2667.11 2346.12,2673.3C2350.56,2679.02 2361.04,2697.2 2368.26,2708.48C2371.01,2712.77 2373.35,2716.13 2374.79,2717.68C2378.99,2722.22 2385.85,2726.82 2390.43,2732.42C2392.82,2735.35 2394.57,2738.55 2394.14,2742.39C2393.87,2744.86 2395.65,2747.09 2398.12,2747.36C2400.59,2747.64 2402.81,2745.86 2403.09,2743.39C2403.63,2738.49 2402.31,2734.12 2399.86,2730.16C2395.36,2722.87 2386.53,2717.12 2381.39,2711.57C2380.16,2710.23 2378.2,2707.31 2375.84,2703.62C2368.48,2692.12 2357.76,2673.61 2353.22,2667.78C2348.51,2661.73 2336.69,2642.6 2331.64,2634.46C2330.61,2632.8 2329.85,2631.58 2329.48,2631C2329.32,2630.74 2329.2,2630.56 2329.14,2630.48C2328.85,2630.08 2328.62,2629.86 2328.52,2629.77C2325.55,2627 2322.97,2629.12 2322.18,2629.95C2321.61,2630.56 2320.94,2631.51 2320.94,2633.05C2320.94,2634.02 2321.25,2634.92 2321.77,2635.65Z"/>
                <path d="M2506.65,2402.24C2504.55,2415.15 2503.57,2435.83 2504.86,2456.76C2506.53,2483.85 2512.2,2511.25 2523.29,2523.51C2533.41,2534.72 2545.18,2531.24 2555.44,2521.39C2560.42,2516.62 2564.95,2510.3 2568.61,2503.98C2568.44,2515.71 2568.2,2528.58 2567.9,2534.84C2566.98,2553.87 2569.88,2576.95 2575.19,2598.32C2581.39,2623.26 2590.95,2645.84 2601.3,2657.27C2612.64,2669.78 2624.39,2670.5 2634.37,2665.88C2643.77,2661.53 2651.67,2651.87 2655.99,2642.3C2659.35,2652.77 2663.33,2665.24 2665.23,2671.34C2667.72,2679.28 2676.22,2688.25 2685.58,2693.02C2693.02,2696.82 2700.9,2697.85 2706.82,2694.87C2709.04,2693.75 2709.93,2691.04 2708.81,2688.82C2707.69,2686.6 2704.99,2685.71 2702.77,2686.83C2698.15,2689.16 2691.82,2686.68 2686.24,2683C2680.47,2679.2 2675.42,2673.75 2673.83,2668.65C2671,2659.61 2663.63,2636.6 2660.44,2626.76C2659.77,2624.7 2659.28,2623.21 2659.06,2622.54C2657.3,2617.31 2654.58,2617.02 2652.61,2618.59C2650.6,2618.87 2649.17,2620.6 2650.28,2624.61L2650.35,2624.89C2651.15,2627.74 2650.43,2631.68 2648.91,2635.86C2645.8,2644.38 2639.05,2653.8 2630.59,2657.71C2623.72,2660.89 2615.78,2659.84 2607.97,2651.22C2598.32,2640.57 2589.7,2619.4 2583.92,2596.15C2578.83,2575.66 2576,2553.52 2576.89,2535.27C2577.39,2525.04 2577.7,2497.21 2577.89,2485.36C2577.92,2483.41 2577.95,2481.9 2577.97,2480.99C2578.03,2480.47 2578.05,2480.01 2578.02,2479.62C2577.75,2475.51 2569.33,2470.4 2568.99,2480.16L2568.96,2481.59C2568.01,2488.18 2559.38,2505.15 2549.21,2514.89C2543.03,2520.83 2536.07,2524.23 2529.96,2517.48C2521.64,2508.27 2517.21,2489.49 2514.97,2469.39C2512.4,2446.32 2512.98,2421.43 2515.15,2406.08C2515.92,2400.67 2517.78,2395 2518.09,2394.11L2518.28,2393.97C2520.07,2392.6 2520.58,2390.11 2519.46,2388.15C2518.34,2386.19 2515.93,2385.36 2513.84,2386.22C2513.53,2386.35 2513.19,2386.55 2512.84,2386.82L2512.83,2386.8C2512.83,2386.8 2505.93,2392.04 2499.34,2396.27C2495.96,2398.43 2492.72,2400.39 2490.75,2400.89C2482.33,2403.03 2476.38,2399.93 2472.47,2393.57C2467.22,2385.03 2465.22,2371.54 2465.35,2356.55C2465.55,2333.81 2470.86,2307.64 2478.92,2288.97C2483.5,2278.38 2488.74,2270.19 2494.71,2267.19C2494.83,2267.12 2494.96,2267.05 2495.08,2266.96C2495.8,2266.72 2496.47,2266.3 2497.01,2265.7C2498.68,2263.85 2498.53,2261.01 2496.68,2259.35C2495.46,2258.25 2494.36,2258.08 2493.52,2258.05C2492.14,2258.02 2489.52,2260.05 2489.52,2260.05C2489.52,2260.05 2490.19,2259.39 2490.66,2259.15C2483.34,2262.83 2476.27,2272.41 2470.66,2285.4C2462.18,2305.04 2456.56,2332.55 2456.35,2356.47C2456.2,2373.44 2458.87,2388.62 2464.8,2398.28C2470.84,2408.1 2479.99,2412.91 2492.96,2409.61C2495.05,2409.08 2498.26,2407.49 2501.72,2405.39C2503.33,2404.41 2505.01,2403.33 2506.65,2402.24ZM2491.48,2266.62L2491.57,2266.66L2491.4,2266.58L2491.48,2266.62ZM2491.02,2266.33C2491.14,2266.42 2491.27,2266.5 2491.39,2266.57L2491.02,2266.33ZM2491.01,2266.32L2490.66,2266.03C2490.78,2266.14 2490.9,2266.24 2491.01,2266.32Z"/>
                <g id="Eyes">
                    <path d="M2130.23,2394.09C2111.85,2394.15 2072.34,2405.53 2070.44,2421.44C2066.75,2452.24 2094.67,2455.75 2115.72,2458.99C2145.96,2463.66 2153.91,2461.37 2180.53,2459.37C2191.38,2458.56 2205.67,2457.66 2215.23,2451.92C2235.61,2439.69 2230.3,2416.92 2215.31,2404.26C2199.38,2390.82 2162.42,2393.99 2130.23,2394.09Z" style="fill:white;"/>
                    <path d="M2130.22,2389.59C2119.54,2389.63 2102.04,2393.28 2088.26,2399.41C2075.99,2404.86 2066.95,2412.68 2065.97,2420.91C2064.34,2434.51 2068.27,2443.44 2074.82,2449.57C2084.6,2458.73 2101.16,2461.3 2115.03,2463.44C2129.72,2465.71 2139.27,2466.36 2148.17,2466.21C2157.87,2466.05 2166.77,2464.91 2180.87,2463.86C2187.51,2463.36 2195.41,2462.81 2202.79,2461.22C2208.17,2460.06 2213.28,2458.34 2217.55,2455.78C2229.37,2448.68 2233.69,2438.48 2233.04,2428.27C2232.41,2418.23 2226.76,2408.04 2218.21,2400.83C2211.92,2395.52 2202.71,2392.42 2191.77,2390.83C2173.83,2388.22 2151.03,2389.53 2130.22,2389.59L2130.22,2389.59ZM2130.24,2398.59C2150.62,2398.53 2172.92,2397.18 2190.47,2399.74C2199.5,2401.05 2207.22,2403.32 2212.4,2407.7C2219.02,2413.29 2223.57,2421.07 2224.06,2428.83C2224.51,2436.02 2221.24,2443.07 2212.91,2448.06C2209.45,2450.14 2205.27,2451.48 2200.89,2452.42C2193.93,2453.93 2186.47,2454.41 2180.2,2454.88C2166.32,2455.92 2157.56,2457.05 2148.02,2457.21C2139.53,2457.35 2130.42,2456.71 2116.4,2454.55C2104.25,2452.67 2089.54,2451.03 2080.97,2443C2076.19,2438.53 2073.72,2431.9 2074.91,2421.98C2075.19,2419.62 2076.8,2417.51 2079.03,2415.47C2082.26,2412.52 2086.81,2409.9 2091.91,2407.63C2104.51,2402.03 2120.49,2398.62 2130.24,2398.59L2130.24,2398.59Z"/>
                    <path d="M2351.67,2392.39C2328.78,2395.65 2293.52,2411.27 2287.61,2419.03C2276.24,2433.96 2273.67,2450.3 2297.78,2460.9C2315.88,2468.86 2353.13,2464.44 2372.27,2461.85C2393.88,2458.94 2415.13,2456.11 2432.52,2442.02C2446.33,2430.83 2448.6,2409.13 2431.84,2398.48C2420.39,2391.21 2375.71,2388.97 2351.67,2392.39Z" style="fill:white;"/>
                    <path d="M2351.04,2387.94C2338.71,2389.69 2322.9,2394.9 2309.76,2400.64C2297.18,2406.12 2287.07,2412.3 2284.03,2416.3C2277.01,2425.52 2273.28,2435.32 2275.29,2444.2C2277.03,2451.91 2283.03,2459.33 2295.96,2465.02C2303.89,2468.5 2315.24,2469.86 2327.3,2469.93C2343.72,2470.03 2361.47,2467.85 2372.87,2466.31C2386.14,2464.52 2399.27,2462.73 2411.5,2458.49C2419.95,2455.57 2427.97,2451.49 2435.35,2445.52C2443.38,2439.02 2447.98,2429.42 2448.15,2419.95C2448.31,2410.39 2444.07,2400.92 2434.25,2394.68C2428.65,2391.13 2415.64,2388.46 2400.66,2387.23C2383.76,2385.83 2364.31,2386.05 2351.04,2387.94ZM2352.31,2396.85C2365.05,2395.03 2383.71,2394.86 2399.92,2396.2C2413.03,2397.28 2424.52,2399.17 2429.42,2402.28C2436.24,2406.61 2439.26,2413.15 2439.15,2419.79C2439.03,2426.74 2435.58,2433.75 2429.68,2438.52C2423.15,2443.81 2416.04,2447.4 2408.56,2449.99C2396.88,2454.03 2384.34,2455.68 2371.67,2457.39C2360.58,2458.89 2343.32,2461.02 2327.35,2460.93C2316.68,2460.87 2306.6,2459.86 2299.59,2456.78C2290.21,2452.66 2285.33,2447.81 2284.07,2442.22C2282.58,2435.64 2285.99,2428.59 2291.19,2421.75C2294.29,2417.68 2306.2,2411.6 2319.69,2406.25C2330.6,2401.92 2342.6,2398.23 2352.31,2396.85Z"/>
                    <path d="M2115.57,2402.7C2108.79,2404.22 2101.66,2400.3 2093.57,2403.28C2055.18,2417.41 2090.16,2453.39 2116.06,2447.57C2136.46,2442.98 2136.2,2418.5 2119.95,2408.75"/>
                    <path d="M2119.78,2404.26C2120.08,2403.47 2120.15,2402.59 2119.95,2401.71C2119.41,2399.29 2117,2397.76 2114.58,2398.31C2109.98,2399.34 2105.2,2397.56 2100.04,2397.63C2097.44,2397.66 2094.77,2398.04 2092.01,2399.05C2073.44,2405.89 2069.76,2417.47 2073.1,2427.85C2077.83,2442.56 2099.29,2455.95 2117.04,2451.96C2129.67,2449.12 2135.75,2439.99 2136.25,2430.19C2136.72,2420.81 2131.89,2410.67 2122.26,2404.89C2121.49,2404.43 2120.62,2404.22 2119.78,2404.26ZM2115.71,2407.25C2110.78,2408.08 2105.66,2406.56 2100.15,2406.63C2098.53,2406.65 2096.85,2406.86 2095.12,2407.5C2086.56,2410.65 2082.15,2414.75 2081.23,2419.51C2080.49,2423.3 2082.04,2427.2 2084.69,2430.73C2091.07,2439.24 2104,2445.67 2115.07,2443.18C2122.96,2441.4 2126.95,2435.86 2127.26,2429.73C2127.58,2423.36 2124.17,2416.53 2117.63,2412.61C2115.77,2411.49 2115.01,2409.23 2115.71,2407.25Z"/>
                    <path d="M2326.27,2413.11C2313.08,2413.11 2306.47,2408.96 2293.77,2421C2277.05,2436.84 2304.78,2451.43 2318.11,2452.23C2332.77,2453.11 2342.81,2428.07 2331.11,2419.16"/>
                    <path d="M2330.47,2414.71C2330.67,2414.21 2330.77,2413.67 2330.77,2413.11C2330.77,2410.62 2328.76,2408.61 2326.27,2408.61C2317.13,2408.61 2310.96,2406.93 2304.03,2409.15C2300.03,2410.44 2295.76,2412.92 2290.67,2417.73C2281.55,2426.38 2282.63,2434.78 2287.99,2441.72C2294.51,2450.17 2308.98,2456.19 2317.84,2456.72C2326.98,2457.27 2334.99,2450.19 2338.62,2441.16C2342.33,2431.95 2341.27,2421.24 2333.84,2415.58C2332.84,2414.82 2331.62,2414.54 2330.47,2414.71ZM2326.91,2417.56C2326.7,2417.59 2326.49,2417.61 2326.27,2417.61C2319.47,2417.61 2314.49,2416.4 2309.44,2417.12C2305.62,2417.66 2301.83,2419.56 2296.86,2424.27C2292.3,2428.6 2292.43,2432.74 2295.11,2436.22C2300.18,2442.78 2311.5,2447.32 2318.38,2447.73C2323.83,2448.06 2328.11,2443.19 2330.27,2437.8C2332.43,2432.43 2332.72,2426.04 2328.39,2422.74C2326.76,2421.51 2326.21,2419.37 2326.91,2417.56Z"/>
                </g>
            </g>
        </g>
    </g>
</svg>
