<?xml version="1.0" encoding="UTF-8" standalone="no"?>
<!DOCTYPE svg PUBLIC "-//W3C//DTD SVG 1.1//EN" "http://www.w3.org/Graphics/SVG/1.1/DTD/svg11.dtd">
<svg width="100%" height="100%" viewBox="0 0 1113 1350" version="1.1" xmlns="http://www.w3.org/2000/svg" xmlns:xlink="http://www.w3.org/1999/xlink" xml:space="preserve" xmlns:serif="http://www.serif.com/" style="fill-rule:evenodd;clip-rule:evenodd;stroke-linejoin:round;stroke-miterlimit:2;">
    <g transform="matrix(1,0,0,1,-1792.47,-2108.11)">
        <g id="Maxweena-House" serif:id="Maxweena House">
            <g id="Building">
                <path id="Facade" d="M1942.28,2835.75C1942.28,2831.36 1941.55,2938.8 1941.44,2981.68C1941.33,3028.47 1944.08,3100.03 1946.05,3128.49C1950.09,3186.58 1949.43,3231.83 1949.61,3289.87C1949.77,3345.34 1950.78,3412.78 1956.79,3421.64C1960.24,3426.74 2030.61,3421.4 2031.25,3421.4C2044.25,3421.4 2118.92,3420.13 2145.61,3420.62C2257.79,3422.7 2303.36,3424.58 2394.76,3427.7C2461.88,3429.98 2561.63,3429.54 2640.62,3433C2696.91,3435.47 2813.69,3447.46 2858.09,3447.46C2860.86,3447.46 2858.32,3404.93 2859.07,3352.83C2859.81,3302.19 2856.13,3231.29 2855.75,3177.44C2855.28,3111.66 2852.03,3032.39 2853.52,2990.08C2854.08,2974.12 2856.25,2844.38 2851.18,2840.31C2843.07,2833.83 1959.73,2824.88 1942.28,2835.75Z" style="fill:white;stroke:black;stroke-width:21px;stroke-linecap:round;stroke-miterlimit:1.5;"/>
                <g id="Door">
                    <path d="M2267.02,3421.02C2261.57,3418.68 2264.64,3353.96 2265.32,3334.58C2267.41,3274.32 2264.36,3218.95 2280.62,3160.39C2286.39,3139.61 2292.04,3108.64 2314.37,3076.3C2333.89,3048.03 2349.1,3037.93 2361.35,3029.66C2395.52,3006.6 2457.38,3005.33 2495.79,3018.2C2530.32,3029.78 2559.15,3056.39 2571.91,3084.7C2583.81,3111.11 2580.35,3114 2583.06,3128.62C2588.59,3158.45 2590.8,3188.23 2589.26,3218.83C2588.26,3238.61 2591.29,3308.17 2590.54,3330.3C2590.04,3345.26 2593.74,3428.01 2584.95,3430.95C2570.86,3435.66 2278.12,3425.78 2267.02,3421.02Z" style="fill:white;stroke:black;stroke-width:21px;stroke-linecap:round;stroke-miterlimit:1.5;"/>
                    <path d="M2495.22,3214.27C2446.38,3222.56 2465.81,3295.72 2509.1,3279.17C2532.35,3270.28 2531.13,3243.78 2521.53,3228.66C2517.66,3222.57 2502.76,3211.06 2495.22,3214.27Z" style="stroke:black;stroke-width:21px;stroke-linecap:round;stroke-miterlimit:1.5;"/>
                </g>
                <g id="Windows">
                    <g id="Window-L">
                        <path d="M2020.4,3042.25C2016.89,3051.73 2020.7,3084.74 2021.2,3094.57C2022.44,3119.29 2022.6,3189.2 2023.65,3213.93C2025.05,3246.69 2021.02,3278.27 2027.47,3280.97C2028.83,3281.54 2100.35,3280.96 2116.89,3280.46C2135.81,3279.9 2207.8,3281.44 2209.53,3278.32C2210.2,3277.12 2208.99,3220.42 2209.19,3215.29C2210.76,3174.4 2209.98,3135.94 2209.98,3095.04C2209.98,3081.92 2213.97,3061.8 2209.72,3053.88C2206.01,3046.99 2171.13,3046.8 2156.73,3046.5C2133.49,3046.03 2105.85,3044.74 2082.65,3044.16C2059.08,3043.57 2042.4,3041.47 2020.4,3042.25Z" style="fill:white;stroke:black;stroke-width:21px;stroke-linecap:round;stroke-miterlimit:1.5;"/>
                        <path d="M2056.76,3089.81C2054.25,3097.09 2055.51,3164.85 2055.51,3175.87C2055.51,3204.17 2054.33,3233.42 2057.33,3245.77C2058.26,3249.61 2088.06,3249.75 2113.42,3249.1C2131.04,3248.65 2170.03,3249.68 2172.26,3248.08C2175.66,3245.64 2171.92,3192.61 2171.92,3179.23C2171.92,3153.2 2169.95,3092.53 2169.58,3092.42C2156.73,3088.63 2130.74,3091.74 2111.11,3091.37C2090.39,3090.98 2057.8,3086.79 2056.76,3089.81Z" style="fill:none;stroke:black;stroke-width:21px;stroke-linecap:round;stroke-miterlimit:1.5;"/>
                    </g>
                    <g id="Window-R">
                        <path d="M2640.96,3067.97C2638.58,3067.97 2638.81,3086.96 2638.62,3089.06C2636.5,3111.99 2640.55,3134.47 2640.55,3157.26C2640.55,3195.01 2639.05,3232.7 2640.32,3270.46C2640.66,3280.43 2636.67,3299.61 2641.72,3308.7C2641.77,3308.8 2641.86,3308.86 2641.95,3308.93C2644.54,3311.27 2672.12,3309.15 2678.27,3310.16C2708.27,3315.07 2739.32,3312.64 2769.58,3314.34C2776.94,3314.76 2801.11,3319.99 2806.77,3317.44C2808.04,3316.87 2806.66,3306.47 2806.66,3305.19C2806.66,3292.01 2807.94,3278.82 2807.94,3265.63C2807.94,3239.78 2808.21,3214.34 2809.08,3188.49C2809.77,3167.76 2813.97,3147.66 2811.95,3126.75C2811.2,3118.98 2815.43,3094.14 2812.63,3089.09C2811.28,3086.65 2793.33,3087.39 2790.78,3087.19C2768.16,3085.39 2745.5,3082.32 2722.87,3079.63C2703.39,3077.33 2682.92,3075.85 2663.87,3071.81C2660.15,3071.02 2643.74,3064.21 2640.96,3067.97Z" style="fill:white;stroke:black;stroke-width:21px;stroke-linecap:round;stroke-miterlimit:1.5;"/>
                        <path d="M2678.12,3124.75C2675.88,3126.66 2681.22,3210.49 2681.98,3224.04C2683.03,3242.97 2680.14,3264.27 2684.3,3271.77C2685.6,3274.12 2709.45,3275.68 2726.73,3276.05C2749.81,3276.54 2770.21,3280.81 2773.22,3277.8C2776.93,3274.1 2775.07,3263.18 2774.26,3248.73C2772.91,3224.7 2774.46,3197.92 2774.23,3171.65C2774.16,3163.74 2776.28,3131.38 2772.91,3125.32C2771.97,3123.64 2741.03,3122.66 2724.53,3122.71C2707.12,3122.76 2684.56,3119.25 2678.12,3124.75Z" style="fill:none;stroke:black;stroke-width:21px;stroke-linecap:round;stroke-miterlimit:1.5;"/>
                    </g>
                </g>
                <g id="Roof">
                    <path id="Freize" d="M1912.32,2852.88C1908.78,2852.88 1906.5,2877.36 1906.27,2879.82C1904.77,2896 1908.85,2936.19 1933.69,2927.81C1968.5,2916.05 1978.23,2846.31 1972.24,2851.7C1967.04,2856.38 1995.32,2937.55 2023.34,2932.21C2065.25,2924.22 2071.01,2855.11 2071.01,2855.11C2072.5,2862.94 2092.46,2923.02 2113.19,2921.37C2140.83,2919.17 2160.29,2853.44 2158.92,2854.68C2156.73,2856.65 2172.34,2920.49 2195.43,2921.05C2219.09,2921.63 2230.71,2851.84 2230.71,2851.84C2230.71,2851.84 2252.83,2914.87 2269.91,2914.07C2294.08,2912.93 2314.48,2852.64 2314.51,2853.11C2315.23,2864.7 2339.35,2911.78 2361.93,2913.32C2386.78,2915.01 2400.39,2865.14 2399.47,2854.24C2399.47,2854.24 2421.3,2913.04 2440.49,2913.95C2459.31,2914.85 2481.57,2883 2481.57,2855.83C2481.57,2853.11 2497,2924.53 2523.42,2925.31C2557.82,2926.34 2557.21,2857.58 2565.07,2857.96C2565.48,2857.98 2573.96,2908.55 2594.45,2922.25C2623.98,2942.01 2647.71,2865.35 2649.88,2852.93C2649.93,2852.68 2671.21,2903.99 2687.22,2910.19C2711.68,2919.66 2743.91,2857.99 2738.47,2853.41C2737.9,2852.92 2737.68,2916.65 2764.28,2925.27C2788.07,2932.98 2813.28,2868.43 2807.91,2865.45C2807.91,2865.45 2811.36,2911.18 2827.17,2915.24C2843.54,2919.45 2866.62,2922.89 2876.2,2898.24C2879.32,2890.21 2878.79,2874.58 2881.04,2866.49C2884.29,2854.75 2872.59,2834.85 2866.9,2830.75C2859.27,2825.26 1977.65,2819.86 1936.86,2825.4C1917.54,2828.02 1916.4,2853.62 1912.32,2852.88Z" style="fill:white;stroke:black;stroke-width:21px;stroke-linecap:round;stroke-miterlimit:1.5;"/>
                    <path id="Roof1" serif:id="Roof" d="M2069.83,2301.72C2060.5,2305.92 1948.64,2724.18 1948.43,2725.11C1940.68,2759.99 1906.71,2852.73 1908.25,2853.42C1916.34,2857.05 2030.38,2849.64 2096.62,2845.39C2137.67,2842.76 2256.89,2845.67 2297.92,2844.34C2349.42,2842.67 2468.85,2839.94 2501.9,2842.06C2600.67,2848.41 2579.95,2843.33 2678.86,2849.27C2736.55,2852.73 2753.7,2851.7 2811.26,2857.33C2849.39,2861.07 2891.82,2867.86 2893.92,2865.97C2894.98,2865.01 2881.22,2810.63 2872.75,2787.77C2867.3,2773.05 2844.27,2678.96 2840.06,2663.78C2822.95,2602.13 2819.51,2579.36 2804.68,2517.07C2793.72,2471.05 2780.44,2386.86 2772.86,2343.9C2770.95,2333.09 2764.98,2299.66 2759.82,2290.36C2757.36,2285.94 2650.8,2290.22 2609.88,2290.22C2483.26,2290.22 2349.4,2284.38 2222.9,2292.5C2199.62,2294 2087.09,2293.94 2069.83,2301.72Z" style="fill:white;stroke:black;stroke-width:21px;stroke-linecap:round;stroke-miterlimit:1.5;"/>
                    <path id="Roof-Window" serif:id="Roof Window" d="M2267.61,2341.18C2264.07,2349.37 2266.57,2532.84 2268.59,2570.72C2271.71,2629.16 2267.85,2795.13 2273.51,2803.11C2274.71,2804.81 2488.28,2797.6 2529.08,2795.56C2584.3,2792.8 2747.79,2803.44 2753.13,2796.24C2758.21,2789.39 2743.41,2663.13 2742.77,2639.84C2740.81,2568.4 2733.88,2531.07 2729.17,2459.08C2728.1,2442.78 2727.81,2344.94 2729.01,2329.89C2729.5,2323.86 2629.42,2328.93 2619.03,2329.41C2537.77,2333.16 2456.35,2334.65 2375.33,2339.2C2348.39,2340.72 2272.56,2329.71 2267.61,2341.18Z" style="fill:none;stroke:black;stroke-width:21px;stroke-linecap:round;stroke-miterlimit:1.5;"/>
                </g>
            </g>
            <g id="Head">
                <path d="M1938.49,2717.94C1948.36,2717.94 1953.99,2805.11 2010.23,2790.8C2064.84,2776.89 2178.07,2714.04 2229.66,2683.21C2267.78,2660.43 2314.66,2625.22 2317.2,2626.37C2323.64,2629.27 2320.97,2727.62 2328.91,2741.92C2334.73,2752.39 2424.58,2744.72 2438.82,2744.54C2518.94,2743.53 2573.26,2743.9 2649.42,2742.84C2664.51,2742.62 2706.03,2747.63 2708.68,2744.06C2715.41,2734.99 2705.71,2658.35 2703.12,2645.31C2700.56,2632.37 2698.53,2574.58 2696.78,2558.81C2692.59,2521.23 2697.08,2480.91 2691.83,2443.09C2689.55,2426.72 2690.86,2391.85 2684.11,2376.66C2673.92,2353.7 2616.49,2362.76 2614.08,2348.18C2613.53,2344.88 2644.88,2308.95 2620.32,2287.2C2589.93,2260.28 2493.36,2259.71 2492.34,2258.79C2487.72,2254.64 2442.17,2135.01 2401.07,2120.07C2357.48,2104.23 2338.91,2221.58 2331.56,2225.18C2329.68,2226.11 2216.98,2225.97 2215.15,2225.46C2213.91,2225.1 2187.15,2118.45 2134.87,2120.62C2088.27,2122.55 2049.35,2251.05 2038.87,2292.88C2032.53,2318.21 2029.56,2337.08 2015.44,2359.95C1955.21,2457.54 1816.69,2490.82 1803.79,2615.62C1798.5,2666.73 1818.77,2712.74 1868.95,2721.47C1897.52,2726.45 1948.58,2716.95 1938.49,2717.94Z" style="fill:white;stroke:black;stroke-width:21px;stroke-linecap:round;stroke-miterlimit:1.5;"/>
                <path d="M1934.26,2721.8C1944.01,2721.8 1999.76,2696.27 2010.34,2690.98C2025.86,2683.22 2041.82,2678.33 2057.55,2671.25C2091.05,2656.18 2121.76,2636.27 2155.14,2621.25C2181,2609.61 2207.39,2599.66 2217.91,2571.25C2222.04,2560.12 2224.08,2546.89 2228.8,2536.28C2229.16,2535.46 2230.95,2532.67 2229.33,2532.67" style="fill:none;stroke:black;stroke-width:21px;stroke-linecap:round;stroke-miterlimit:1.5;"/>
                <path d="M1837.09,2590.98C1834.49,2587.79 1818.59,2604.05 1816.15,2618.19C1813.81,2631.77 1822,2657.15 1845.18,2644.69C1854.36,2639.75 1856.74,2624.44 1856.74,2614.45C1856.74,2603.97 1852.49,2585.43 1837.09,2590.98Z" style="stroke:black;stroke-width:21px;stroke-linecap:round;stroke-miterlimit:1.5;"/>
                <path d="M1937.28,2616.76C1937.28,2612.73 1920.37,2616.06 1917.4,2620.2C1906.08,2635.97 1911.71,2672.79 1930.1,2669.86C1960.08,2665.09 1953.94,2620.87 1937.28,2616.76Z" style="stroke:black;stroke-width:21px;stroke-linecap:round;stroke-miterlimit:1.5;"/>
                <path d="M2129.55,2177.75C2123.99,2172.75 2112.03,2188.6 2110.46,2191.53C2103.98,2203.69 2100.57,2254.98 2122.44,2256.94C2147.96,2259.24 2163.82,2223.74 2157.97,2202.69C2155.33,2193.19 2140.92,2172.64 2129.55,2177.75Z" style="stroke:black;stroke-width:21px;stroke-linecap:round;stroke-miterlimit:1.5;"/>
                <path d="M2405.15,2177.82C2398.23,2177.82 2390.68,2186.33 2388.26,2192.01C2384.14,2201.64 2381.85,2217.79 2389.28,2226.63C2404.14,2244.31 2421.22,2235.03 2425.52,2217.48C2426.64,2212.94 2429.91,2208.97 2427.08,2201.1C2423.28,2190.57 2414.53,2178.74 2405.15,2177.82Z" style="stroke:black;stroke-width:21px;stroke-linecap:round;stroke-miterlimit:1.5;"/>
                <path d="M2256.31,2180C2244.7,2180 2227.76,2196.42 2220.18,2204.22C2186.9,2238.45 2182.92,2237.62 2174.18,2284.8C2171.07,2301.61 2174.7,2320.87 2191.68,2328.51C2215.26,2339.12 2229.23,2300.51 2236.85,2285.07C2239.24,2280.24 2240.83,2275.38 2242.6,2270.31C2242.68,2270.08 2244.57,2262.85 2245.13,2263.1C2248.68,2264.7 2252.01,2280.12 2253.1,2283.68C2259.73,2305.16 2272.06,2330.95 2297.13,2325.31C2303.11,2323.97 2309.89,2319.8 2312.55,2314.05C2316.97,2304.51 2318.52,2292.29 2317.35,2281.84C2317.32,2281.54 2316.84,2279.55 2317.09,2279.32C2317.38,2279.06 2320.82,2284.31 2321.13,2284.7C2324.16,2288.45 2326.51,2293.23 2330.77,2295.79C2341.15,2302.01 2361.83,2309.86 2365.92,2292.69C2368.18,2283.22 2363.96,2274.3 2360.89,2265.48C2351.33,2237.92 2328.71,2202.83 2301.55,2190.61C2292.7,2186.63 2274.48,2176.01 2264.59,2182.24" style="fill:white;stroke:black;stroke-width:21px;stroke-linecap:round;stroke-miterlimit:1.5;"/>
                <path d="M2583.13,2351.23C2583.19,2351.13 2583.15,2351.08 2583.24,2350.99C2583.34,2350.91 2584.64,2351.71 2585.02,2351.71C2588.96,2351.71 2619.15,2345.84 2616.99,2340.04" style="fill:none;stroke:black;stroke-width:21px;stroke-linecap:round;stroke-miterlimit:1.5;"/>
                <path d="M2325.44,2633.05C2325.44,2632.85 2343.54,2662.66 2349.67,2670.54C2355.73,2678.34 2372.94,2709.06 2378.09,2714.62C2385.26,2722.36 2400.01,2730.35 2398.61,2742.89" style="fill:none;stroke:black;stroke-width:21px;stroke-linecap:round;stroke-miterlimit:1.5;"/>
                <path d="M2493.67,2262.69C2493.2,2262.26 2493.15,2262.93 2492.69,2263.17C2461.31,2278.97 2440.77,2418.23 2491.85,2405.25C2498.07,2403.67 2515.55,2390.39 2515.55,2390.39C2506.96,2393.91 2502.75,2494.09 2526.63,2520.5C2546.59,2542.57 2574.17,2489.49 2573.53,2479.91C2573.39,2477.77 2573.05,2521.62 2572.4,2535.05C2570.45,2575.15 2585.94,2633.61 2604.64,2654.24C2630.86,2683.19 2659.17,2639.49 2654.68,2623.66C2654.12,2621.72 2665.8,2658.05 2669.53,2669.99C2673.32,2682.13 2693.43,2696.57 2704.79,2690.85" style="fill:none;stroke:black;stroke-width:21px;stroke-linecap:round;stroke-miterlimit:1.5;"/>
                <g id="Eyes">
                    <path d="M2130.23,2394.09C2111.85,2394.15 2072.34,2405.53 2070.44,2421.44C2066.75,2452.24 2094.67,2455.75 2115.72,2458.99C2145.96,2463.66 2153.91,2461.37 2180.53,2459.37C2191.38,2458.56 2205.67,2457.66 2215.23,2451.92C2235.61,2439.69 2230.3,2416.92 2215.31,2404.26C2199.38,2390.82 2162.42,2393.99 2130.23,2394.09Z" style="fill:white;stroke:black;stroke-width:21px;stroke-linecap:round;stroke-miterlimit:1.5;"/>
                    <path d="M2351.67,2392.39C2328.78,2395.65 2293.52,2411.27 2287.61,2419.03C2276.24,2433.96 2273.67,2450.3 2297.78,2460.9C2315.88,2468.86 2353.13,2464.44 2372.27,2461.85C2393.88,2458.94 2415.13,2456.11 2432.52,2442.02C2446.33,2430.83 2448.6,2409.13 2431.84,2398.48C2420.39,2391.21 2375.71,2388.97 2351.67,2392.39Z" style="fill:white;stroke:black;stroke-width:21px;stroke-linecap:round;stroke-miterlimit:1.5;"/>
                    <path d="M2115.57,2402.7C2108.79,2404.22 2101.66,2400.3 2093.57,2403.28C2055.18,2417.41 2090.16,2453.39 2116.06,2447.57C2136.46,2442.98 2136.2,2418.5 2119.95,2408.75" style="stroke:black;stroke-width:21px;stroke-linecap:round;stroke-miterlimit:1.5;"/>
                    <path d="M2326.27,2413.11C2313.08,2413.11 2306.47,2408.96 2293.77,2421C2277.05,2436.84 2304.78,2451.43 2318.11,2452.23C2332.77,2453.11 2342.81,2428.07 2331.11,2419.16" style="stroke:black;stroke-width:21px;stroke-linecap:round;stroke-miterlimit:1.5;"/>
                </g>
            </g>
        </g>
    </g>
</svg>
